  0
SECTION
  2
HEADER
  9
$ANGBASE
  50
0.0
  9
$ANGDIR
  70
1
  9
$MEASUREMENT
  70
1
  0
ENDSEC
  0
SECTION
  2
TABLES
  0
TABLE
  2
LTYPE
  70
4
  0
LTYPE
  5
40F
  2
CONTINUOUS
  70
0
  3
Solid line
  72
65
  73
0
  40
0.0
  0
LTYPE
  5
410
  2
DASHDOT
 70
0
  3
Dash Dot ____ _ ____ _
 72
65
 73
4
 40
2.0
 49
1.25
 49
-0.25
 49
0.25
 49
-0.25
  0
LTYPE
  5
411
  2
DASHED
 70
0
  3
Dashed __ __ __ __ __
 72
65
 73
2
 40
0.75
 49
0.5
 49
-0.25
  0
LTYPE
  5
43B
  2
DOTTED
 70
0
  3
Dotted .  .  .  .
 72
65
 73
2
 40
0.2
 49
0.0
 49
-0.2
  0
ENDTAB
  0
TABLE
  2
STYLE
  70
4
  0
STYLE
  2
KICAD
  70
0
  40
0
  41
1
  42
1
  50
0
  71
0
  3
isocp.shx
  0
STYLE
  2
KICADB
  70
0
  40
0
  41
1
  42
1
  50
0
  71
0
  3
isocp.shx
  0
STYLE
  2
KICADI
  70
0
  40
0
  41
1
  42
1
  50
15
  71
0
  3
isocp.shx
  0
STYLE
  2
KICADBI
  70
0
  40
0
  41
1
  42
1
  50
15
  71
0
  3
isocp.shx
  0
ENDTAB
  0
TABLE
  2
LAYER
  70
1
  0
LAYER
  2
BLACK
  70
0
  62
7
  6
CONTINUOUS
  0
ENDTAB
  0
ENDSEC
  0
SECTION
  2
ENTITIES
0
ARC
8
BLACK
10
46.863
20
-62.738
40
3.175
50
90
51
180
0
ARC
8
BLACK
10
46.863
20
-187.325
40
3.175
50
180
51
270
0
ARC
8
BLACK
10
129.54
20
-187.325
40
3.175
50
-90
51
-0
0
ARC
8
BLACK
10
129.54
20
-62.738
40
3.175
50
-0
51
90
0
LINE
8
BLACK
6
CONTINUOUS
10
43.688
20
-187.325
11
43.688
21
-62.738
0
LINE
8
BLACK
6
CONTINUOUS
10
129.54
20
-190.5
11
46.863
21
-190.5
0
LINE
8
BLACK
6
CONTINUOUS
10
132.715
20
-62.738
11
132.715
21
-187.325
0
LINE
8
BLACK
6
CONTINUOUS
10
46.863
20
-59.563
11
129.54
21
-59.563
0
LINE
8
BLACK
6
CONTINUOUS
10
72.785
20
-173.369
11
74.535
21
-175.119
0
LINE
8
BLACK
6
CONTINUOUS
10
74.535
20
-173.369
11
72.785
21
-175.119
0
LINE
8
BLACK
6
CONTINUOUS
10
82.945
20
-173.369
11
84.695
21
-175.119
0
LINE
8
BLACK
6
CONTINUOUS
10
84.695
20
-173.369
11
82.945
21
-175.119
0
LINE
8
BLACK
6
CONTINUOUS
10
72.785
20
-116.219
11
74.535
21
-117.969
0
LINE
8
BLACK
6
CONTINUOUS
10
74.535
20
-116.219
11
72.785
21
-117.969
0
LINE
8
BLACK
6
CONTINUOUS
10
82.945
20
-116.219
11
84.695
21
-117.969
0
LINE
8
BLACK
6
CONTINUOUS
10
84.695
20
-116.219
11
82.945
21
-117.969
0
LINE
8
BLACK
6
CONTINUOUS
10
110.885
20
-135.269
11
112.635
21
-137.019
0
LINE
8
BLACK
6
CONTINUOUS
10
112.635
20
-135.269
11
110.885
21
-137.019
0
LINE
8
BLACK
6
CONTINUOUS
10
121.045
20
-135.269
11
122.795
21
-137.019
0
LINE
8
BLACK
6
CONTINUOUS
10
122.795
20
-135.269
11
121.045
21
-137.019
0
LINE
8
BLACK
6
CONTINUOUS
10
53.735
20
-116.219
11
55.485
21
-117.969
0
LINE
8
BLACK
6
CONTINUOUS
10
55.485
20
-116.219
11
53.735
21
-117.969
0
LINE
8
BLACK
6
CONTINUOUS
10
63.895
20
-116.219
11
65.645
21
-117.969
0
LINE
8
BLACK
6
CONTINUOUS
10
65.645
20
-116.219
11
63.895
21
-117.969
0
LINE
8
BLACK
6
CONTINUOUS
10
53.735
20
-135.269
11
55.485
21
-137.019
0
LINE
8
BLACK
6
CONTINUOUS
10
55.485
20
-135.269
11
53.735
21
-137.019
0
LINE
8
BLACK
6
CONTINUOUS
10
63.895
20
-135.269
11
65.645
21
-137.019
0
LINE
8
BLACK
6
CONTINUOUS
10
65.645
20
-135.269
11
63.895
21
-137.019
0
LINE
8
BLACK
6
CONTINUOUS
10
72.785
20
-154.319
11
74.535
21
-156.069
0
LINE
8
BLACK
6
CONTINUOUS
10
74.535
20
-154.319
11
72.785
21
-156.069
0
LINE
8
BLACK
6
CONTINUOUS
10
82.945
20
-154.319
11
84.695
21
-156.069
0
LINE
8
BLACK
6
CONTINUOUS
10
84.695
20
-154.319
11
82.945
21
-156.069
0
LINE
8
BLACK
6
CONTINUOUS
10
91.835
20
-173.369
11
93.585
21
-175.119
0
LINE
8
BLACK
6
CONTINUOUS
10
93.585
20
-173.369
11
91.835
21
-175.119
0
LINE
8
BLACK
6
CONTINUOUS
10
101.995
20
-173.369
11
103.745
21
-175.119
0
LINE
8
BLACK
6
CONTINUOUS
10
103.745
20
-173.369
11
101.995
21
-175.119
0
LINE
8
BLACK
6
CONTINUOUS
10
91.835
20
-154.319
11
93.585
21
-156.069
0
LINE
8
BLACK
6
CONTINUOUS
10
93.585
20
-154.319
11
91.835
21
-156.069
0
LINE
8
BLACK
6
CONTINUOUS
10
101.995
20
-154.319
11
103.745
21
-156.069
0
LINE
8
BLACK
6
CONTINUOUS
10
103.745
20
-154.319
11
101.995
21
-156.069
0
LINE
8
BLACK
6
CONTINUOUS
10
110.885
20
-173.369
11
112.635
21
-175.119
0
LINE
8
BLACK
6
CONTINUOUS
10
112.635
20
-173.369
11
110.885
21
-175.119
0
LINE
8
BLACK
6
CONTINUOUS
10
121.045
20
-173.369
11
122.795
21
-175.119
0
LINE
8
BLACK
6
CONTINUOUS
10
122.795
20
-173.369
11
121.045
21
-175.119
0
LINE
8
BLACK
6
CONTINUOUS
10
110.885
20
-116.219
11
112.635
21
-117.969
0
LINE
8
BLACK
6
CONTINUOUS
10
112.635
20
-116.219
11
110.885
21
-117.969
0
LINE
8
BLACK
6
CONTINUOUS
10
121.045
20
-116.219
11
122.795
21
-117.969
0
LINE
8
BLACK
6
CONTINUOUS
10
122.795
20
-116.219
11
121.045
21
-117.969
0
LINE
8
BLACK
6
CONTINUOUS
10
91.835
20
-135.269
11
93.585
21
-137.019
0
LINE
8
BLACK
6
CONTINUOUS
10
93.585
20
-135.269
11
91.835
21
-137.019
0
LINE
8
BLACK
6
CONTINUOUS
10
101.995
20
-135.269
11
103.745
21
-137.019
0
LINE
8
BLACK
6
CONTINUOUS
10
103.745
20
-135.269
11
101.995
21
-137.019
0
LINE
8
BLACK
6
CONTINUOUS
10
110.885
20
-97.169
11
112.635
21
-98.919
0
LINE
8
BLACK
6
CONTINUOUS
10
112.635
20
-97.169
11
110.885
21
-98.919
0
LINE
8
BLACK
6
CONTINUOUS
10
121.045
20
-97.169
11
122.795
21
-98.919
0
LINE
8
BLACK
6
CONTINUOUS
10
122.795
20
-97.169
11
121.045
21
-98.919
0
LINE
8
BLACK
6
CONTINUOUS
10
91.835
20
-116.219
11
93.585
21
-117.969
0
LINE
8
BLACK
6
CONTINUOUS
10
93.585
20
-116.219
11
91.835
21
-117.969
0
LINE
8
BLACK
6
CONTINUOUS
10
101.995
20
-116.219
11
103.745
21
-117.969
0
LINE
8
BLACK
6
CONTINUOUS
10
103.745
20
-116.219
11
101.995
21
-117.969
0
LINE
8
BLACK
6
CONTINUOUS
10
53.735
20
-97.169
11
55.485
21
-98.919
0
LINE
8
BLACK
6
CONTINUOUS
10
55.485
20
-97.169
11
53.735
21
-98.919
0
LINE
8
BLACK
6
CONTINUOUS
10
63.895
20
-97.169
11
65.645
21
-98.919
0
LINE
8
BLACK
6
CONTINUOUS
10
65.645
20
-97.169
11
63.895
21
-98.919
0
LINE
8
BLACK
6
CONTINUOUS
10
53.735
20
-154.319
11
55.485
21
-156.069
0
LINE
8
BLACK
6
CONTINUOUS
10
55.485
20
-154.319
11
53.735
21
-156.069
0
LINE
8
BLACK
6
CONTINUOUS
10
63.895
20
-154.319
11
65.645
21
-156.069
0
LINE
8
BLACK
6
CONTINUOUS
10
65.645
20
-154.319
11
63.895
21
-156.069
0
LINE
8
BLACK
6
CONTINUOUS
10
91.835
20
-97.169
11
93.585
21
-98.919
0
LINE
8
BLACK
6
CONTINUOUS
10
93.585
20
-97.169
11
91.835
21
-98.919
0
LINE
8
BLACK
6
CONTINUOUS
10
101.995
20
-97.169
11
103.745
21
-98.919
0
LINE
8
BLACK
6
CONTINUOUS
10
103.745
20
-97.169
11
101.995
21
-98.919
0
LINE
8
BLACK
6
CONTINUOUS
10
72.785
20
-97.169
11
74.535
21
-98.919
0
LINE
8
BLACK
6
CONTINUOUS
10
74.535
20
-97.169
11
72.785
21
-98.919
0
LINE
8
BLACK
6
CONTINUOUS
10
82.945
20
-97.169
11
84.695
21
-98.919
0
LINE
8
BLACK
6
CONTINUOUS
10
84.695
20
-97.169
11
82.945
21
-98.919
0
LINE
8
BLACK
6
CONTINUOUS
10
110.885
20
-154.319
11
112.635
21
-156.069
0
LINE
8
BLACK
6
CONTINUOUS
10
112.635
20
-154.319
11
110.885
21
-156.069
0
LINE
8
BLACK
6
CONTINUOUS
10
121.045
20
-154.319
11
122.795
21
-156.069
0
LINE
8
BLACK
6
CONTINUOUS
10
122.795
20
-154.319
11
121.045
21
-156.069
0
LINE
8
BLACK
6
CONTINUOUS
10
53.735
20
-173.369
11
55.485
21
-175.119
0
LINE
8
BLACK
6
CONTINUOUS
10
55.485
20
-173.369
11
53.735
21
-175.119
0
LINE
8
BLACK
6
CONTINUOUS
10
63.895
20
-173.369
11
65.645
21
-175.119
0
LINE
8
BLACK
6
CONTINUOUS
10
65.645
20
-173.369
11
63.895
21
-175.119
0
LINE
8
BLACK
6
CONTINUOUS
10
72.785
20
-135.269
11
74.535
21
-137.019
0
LINE
8
BLACK
6
CONTINUOUS
10
74.535
20
-135.269
11
72.785
21
-137.019
0
LINE
8
BLACK
6
CONTINUOUS
10
82.945
20
-135.269
11
84.695
21
-137.019
0
LINE
8
BLACK
6
CONTINUOUS
10
84.695
20
-135.269
11
82.945
21
-137.019
0
CIRCLE
8
BLACK
10
114.3
20
-160.274
40
1.5
0
CIRCLE
8
BLACK
10
120.65
20
-157.734
40
1.5
0
CIRCLE
8
BLACK
10
57.15
20
-179.324
40
1.5
0
CIRCLE
8
BLACK
10
63.5
20
-176.784
40
1.5
0
CIRCLE
8
BLACK
10
76.2
20
-141.224
40
1.5
0
CIRCLE
8
BLACK
10
82.55
20
-138.684
40
1.5
0
CIRCLE
8
BLACK
10
76.2
20
-179.324
40
1.5
0
CIRCLE
8
BLACK
10
82.55
20
-176.784
40
1.5
0
CIRCLE
8
BLACK
10
76.2
20
-122.174
40
1.5
0
CIRCLE
8
BLACK
10
82.55
20
-119.634
40
1.5
0
CIRCLE
8
BLACK
10
114.3
20
-141.224
40
1.5
0
CIRCLE
8
BLACK
10
120.65
20
-138.684
40
1.5
0
CIRCLE
8
BLACK
10
57.15
20
-122.174
40
1.5
0
CIRCLE
8
BLACK
10
63.5
20
-119.634
40
1.5
0
CIRCLE
8
BLACK
10
57.15
20
-141.224
40
1.5
0
CIRCLE
8
BLACK
10
63.5
20
-138.684
40
1.5
0
CIRCLE
8
BLACK
10
76.2
20
-160.274
40
1.5
0
CIRCLE
8
BLACK
10
82.55
20
-157.734
40
1.5
0
CIRCLE
8
BLACK
10
95.25
20
-179.324
40
1.5
0
CIRCLE
8
BLACK
10
101.6
20
-176.784
40
1.5
0
CIRCLE
8
BLACK
10
95.25
20
-160.274
40
1.5
0
CIRCLE
8
BLACK
10
101.6
20
-157.734
40
1.5
0
CIRCLE
8
BLACK
10
114.3
20
-179.324
40
1.5
0
CIRCLE
8
BLACK
10
120.65
20
-176.784
40
1.5
0
CIRCLE
8
BLACK
10
114.3
20
-122.174
40
1.5
0
CIRCLE
8
BLACK
10
120.65
20
-119.634
40
1.5
0
CIRCLE
8
BLACK
10
95.25
20
-141.224
40
1.5
0
CIRCLE
8
BLACK
10
101.6
20
-138.684
40
1.5
0
CIRCLE
8
BLACK
10
114.3
20
-103.124
40
1.5
0
CIRCLE
8
BLACK
10
120.65
20
-100.584
40
1.5
0
CIRCLE
8
BLACK
10
95.25
20
-122.174
40
1.5
0
CIRCLE
8
BLACK
10
101.6
20
-119.634
40
1.5
0
CIRCLE
8
BLACK
10
57.15
20
-103.124
40
1.5
0
CIRCLE
8
BLACK
10
63.5
20
-100.584
40
1.5
0
CIRCLE
8
BLACK
10
57.15
20
-160.274
40
1.5
0
CIRCLE
8
BLACK
10
63.5
20
-157.734
40
1.5
0
CIRCLE
8
BLACK
10
95.25
20
-103.124
40
1.5
0
CIRCLE
8
BLACK
10
101.6
20
-100.584
40
1.5
0
CIRCLE
8
BLACK
10
76.2
20
-103.124
40
1.5
0
CIRCLE
8
BLACK
10
82.55
20
-100.584
40
1.5
0
LINE
8
BLACK
6
CONTINUOUS
10
78.74
20
-153.194
11
78.74
21
-157.194
0
LINE
8
BLACK
6
CONTINUOUS
10
76.74
20
-155.194
11
80.74
21
-155.194
0
LINE
8
BLACK
6
CONTINUOUS
10
97.79
20
-172.244
11
97.79
21
-176.244
0
LINE
8
BLACK
6
CONTINUOUS
10
95.79
20
-174.244
11
99.79
21
-174.244
0
LINE
8
BLACK
6
CONTINUOUS
10
97.79
20
-153.194
11
97.79
21
-157.194
0
LINE
8
BLACK
6
CONTINUOUS
10
95.79
20
-155.194
11
99.79
21
-155.194
0
LINE
8
BLACK
6
CONTINUOUS
10
116.84
20
-172.244
11
116.84
21
-176.244
0
LINE
8
BLACK
6
CONTINUOUS
10
114.84
20
-174.244
11
118.84
21
-174.244
0
LINE
8
BLACK
6
CONTINUOUS
10
116.84
20
-115.094
11
116.84
21
-119.094
0
LINE
8
BLACK
6
CONTINUOUS
10
114.84
20
-117.094
11
118.84
21
-117.094
0
LINE
8
BLACK
6
CONTINUOUS
10
97.79
20
-134.144
11
97.79
21
-138.144
0
LINE
8
BLACK
6
CONTINUOUS
10
95.79
20
-136.144
11
99.79
21
-136.144
0
LINE
8
BLACK
6
CONTINUOUS
10
116.84
20
-96.044
11
116.84
21
-100.044
0
LINE
8
BLACK
6
CONTINUOUS
10
114.84
20
-98.044
11
118.84
21
-98.044
0
LINE
8
BLACK
6
CONTINUOUS
10
97.79
20
-115.094
11
97.79
21
-119.094
0
LINE
8
BLACK
6
CONTINUOUS
10
95.79
20
-117.094
11
99.79
21
-117.094
0
LINE
8
BLACK
6
CONTINUOUS
10
59.69
20
-96.044
11
59.69
21
-100.044
0
LINE
8
BLACK
6
CONTINUOUS
10
57.69
20
-98.044
11
61.69
21
-98.044
0
LINE
8
BLACK
6
CONTINUOUS
10
59.69
20
-153.194
11
59.69
21
-157.194
0
LINE
8
BLACK
6
CONTINUOUS
10
57.69
20
-155.194
11
61.69
21
-155.194
0
LINE
8
BLACK
6
CONTINUOUS
10
97.79
20
-96.044
11
97.79
21
-100.044
0
LINE
8
BLACK
6
CONTINUOUS
10
95.79
20
-98.044
11
99.79
21
-98.044
0
LINE
8
BLACK
6
CONTINUOUS
10
78.74
20
-96.044
11
78.74
21
-100.044
0
LINE
8
BLACK
6
CONTINUOUS
10
76.74
20
-98.044
11
80.74
21
-98.044
0
LINE
8
BLACK
6
CONTINUOUS
10
116.84
20
-153.194
11
116.84
21
-157.194
0
LINE
8
BLACK
6
CONTINUOUS
10
114.84
20
-155.194
11
118.84
21
-155.194
0
LINE
8
BLACK
6
CONTINUOUS
10
59.69
20
-172.244
11
59.69
21
-176.244
0
LINE
8
BLACK
6
CONTINUOUS
10
57.69
20
-174.244
11
61.69
21
-174.244
0
LINE
8
BLACK
6
CONTINUOUS
10
78.74
20
-134.144
11
78.74
21
-138.144
0
LINE
8
BLACK
6
CONTINUOUS
10
76.74
20
-136.144
11
80.74
21
-136.144
0
LINE
8
BLACK
6
CONTINUOUS
10
78.74
20
-172.244
11
78.74
21
-176.244
0
LINE
8
BLACK
6
CONTINUOUS
10
76.74
20
-174.244
11
80.74
21
-174.244
0
LINE
8
BLACK
6
CONTINUOUS
10
78.74
20
-115.094
11
78.74
21
-119.094
0
LINE
8
BLACK
6
CONTINUOUS
10
76.74
20
-117.094
11
80.74
21
-117.094
0
LINE
8
BLACK
6
CONTINUOUS
10
116.84
20
-134.144
11
116.84
21
-138.144
0
LINE
8
BLACK
6
CONTINUOUS
10
114.84
20
-136.144
11
118.84
21
-136.144
0
LINE
8
BLACK
6
CONTINUOUS
10
59.69
20
-115.094
11
59.69
21
-119.094
0
LINE
8
BLACK
6
CONTINUOUS
10
57.69
20
-117.094
11
61.69
21
-117.094
0
LINE
8
BLACK
6
CONTINUOUS
10
59.69
20
-134.144
11
59.69
21
-138.144
0
LINE
8
BLACK
6
CONTINUOUS
10
57.69
20
-136.144
11
61.69
21
-136.144
0
LINE
8
BLACK
6
CONTINUOUS
10
46.5273
20
-195.182
11
46.5273
21
-192.182
0
LINE
8
BLACK
6
CONTINUOUS
10
46.5273
20
-192.182
11
47.2416
21
-192.182
0
LINE
8
BLACK
6
CONTINUOUS
10
47.2416
20
-192.182
11
47.6701
21
-192.325
0
LINE
8
BLACK
6
CONTINUOUS
10
47.6701
20
-192.325
11
47.9559
21
-192.611
0
LINE
8
BLACK
6
CONTINUOUS
10
47.9559
20
-192.611
11
48.0987
21
-192.896
0
LINE
8
BLACK
6
CONTINUOUS
10
48.0987
20
-192.896
11
48.2416
21
-193.468
0
LINE
8
BLACK
6
CONTINUOUS
10
48.2416
20
-193.468
11
48.2416
21
-193.896
0
LINE
8
BLACK
6
CONTINUOUS
10
48.2416
20
-193.896
11
48.0987
21
-194.468
0
LINE
8
BLACK
6
CONTINUOUS
10
48.0987
20
-194.468
11
47.9559
21
-194.754
0
LINE
8
BLACK
6
CONTINUOUS
10
47.9559
20
-194.754
11
47.6701
21
-195.039
0
LINE
8
BLACK
6
CONTINUOUS
10
47.6701
20
-195.039
11
47.2416
21
-195.182
0
LINE
8
BLACK
6
CONTINUOUS
10
47.2416
20
-195.182
11
46.5273
21
-195.182
0
LINE
8
BLACK
6
CONTINUOUS
10
49.5273
20
-195.182
11
49.5273
21
-193.182
0
LINE
8
BLACK
6
CONTINUOUS
10
49.5273
20
-193.754
11
49.6701
21
-193.468
0
LINE
8
BLACK
6
CONTINUOUS
10
49.6701
20
-193.468
11
49.813
21
-193.325
0
LINE
8
BLACK
6
CONTINUOUS
10
49.813
20
-193.325
11
50.0987
21
-193.182
0
LINE
8
BLACK
6
CONTINUOUS
10
50.0987
20
-193.182
11
50.3844
21
-193.182
0
LINE
8
BLACK
6
CONTINUOUS
10
51.3844
20
-195.182
11
51.3844
21
-193.182
0
LINE
8
BLACK
6
CONTINUOUS
10
51.3844
20
-192.182
11
51.2416
21
-192.325
0
LINE
8
BLACK
6
CONTINUOUS
10
51.2416
20
-192.325
11
51.3844
21
-192.468
0
LINE
8
BLACK
6
CONTINUOUS
10
51.3844
20
-192.468
11
51.5273
21
-192.325
0
LINE
8
BLACK
6
CONTINUOUS
10
51.5273
20
-192.325
11
51.3844
21
-192.182
0
LINE
8
BLACK
6
CONTINUOUS
10
51.3844
20
-192.182
11
51.3844
21
-192.468
0
LINE
8
BLACK
6
CONTINUOUS
10
53.2416
20
-195.182
11
52.9559
21
-195.039
0
LINE
8
BLACK
6
CONTINUOUS
10
52.9559
20
-195.039
11
52.813
21
-194.754
0
LINE
8
BLACK
6
CONTINUOUS
10
52.813
20
-194.754
11
52.813
21
-192.182
0
LINE
8
BLACK
6
CONTINUOUS
10
54.813
20
-195.182
11
54.5273
21
-195.039
0
LINE
8
BLACK
6
CONTINUOUS
10
54.5273
20
-195.039
11
54.3844
21
-194.754
0
LINE
8
BLACK
6
CONTINUOUS
10
54.3844
20
-194.754
11
54.3844
21
-192.182
0
LINE
8
BLACK
6
CONTINUOUS
10
58.2416
20
-195.182
11
58.2416
21
-192.182
0
LINE
8
BLACK
6
CONTINUOUS
10
58.2416
20
-192.182
11
59.2416
21
-194.325
0
LINE
8
BLACK
6
CONTINUOUS
10
59.2416
20
-194.325
11
60.2416
21
-192.182
0
LINE
8
BLACK
6
CONTINUOUS
10
60.2416
20
-192.182
11
60.2416
21
-195.182
0
LINE
8
BLACK
6
CONTINUOUS
10
62.9559
20
-195.182
11
62.9559
21
-193.611
0
LINE
8
BLACK
6
CONTINUOUS
10
62.9559
20
-193.611
11
62.813
21
-193.325
0
LINE
8
BLACK
6
CONTINUOUS
10
62.813
20
-193.325
11
62.5273
21
-193.182
0
LINE
8
BLACK
6
CONTINUOUS
10
62.5273
20
-193.182
11
61.9559
21
-193.182
0
LINE
8
BLACK
6
CONTINUOUS
10
61.9559
20
-193.182
11
61.6701
21
-193.325
0
LINE
8
BLACK
6
CONTINUOUS
10
62.9559
20
-195.039
11
62.6701
21
-195.182
0
LINE
8
BLACK
6
CONTINUOUS
10
62.6701
20
-195.182
11
61.9559
21
-195.182
0
LINE
8
BLACK
6
CONTINUOUS
10
61.9559
20
-195.182
11
61.6701
21
-195.039
0
LINE
8
BLACK
6
CONTINUOUS
10
61.6701
20
-195.039
11
61.5273
21
-194.754
0
LINE
8
BLACK
6
CONTINUOUS
10
61.5273
20
-194.754
11
61.5273
21
-194.468
0
LINE
8
BLACK
6
CONTINUOUS
10
61.5273
20
-194.468
11
61.6701
21
-194.182
0
LINE
8
BLACK
6
CONTINUOUS
10
61.6701
20
-194.182
11
61.9559
21
-194.039
0
LINE
8
BLACK
6
CONTINUOUS
10
61.9559
20
-194.039
11
62.6701
21
-194.039
0
LINE
8
BLACK
6
CONTINUOUS
10
62.6701
20
-194.039
11
62.9559
21
-193.896
0
LINE
8
BLACK
6
CONTINUOUS
10
64.3844
20
-193.182
11
64.3844
21
-196.182
0
LINE
8
BLACK
6
CONTINUOUS
10
64.3844
20
-193.325
11
64.6701
21
-193.182
0
LINE
8
BLACK
6
CONTINUOUS
10
64.6701
20
-193.182
11
65.2416
21
-193.182
0
LINE
8
BLACK
6
CONTINUOUS
10
65.2416
20
-193.182
11
65.5273
21
-193.325
0
LINE
8
BLACK
6
CONTINUOUS
10
65.5273
20
-193.325
11
65.6701
21
-193.468
0
LINE
8
BLACK
6
CONTINUOUS
10
65.6701
20
-193.468
11
65.813
21
-193.754
0
LINE
8
BLACK
6
CONTINUOUS
10
65.813
20
-193.754
11
65.813
21
-194.611
0
LINE
8
BLACK
6
CONTINUOUS
10
65.813
20
-194.611
11
65.6701
21
-194.896
0
LINE
8
BLACK
6
CONTINUOUS
10
65.6701
20
-194.896
11
65.5273
21
-195.039
0
LINE
8
BLACK
6
CONTINUOUS
10
65.5273
20
-195.039
11
65.2416
21
-195.182
0
LINE
8
BLACK
6
CONTINUOUS
10
65.2416
20
-195.182
11
64.6701
21
-195.182
0
LINE
8
BLACK
6
CONTINUOUS
10
64.6701
20
-195.182
11
64.3844
21
-195.039
0
LINE
8
BLACK
6
CONTINUOUS
10
67.0987
20
-194.896
11
67.2416
21
-195.039
0
LINE
8
BLACK
6
CONTINUOUS
10
67.2416
20
-195.039
11
67.0987
21
-195.182
0
LINE
8
BLACK
6
CONTINUOUS
10
67.0987
20
-195.182
11
66.9559
21
-195.039
0
LINE
8
BLACK
6
CONTINUOUS
10
66.9559
20
-195.039
11
67.0987
21
-194.896
0
LINE
8
BLACK
6
CONTINUOUS
10
67.0987
20
-194.896
11
67.0987
21
-195.182
0
LINE
8
BLACK
6
CONTINUOUS
10
67.0987
20
-193.325
11
67.2416
21
-193.468
0
LINE
8
BLACK
6
CONTINUOUS
10
67.2416
20
-193.468
11
67.0987
21
-193.611
0
LINE
8
BLACK
6
CONTINUOUS
10
67.0987
20
-193.611
11
66.9559
21
-193.468
0
LINE
8
BLACK
6
CONTINUOUS
10
66.9559
20
-193.468
11
67.0987
21
-193.325
0
LINE
8
BLACK
6
CONTINUOUS
10
67.0987
20
-193.325
11
67.0987
21
-193.611
0
LINE
8
BLACK
6
CONTINUOUS
10
41.913
20
-199.25
11
43.663
21
-201
0
LINE
8
BLACK
6
CONTINUOUS
10
43.663
20
-199.25
11
41.913
21
-201
0
LINE
8
BLACK
6
CONTINUOUS
10
48.0987
20
-201.482
11
46.3844
21
-201.482
0
LINE
8
BLACK
6
CONTINUOUS
10
47.2416
20
-201.482
11
47.2416
21
-198.482
0
LINE
8
BLACK
6
CONTINUOUS
10
47.2416
20
-198.482
11
46.9559
21
-198.911
0
LINE
8
BLACK
6
CONTINUOUS
10
46.9559
20
-198.911
11
46.6701
21
-199.196
0
LINE
8
BLACK
6
CONTINUOUS
10
46.6701
20
-199.196
11
46.3844
21
-199.339
0
LINE
8
BLACK
6
CONTINUOUS
10
49.3844
20
-201.196
11
49.5273
21
-201.339
0
LINE
8
BLACK
6
CONTINUOUS
10
49.5273
20
-201.339
11
49.3844
21
-201.482
0
LINE
8
BLACK
6
CONTINUOUS
10
49.3844
20
-201.482
11
49.2416
21
-201.339
0
LINE
8
BLACK
6
CONTINUOUS
10
49.2416
20
-201.339
11
49.3844
21
-201.196
0
LINE
8
BLACK
6
CONTINUOUS
10
49.3844
20
-201.196
11
49.3844
21
-201.482
0
LINE
8
BLACK
6
CONTINUOUS
10
50.5273
20
-198.482
11
52.5273
21
-198.482
0
LINE
8
BLACK
6
CONTINUOUS
10
52.5273
20
-198.482
11
51.2416
21
-201.482
0
LINE
8
BLACK
6
CONTINUOUS
10
55.0987
20
-198.482
11
53.6701
21
-198.482
0
LINE
8
BLACK
6
CONTINUOUS
10
53.6701
20
-198.482
11
53.5273
21
-199.911
0
LINE
8
BLACK
6
CONTINUOUS
10
53.5273
20
-199.911
11
53.6701
21
-199.768
0
LINE
8
BLACK
6
CONTINUOUS
10
53.6701
20
-199.768
11
53.9559
21
-199.625
0
LINE
8
BLACK
6
CONTINUOUS
10
53.9559
20
-199.625
11
54.6701
21
-199.625
0
LINE
8
BLACK
6
CONTINUOUS
10
54.6701
20
-199.625
11
54.9559
21
-199.768
0
LINE
8
BLACK
6
CONTINUOUS
10
54.9559
20
-199.768
11
55.0987
21
-199.911
0
LINE
8
BLACK
6
CONTINUOUS
10
55.0987
20
-199.911
11
55.2416
21
-200.196
0
LINE
8
BLACK
6
CONTINUOUS
10
55.2416
20
-200.196
11
55.2416
21
-200.911
0
LINE
8
BLACK
6
CONTINUOUS
10
55.2416
20
-200.911
11
55.0987
21
-201.196
0
LINE
8
BLACK
6
CONTINUOUS
10
55.0987
20
-201.196
11
54.9559
21
-201.339
0
LINE
8
BLACK
6
CONTINUOUS
10
54.9559
20
-201.339
11
54.6701
21
-201.482
0
LINE
8
BLACK
6
CONTINUOUS
10
54.6701
20
-201.482
11
53.9559
21
-201.482
0
LINE
8
BLACK
6
CONTINUOUS
10
53.9559
20
-201.482
11
53.6701
21
-201.339
0
LINE
8
BLACK
6
CONTINUOUS
10
53.6701
20
-201.339
11
53.5273
21
-201.196
0
LINE
8
BLACK
6
CONTINUOUS
10
56.5273
20
-201.482
11
56.5273
21
-199.482
0
LINE
8
BLACK
6
CONTINUOUS
10
56.5273
20
-199.768
11
56.6701
21
-199.625
0
LINE
8
BLACK
6
CONTINUOUS
10
56.6701
20
-199.625
11
56.9559
21
-199.482
0
LINE
8
BLACK
6
CONTINUOUS
10
56.9559
20
-199.482
11
57.3844
21
-199.482
0
LINE
8
BLACK
6
CONTINUOUS
10
57.3844
20
-199.482
11
57.6701
21
-199.625
0
LINE
8
BLACK
6
CONTINUOUS
10
57.6701
20
-199.625
11
57.813
21
-199.911
0
LINE
8
BLACK
6
CONTINUOUS
10
57.813
20
-199.911
11
57.813
21
-201.482
0
LINE
8
BLACK
6
CONTINUOUS
10
57.813
20
-199.911
11
57.9559
21
-199.625
0
LINE
8
BLACK
6
CONTINUOUS
10
57.9559
20
-199.625
11
58.2416
21
-199.482
0
LINE
8
BLACK
6
CONTINUOUS
10
58.2416
20
-199.482
11
58.6701
21
-199.482
0
LINE
8
BLACK
6
CONTINUOUS
10
58.6701
20
-199.482
11
58.9559
21
-199.625
0
LINE
8
BLACK
6
CONTINUOUS
10
58.9559
20
-199.625
11
59.0987
21
-199.911
0
LINE
8
BLACK
6
CONTINUOUS
10
59.0987
20
-199.911
11
59.0987
21
-201.482
0
LINE
8
BLACK
6
CONTINUOUS
10
60.5273
20
-201.482
11
60.5273
21
-199.482
0
LINE
8
BLACK
6
CONTINUOUS
10
60.5273
20
-199.768
11
60.6701
21
-199.625
0
LINE
8
BLACK
6
CONTINUOUS
10
60.6701
20
-199.625
11
60.9559
21
-199.482
0
LINE
8
BLACK
6
CONTINUOUS
10
60.9559
20
-199.482
11
61.3844
21
-199.482
0
LINE
8
BLACK
6
CONTINUOUS
10
61.3844
20
-199.482
11
61.6701
21
-199.625
0
LINE
8
BLACK
6
CONTINUOUS
10
61.6701
20
-199.625
11
61.813
21
-199.911
0
LINE
8
BLACK
6
CONTINUOUS
10
61.813
20
-199.911
11
61.813
21
-201.482
0
LINE
8
BLACK
6
CONTINUOUS
10
61.813
20
-199.911
11
61.9559
21
-199.625
0
LINE
8
BLACK
6
CONTINUOUS
10
61.9559
20
-199.625
11
62.2416
21
-199.482
0
LINE
8
BLACK
6
CONTINUOUS
10
62.2416
20
-199.482
11
62.6701
21
-199.482
0
LINE
8
BLACK
6
CONTINUOUS
10
62.6701
20
-199.482
11
62.9559
21
-199.625
0
LINE
8
BLACK
6
CONTINUOUS
10
62.9559
20
-199.625
11
63.0987
21
-199.911
0
LINE
8
BLACK
6
CONTINUOUS
10
63.0987
20
-199.911
11
63.0987
21
-201.482
0
LINE
8
BLACK
6
CONTINUOUS
10
68.9559
20
-198.339
11
66.3844
21
-202.196
0
LINE
8
BLACK
6
CONTINUOUS
10
72.813
20
-198.482
11
73.0987
21
-198.482
0
LINE
8
BLACK
6
CONTINUOUS
10
73.0987
20
-198.482
11
73.3844
21
-198.625
0
LINE
8
BLACK
6
CONTINUOUS
10
73.3844
20
-198.625
11
73.5273
21
-198.768
0
LINE
8
BLACK
6
CONTINUOUS
10
73.5273
20
-198.768
11
73.6701
21
-199.054
0
LINE
8
BLACK
6
CONTINUOUS
10
73.6701
20
-199.054
11
73.813
21
-199.625
0
LINE
8
BLACK
6
CONTINUOUS
10
73.813
20
-199.625
11
73.813
21
-200.339
0
LINE
8
BLACK
6
CONTINUOUS
10
73.813
20
-200.339
11
73.6701
21
-200.911
0
LINE
8
BLACK
6
CONTINUOUS
10
73.6701
20
-200.911
11
73.5273
21
-201.196
0
LINE
8
BLACK
6
CONTINUOUS
10
73.5273
20
-201.196
11
73.3844
21
-201.339
0
LINE
8
BLACK
6
CONTINUOUS
10
73.3844
20
-201.339
11
73.0987
21
-201.482
0
LINE
8
BLACK
6
CONTINUOUS
10
73.0987
20
-201.482
11
72.813
21
-201.482
0
LINE
8
BLACK
6
CONTINUOUS
10
72.813
20
-201.482
11
72.5273
21
-201.339
0
LINE
8
BLACK
6
CONTINUOUS
10
72.5273
20
-201.339
11
72.3844
21
-201.196
0
LINE
8
BLACK
6
CONTINUOUS
10
72.3844
20
-201.196
11
72.2416
21
-200.911
0
LINE
8
BLACK
6
CONTINUOUS
10
72.2416
20
-200.911
11
72.0987
21
-200.339
0
LINE
8
BLACK
6
CONTINUOUS
10
72.0987
20
-200.339
11
72.0987
21
-199.625
0
LINE
8
BLACK
6
CONTINUOUS
10
72.0987
20
-199.625
11
72.2416
21
-199.054
0
LINE
8
BLACK
6
CONTINUOUS
10
72.2416
20
-199.054
11
72.3844
21
-198.768
0
LINE
8
BLACK
6
CONTINUOUS
10
72.3844
20
-198.768
11
72.5273
21
-198.625
0
LINE
8
BLACK
6
CONTINUOUS
10
72.5273
20
-198.625
11
72.813
21
-198.482
0
LINE
8
BLACK
6
CONTINUOUS
10
75.0987
20
-201.196
11
75.2416
21
-201.339
0
LINE
8
BLACK
6
CONTINUOUS
10
75.2416
20
-201.339
11
75.0987
21
-201.482
0
LINE
8
BLACK
6
CONTINUOUS
10
75.0987
20
-201.482
11
74.9559
21
-201.339
0
LINE
8
BLACK
6
CONTINUOUS
10
74.9559
20
-201.339
11
75.0987
21
-201.196
0
LINE
8
BLACK
6
CONTINUOUS
10
75.0987
20
-201.196
11
75.0987
21
-201.482
0
LINE
8
BLACK
6
CONTINUOUS
10
77.0987
20
-198.482
11
77.3844
21
-198.482
0
LINE
8
BLACK
6
CONTINUOUS
10
77.3844
20
-198.482
11
77.6701
21
-198.625
0
LINE
8
BLACK
6
CONTINUOUS
10
77.6701
20
-198.625
11
77.813
21
-198.768
0
LINE
8
BLACK
6
CONTINUOUS
10
77.813
20
-198.768
11
77.9559
21
-199.054
0
LINE
8
BLACK
6
CONTINUOUS
10
77.9559
20
-199.054
11
78.0987
21
-199.625
0
LINE
8
BLACK
6
CONTINUOUS
10
78.0987
20
-199.625
11
78.0987
21
-200.339
0
LINE
8
BLACK
6
CONTINUOUS
10
78.0987
20
-200.339
11
77.9559
21
-200.911
0
LINE
8
BLACK
6
CONTINUOUS
10
77.9559
20
-200.911
11
77.813
21
-201.196
0
LINE
8
BLACK
6
CONTINUOUS
10
77.813
20
-201.196
11
77.6701
21
-201.339
0
LINE
8
BLACK
6
CONTINUOUS
10
77.6701
20
-201.339
11
77.3844
21
-201.482
0
LINE
8
BLACK
6
CONTINUOUS
10
77.3844
20
-201.482
11
77.0987
21
-201.482
0
LINE
8
BLACK
6
CONTINUOUS
10
77.0987
20
-201.482
11
76.813
21
-201.339
0
LINE
8
BLACK
6
CONTINUOUS
10
76.813
20
-201.339
11
76.6701
21
-201.196
0
LINE
8
BLACK
6
CONTINUOUS
10
76.6701
20
-201.196
11
76.5273
21
-200.911
0
LINE
8
BLACK
6
CONTINUOUS
10
76.5273
20
-200.911
11
76.3844
21
-200.339
0
LINE
8
BLACK
6
CONTINUOUS
10
76.3844
20
-200.339
11
76.3844
21
-199.625
0
LINE
8
BLACK
6
CONTINUOUS
10
76.3844
20
-199.625
11
76.5273
21
-199.054
0
LINE
8
BLACK
6
CONTINUOUS
10
76.5273
20
-199.054
11
76.6701
21
-198.768
0
LINE
8
BLACK
6
CONTINUOUS
10
76.6701
20
-198.768
11
76.813
21
-198.625
0
LINE
8
BLACK
6
CONTINUOUS
10
76.813
20
-198.625
11
77.0987
21
-198.482
0
LINE
8
BLACK
6
CONTINUOUS
10
80.6701
20
-198.482
11
80.0987
21
-198.482
0
LINE
8
BLACK
6
CONTINUOUS
10
80.0987
20
-198.482
11
79.813
21
-198.625
0
LINE
8
BLACK
6
CONTINUOUS
10
79.813
20
-198.625
11
79.6701
21
-198.768
0
LINE
8
BLACK
6
CONTINUOUS
10
79.6701
20
-198.768
11
79.3844
21
-199.196
0
LINE
8
BLACK
6
CONTINUOUS
10
79.3844
20
-199.196
11
79.2416
21
-199.768
0
LINE
8
BLACK
6
CONTINUOUS
10
79.2416
20
-199.768
11
79.2416
21
-200.911
0
LINE
8
BLACK
6
CONTINUOUS
10
79.2416
20
-200.911
11
79.3844
21
-201.196
0
LINE
8
BLACK
6
CONTINUOUS
10
79.3844
20
-201.196
11
79.5273
21
-201.339
0
LINE
8
BLACK
6
CONTINUOUS
10
79.5273
20
-201.339
11
79.813
21
-201.482
0
LINE
8
BLACK
6
CONTINUOUS
10
79.813
20
-201.482
11
80.3844
21
-201.482
0
LINE
8
BLACK
6
CONTINUOUS
10
80.3844
20
-201.482
11
80.6701
21
-201.339
0
LINE
8
BLACK
6
CONTINUOUS
10
80.6701
20
-201.339
11
80.813
21
-201.196
0
LINE
8
BLACK
6
CONTINUOUS
10
80.813
20
-201.196
11
80.9559
21
-200.911
0
LINE
8
BLACK
6
CONTINUOUS
10
80.9559
20
-200.911
11
80.9559
21
-200.196
0
LINE
8
BLACK
6
CONTINUOUS
10
80.9559
20
-200.196
11
80.813
21
-199.911
0
LINE
8
BLACK
6
CONTINUOUS
10
80.813
20
-199.911
11
80.6701
21
-199.768
0
LINE
8
BLACK
6
CONTINUOUS
10
80.6701
20
-199.768
11
80.3844
21
-199.625
0
LINE
8
BLACK
6
CONTINUOUS
10
80.3844
20
-199.625
11
79.813
21
-199.625
0
LINE
8
BLACK
6
CONTINUOUS
10
79.813
20
-199.625
11
79.5273
21
-199.768
0
LINE
8
BLACK
6
CONTINUOUS
10
79.5273
20
-199.768
11
79.3844
21
-199.911
0
LINE
8
BLACK
6
CONTINUOUS
10
79.3844
20
-199.911
11
79.2416
21
-200.196
0
LINE
8
BLACK
6
CONTINUOUS
10
82.3844
20
-201.482
11
82.9559
21
-201.482
0
LINE
8
BLACK
6
CONTINUOUS
10
82.9559
20
-201.482
11
83.2416
21
-201.339
0
LINE
8
BLACK
6
CONTINUOUS
10
83.2416
20
-201.339
11
83.3844
21
-201.196
0
LINE
8
BLACK
6
CONTINUOUS
10
83.3844
20
-201.196
11
83.6701
21
-200.768
0
LINE
8
BLACK
6
CONTINUOUS
10
83.6701
20
-200.768
11
83.813
21
-200.196
0
LINE
8
BLACK
6
CONTINUOUS
10
83.813
20
-200.196
11
83.813
21
-199.054
0
LINE
8
BLACK
6
CONTINUOUS
10
83.813
20
-199.054
11
83.6701
21
-198.768
0
LINE
8
BLACK
6
CONTINUOUS
10
83.6701
20
-198.768
11
83.5273
21
-198.625
0
LINE
8
BLACK
6
CONTINUOUS
10
83.5273
20
-198.625
11
83.2416
21
-198.482
0
LINE
8
BLACK
6
CONTINUOUS
10
83.2416
20
-198.482
11
82.6701
21
-198.482
0
LINE
8
BLACK
6
CONTINUOUS
10
82.6701
20
-198.482
11
82.3844
21
-198.625
0
LINE
8
BLACK
6
CONTINUOUS
10
82.3844
20
-198.625
11
82.2416
21
-198.768
0
LINE
8
BLACK
6
CONTINUOUS
10
82.2416
20
-198.768
11
82.0987
21
-199.054
0
LINE
8
BLACK
6
CONTINUOUS
10
82.0987
20
-199.054
11
82.0987
21
-199.768
0
LINE
8
BLACK
6
CONTINUOUS
10
82.0987
20
-199.768
11
82.2416
21
-200.054
0
LINE
8
BLACK
6
CONTINUOUS
10
82.2416
20
-200.054
11
82.3844
21
-200.196
0
LINE
8
BLACK
6
CONTINUOUS
10
82.3844
20
-200.196
11
82.6701
21
-200.339
0
LINE
8
BLACK
6
CONTINUOUS
10
82.6701
20
-200.339
11
83.2416
21
-200.339
0
LINE
8
BLACK
6
CONTINUOUS
10
83.2416
20
-200.339
11
83.5273
21
-200.196
0
LINE
8
BLACK
6
CONTINUOUS
10
83.5273
20
-200.196
11
83.6701
21
-200.054
0
LINE
8
BLACK
6
CONTINUOUS
10
83.6701
20
-200.054
11
83.813
21
-199.768
0
LINE
8
BLACK
6
CONTINUOUS
10
84.9559
20
-198.482
11
84.9559
21
-199.054
0
LINE
8
BLACK
6
CONTINUOUS
10
86.0987
20
-198.482
11
86.0987
21
-199.054
0
LINE
8
BLACK
6
CONTINUOUS
10
90.5273
20
-202.625
11
90.3844
21
-202.482
0
LINE
8
BLACK
6
CONTINUOUS
10
90.3844
20
-202.482
11
90.0987
21
-202.054
0
LINE
8
BLACK
6
CONTINUOUS
10
90.0987
20
-202.054
11
89.9559
21
-201.768
0
LINE
8
BLACK
6
CONTINUOUS
10
89.9559
20
-201.768
11
89.813
21
-201.339
0
LINE
8
BLACK
6
CONTINUOUS
10
89.813
20
-201.339
11
89.6701
21
-200.625
0
LINE
8
BLACK
6
CONTINUOUS
10
89.6701
20
-200.625
11
89.6701
21
-200.054
0
LINE
8
BLACK
6
CONTINUOUS
10
89.6701
20
-200.054
11
89.813
21
-199.339
0
LINE
8
BLACK
6
CONTINUOUS
10
89.813
20
-199.339
11
89.9559
21
-198.911
0
LINE
8
BLACK
6
CONTINUOUS
10
89.9559
20
-198.911
11
90.0987
21
-198.625
0
LINE
8
BLACK
6
CONTINUOUS
10
90.0987
20
-198.625
11
90.3844
21
-198.196
0
LINE
8
BLACK
6
CONTINUOUS
10
90.3844
20
-198.196
11
90.5273
21
-198.054
0
LINE
8
BLACK
6
CONTINUOUS
10
92.9559
20
-199.482
11
92.9559
21
-201.482
0
LINE
8
BLACK
6
CONTINUOUS
10
92.2416
20
-198.339
11
91.5273
21
-200.482
0
LINE
8
BLACK
6
CONTINUOUS
10
91.5273
20
-200.482
11
93.3844
21
-200.482
0
LINE
8
BLACK
6
CONTINUOUS
10
95.0987
20
-198.482
11
95.3844
21
-198.482
0
LINE
8
BLACK
6
CONTINUOUS
10
95.3844
20
-198.482
11
95.6701
21
-198.625
0
LINE
8
BLACK
6
CONTINUOUS
10
95.6701
20
-198.625
11
95.813
21
-198.768
0
LINE
8
BLACK
6
CONTINUOUS
10
95.813
20
-198.768
11
95.9559
21
-199.054
0
LINE
8
BLACK
6
CONTINUOUS
10
95.9559
20
-199.054
11
96.0987
21
-199.625
0
LINE
8
BLACK
6
CONTINUOUS
10
96.0987
20
-199.625
11
96.0987
21
-200.339
0
LINE
8
BLACK
6
CONTINUOUS
10
96.0987
20
-200.339
11
95.9559
21
-200.911
0
LINE
8
BLACK
6
CONTINUOUS
10
95.9559
20
-200.911
11
95.813
21
-201.196
0
LINE
8
BLACK
6
CONTINUOUS
10
95.813
20
-201.196
11
95.6701
21
-201.339
0
LINE
8
BLACK
6
CONTINUOUS
10
95.6701
20
-201.339
11
95.3844
21
-201.482
0
LINE
8
BLACK
6
CONTINUOUS
10
95.3844
20
-201.482
11
95.0987
21
-201.482
0
LINE
8
BLACK
6
CONTINUOUS
10
95.0987
20
-201.482
11
94.813
21
-201.339
0
LINE
8
BLACK
6
CONTINUOUS
10
94.813
20
-201.339
11
94.6701
21
-201.196
0
LINE
8
BLACK
6
CONTINUOUS
10
94.6701
20
-201.196
11
94.5273
21
-200.911
0
LINE
8
BLACK
6
CONTINUOUS
10
94.5273
20
-200.911
11
94.3844
21
-200.339
0
LINE
8
BLACK
6
CONTINUOUS
10
94.3844
20
-200.339
11
94.3844
21
-199.625
0
LINE
8
BLACK
6
CONTINUOUS
10
94.3844
20
-199.625
11
94.5273
21
-199.054
0
LINE
8
BLACK
6
CONTINUOUS
10
94.5273
20
-199.054
11
94.6701
21
-198.768
0
LINE
8
BLACK
6
CONTINUOUS
10
94.6701
20
-198.768
11
94.813
21
-198.625
0
LINE
8
BLACK
6
CONTINUOUS
10
94.813
20
-198.625
11
95.0987
21
-198.482
0
LINE
8
BLACK
6
CONTINUOUS
10
99.6701
20
-201.482
11
99.6701
21
-198.482
0
LINE
8
BLACK
6
CONTINUOUS
10
100.956
20
-201.482
11
100.956
21
-199.911
0
LINE
8
BLACK
6
CONTINUOUS
10
100.956
20
-199.911
11
100.813
21
-199.625
0
LINE
8
BLACK
6
CONTINUOUS
10
100.813
20
-199.625
11
100.527
21
-199.482
0
LINE
8
BLACK
6
CONTINUOUS
10
100.527
20
-199.482
11
100.099
21
-199.482
0
LINE
8
BLACK
6
CONTINUOUS
10
100.099
20
-199.482
11
99.813
21
-199.625
0
LINE
8
BLACK
6
CONTINUOUS
10
99.813
20
-199.625
11
99.6701
21
-199.768
0
LINE
8
BLACK
6
CONTINUOUS
10
102.813
20
-201.482
11
102.527
21
-201.339
0
LINE
8
BLACK
6
CONTINUOUS
10
102.527
20
-201.339
11
102.384
21
-201.196
0
LINE
8
BLACK
6
CONTINUOUS
10
102.384
20
-201.196
11
102.242
21
-200.911
0
LINE
8
BLACK
6
CONTINUOUS
10
102.242
20
-200.911
11
102.242
21
-200.054
0
LINE
8
BLACK
6
CONTINUOUS
10
102.242
20
-200.054
11
102.384
21
-199.768
0
LINE
8
BLACK
6
CONTINUOUS
10
102.384
20
-199.768
11
102.527
21
-199.625
0
LINE
8
BLACK
6
CONTINUOUS
10
102.527
20
-199.625
11
102.813
21
-199.482
0
LINE
8
BLACK
6
CONTINUOUS
10
102.813
20
-199.482
11
103.242
21
-199.482
0
LINE
8
BLACK
6
CONTINUOUS
10
103.242
20
-199.482
11
103.527
21
-199.625
0
LINE
8
BLACK
6
CONTINUOUS
10
103.527
20
-199.625
11
103.67
21
-199.768
0
LINE
8
BLACK
6
CONTINUOUS
10
103.67
20
-199.768
11
103.813
21
-200.054
0
LINE
8
BLACK
6
CONTINUOUS
10
103.813
20
-200.054
11
103.813
21
-200.911
0
LINE
8
BLACK
6
CONTINUOUS
10
103.813
20
-200.911
11
103.67
21
-201.196
0
LINE
8
BLACK
6
CONTINUOUS
10
103.67
20
-201.196
11
103.527
21
-201.339
0
LINE
8
BLACK
6
CONTINUOUS
10
103.527
20
-201.339
11
103.242
21
-201.482
0
LINE
8
BLACK
6
CONTINUOUS
10
103.242
20
-201.482
11
102.813
21
-201.482
0
LINE
8
BLACK
6
CONTINUOUS
10
105.527
20
-201.482
11
105.242
21
-201.339
0
LINE
8
BLACK
6
CONTINUOUS
10
105.242
20
-201.339
11
105.099
21
-201.054
0
LINE
8
BLACK
6
CONTINUOUS
10
105.099
20
-201.054
11
105.099
21
-198.482
0
LINE
8
BLACK
6
CONTINUOUS
10
107.813
20
-201.339
11
107.527
21
-201.482
0
LINE
8
BLACK
6
CONTINUOUS
10
107.527
20
-201.482
11
106.956
21
-201.482
0
LINE
8
BLACK
6
CONTINUOUS
10
106.956
20
-201.482
11
106.67
21
-201.339
0
LINE
8
BLACK
6
CONTINUOUS
10
106.67
20
-201.339
11
106.527
21
-201.054
0
LINE
8
BLACK
6
CONTINUOUS
10
106.527
20
-201.054
11
106.527
21
-199.911
0
LINE
8
BLACK
6
CONTINUOUS
10
106.527
20
-199.911
11
106.67
21
-199.625
0
LINE
8
BLACK
6
CONTINUOUS
10
106.67
20
-199.625
11
106.956
21
-199.482
0
LINE
8
BLACK
6
CONTINUOUS
10
106.956
20
-199.482
11
107.527
21
-199.482
0
LINE
8
BLACK
6
CONTINUOUS
10
107.527
20
-199.482
11
107.813
21
-199.625
0
LINE
8
BLACK
6
CONTINUOUS
10
107.813
20
-199.625
11
107.956
21
-199.911
0
LINE
8
BLACK
6
CONTINUOUS
10
107.956
20
-199.911
11
107.956
21
-200.196
0
LINE
8
BLACK
6
CONTINUOUS
10
107.956
20
-200.196
11
106.527
21
-200.482
0
LINE
8
BLACK
6
CONTINUOUS
10
109.099
20
-201.339
11
109.384
21
-201.482
0
LINE
8
BLACK
6
CONTINUOUS
10
109.384
20
-201.482
11
109.956
21
-201.482
0
LINE
8
BLACK
6
CONTINUOUS
10
109.956
20
-201.482
11
110.242
21
-201.339
0
LINE
8
BLACK
6
CONTINUOUS
10
110.242
20
-201.339
11
110.384
21
-201.054
0
LINE
8
BLACK
6
CONTINUOUS
10
110.384
20
-201.054
11
110.384
21
-200.911
0
LINE
8
BLACK
6
CONTINUOUS
10
110.384
20
-200.911
11
110.242
21
-200.625
0
LINE
8
BLACK
6
CONTINUOUS
10
110.242
20
-200.625
11
109.956
21
-200.482
0
LINE
8
BLACK
6
CONTINUOUS
10
109.956
20
-200.482
11
109.527
21
-200.482
0
LINE
8
BLACK
6
CONTINUOUS
10
109.527
20
-200.482
11
109.242
21
-200.339
0
LINE
8
BLACK
6
CONTINUOUS
10
109.242
20
-200.339
11
109.099
21
-200.054
0
LINE
8
BLACK
6
CONTINUOUS
10
109.099
20
-200.054
11
109.099
21
-199.911
0
LINE
8
BLACK
6
CONTINUOUS
10
109.099
20
-199.911
11
109.242
21
-199.625
0
LINE
8
BLACK
6
CONTINUOUS
10
109.242
20
-199.625
11
109.527
21
-199.482
0
LINE
8
BLACK
6
CONTINUOUS
10
109.527
20
-199.482
11
109.956
21
-199.482
0
LINE
8
BLACK
6
CONTINUOUS
10
109.956
20
-199.482
11
110.242
21
-199.625
0
LINE
8
BLACK
6
CONTINUOUS
10
111.384
20
-202.625
11
111.527
21
-202.482
0
LINE
8
BLACK
6
CONTINUOUS
10
111.527
20
-202.482
11
111.813
21
-202.054
0
LINE
8
BLACK
6
CONTINUOUS
10
111.813
20
-202.054
11
111.956
21
-201.768
0
LINE
8
BLACK
6
CONTINUOUS
10
111.956
20
-201.768
11
112.099
21
-201.339
0
LINE
8
BLACK
6
CONTINUOUS
10
112.099
20
-201.339
11
112.242
21
-200.625
0
LINE
8
BLACK
6
CONTINUOUS
10
112.242
20
-200.625
11
112.242
21
-200.054
0
LINE
8
BLACK
6
CONTINUOUS
10
112.242
20
-200.054
11
112.099
21
-199.339
0
LINE
8
BLACK
6
CONTINUOUS
10
112.099
20
-199.339
11
111.956
21
-198.911
0
LINE
8
BLACK
6
CONTINUOUS
10
111.956
20
-198.911
11
111.813
21
-198.625
0
LINE
8
BLACK
6
CONTINUOUS
10
111.813
20
-198.625
11
111.527
21
-198.196
0
LINE
8
BLACK
6
CONTINUOUS
10
111.527
20
-198.196
11
111.384
21
-198.054
0
LINE
8
BLACK
6
CONTINUOUS
10
116.813
20
-202.625
11
116.67
21
-202.482
0
LINE
8
BLACK
6
CONTINUOUS
10
116.67
20
-202.482
11
116.384
21
-202.054
0
LINE
8
BLACK
6
CONTINUOUS
10
116.384
20
-202.054
11
116.242
21
-201.768
0
LINE
8
BLACK
6
CONTINUOUS
10
116.242
20
-201.768
11
116.099
21
-201.339
0
LINE
8
BLACK
6
CONTINUOUS
10
116.099
20
-201.339
11
115.956
21
-200.625
0
LINE
8
BLACK
6
CONTINUOUS
10
115.956
20
-200.625
11
115.956
21
-200.054
0
LINE
8
BLACK
6
CONTINUOUS
10
115.956
20
-200.054
11
116.099
21
-199.339
0
LINE
8
BLACK
6
CONTINUOUS
10
116.099
20
-199.339
11
116.242
21
-198.911
0
LINE
8
BLACK
6
CONTINUOUS
10
116.242
20
-198.911
11
116.384
21
-198.625
0
LINE
8
BLACK
6
CONTINUOUS
10
116.384
20
-198.625
11
116.67
21
-198.196
0
LINE
8
BLACK
6
CONTINUOUS
10
116.67
20
-198.196
11
116.813
21
-198.054
0
LINE
8
BLACK
6
CONTINUOUS
10
117.956
20
-199.482
11
117.956
21
-201.482
0
LINE
8
BLACK
6
CONTINUOUS
10
117.956
20
-199.768
11
118.099
21
-199.625
0
LINE
8
BLACK
6
CONTINUOUS
10
118.099
20
-199.625
11
118.384
21
-199.482
0
LINE
8
BLACK
6
CONTINUOUS
10
118.384
20
-199.482
11
118.813
21
-199.482
0
LINE
8
BLACK
6
CONTINUOUS
10
118.813
20
-199.482
11
119.099
21
-199.625
0
LINE
8
BLACK
6
CONTINUOUS
10
119.099
20
-199.625
11
119.242
21
-199.911
0
LINE
8
BLACK
6
CONTINUOUS
10
119.242
20
-199.911
11
119.242
21
-201.482
0
LINE
8
BLACK
6
CONTINUOUS
10
121.099
20
-201.482
11
120.813
21
-201.339
0
LINE
8
BLACK
6
CONTINUOUS
10
120.813
20
-201.339
11
120.67
21
-201.196
0
LINE
8
BLACK
6
CONTINUOUS
10
120.67
20
-201.196
11
120.527
21
-200.911
0
LINE
8
BLACK
6
CONTINUOUS
10
120.527
20
-200.911
11
120.527
21
-200.054
0
LINE
8
BLACK
6
CONTINUOUS
10
120.527
20
-200.054
11
120.67
21
-199.768
0
LINE
8
BLACK
6
CONTINUOUS
10
120.67
20
-199.768
11
120.813
21
-199.625
0
LINE
8
BLACK
6
CONTINUOUS
10
120.813
20
-199.625
11
121.099
21
-199.482
0
LINE
8
BLACK
6
CONTINUOUS
10
121.099
20
-199.482
11
121.527
21
-199.482
0
LINE
8
BLACK
6
CONTINUOUS
10
121.527
20
-199.482
11
121.813
21
-199.625
0
LINE
8
BLACK
6
CONTINUOUS
10
121.813
20
-199.625
11
121.956
21
-199.768
0
LINE
8
BLACK
6
CONTINUOUS
10
121.956
20
-199.768
11
122.099
21
-200.054
0
LINE
8
BLACK
6
CONTINUOUS
10
122.099
20
-200.054
11
122.099
21
-200.911
0
LINE
8
BLACK
6
CONTINUOUS
10
122.099
20
-200.911
11
121.956
21
-201.196
0
LINE
8
BLACK
6
CONTINUOUS
10
121.956
20
-201.196
11
121.813
21
-201.339
0
LINE
8
BLACK
6
CONTINUOUS
10
121.813
20
-201.339
11
121.527
21
-201.482
0
LINE
8
BLACK
6
CONTINUOUS
10
121.527
20
-201.482
11
121.099
21
-201.482
0
LINE
8
BLACK
6
CONTINUOUS
10
122.956
20
-199.482
11
124.099
21
-199.482
0
LINE
8
BLACK
6
CONTINUOUS
10
123.384
20
-198.482
11
123.384
21
-201.054
0
LINE
8
BLACK
6
CONTINUOUS
10
123.384
20
-201.054
11
123.527
21
-201.339
0
LINE
8
BLACK
6
CONTINUOUS
10
123.527
20
-201.339
11
123.813
21
-201.482
0
LINE
8
BLACK
6
CONTINUOUS
10
123.813
20
-201.482
11
124.099
21
-201.482
0
LINE
8
BLACK
6
CONTINUOUS
10
127.384
20
-199.482
11
127.384
21
-202.482
0
LINE
8
BLACK
6
CONTINUOUS
10
127.384
20
-199.625
11
127.67
21
-199.482
0
LINE
8
BLACK
6
CONTINUOUS
10
127.67
20
-199.482
11
128.242
21
-199.482
0
LINE
8
BLACK
6
CONTINUOUS
10
128.242
20
-199.482
11
128.527
21
-199.625
0
LINE
8
BLACK
6
CONTINUOUS
10
128.527
20
-199.625
11
128.67
21
-199.768
0
LINE
8
BLACK
6
CONTINUOUS
10
128.67
20
-199.768
11
128.813
21
-200.054
0
LINE
8
BLACK
6
CONTINUOUS
10
128.813
20
-200.054
11
128.813
21
-200.911
0
LINE
8
BLACK
6
CONTINUOUS
10
128.813
20
-200.911
11
128.67
21
-201.196
0
LINE
8
BLACK
6
CONTINUOUS
10
128.67
20
-201.196
11
128.527
21
-201.339
0
LINE
8
BLACK
6
CONTINUOUS
10
128.527
20
-201.339
11
128.242
21
-201.482
0
LINE
8
BLACK
6
CONTINUOUS
10
128.242
20
-201.482
11
127.67
21
-201.482
0
LINE
8
BLACK
6
CONTINUOUS
10
127.67
20
-201.482
11
127.384
21
-201.339
0
LINE
8
BLACK
6
CONTINUOUS
10
130.527
20
-201.482
11
130.242
21
-201.339
0
LINE
8
BLACK
6
CONTINUOUS
10
130.242
20
-201.339
11
130.099
21
-201.054
0
LINE
8
BLACK
6
CONTINUOUS
10
130.099
20
-201.054
11
130.099
21
-198.482
0
LINE
8
BLACK
6
CONTINUOUS
10
132.956
20
-201.482
11
132.956
21
-199.911
0
LINE
8
BLACK
6
CONTINUOUS
10
132.956
20
-199.911
11
132.813
21
-199.625
0
LINE
8
BLACK
6
CONTINUOUS
10
132.813
20
-199.625
11
132.527
21
-199.482
0
LINE
8
BLACK
6
CONTINUOUS
10
132.527
20
-199.482
11
131.956
21
-199.482
0
LINE
8
BLACK
6
CONTINUOUS
10
131.956
20
-199.482
11
131.67
21
-199.625
0
LINE
8
BLACK
6
CONTINUOUS
10
132.956
20
-201.339
11
132.67
21
-201.482
0
LINE
8
BLACK
6
CONTINUOUS
10
132.67
20
-201.482
11
131.956
21
-201.482
0
LINE
8
BLACK
6
CONTINUOUS
10
131.956
20
-201.482
11
131.67
21
-201.339
0
LINE
8
BLACK
6
CONTINUOUS
10
131.67
20
-201.339
11
131.527
21
-201.054
0
LINE
8
BLACK
6
CONTINUOUS
10
131.527
20
-201.054
11
131.527
21
-200.768
0
LINE
8
BLACK
6
CONTINUOUS
10
131.527
20
-200.768
11
131.67
21
-200.482
0
LINE
8
BLACK
6
CONTINUOUS
10
131.67
20
-200.482
11
131.956
21
-200.339
0
LINE
8
BLACK
6
CONTINUOUS
10
131.956
20
-200.339
11
132.67
21
-200.339
0
LINE
8
BLACK
6
CONTINUOUS
10
132.67
20
-200.339
11
132.956
21
-200.196
0
LINE
8
BLACK
6
CONTINUOUS
10
133.956
20
-199.482
11
135.099
21
-199.482
0
LINE
8
BLACK
6
CONTINUOUS
10
134.384
20
-198.482
11
134.384
21
-201.054
0
LINE
8
BLACK
6
CONTINUOUS
10
134.384
20
-201.054
11
134.527
21
-201.339
0
LINE
8
BLACK
6
CONTINUOUS
10
134.527
20
-201.339
11
134.813
21
-201.482
0
LINE
8
BLACK
6
CONTINUOUS
10
134.813
20
-201.482
11
135.099
21
-201.482
0
LINE
8
BLACK
6
CONTINUOUS
10
137.242
20
-201.339
11
136.956
21
-201.482
0
LINE
8
BLACK
6
CONTINUOUS
10
136.956
20
-201.482
11
136.384
21
-201.482
0
LINE
8
BLACK
6
CONTINUOUS
10
136.384
20
-201.482
11
136.099
21
-201.339
0
LINE
8
BLACK
6
CONTINUOUS
10
136.099
20
-201.339
11
135.956
21
-201.054
0
LINE
8
BLACK
6
CONTINUOUS
10
135.956
20
-201.054
11
135.956
21
-199.911
0
LINE
8
BLACK
6
CONTINUOUS
10
135.956
20
-199.911
11
136.099
21
-199.625
0
LINE
8
BLACK
6
CONTINUOUS
10
136.099
20
-199.625
11
136.384
21
-199.482
0
LINE
8
BLACK
6
CONTINUOUS
10
136.384
20
-199.482
11
136.956
21
-199.482
0
LINE
8
BLACK
6
CONTINUOUS
10
136.956
20
-199.482
11
137.242
21
-199.625
0
LINE
8
BLACK
6
CONTINUOUS
10
137.242
20
-199.625
11
137.384
21
-199.911
0
LINE
8
BLACK
6
CONTINUOUS
10
137.384
20
-199.911
11
137.384
21
-200.196
0
LINE
8
BLACK
6
CONTINUOUS
10
137.384
20
-200.196
11
135.956
21
-200.482
0
LINE
8
BLACK
6
CONTINUOUS
10
139.956
20
-201.482
11
139.956
21
-198.482
0
LINE
8
BLACK
6
CONTINUOUS
10
139.956
20
-201.339
11
139.67
21
-201.482
0
LINE
8
BLACK
6
CONTINUOUS
10
139.67
20
-201.482
11
139.099
21
-201.482
0
LINE
8
BLACK
6
CONTINUOUS
10
139.099
20
-201.482
11
138.813
21
-201.339
0
LINE
8
BLACK
6
CONTINUOUS
10
138.813
20
-201.339
11
138.67
21
-201.196
0
LINE
8
BLACK
6
CONTINUOUS
10
138.67
20
-201.196
11
138.527
21
-200.911
0
LINE
8
BLACK
6
CONTINUOUS
10
138.527
20
-200.911
11
138.527
21
-200.054
0
LINE
8
BLACK
6
CONTINUOUS
10
138.527
20
-200.054
11
138.67
21
-199.768
0
LINE
8
BLACK
6
CONTINUOUS
10
138.67
20
-199.768
11
138.813
21
-199.625
0
LINE
8
BLACK
6
CONTINUOUS
10
138.813
20
-199.625
11
139.099
21
-199.482
0
LINE
8
BLACK
6
CONTINUOUS
10
139.099
20
-199.482
11
139.67
21
-199.482
0
LINE
8
BLACK
6
CONTINUOUS
10
139.67
20
-199.482
11
139.956
21
-199.625
0
LINE
8
BLACK
6
CONTINUOUS
10
141.099
20
-202.625
11
141.242
21
-202.482
0
LINE
8
BLACK
6
CONTINUOUS
10
141.242
20
-202.482
11
141.527
21
-202.054
0
LINE
8
BLACK
6
CONTINUOUS
10
141.527
20
-202.054
11
141.67
21
-201.768
0
LINE
8
BLACK
6
CONTINUOUS
10
141.67
20
-201.768
11
141.813
21
-201.339
0
LINE
8
BLACK
6
CONTINUOUS
10
141.813
20
-201.339
11
141.956
21
-200.625
0
LINE
8
BLACK
6
CONTINUOUS
10
141.956
20
-200.625
11
141.956
21
-200.054
0
LINE
8
BLACK
6
CONTINUOUS
10
141.956
20
-200.054
11
141.813
21
-199.339
0
LINE
8
BLACK
6
CONTINUOUS
10
141.813
20
-199.339
11
141.67
21
-198.911
0
LINE
8
BLACK
6
CONTINUOUS
10
141.67
20
-198.911
11
141.527
21
-198.625
0
LINE
8
BLACK
6
CONTINUOUS
10
141.527
20
-198.625
11
141.242
21
-198.196
0
LINE
8
BLACK
6
CONTINUOUS
10
141.242
20
-198.196
11
141.099
21
-198.054
0
CIRCLE
8
BLACK
10
42.163
20
-204.085
40
1.5
0
LINE
8
BLACK
6
CONTINUOUS
10
46.2416
20
-202.442
11
48.0987
21
-202.442
0
LINE
8
BLACK
6
CONTINUOUS
10
48.0987
20
-202.442
11
47.0987
21
-203.585
0
LINE
8
BLACK
6
CONTINUOUS
10
47.0987
20
-203.585
11
47.5273
21
-203.585
0
LINE
8
BLACK
6
CONTINUOUS
10
47.5273
20
-203.585
11
47.813
21
-203.728
0
LINE
8
BLACK
6
CONTINUOUS
10
47.813
20
-203.728
11
47.9559
21
-203.871
0
LINE
8
BLACK
6
CONTINUOUS
10
47.9559
20
-203.871
11
48.0987
21
-204.156
0
LINE
8
BLACK
6
CONTINUOUS
10
48.0987
20
-204.156
11
48.0987
21
-204.871
0
LINE
8
BLACK
6
CONTINUOUS
10
48.0987
20
-204.871
11
47.9559
21
-205.156
0
LINE
8
BLACK
6
CONTINUOUS
10
47.9559
20
-205.156
11
47.813
21
-205.299
0
LINE
8
BLACK
6
CONTINUOUS
10
47.813
20
-205.299
11
47.5273
21
-205.442
0
LINE
8
BLACK
6
CONTINUOUS
10
47.5273
20
-205.442
11
46.6701
21
-205.442
0
LINE
8
BLACK
6
CONTINUOUS
10
46.6701
20
-205.442
11
46.3844
21
-205.299
0
LINE
8
BLACK
6
CONTINUOUS
10
46.3844
20
-205.299
11
46.2416
21
-205.156
0
LINE
8
BLACK
6
CONTINUOUS
10
49.3844
20
-205.156
11
49.5273
21
-205.299
0
LINE
8
BLACK
6
CONTINUOUS
10
49.5273
20
-205.299
11
49.3844
21
-205.442
0
LINE
8
BLACK
6
CONTINUOUS
10
49.3844
20
-205.442
11
49.2416
21
-205.299
0
LINE
8
BLACK
6
CONTINUOUS
10
49.2416
20
-205.299
11
49.3844
21
-205.156
0
LINE
8
BLACK
6
CONTINUOUS
10
49.3844
20
-205.156
11
49.3844
21
-205.442
0
LINE
8
BLACK
6
CONTINUOUS
10
51.3844
20
-202.442
11
51.6701
21
-202.442
0
LINE
8
BLACK
6
CONTINUOUS
10
51.6701
20
-202.442
11
51.9559
21
-202.585
0
LINE
8
BLACK
6
CONTINUOUS
10
51.9559
20
-202.585
11
52.0987
21
-202.728
0
LINE
8
BLACK
6
CONTINUOUS
10
52.0987
20
-202.728
11
52.2416
21
-203.014
0
LINE
8
BLACK
6
CONTINUOUS
10
52.2416
20
-203.014
11
52.3844
21
-203.585
0
LINE
8
BLACK
6
CONTINUOUS
10
52.3844
20
-203.585
11
52.3844
21
-204.299
0
LINE
8
BLACK
6
CONTINUOUS
10
52.3844
20
-204.299
11
52.2416
21
-204.871
0
LINE
8
BLACK
6
CONTINUOUS
10
52.2416
20
-204.871
11
52.0987
21
-205.156
0
LINE
8
BLACK
6
CONTINUOUS
10
52.0987
20
-205.156
11
51.9559
21
-205.299
0
LINE
8
BLACK
6
CONTINUOUS
10
51.9559
20
-205.299
11
51.6701
21
-205.442
0
LINE
8
BLACK
6
CONTINUOUS
10
51.6701
20
-205.442
11
51.3844
21
-205.442
0
LINE
8
BLACK
6
CONTINUOUS
10
51.3844
20
-205.442
11
51.0987
21
-205.299
0
LINE
8
BLACK
6
CONTINUOUS
10
51.0987
20
-205.299
11
50.9559
21
-205.156
0
LINE
8
BLACK
6
CONTINUOUS
10
50.9559
20
-205.156
11
50.813
21
-204.871
0
LINE
8
BLACK
6
CONTINUOUS
10
50.813
20
-204.871
11
50.6701
21
-204.299
0
LINE
8
BLACK
6
CONTINUOUS
10
50.6701
20
-204.299
11
50.6701
21
-203.585
0
LINE
8
BLACK
6
CONTINUOUS
10
50.6701
20
-203.585
11
50.813
21
-203.014
0
LINE
8
BLACK
6
CONTINUOUS
10
50.813
20
-203.014
11
50.9559
21
-202.728
0
LINE
8
BLACK
6
CONTINUOUS
10
50.9559
20
-202.728
11
51.0987
21
-202.585
0
LINE
8
BLACK
6
CONTINUOUS
10
51.0987
20
-202.585
11
51.3844
21
-202.442
0
LINE
8
BLACK
6
CONTINUOUS
10
54.2416
20
-202.442
11
54.5273
21
-202.442
0
LINE
8
BLACK
6
CONTINUOUS
10
54.5273
20
-202.442
11
54.813
21
-202.585
0
LINE
8
BLACK
6
CONTINUOUS
10
54.813
20
-202.585
11
54.9559
21
-202.728
0
LINE
8
BLACK
6
CONTINUOUS
10
54.9559
20
-202.728
11
55.0987
21
-203.014
0
LINE
8
BLACK
6
CONTINUOUS
10
55.0987
20
-203.014
11
55.2416
21
-203.585
0
LINE
8
BLACK
6
CONTINUOUS
10
55.2416
20
-203.585
11
55.2416
21
-204.299
0
LINE
8
BLACK
6
CONTINUOUS
10
55.2416
20
-204.299
11
55.0987
21
-204.871
0
LINE
8
BLACK
6
CONTINUOUS
10
55.0987
20
-204.871
11
54.9559
21
-205.156
0
LINE
8
BLACK
6
CONTINUOUS
10
54.9559
20
-205.156
11
54.813
21
-205.299
0
LINE
8
BLACK
6
CONTINUOUS
10
54.813
20
-205.299
11
54.5273
21
-205.442
0
LINE
8
BLACK
6
CONTINUOUS
10
54.5273
20
-205.442
11
54.2416
21
-205.442
0
LINE
8
BLACK
6
CONTINUOUS
10
54.2416
20
-205.442
11
53.9559
21
-205.299
0
LINE
8
BLACK
6
CONTINUOUS
10
53.9559
20
-205.299
11
53.813
21
-205.156
0
LINE
8
BLACK
6
CONTINUOUS
10
53.813
20
-205.156
11
53.6701
21
-204.871
0
LINE
8
BLACK
6
CONTINUOUS
10
53.6701
20
-204.871
11
53.5273
21
-204.299
0
LINE
8
BLACK
6
CONTINUOUS
10
53.5273
20
-204.299
11
53.5273
21
-203.585
0
LINE
8
BLACK
6
CONTINUOUS
10
53.5273
20
-203.585
11
53.6701
21
-203.014
0
LINE
8
BLACK
6
CONTINUOUS
10
53.6701
20
-203.014
11
53.813
21
-202.728
0
LINE
8
BLACK
6
CONTINUOUS
10
53.813
20
-202.728
11
53.9559
21
-202.585
0
LINE
8
BLACK
6
CONTINUOUS
10
53.9559
20
-202.585
11
54.2416
21
-202.442
0
LINE
8
BLACK
6
CONTINUOUS
10
56.5273
20
-205.442
11
56.5273
21
-203.442
0
LINE
8
BLACK
6
CONTINUOUS
10
56.5273
20
-203.728
11
56.6701
21
-203.585
0
LINE
8
BLACK
6
CONTINUOUS
10
56.6701
20
-203.585
11
56.9559
21
-203.442
0
LINE
8
BLACK
6
CONTINUOUS
10
56.9559
20
-203.442
11
57.3844
21
-203.442
0
LINE
8
BLACK
6
CONTINUOUS
10
57.3844
20
-203.442
11
57.6701
21
-203.585
0
LINE
8
BLACK
6
CONTINUOUS
10
57.6701
20
-203.585
11
57.813
21
-203.871
0
LINE
8
BLACK
6
CONTINUOUS
10
57.813
20
-203.871
11
57.813
21
-205.442
0
LINE
8
BLACK
6
CONTINUOUS
10
57.813
20
-203.871
11
57.9559
21
-203.585
0
LINE
8
BLACK
6
CONTINUOUS
10
57.9559
20
-203.585
11
58.2416
21
-203.442
0
LINE
8
BLACK
6
CONTINUOUS
10
58.2416
20
-203.442
11
58.6701
21
-203.442
0
LINE
8
BLACK
6
CONTINUOUS
10
58.6701
20
-203.442
11
58.9559
21
-203.585
0
LINE
8
BLACK
6
CONTINUOUS
10
58.9559
20
-203.585
11
59.0987
21
-203.871
0
LINE
8
BLACK
6
CONTINUOUS
10
59.0987
20
-203.871
11
59.0987
21
-205.442
0
LINE
8
BLACK
6
CONTINUOUS
10
60.5273
20
-205.442
11
60.5273
21
-203.442
0
LINE
8
BLACK
6
CONTINUOUS
10
60.5273
20
-203.728
11
60.6701
21
-203.585
0
LINE
8
BLACK
6
CONTINUOUS
10
60.6701
20
-203.585
11
60.9559
21
-203.442
0
LINE
8
BLACK
6
CONTINUOUS
10
60.9559
20
-203.442
11
61.3844
21
-203.442
0
LINE
8
BLACK
6
CONTINUOUS
10
61.3844
20
-203.442
11
61.6701
21
-203.585
0
LINE
8
BLACK
6
CONTINUOUS
10
61.6701
20
-203.585
11
61.813
21
-203.871
0
LINE
8
BLACK
6
CONTINUOUS
10
61.813
20
-203.871
11
61.813
21
-205.442
0
LINE
8
BLACK
6
CONTINUOUS
10
61.813
20
-203.871
11
61.9559
21
-203.585
0
LINE
8
BLACK
6
CONTINUOUS
10
61.9559
20
-203.585
11
62.2416
21
-203.442
0
LINE
8
BLACK
6
CONTINUOUS
10
62.2416
20
-203.442
11
62.6701
21
-203.442
0
LINE
8
BLACK
6
CONTINUOUS
10
62.6701
20
-203.442
11
62.9559
21
-203.585
0
LINE
8
BLACK
6
CONTINUOUS
10
62.9559
20
-203.585
11
63.0987
21
-203.871
0
LINE
8
BLACK
6
CONTINUOUS
10
63.0987
20
-203.871
11
63.0987
21
-205.442
0
LINE
8
BLACK
6
CONTINUOUS
10
68.9559
20
-202.299
11
66.3844
21
-206.156
0
LINE
8
BLACK
6
CONTINUOUS
10
72.813
20
-202.442
11
73.0987
21
-202.442
0
LINE
8
BLACK
6
CONTINUOUS
10
73.0987
20
-202.442
11
73.3844
21
-202.585
0
LINE
8
BLACK
6
CONTINUOUS
10
73.3844
20
-202.585
11
73.5273
21
-202.728
0
LINE
8
BLACK
6
CONTINUOUS
10
73.5273
20
-202.728
11
73.6701
21
-203.014
0
LINE
8
BLACK
6
CONTINUOUS
10
73.6701
20
-203.014
11
73.813
21
-203.585
0
LINE
8
BLACK
6
CONTINUOUS
10
73.813
20
-203.585
11
73.813
21
-204.299
0
LINE
8
BLACK
6
CONTINUOUS
10
73.813
20
-204.299
11
73.6701
21
-204.871
0
LINE
8
BLACK
6
CONTINUOUS
10
73.6701
20
-204.871
11
73.5273
21
-205.156
0
LINE
8
BLACK
6
CONTINUOUS
10
73.5273
20
-205.156
11
73.3844
21
-205.299
0
LINE
8
BLACK
6
CONTINUOUS
10
73.3844
20
-205.299
11
73.0987
21
-205.442
0
LINE
8
BLACK
6
CONTINUOUS
10
73.0987
20
-205.442
11
72.813
21
-205.442
0
LINE
8
BLACK
6
CONTINUOUS
10
72.813
20
-205.442
11
72.5273
21
-205.299
0
LINE
8
BLACK
6
CONTINUOUS
10
72.5273
20
-205.299
11
72.3844
21
-205.156
0
LINE
8
BLACK
6
CONTINUOUS
10
72.3844
20
-205.156
11
72.2416
21
-204.871
0
LINE
8
BLACK
6
CONTINUOUS
10
72.2416
20
-204.871
11
72.0987
21
-204.299
0
LINE
8
BLACK
6
CONTINUOUS
10
72.0987
20
-204.299
11
72.0987
21
-203.585
0
LINE
8
BLACK
6
CONTINUOUS
10
72.0987
20
-203.585
11
72.2416
21
-203.014
0
LINE
8
BLACK
6
CONTINUOUS
10
72.2416
20
-203.014
11
72.3844
21
-202.728
0
LINE
8
BLACK
6
CONTINUOUS
10
72.3844
20
-202.728
11
72.5273
21
-202.585
0
LINE
8
BLACK
6
CONTINUOUS
10
72.5273
20
-202.585
11
72.813
21
-202.442
0
LINE
8
BLACK
6
CONTINUOUS
10
75.0987
20
-205.156
11
75.2416
21
-205.299
0
LINE
8
BLACK
6
CONTINUOUS
10
75.2416
20
-205.299
11
75.0987
21
-205.442
0
LINE
8
BLACK
6
CONTINUOUS
10
75.0987
20
-205.442
11
74.9559
21
-205.299
0
LINE
8
BLACK
6
CONTINUOUS
10
74.9559
20
-205.299
11
75.0987
21
-205.156
0
LINE
8
BLACK
6
CONTINUOUS
10
75.0987
20
-205.156
11
75.0987
21
-205.442
0
LINE
8
BLACK
6
CONTINUOUS
10
78.0987
20
-205.442
11
76.3844
21
-205.442
0
LINE
8
BLACK
6
CONTINUOUS
10
77.2416
20
-205.442
11
77.2416
21
-202.442
0
LINE
8
BLACK
6
CONTINUOUS
10
77.2416
20
-202.442
11
76.9559
21
-202.871
0
LINE
8
BLACK
6
CONTINUOUS
10
76.9559
20
-202.871
11
76.6701
21
-203.156
0
LINE
8
BLACK
6
CONTINUOUS
10
76.6701
20
-203.156
11
76.3844
21
-203.299
0
LINE
8
BLACK
6
CONTINUOUS
10
80.9559
20
-205.442
11
79.2416
21
-205.442
0
LINE
8
BLACK
6
CONTINUOUS
10
80.0987
20
-205.442
11
80.0987
21
-202.442
0
LINE
8
BLACK
6
CONTINUOUS
10
80.0987
20
-202.442
11
79.813
21
-202.871
0
LINE
8
BLACK
6
CONTINUOUS
10
79.813
20
-202.871
11
79.5273
21
-203.156
0
LINE
8
BLACK
6
CONTINUOUS
10
79.5273
20
-203.156
11
79.2416
21
-203.299
0
LINE
8
BLACK
6
CONTINUOUS
10
82.6701
20
-203.728
11
82.3844
21
-203.585
0
LINE
8
BLACK
6
CONTINUOUS
10
82.3844
20
-203.585
11
82.2416
21
-203.442
0
LINE
8
BLACK
6
CONTINUOUS
10
82.2416
20
-203.442
11
82.0987
21
-203.156
0
LINE
8
BLACK
6
CONTINUOUS
10
82.0987
20
-203.156
11
82.0987
21
-203.014
0
LINE
8
BLACK
6
CONTINUOUS
10
82.0987
20
-203.014
11
82.2416
21
-202.728
0
LINE
8
BLACK
6
CONTINUOUS
10
82.2416
20
-202.728
11
82.3844
21
-202.585
0
LINE
8
BLACK
6
CONTINUOUS
10
82.3844
20
-202.585
11
82.6701
21
-202.442
0
LINE
8
BLACK
6
CONTINUOUS
10
82.6701
20
-202.442
11
83.2416
21
-202.442
0
LINE
8
BLACK
6
CONTINUOUS
10
83.2416
20
-202.442
11
83.5273
21
-202.585
0
LINE
8
BLACK
6
CONTINUOUS
10
83.5273
20
-202.585
11
83.6701
21
-202.728
0
LINE
8
BLACK
6
CONTINUOUS
10
83.6701
20
-202.728
11
83.813
21
-203.014
0
LINE
8
BLACK
6
CONTINUOUS
10
83.813
20
-203.014
11
83.813
21
-203.156
0
LINE
8
BLACK
6
CONTINUOUS
10
83.813
20
-203.156
11
83.6701
21
-203.442
0
LINE
8
BLACK
6
CONTINUOUS
10
83.6701
20
-203.442
11
83.5273
21
-203.585
0
LINE
8
BLACK
6
CONTINUOUS
10
83.5273
20
-203.585
11
83.2416
21
-203.728
0
LINE
8
BLACK
6
CONTINUOUS
10
83.2416
20
-203.728
11
82.6701
21
-203.728
0
LINE
8
BLACK
6
CONTINUOUS
10
82.6701
20
-203.728
11
82.3844
21
-203.871
0
LINE
8
BLACK
6
CONTINUOUS
10
82.3844
20
-203.871
11
82.2416
21
-204.014
0
LINE
8
BLACK
6
CONTINUOUS
10
82.2416
20
-204.014
11
82.0987
21
-204.299
0
LINE
8
BLACK
6
CONTINUOUS
10
82.0987
20
-204.299
11
82.0987
21
-204.871
0
LINE
8
BLACK
6
CONTINUOUS
10
82.0987
20
-204.871
11
82.2416
21
-205.156
0
LINE
8
BLACK
6
CONTINUOUS
10
82.2416
20
-205.156
11
82.3844
21
-205.299
0
LINE
8
BLACK
6
CONTINUOUS
10
82.3844
20
-205.299
11
82.6701
21
-205.442
0
LINE
8
BLACK
6
CONTINUOUS
10
82.6701
20
-205.442
11
83.2416
21
-205.442
0
LINE
8
BLACK
6
CONTINUOUS
10
83.2416
20
-205.442
11
83.5273
21
-205.299
0
LINE
8
BLACK
6
CONTINUOUS
10
83.5273
20
-205.299
11
83.6701
21
-205.156
0
LINE
8
BLACK
6
CONTINUOUS
10
83.6701
20
-205.156
11
83.813
21
-204.871
0
LINE
8
BLACK
6
CONTINUOUS
10
83.813
20
-204.871
11
83.813
21
-204.299
0
LINE
8
BLACK
6
CONTINUOUS
10
83.813
20
-204.299
11
83.6701
21
-204.014
0
LINE
8
BLACK
6
CONTINUOUS
10
83.6701
20
-204.014
11
83.5273
21
-203.871
0
LINE
8
BLACK
6
CONTINUOUS
10
83.5273
20
-203.871
11
83.2416
21
-203.728
0
LINE
8
BLACK
6
CONTINUOUS
10
84.9559
20
-202.442
11
84.9559
21
-203.014
0
LINE
8
BLACK
6
CONTINUOUS
10
86.0987
20
-202.442
11
86.0987
21
-203.014
0
LINE
8
BLACK
6
CONTINUOUS
10
90.5273
20
-206.585
11
90.3844
21
-206.442
0
LINE
8
BLACK
6
CONTINUOUS
10
90.3844
20
-206.442
11
90.0987
21
-206.014
0
LINE
8
BLACK
6
CONTINUOUS
10
90.0987
20
-206.014
11
89.9559
21
-205.728
0
LINE
8
BLACK
6
CONTINUOUS
10
89.9559
20
-205.728
11
89.813
21
-205.299
0
LINE
8
BLACK
6
CONTINUOUS
10
89.813
20
-205.299
11
89.6701
21
-204.585
0
LINE
8
BLACK
6
CONTINUOUS
10
89.6701
20
-204.585
11
89.6701
21
-204.014
0
LINE
8
BLACK
6
CONTINUOUS
10
89.6701
20
-204.014
11
89.813
21
-203.299
0
LINE
8
BLACK
6
CONTINUOUS
10
89.813
20
-203.299
11
89.9559
21
-202.871
0
LINE
8
BLACK
6
CONTINUOUS
10
89.9559
20
-202.871
11
90.0987
21
-202.585
0
LINE
8
BLACK
6
CONTINUOUS
10
90.0987
20
-202.585
11
90.3844
21
-202.156
0
LINE
8
BLACK
6
CONTINUOUS
10
90.3844
20
-202.156
11
90.5273
21
-202.014
0
LINE
8
BLACK
6
CONTINUOUS
10
92.9559
20
-203.442
11
92.9559
21
-205.442
0
LINE
8
BLACK
6
CONTINUOUS
10
92.2416
20
-202.299
11
91.5273
21
-204.442
0
LINE
8
BLACK
6
CONTINUOUS
10
91.5273
20
-204.442
11
93.3844
21
-204.442
0
LINE
8
BLACK
6
CONTINUOUS
10
95.0987
20
-202.442
11
95.3844
21
-202.442
0
LINE
8
BLACK
6
CONTINUOUS
10
95.3844
20
-202.442
11
95.6701
21
-202.585
0
LINE
8
BLACK
6
CONTINUOUS
10
95.6701
20
-202.585
11
95.813
21
-202.728
0
LINE
8
BLACK
6
CONTINUOUS
10
95.813
20
-202.728
11
95.9559
21
-203.014
0
LINE
8
BLACK
6
CONTINUOUS
10
95.9559
20
-203.014
11
96.0987
21
-203.585
0
LINE
8
BLACK
6
CONTINUOUS
10
96.0987
20
-203.585
11
96.0987
21
-204.299
0
LINE
8
BLACK
6
CONTINUOUS
10
96.0987
20
-204.299
11
95.9559
21
-204.871
0
LINE
8
BLACK
6
CONTINUOUS
10
95.9559
20
-204.871
11
95.813
21
-205.156
0
LINE
8
BLACK
6
CONTINUOUS
10
95.813
20
-205.156
11
95.6701
21
-205.299
0
LINE
8
BLACK
6
CONTINUOUS
10
95.6701
20
-205.299
11
95.3844
21
-205.442
0
LINE
8
BLACK
6
CONTINUOUS
10
95.3844
20
-205.442
11
95.0987
21
-205.442
0
LINE
8
BLACK
6
CONTINUOUS
10
95.0987
20
-205.442
11
94.813
21
-205.299
0
LINE
8
BLACK
6
CONTINUOUS
10
94.813
20
-205.299
11
94.6701
21
-205.156
0
LINE
8
BLACK
6
CONTINUOUS
10
94.6701
20
-205.156
11
94.5273
21
-204.871
0
LINE
8
BLACK
6
CONTINUOUS
10
94.5273
20
-204.871
11
94.3844
21
-204.299
0
LINE
8
BLACK
6
CONTINUOUS
10
94.3844
20
-204.299
11
94.3844
21
-203.585
0
LINE
8
BLACK
6
CONTINUOUS
10
94.3844
20
-203.585
11
94.5273
21
-203.014
0
LINE
8
BLACK
6
CONTINUOUS
10
94.5273
20
-203.014
11
94.6701
21
-202.728
0
LINE
8
BLACK
6
CONTINUOUS
10
94.6701
20
-202.728
11
94.813
21
-202.585
0
LINE
8
BLACK
6
CONTINUOUS
10
94.813
20
-202.585
11
95.0987
21
-202.442
0
LINE
8
BLACK
6
CONTINUOUS
10
99.6701
20
-205.442
11
99.6701
21
-202.442
0
LINE
8
BLACK
6
CONTINUOUS
10
100.956
20
-205.442
11
100.956
21
-203.871
0
LINE
8
BLACK
6
CONTINUOUS
10
100.956
20
-203.871
11
100.813
21
-203.585
0
LINE
8
BLACK
6
CONTINUOUS
10
100.813
20
-203.585
11
100.527
21
-203.442
0
LINE
8
BLACK
6
CONTINUOUS
10
100.527
20
-203.442
11
100.099
21
-203.442
0
LINE
8
BLACK
6
CONTINUOUS
10
100.099
20
-203.442
11
99.813
21
-203.585
0
LINE
8
BLACK
6
CONTINUOUS
10
99.813
20
-203.585
11
99.6701
21
-203.728
0
LINE
8
BLACK
6
CONTINUOUS
10
102.813
20
-205.442
11
102.527
21
-205.299
0
LINE
8
BLACK
6
CONTINUOUS
10
102.527
20
-205.299
11
102.384
21
-205.156
0
LINE
8
BLACK
6
CONTINUOUS
10
102.384
20
-205.156
11
102.242
21
-204.871
0
LINE
8
BLACK
6
CONTINUOUS
10
102.242
20
-204.871
11
102.242
21
-204.014
0
LINE
8
BLACK
6
CONTINUOUS
10
102.242
20
-204.014
11
102.384
21
-203.728
0
LINE
8
BLACK
6
CONTINUOUS
10
102.384
20
-203.728
11
102.527
21
-203.585
0
LINE
8
BLACK
6
CONTINUOUS
10
102.527
20
-203.585
11
102.813
21
-203.442
0
LINE
8
BLACK
6
CONTINUOUS
10
102.813
20
-203.442
11
103.242
21
-203.442
0
LINE
8
BLACK
6
CONTINUOUS
10
103.242
20
-203.442
11
103.527
21
-203.585
0
LINE
8
BLACK
6
CONTINUOUS
10
103.527
20
-203.585
11
103.67
21
-203.728
0
LINE
8
BLACK
6
CONTINUOUS
10
103.67
20
-203.728
11
103.813
21
-204.014
0
LINE
8
BLACK
6
CONTINUOUS
10
103.813
20
-204.014
11
103.813
21
-204.871
0
LINE
8
BLACK
6
CONTINUOUS
10
103.813
20
-204.871
11
103.67
21
-205.156
0
LINE
8
BLACK
6
CONTINUOUS
10
103.67
20
-205.156
11
103.527
21
-205.299
0
LINE
8
BLACK
6
CONTINUOUS
10
103.527
20
-205.299
11
103.242
21
-205.442
0
LINE
8
BLACK
6
CONTINUOUS
10
103.242
20
-205.442
11
102.813
21
-205.442
0
LINE
8
BLACK
6
CONTINUOUS
10
105.527
20
-205.442
11
105.242
21
-205.299
0
LINE
8
BLACK
6
CONTINUOUS
10
105.242
20
-205.299
11
105.099
21
-205.014
0
LINE
8
BLACK
6
CONTINUOUS
10
105.099
20
-205.014
11
105.099
21
-202.442
0
LINE
8
BLACK
6
CONTINUOUS
10
107.813
20
-205.299
11
107.527
21
-205.442
0
LINE
8
BLACK
6
CONTINUOUS
10
107.527
20
-205.442
11
106.956
21
-205.442
0
LINE
8
BLACK
6
CONTINUOUS
10
106.956
20
-205.442
11
106.67
21
-205.299
0
LINE
8
BLACK
6
CONTINUOUS
10
106.67
20
-205.299
11
106.527
21
-205.014
0
LINE
8
BLACK
6
CONTINUOUS
10
106.527
20
-205.014
11
106.527
21
-203.871
0
LINE
8
BLACK
6
CONTINUOUS
10
106.527
20
-203.871
11
106.67
21
-203.585
0
LINE
8
BLACK
6
CONTINUOUS
10
106.67
20
-203.585
11
106.956
21
-203.442
0
LINE
8
BLACK
6
CONTINUOUS
10
106.956
20
-203.442
11
107.527
21
-203.442
0
LINE
8
BLACK
6
CONTINUOUS
10
107.527
20
-203.442
11
107.813
21
-203.585
0
LINE
8
BLACK
6
CONTINUOUS
10
107.813
20
-203.585
11
107.956
21
-203.871
0
LINE
8
BLACK
6
CONTINUOUS
10
107.956
20
-203.871
11
107.956
21
-204.156
0
LINE
8
BLACK
6
CONTINUOUS
10
107.956
20
-204.156
11
106.527
21
-204.442
0
LINE
8
BLACK
6
CONTINUOUS
10
109.099
20
-205.299
11
109.384
21
-205.442
0
LINE
8
BLACK
6
CONTINUOUS
10
109.384
20
-205.442
11
109.956
21
-205.442
0
LINE
8
BLACK
6
CONTINUOUS
10
109.956
20
-205.442
11
110.242
21
-205.299
0
LINE
8
BLACK
6
CONTINUOUS
10
110.242
20
-205.299
11
110.384
21
-205.014
0
LINE
8
BLACK
6
CONTINUOUS
10
110.384
20
-205.014
11
110.384
21
-204.871
0
LINE
8
BLACK
6
CONTINUOUS
10
110.384
20
-204.871
11
110.242
21
-204.585
0
LINE
8
BLACK
6
CONTINUOUS
10
110.242
20
-204.585
11
109.956
21
-204.442
0
LINE
8
BLACK
6
CONTINUOUS
10
109.956
20
-204.442
11
109.527
21
-204.442
0
LINE
8
BLACK
6
CONTINUOUS
10
109.527
20
-204.442
11
109.242
21
-204.299
0
LINE
8
BLACK
6
CONTINUOUS
10
109.242
20
-204.299
11
109.099
21
-204.014
0
LINE
8
BLACK
6
CONTINUOUS
10
109.099
20
-204.014
11
109.099
21
-203.871
0
LINE
8
BLACK
6
CONTINUOUS
10
109.099
20
-203.871
11
109.242
21
-203.585
0
LINE
8
BLACK
6
CONTINUOUS
10
109.242
20
-203.585
11
109.527
21
-203.442
0
LINE
8
BLACK
6
CONTINUOUS
10
109.527
20
-203.442
11
109.956
21
-203.442
0
LINE
8
BLACK
6
CONTINUOUS
10
109.956
20
-203.442
11
110.242
21
-203.585
0
LINE
8
BLACK
6
CONTINUOUS
10
111.384
20
-206.585
11
111.527
21
-206.442
0
LINE
8
BLACK
6
CONTINUOUS
10
111.527
20
-206.442
11
111.813
21
-206.014
0
LINE
8
BLACK
6
CONTINUOUS
10
111.813
20
-206.014
11
111.956
21
-205.728
0
LINE
8
BLACK
6
CONTINUOUS
10
111.956
20
-205.728
11
112.099
21
-205.299
0
LINE
8
BLACK
6
CONTINUOUS
10
112.099
20
-205.299
11
112.242
21
-204.585
0
LINE
8
BLACK
6
CONTINUOUS
10
112.242
20
-204.585
11
112.242
21
-204.014
0
LINE
8
BLACK
6
CONTINUOUS
10
112.242
20
-204.014
11
112.099
21
-203.299
0
LINE
8
BLACK
6
CONTINUOUS
10
112.099
20
-203.299
11
111.956
21
-202.871
0
LINE
8
BLACK
6
CONTINUOUS
10
111.956
20
-202.871
11
111.813
21
-202.585
0
LINE
8
BLACK
6
CONTINUOUS
10
111.813
20
-202.585
11
111.527
21
-202.156
0
LINE
8
BLACK
6
CONTINUOUS
10
111.527
20
-202.156
11
111.384
21
-202.014
0
LINE
8
BLACK
6
CONTINUOUS
10
116.813
20
-206.585
11
116.67
21
-206.442
0
LINE
8
BLACK
6
CONTINUOUS
10
116.67
20
-206.442
11
116.384
21
-206.014
0
LINE
8
BLACK
6
CONTINUOUS
10
116.384
20
-206.014
11
116.242
21
-205.728
0
LINE
8
BLACK
6
CONTINUOUS
10
116.242
20
-205.728
11
116.099
21
-205.299
0
LINE
8
BLACK
6
CONTINUOUS
10
116.099
20
-205.299
11
115.956
21
-204.585
0
LINE
8
BLACK
6
CONTINUOUS
10
115.956
20
-204.585
11
115.956
21
-204.014
0
LINE
8
BLACK
6
CONTINUOUS
10
115.956
20
-204.014
11
116.099
21
-203.299
0
LINE
8
BLACK
6
CONTINUOUS
10
116.099
20
-203.299
11
116.242
21
-202.871
0
LINE
8
BLACK
6
CONTINUOUS
10
116.242
20
-202.871
11
116.384
21
-202.585
0
LINE
8
BLACK
6
CONTINUOUS
10
116.384
20
-202.585
11
116.67
21
-202.156
0
LINE
8
BLACK
6
CONTINUOUS
10
116.67
20
-202.156
11
116.813
21
-202.014
0
LINE
8
BLACK
6
CONTINUOUS
10
117.956
20
-203.442
11
117.956
21
-205.442
0
LINE
8
BLACK
6
CONTINUOUS
10
117.956
20
-203.728
11
118.099
21
-203.585
0
LINE
8
BLACK
6
CONTINUOUS
10
118.099
20
-203.585
11
118.384
21
-203.442
0
LINE
8
BLACK
6
CONTINUOUS
10
118.384
20
-203.442
11
118.813
21
-203.442
0
LINE
8
BLACK
6
CONTINUOUS
10
118.813
20
-203.442
11
119.099
21
-203.585
0
LINE
8
BLACK
6
CONTINUOUS
10
119.099
20
-203.585
11
119.242
21
-203.871
0
LINE
8
BLACK
6
CONTINUOUS
10
119.242
20
-203.871
11
119.242
21
-205.442
0
LINE
8
BLACK
6
CONTINUOUS
10
121.099
20
-205.442
11
120.813
21
-205.299
0
LINE
8
BLACK
6
CONTINUOUS
10
120.813
20
-205.299
11
120.67
21
-205.156
0
LINE
8
BLACK
6
CONTINUOUS
10
120.67
20
-205.156
11
120.527
21
-204.871
0
LINE
8
BLACK
6
CONTINUOUS
10
120.527
20
-204.871
11
120.527
21
-204.014
0
LINE
8
BLACK
6
CONTINUOUS
10
120.527
20
-204.014
11
120.67
21
-203.728
0
LINE
8
BLACK
6
CONTINUOUS
10
120.67
20
-203.728
11
120.813
21
-203.585
0
LINE
8
BLACK
6
CONTINUOUS
10
120.813
20
-203.585
11
121.099
21
-203.442
0
LINE
8
BLACK
6
CONTINUOUS
10
121.099
20
-203.442
11
121.527
21
-203.442
0
LINE
8
BLACK
6
CONTINUOUS
10
121.527
20
-203.442
11
121.813
21
-203.585
0
LINE
8
BLACK
6
CONTINUOUS
10
121.813
20
-203.585
11
121.956
21
-203.728
0
LINE
8
BLACK
6
CONTINUOUS
10
121.956
20
-203.728
11
122.099
21
-204.014
0
LINE
8
BLACK
6
CONTINUOUS
10
122.099
20
-204.014
11
122.099
21
-204.871
0
LINE
8
BLACK
6
CONTINUOUS
10
122.099
20
-204.871
11
121.956
21
-205.156
0
LINE
8
BLACK
6
CONTINUOUS
10
121.956
20
-205.156
11
121.813
21
-205.299
0
LINE
8
BLACK
6
CONTINUOUS
10
121.813
20
-205.299
11
121.527
21
-205.442
0
LINE
8
BLACK
6
CONTINUOUS
10
121.527
20
-205.442
11
121.099
21
-205.442
0
LINE
8
BLACK
6
CONTINUOUS
10
122.956
20
-203.442
11
124.099
21
-203.442
0
LINE
8
BLACK
6
CONTINUOUS
10
123.384
20
-202.442
11
123.384
21
-205.014
0
LINE
8
BLACK
6
CONTINUOUS
10
123.384
20
-205.014
11
123.527
21
-205.299
0
LINE
8
BLACK
6
CONTINUOUS
10
123.527
20
-205.299
11
123.813
21
-205.442
0
LINE
8
BLACK
6
CONTINUOUS
10
123.813
20
-205.442
11
124.099
21
-205.442
0
LINE
8
BLACK
6
CONTINUOUS
10
127.384
20
-203.442
11
127.384
21
-206.442
0
LINE
8
BLACK
6
CONTINUOUS
10
127.384
20
-203.585
11
127.67
21
-203.442
0
LINE
8
BLACK
6
CONTINUOUS
10
127.67
20
-203.442
11
128.242
21
-203.442
0
LINE
8
BLACK
6
CONTINUOUS
10
128.242
20
-203.442
11
128.527
21
-203.585
0
LINE
8
BLACK
6
CONTINUOUS
10
128.527
20
-203.585
11
128.67
21
-203.728
0
LINE
8
BLACK
6
CONTINUOUS
10
128.67
20
-203.728
11
128.813
21
-204.014
0
LINE
8
BLACK
6
CONTINUOUS
10
128.813
20
-204.014
11
128.813
21
-204.871
0
LINE
8
BLACK
6
CONTINUOUS
10
128.813
20
-204.871
11
128.67
21
-205.156
0
LINE
8
BLACK
6
CONTINUOUS
10
128.67
20
-205.156
11
128.527
21
-205.299
0
LINE
8
BLACK
6
CONTINUOUS
10
128.527
20
-205.299
11
128.242
21
-205.442
0
LINE
8
BLACK
6
CONTINUOUS
10
128.242
20
-205.442
11
127.67
21
-205.442
0
LINE
8
BLACK
6
CONTINUOUS
10
127.67
20
-205.442
11
127.384
21
-205.299
0
LINE
8
BLACK
6
CONTINUOUS
10
130.527
20
-205.442
11
130.242
21
-205.299
0
LINE
8
BLACK
6
CONTINUOUS
10
130.242
20
-205.299
11
130.099
21
-205.014
0
LINE
8
BLACK
6
CONTINUOUS
10
130.099
20
-205.014
11
130.099
21
-202.442
0
LINE
8
BLACK
6
CONTINUOUS
10
132.956
20
-205.442
11
132.956
21
-203.871
0
LINE
8
BLACK
6
CONTINUOUS
10
132.956
20
-203.871
11
132.813
21
-203.585
0
LINE
8
BLACK
6
CONTINUOUS
10
132.813
20
-203.585
11
132.527
21
-203.442
0
LINE
8
BLACK
6
CONTINUOUS
10
132.527
20
-203.442
11
131.956
21
-203.442
0
LINE
8
BLACK
6
CONTINUOUS
10
131.956
20
-203.442
11
131.67
21
-203.585
0
LINE
8
BLACK
6
CONTINUOUS
10
132.956
20
-205.299
11
132.67
21
-205.442
0
LINE
8
BLACK
6
CONTINUOUS
10
132.67
20
-205.442
11
131.956
21
-205.442
0
LINE
8
BLACK
6
CONTINUOUS
10
131.956
20
-205.442
11
131.67
21
-205.299
0
LINE
8
BLACK
6
CONTINUOUS
10
131.67
20
-205.299
11
131.527
21
-205.014
0
LINE
8
BLACK
6
CONTINUOUS
10
131.527
20
-205.014
11
131.527
21
-204.728
0
LINE
8
BLACK
6
CONTINUOUS
10
131.527
20
-204.728
11
131.67
21
-204.442
0
LINE
8
BLACK
6
CONTINUOUS
10
131.67
20
-204.442
11
131.956
21
-204.299
0
LINE
8
BLACK
6
CONTINUOUS
10
131.956
20
-204.299
11
132.67
21
-204.299
0
LINE
8
BLACK
6
CONTINUOUS
10
132.67
20
-204.299
11
132.956
21
-204.156
0
LINE
8
BLACK
6
CONTINUOUS
10
133.956
20
-203.442
11
135.099
21
-203.442
0
LINE
8
BLACK
6
CONTINUOUS
10
134.384
20
-202.442
11
134.384
21
-205.014
0
LINE
8
BLACK
6
CONTINUOUS
10
134.384
20
-205.014
11
134.527
21
-205.299
0
LINE
8
BLACK
6
CONTINUOUS
10
134.527
20
-205.299
11
134.813
21
-205.442
0
LINE
8
BLACK
6
CONTINUOUS
10
134.813
20
-205.442
11
135.099
21
-205.442
0
LINE
8
BLACK
6
CONTINUOUS
10
137.242
20
-205.299
11
136.956
21
-205.442
0
LINE
8
BLACK
6
CONTINUOUS
10
136.956
20
-205.442
11
136.384
21
-205.442
0
LINE
8
BLACK
6
CONTINUOUS
10
136.384
20
-205.442
11
136.099
21
-205.299
0
LINE
8
BLACK
6
CONTINUOUS
10
136.099
20
-205.299
11
135.956
21
-205.014
0
LINE
8
BLACK
6
CONTINUOUS
10
135.956
20
-205.014
11
135.956
21
-203.871
0
LINE
8
BLACK
6
CONTINUOUS
10
135.956
20
-203.871
11
136.099
21
-203.585
0
LINE
8
BLACK
6
CONTINUOUS
10
136.099
20
-203.585
11
136.384
21
-203.442
0
LINE
8
BLACK
6
CONTINUOUS
10
136.384
20
-203.442
11
136.956
21
-203.442
0
LINE
8
BLACK
6
CONTINUOUS
10
136.956
20
-203.442
11
137.242
21
-203.585
0
LINE
8
BLACK
6
CONTINUOUS
10
137.242
20
-203.585
11
137.384
21
-203.871
0
LINE
8
BLACK
6
CONTINUOUS
10
137.384
20
-203.871
11
137.384
21
-204.156
0
LINE
8
BLACK
6
CONTINUOUS
10
137.384
20
-204.156
11
135.956
21
-204.442
0
LINE
8
BLACK
6
CONTINUOUS
10
139.956
20
-205.442
11
139.956
21
-202.442
0
LINE
8
BLACK
6
CONTINUOUS
10
139.956
20
-205.299
11
139.67
21
-205.442
0
LINE
8
BLACK
6
CONTINUOUS
10
139.67
20
-205.442
11
139.099
21
-205.442
0
LINE
8
BLACK
6
CONTINUOUS
10
139.099
20
-205.442
11
138.813
21
-205.299
0
LINE
8
BLACK
6
CONTINUOUS
10
138.813
20
-205.299
11
138.67
21
-205.156
0
LINE
8
BLACK
6
CONTINUOUS
10
138.67
20
-205.156
11
138.527
21
-204.871
0
LINE
8
BLACK
6
CONTINUOUS
10
138.527
20
-204.871
11
138.527
21
-204.014
0
LINE
8
BLACK
6
CONTINUOUS
10
138.527
20
-204.014
11
138.67
21
-203.728
0
LINE
8
BLACK
6
CONTINUOUS
10
138.67
20
-203.728
11
138.813
21
-203.585
0
LINE
8
BLACK
6
CONTINUOUS
10
138.813
20
-203.585
11
139.099
21
-203.442
0
LINE
8
BLACK
6
CONTINUOUS
10
139.099
20
-203.442
11
139.67
21
-203.442
0
LINE
8
BLACK
6
CONTINUOUS
10
139.67
20
-203.442
11
139.956
21
-203.585
0
LINE
8
BLACK
6
CONTINUOUS
10
141.099
20
-206.585
11
141.242
21
-206.442
0
LINE
8
BLACK
6
CONTINUOUS
10
141.242
20
-206.442
11
141.527
21
-206.014
0
LINE
8
BLACK
6
CONTINUOUS
10
141.527
20
-206.014
11
141.67
21
-205.728
0
LINE
8
BLACK
6
CONTINUOUS
10
141.67
20
-205.728
11
141.813
21
-205.299
0
LINE
8
BLACK
6
CONTINUOUS
10
141.813
20
-205.299
11
141.956
21
-204.585
0
LINE
8
BLACK
6
CONTINUOUS
10
141.956
20
-204.585
11
141.956
21
-204.014
0
LINE
8
BLACK
6
CONTINUOUS
10
141.956
20
-204.014
11
141.813
21
-203.299
0
LINE
8
BLACK
6
CONTINUOUS
10
141.813
20
-203.299
11
141.67
21
-202.871
0
LINE
8
BLACK
6
CONTINUOUS
10
141.67
20
-202.871
11
141.527
21
-202.585
0
LINE
8
BLACK
6
CONTINUOUS
10
141.527
20
-202.585
11
141.242
21
-202.156
0
LINE
8
BLACK
6
CONTINUOUS
10
141.242
20
-202.156
11
141.099
21
-202.014
0
LINE
8
BLACK
6
CONTINUOUS
10
41.663
20
-206.385
11
41.663
21
-210.385
0
LINE
8
BLACK
6
CONTINUOUS
10
39.663
20
-208.385
11
43.663
21
-208.385
0
LINE
8
BLACK
6
CONTINUOUS
10
47.813
20
-207.742
11
47.813
21
-209.742
0
LINE
8
BLACK
6
CONTINUOUS
10
47.0987
20
-206.599
11
46.3844
21
-208.742
0
LINE
8
BLACK
6
CONTINUOUS
10
46.3844
20
-208.742
11
48.2416
21
-208.742
0
LINE
8
BLACK
6
CONTINUOUS
10
49.3844
20
-209.456
11
49.5273
21
-209.599
0
LINE
8
BLACK
6
CONTINUOUS
10
49.5273
20
-209.599
11
49.3844
21
-209.742
0
LINE
8
BLACK
6
CONTINUOUS
10
49.3844
20
-209.742
11
49.2416
21
-209.599
0
LINE
8
BLACK
6
CONTINUOUS
10
49.2416
20
-209.599
11
49.3844
21
-209.456
0
LINE
8
BLACK
6
CONTINUOUS
10
49.3844
20
-209.456
11
49.3844
21
-209.742
0
LINE
8
BLACK
6
CONTINUOUS
10
51.3844
20
-206.742
11
51.6701
21
-206.742
0
LINE
8
BLACK
6
CONTINUOUS
10
51.6701
20
-206.742
11
51.9559
21
-206.885
0
LINE
8
BLACK
6
CONTINUOUS
10
51.9559
20
-206.885
11
52.0987
21
-207.028
0
LINE
8
BLACK
6
CONTINUOUS
10
52.0987
20
-207.028
11
52.2416
21
-207.314
0
LINE
8
BLACK
6
CONTINUOUS
10
52.2416
20
-207.314
11
52.3844
21
-207.885
0
LINE
8
BLACK
6
CONTINUOUS
10
52.3844
20
-207.885
11
52.3844
21
-208.599
0
LINE
8
BLACK
6
CONTINUOUS
10
52.3844
20
-208.599
11
52.2416
21
-209.171
0
LINE
8
BLACK
6
CONTINUOUS
10
52.2416
20
-209.171
11
52.0987
21
-209.456
0
LINE
8
BLACK
6
CONTINUOUS
10
52.0987
20
-209.456
11
51.9559
21
-209.599
0
LINE
8
BLACK
6
CONTINUOUS
10
51.9559
20
-209.599
11
51.6701
21
-209.742
0
LINE
8
BLACK
6
CONTINUOUS
10
51.6701
20
-209.742
11
51.3844
21
-209.742
0
LINE
8
BLACK
6
CONTINUOUS
10
51.3844
20
-209.742
11
51.0987
21
-209.599
0
LINE
8
BLACK
6
CONTINUOUS
10
51.0987
20
-209.599
11
50.9559
21
-209.456
0
LINE
8
BLACK
6
CONTINUOUS
10
50.9559
20
-209.456
11
50.813
21
-209.171
0
LINE
8
BLACK
6
CONTINUOUS
10
50.813
20
-209.171
11
50.6701
21
-208.599
0
LINE
8
BLACK
6
CONTINUOUS
10
50.6701
20
-208.599
11
50.6701
21
-207.885
0
LINE
8
BLACK
6
CONTINUOUS
10
50.6701
20
-207.885
11
50.813
21
-207.314
0
LINE
8
BLACK
6
CONTINUOUS
10
50.813
20
-207.314
11
50.9559
21
-207.028
0
LINE
8
BLACK
6
CONTINUOUS
10
50.9559
20
-207.028
11
51.0987
21
-206.885
0
LINE
8
BLACK
6
CONTINUOUS
10
51.0987
20
-206.885
11
51.3844
21
-206.742
0
LINE
8
BLACK
6
CONTINUOUS
10
54.2416
20
-206.742
11
54.5273
21
-206.742
0
LINE
8
BLACK
6
CONTINUOUS
10
54.5273
20
-206.742
11
54.813
21
-206.885
0
LINE
8
BLACK
6
CONTINUOUS
10
54.813
20
-206.885
11
54.9559
21
-207.028
0
LINE
8
BLACK
6
CONTINUOUS
10
54.9559
20
-207.028
11
55.0987
21
-207.314
0
LINE
8
BLACK
6
CONTINUOUS
10
55.0987
20
-207.314
11
55.2416
21
-207.885
0
LINE
8
BLACK
6
CONTINUOUS
10
55.2416
20
-207.885
11
55.2416
21
-208.599
0
LINE
8
BLACK
6
CONTINUOUS
10
55.2416
20
-208.599
11
55.0987
21
-209.171
0
LINE
8
BLACK
6
CONTINUOUS
10
55.0987
20
-209.171
11
54.9559
21
-209.456
0
LINE
8
BLACK
6
CONTINUOUS
10
54.9559
20
-209.456
11
54.813
21
-209.599
0
LINE
8
BLACK
6
CONTINUOUS
10
54.813
20
-209.599
11
54.5273
21
-209.742
0
LINE
8
BLACK
6
CONTINUOUS
10
54.5273
20
-209.742
11
54.2416
21
-209.742
0
LINE
8
BLACK
6
CONTINUOUS
10
54.2416
20
-209.742
11
53.9559
21
-209.599
0
LINE
8
BLACK
6
CONTINUOUS
10
53.9559
20
-209.599
11
53.813
21
-209.456
0
LINE
8
BLACK
6
CONTINUOUS
10
53.813
20
-209.456
11
53.6701
21
-209.171
0
LINE
8
BLACK
6
CONTINUOUS
10
53.6701
20
-209.171
11
53.5273
21
-208.599
0
LINE
8
BLACK
6
CONTINUOUS
10
53.5273
20
-208.599
11
53.5273
21
-207.885
0
LINE
8
BLACK
6
CONTINUOUS
10
53.5273
20
-207.885
11
53.6701
21
-207.314
0
LINE
8
BLACK
6
CONTINUOUS
10
53.6701
20
-207.314
11
53.813
21
-207.028
0
LINE
8
BLACK
6
CONTINUOUS
10
53.813
20
-207.028
11
53.9559
21
-206.885
0
LINE
8
BLACK
6
CONTINUOUS
10
53.9559
20
-206.885
11
54.2416
21
-206.742
0
LINE
8
BLACK
6
CONTINUOUS
10
56.5273
20
-209.742
11
56.5273
21
-207.742
0
LINE
8
BLACK
6
CONTINUOUS
10
56.5273
20
-208.028
11
56.6701
21
-207.885
0
LINE
8
BLACK
6
CONTINUOUS
10
56.6701
20
-207.885
11
56.9559
21
-207.742
0
LINE
8
BLACK
6
CONTINUOUS
10
56.9559
20
-207.742
11
57.3844
21
-207.742
0
LINE
8
BLACK
6
CONTINUOUS
10
57.3844
20
-207.742
11
57.6701
21
-207.885
0
LINE
8
BLACK
6
CONTINUOUS
10
57.6701
20
-207.885
11
57.813
21
-208.171
0
LINE
8
BLACK
6
CONTINUOUS
10
57.813
20
-208.171
11
57.813
21
-209.742
0
LINE
8
BLACK
6
CONTINUOUS
10
57.813
20
-208.171
11
57.9559
21
-207.885
0
LINE
8
BLACK
6
CONTINUOUS
10
57.9559
20
-207.885
11
58.2416
21
-207.742
0
LINE
8
BLACK
6
CONTINUOUS
10
58.2416
20
-207.742
11
58.6701
21
-207.742
0
LINE
8
BLACK
6
CONTINUOUS
10
58.6701
20
-207.742
11
58.9559
21
-207.885
0
LINE
8
BLACK
6
CONTINUOUS
10
58.9559
20
-207.885
11
59.0987
21
-208.171
0
LINE
8
BLACK
6
CONTINUOUS
10
59.0987
20
-208.171
11
59.0987
21
-209.742
0
LINE
8
BLACK
6
CONTINUOUS
10
60.5273
20
-209.742
11
60.5273
21
-207.742
0
LINE
8
BLACK
6
CONTINUOUS
10
60.5273
20
-208.028
11
60.6701
21
-207.885
0
LINE
8
BLACK
6
CONTINUOUS
10
60.6701
20
-207.885
11
60.9559
21
-207.742
0
LINE
8
BLACK
6
CONTINUOUS
10
60.9559
20
-207.742
11
61.3844
21
-207.742
0
LINE
8
BLACK
6
CONTINUOUS
10
61.3844
20
-207.742
11
61.6701
21
-207.885
0
LINE
8
BLACK
6
CONTINUOUS
10
61.6701
20
-207.885
11
61.813
21
-208.171
0
LINE
8
BLACK
6
CONTINUOUS
10
61.813
20
-208.171
11
61.813
21
-209.742
0
LINE
8
BLACK
6
CONTINUOUS
10
61.813
20
-208.171
11
61.9559
21
-207.885
0
LINE
8
BLACK
6
CONTINUOUS
10
61.9559
20
-207.885
11
62.2416
21
-207.742
0
LINE
8
BLACK
6
CONTINUOUS
10
62.2416
20
-207.742
11
62.6701
21
-207.742
0
LINE
8
BLACK
6
CONTINUOUS
10
62.6701
20
-207.742
11
62.9559
21
-207.885
0
LINE
8
BLACK
6
CONTINUOUS
10
62.9559
20
-207.885
11
63.0987
21
-208.171
0
LINE
8
BLACK
6
CONTINUOUS
10
63.0987
20
-208.171
11
63.0987
21
-209.742
0
LINE
8
BLACK
6
CONTINUOUS
10
68.9559
20
-206.599
11
66.3844
21
-210.456
0
LINE
8
BLACK
6
CONTINUOUS
10
72.813
20
-206.742
11
73.0987
21
-206.742
0
LINE
8
BLACK
6
CONTINUOUS
10
73.0987
20
-206.742
11
73.3844
21
-206.885
0
LINE
8
BLACK
6
CONTINUOUS
10
73.3844
20
-206.885
11
73.5273
21
-207.028
0
LINE
8
BLACK
6
CONTINUOUS
10
73.5273
20
-207.028
11
73.6701
21
-207.314
0
LINE
8
BLACK
6
CONTINUOUS
10
73.6701
20
-207.314
11
73.813
21
-207.885
0
LINE
8
BLACK
6
CONTINUOUS
10
73.813
20
-207.885
11
73.813
21
-208.599
0
LINE
8
BLACK
6
CONTINUOUS
10
73.813
20
-208.599
11
73.6701
21
-209.171
0
LINE
8
BLACK
6
CONTINUOUS
10
73.6701
20
-209.171
11
73.5273
21
-209.456
0
LINE
8
BLACK
6
CONTINUOUS
10
73.5273
20
-209.456
11
73.3844
21
-209.599
0
LINE
8
BLACK
6
CONTINUOUS
10
73.3844
20
-209.599
11
73.0987
21
-209.742
0
LINE
8
BLACK
6
CONTINUOUS
10
73.0987
20
-209.742
11
72.813
21
-209.742
0
LINE
8
BLACK
6
CONTINUOUS
10
72.813
20
-209.742
11
72.5273
21
-209.599
0
LINE
8
BLACK
6
CONTINUOUS
10
72.5273
20
-209.599
11
72.3844
21
-209.456
0
LINE
8
BLACK
6
CONTINUOUS
10
72.3844
20
-209.456
11
72.2416
21
-209.171
0
LINE
8
BLACK
6
CONTINUOUS
10
72.2416
20
-209.171
11
72.0987
21
-208.599
0
LINE
8
BLACK
6
CONTINUOUS
10
72.0987
20
-208.599
11
72.0987
21
-207.885
0
LINE
8
BLACK
6
CONTINUOUS
10
72.0987
20
-207.885
11
72.2416
21
-207.314
0
LINE
8
BLACK
6
CONTINUOUS
10
72.2416
20
-207.314
11
72.3844
21
-207.028
0
LINE
8
BLACK
6
CONTINUOUS
10
72.3844
20
-207.028
11
72.5273
21
-206.885
0
LINE
8
BLACK
6
CONTINUOUS
10
72.5273
20
-206.885
11
72.813
21
-206.742
0
LINE
8
BLACK
6
CONTINUOUS
10
75.0987
20
-209.456
11
75.2416
21
-209.599
0
LINE
8
BLACK
6
CONTINUOUS
10
75.2416
20
-209.599
11
75.0987
21
-209.742
0
LINE
8
BLACK
6
CONTINUOUS
10
75.0987
20
-209.742
11
74.9559
21
-209.599
0
LINE
8
BLACK
6
CONTINUOUS
10
74.9559
20
-209.599
11
75.0987
21
-209.456
0
LINE
8
BLACK
6
CONTINUOUS
10
75.0987
20
-209.456
11
75.0987
21
-209.742
0
LINE
8
BLACK
6
CONTINUOUS
10
78.0987
20
-209.742
11
76.3844
21
-209.742
0
LINE
8
BLACK
6
CONTINUOUS
10
77.2416
20
-209.742
11
77.2416
21
-206.742
0
LINE
8
BLACK
6
CONTINUOUS
10
77.2416
20
-206.742
11
76.9559
21
-207.171
0
LINE
8
BLACK
6
CONTINUOUS
10
76.9559
20
-207.171
11
76.6701
21
-207.456
0
LINE
8
BLACK
6
CONTINUOUS
10
76.6701
20
-207.456
11
76.3844
21
-207.599
0
LINE
8
BLACK
6
CONTINUOUS
10
80.813
20
-206.742
11
79.3844
21
-206.742
0
LINE
8
BLACK
6
CONTINUOUS
10
79.3844
20
-206.742
11
79.2416
21
-208.171
0
LINE
8
BLACK
6
CONTINUOUS
10
79.2416
20
-208.171
11
79.3844
21
-208.028
0
LINE
8
BLACK
6
CONTINUOUS
10
79.3844
20
-208.028
11
79.6701
21
-207.885
0
LINE
8
BLACK
6
CONTINUOUS
10
79.6701
20
-207.885
11
80.3844
21
-207.885
0
LINE
8
BLACK
6
CONTINUOUS
10
80.3844
20
-207.885
11
80.6701
21
-208.028
0
LINE
8
BLACK
6
CONTINUOUS
10
80.6701
20
-208.028
11
80.813
21
-208.171
0
LINE
8
BLACK
6
CONTINUOUS
10
80.813
20
-208.171
11
80.9559
21
-208.456
0
LINE
8
BLACK
6
CONTINUOUS
10
80.9559
20
-208.456
11
80.9559
21
-209.171
0
LINE
8
BLACK
6
CONTINUOUS
10
80.9559
20
-209.171
11
80.813
21
-209.456
0
LINE
8
BLACK
6
CONTINUOUS
10
80.813
20
-209.456
11
80.6701
21
-209.599
0
LINE
8
BLACK
6
CONTINUOUS
10
80.6701
20
-209.599
11
80.3844
21
-209.742
0
LINE
8
BLACK
6
CONTINUOUS
10
80.3844
20
-209.742
11
79.6701
21
-209.742
0
LINE
8
BLACK
6
CONTINUOUS
10
79.6701
20
-209.742
11
79.3844
21
-209.599
0
LINE
8
BLACK
6
CONTINUOUS
10
79.3844
20
-209.599
11
79.2416
21
-209.456
0
LINE
8
BLACK
6
CONTINUOUS
10
81.9559
20
-206.742
11
83.9559
21
-206.742
0
LINE
8
BLACK
6
CONTINUOUS
10
83.9559
20
-206.742
11
82.6701
21
-209.742
0
LINE
8
BLACK
6
CONTINUOUS
10
84.9559
20
-206.742
11
84.9559
21
-207.314
0
LINE
8
BLACK
6
CONTINUOUS
10
86.0987
20
-206.742
11
86.0987
21
-207.314
0
LINE
8
BLACK
6
CONTINUOUS
10
90.5273
20
-210.885
11
90.3844
21
-210.742
0
LINE
8
BLACK
6
CONTINUOUS
10
90.3844
20
-210.742
11
90.0987
21
-210.314
0
LINE
8
BLACK
6
CONTINUOUS
10
90.0987
20
-210.314
11
89.9559
21
-210.028
0
LINE
8
BLACK
6
CONTINUOUS
10
89.9559
20
-210.028
11
89.813
21
-209.599
0
LINE
8
BLACK
6
CONTINUOUS
10
89.813
20
-209.599
11
89.6701
21
-208.885
0
LINE
8
BLACK
6
CONTINUOUS
10
89.6701
20
-208.885
11
89.6701
21
-208.314
0
LINE
8
BLACK
6
CONTINUOUS
10
89.6701
20
-208.314
11
89.813
21
-207.599
0
LINE
8
BLACK
6
CONTINUOUS
10
89.813
20
-207.599
11
89.9559
21
-207.171
0
LINE
8
BLACK
6
CONTINUOUS
10
89.9559
20
-207.171
11
90.0987
21
-206.885
0
LINE
8
BLACK
6
CONTINUOUS
10
90.0987
20
-206.885
11
90.3844
21
-206.456
0
LINE
8
BLACK
6
CONTINUOUS
10
90.3844
20
-206.456
11
90.5273
21
-206.314
0
LINE
8
BLACK
6
CONTINUOUS
10
91.5273
20
-207.028
11
91.6701
21
-206.885
0
LINE
8
BLACK
6
CONTINUOUS
10
91.6701
20
-206.885
11
91.9559
21
-206.742
0
LINE
8
BLACK
6
CONTINUOUS
10
91.9559
20
-206.742
11
92.6701
21
-206.742
0
LINE
8
BLACK
6
CONTINUOUS
10
92.6701
20
-206.742
11
92.9559
21
-206.885
0
LINE
8
BLACK
6
CONTINUOUS
10
92.9559
20
-206.885
11
93.0987
21
-207.028
0
LINE
8
BLACK
6
CONTINUOUS
10
93.0987
20
-207.028
11
93.2416
21
-207.314
0
LINE
8
BLACK
6
CONTINUOUS
10
93.2416
20
-207.314
11
93.2416
21
-207.599
0
LINE
8
BLACK
6
CONTINUOUS
10
93.2416
20
-207.599
11
93.0987
21
-208.028
0
LINE
8
BLACK
6
CONTINUOUS
10
93.0987
20
-208.028
11
91.3844
21
-209.742
0
LINE
8
BLACK
6
CONTINUOUS
10
91.3844
20
-209.742
11
93.2416
21
-209.742
0
LINE
8
BLACK
6
CONTINUOUS
10
95.0987
20
-206.742
11
95.3844
21
-206.742
0
LINE
8
BLACK
6
CONTINUOUS
10
95.3844
20
-206.742
11
95.6701
21
-206.885
0
LINE
8
BLACK
6
CONTINUOUS
10
95.6701
20
-206.885
11
95.813
21
-207.028
0
LINE
8
BLACK
6
CONTINUOUS
10
95.813
20
-207.028
11
95.9559
21
-207.314
0
LINE
8
BLACK
6
CONTINUOUS
10
95.9559
20
-207.314
11
96.0987
21
-207.885
0
LINE
8
BLACK
6
CONTINUOUS
10
96.0987
20
-207.885
11
96.0987
21
-208.599
0
LINE
8
BLACK
6
CONTINUOUS
10
96.0987
20
-208.599
11
95.9559
21
-209.171
0
LINE
8
BLACK
6
CONTINUOUS
10
95.9559
20
-209.171
11
95.813
21
-209.456
0
LINE
8
BLACK
6
CONTINUOUS
10
95.813
20
-209.456
11
95.6701
21
-209.599
0
LINE
8
BLACK
6
CONTINUOUS
10
95.6701
20
-209.599
11
95.3844
21
-209.742
0
LINE
8
BLACK
6
CONTINUOUS
10
95.3844
20
-209.742
11
95.0987
21
-209.742
0
LINE
8
BLACK
6
CONTINUOUS
10
95.0987
20
-209.742
11
94.813
21
-209.599
0
LINE
8
BLACK
6
CONTINUOUS
10
94.813
20
-209.599
11
94.6701
21
-209.456
0
LINE
8
BLACK
6
CONTINUOUS
10
94.6701
20
-209.456
11
94.5273
21
-209.171
0
LINE
8
BLACK
6
CONTINUOUS
10
94.5273
20
-209.171
11
94.3844
21
-208.599
0
LINE
8
BLACK
6
CONTINUOUS
10
94.3844
20
-208.599
11
94.3844
21
-207.885
0
LINE
8
BLACK
6
CONTINUOUS
10
94.3844
20
-207.885
11
94.5273
21
-207.314
0
LINE
8
BLACK
6
CONTINUOUS
10
94.5273
20
-207.314
11
94.6701
21
-207.028
0
LINE
8
BLACK
6
CONTINUOUS
10
94.6701
20
-207.028
11
94.813
21
-206.885
0
LINE
8
BLACK
6
CONTINUOUS
10
94.813
20
-206.885
11
95.0987
21
-206.742
0
LINE
8
BLACK
6
CONTINUOUS
10
99.6701
20
-209.742
11
99.6701
21
-206.742
0
LINE
8
BLACK
6
CONTINUOUS
10
100.956
20
-209.742
11
100.956
21
-208.171
0
LINE
8
BLACK
6
CONTINUOUS
10
100.956
20
-208.171
11
100.813
21
-207.885
0
LINE
8
BLACK
6
CONTINUOUS
10
100.813
20
-207.885
11
100.527
21
-207.742
0
LINE
8
BLACK
6
CONTINUOUS
10
100.527
20
-207.742
11
100.099
21
-207.742
0
LINE
8
BLACK
6
CONTINUOUS
10
100.099
20
-207.742
11
99.813
21
-207.885
0
LINE
8
BLACK
6
CONTINUOUS
10
99.813
20
-207.885
11
99.6701
21
-208.028
0
LINE
8
BLACK
6
CONTINUOUS
10
102.813
20
-209.742
11
102.527
21
-209.599
0
LINE
8
BLACK
6
CONTINUOUS
10
102.527
20
-209.599
11
102.384
21
-209.456
0
LINE
8
BLACK
6
CONTINUOUS
10
102.384
20
-209.456
11
102.242
21
-209.171
0
LINE
8
BLACK
6
CONTINUOUS
10
102.242
20
-209.171
11
102.242
21
-208.314
0
LINE
8
BLACK
6
CONTINUOUS
10
102.242
20
-208.314
11
102.384
21
-208.028
0
LINE
8
BLACK
6
CONTINUOUS
10
102.384
20
-208.028
11
102.527
21
-207.885
0
LINE
8
BLACK
6
CONTINUOUS
10
102.527
20
-207.885
11
102.813
21
-207.742
0
LINE
8
BLACK
6
CONTINUOUS
10
102.813
20
-207.742
11
103.242
21
-207.742
0
LINE
8
BLACK
6
CONTINUOUS
10
103.242
20
-207.742
11
103.527
21
-207.885
0
LINE
8
BLACK
6
CONTINUOUS
10
103.527
20
-207.885
11
103.67
21
-208.028
0
LINE
8
BLACK
6
CONTINUOUS
10
103.67
20
-208.028
11
103.813
21
-208.314
0
LINE
8
BLACK
6
CONTINUOUS
10
103.813
20
-208.314
11
103.813
21
-209.171
0
LINE
8
BLACK
6
CONTINUOUS
10
103.813
20
-209.171
11
103.67
21
-209.456
0
LINE
8
BLACK
6
CONTINUOUS
10
103.67
20
-209.456
11
103.527
21
-209.599
0
LINE
8
BLACK
6
CONTINUOUS
10
103.527
20
-209.599
11
103.242
21
-209.742
0
LINE
8
BLACK
6
CONTINUOUS
10
103.242
20
-209.742
11
102.813
21
-209.742
0
LINE
8
BLACK
6
CONTINUOUS
10
105.527
20
-209.742
11
105.242
21
-209.599
0
LINE
8
BLACK
6
CONTINUOUS
10
105.242
20
-209.599
11
105.099
21
-209.314
0
LINE
8
BLACK
6
CONTINUOUS
10
105.099
20
-209.314
11
105.099
21
-206.742
0
LINE
8
BLACK
6
CONTINUOUS
10
107.813
20
-209.599
11
107.527
21
-209.742
0
LINE
8
BLACK
6
CONTINUOUS
10
107.527
20
-209.742
11
106.956
21
-209.742
0
LINE
8
BLACK
6
CONTINUOUS
10
106.956
20
-209.742
11
106.67
21
-209.599
0
LINE
8
BLACK
6
CONTINUOUS
10
106.67
20
-209.599
11
106.527
21
-209.314
0
LINE
8
BLACK
6
CONTINUOUS
10
106.527
20
-209.314
11
106.527
21
-208.171
0
LINE
8
BLACK
6
CONTINUOUS
10
106.527
20
-208.171
11
106.67
21
-207.885
0
LINE
8
BLACK
6
CONTINUOUS
10
106.67
20
-207.885
11
106.956
21
-207.742
0
LINE
8
BLACK
6
CONTINUOUS
10
106.956
20
-207.742
11
107.527
21
-207.742
0
LINE
8
BLACK
6
CONTINUOUS
10
107.527
20
-207.742
11
107.813
21
-207.885
0
LINE
8
BLACK
6
CONTINUOUS
10
107.813
20
-207.885
11
107.956
21
-208.171
0
LINE
8
BLACK
6
CONTINUOUS
10
107.956
20
-208.171
11
107.956
21
-208.456
0
LINE
8
BLACK
6
CONTINUOUS
10
107.956
20
-208.456
11
106.527
21
-208.742
0
LINE
8
BLACK
6
CONTINUOUS
10
109.099
20
-209.599
11
109.384
21
-209.742
0
LINE
8
BLACK
6
CONTINUOUS
10
109.384
20
-209.742
11
109.956
21
-209.742
0
LINE
8
BLACK
6
CONTINUOUS
10
109.956
20
-209.742
11
110.242
21
-209.599
0
LINE
8
BLACK
6
CONTINUOUS
10
110.242
20
-209.599
11
110.384
21
-209.314
0
LINE
8
BLACK
6
CONTINUOUS
10
110.384
20
-209.314
11
110.384
21
-209.171
0
LINE
8
BLACK
6
CONTINUOUS
10
110.384
20
-209.171
11
110.242
21
-208.885
0
LINE
8
BLACK
6
CONTINUOUS
10
110.242
20
-208.885
11
109.956
21
-208.742
0
LINE
8
BLACK
6
CONTINUOUS
10
109.956
20
-208.742
11
109.527
21
-208.742
0
LINE
8
BLACK
6
CONTINUOUS
10
109.527
20
-208.742
11
109.242
21
-208.599
0
LINE
8
BLACK
6
CONTINUOUS
10
109.242
20
-208.599
11
109.099
21
-208.314
0
LINE
8
BLACK
6
CONTINUOUS
10
109.099
20
-208.314
11
109.099
21
-208.171
0
LINE
8
BLACK
6
CONTINUOUS
10
109.099
20
-208.171
11
109.242
21
-207.885
0
LINE
8
BLACK
6
CONTINUOUS
10
109.242
20
-207.885
11
109.527
21
-207.742
0
LINE
8
BLACK
6
CONTINUOUS
10
109.527
20
-207.742
11
109.956
21
-207.742
0
LINE
8
BLACK
6
CONTINUOUS
10
109.956
20
-207.742
11
110.242
21
-207.885
0
LINE
8
BLACK
6
CONTINUOUS
10
111.384
20
-210.885
11
111.527
21
-210.742
0
LINE
8
BLACK
6
CONTINUOUS
10
111.527
20
-210.742
11
111.813
21
-210.314
0
LINE
8
BLACK
6
CONTINUOUS
10
111.813
20
-210.314
11
111.956
21
-210.028
0
LINE
8
BLACK
6
CONTINUOUS
10
111.956
20
-210.028
11
112.099
21
-209.599
0
LINE
8
BLACK
6
CONTINUOUS
10
112.099
20
-209.599
11
112.242
21
-208.885
0
LINE
8
BLACK
6
CONTINUOUS
10
112.242
20
-208.885
11
112.242
21
-208.314
0
LINE
8
BLACK
6
CONTINUOUS
10
112.242
20
-208.314
11
112.099
21
-207.599
0
LINE
8
BLACK
6
CONTINUOUS
10
112.099
20
-207.599
11
111.956
21
-207.171
0
LINE
8
BLACK
6
CONTINUOUS
10
111.956
20
-207.171
11
111.813
21
-206.885
0
LINE
8
BLACK
6
CONTINUOUS
10
111.813
20
-206.885
11
111.527
21
-206.456
0
LINE
8
BLACK
6
CONTINUOUS
10
111.527
20
-206.456
11
111.384
21
-206.314
0
LINE
8
BLACK
6
CONTINUOUS
10
116.813
20
-210.885
11
116.67
21
-210.742
0
LINE
8
BLACK
6
CONTINUOUS
10
116.67
20
-210.742
11
116.384
21
-210.314
0
LINE
8
BLACK
6
CONTINUOUS
10
116.384
20
-210.314
11
116.242
21
-210.028
0
LINE
8
BLACK
6
CONTINUOUS
10
116.242
20
-210.028
11
116.099
21
-209.599
0
LINE
8
BLACK
6
CONTINUOUS
10
116.099
20
-209.599
11
115.956
21
-208.885
0
LINE
8
BLACK
6
CONTINUOUS
10
115.956
20
-208.885
11
115.956
21
-208.314
0
LINE
8
BLACK
6
CONTINUOUS
10
115.956
20
-208.314
11
116.099
21
-207.599
0
LINE
8
BLACK
6
CONTINUOUS
10
116.099
20
-207.599
11
116.242
21
-207.171
0
LINE
8
BLACK
6
CONTINUOUS
10
116.242
20
-207.171
11
116.384
21
-206.885
0
LINE
8
BLACK
6
CONTINUOUS
10
116.384
20
-206.885
11
116.67
21
-206.456
0
LINE
8
BLACK
6
CONTINUOUS
10
116.67
20
-206.456
11
116.813
21
-206.314
0
LINE
8
BLACK
6
CONTINUOUS
10
117.956
20
-207.742
11
117.956
21
-209.742
0
LINE
8
BLACK
6
CONTINUOUS
10
117.956
20
-208.028
11
118.099
21
-207.885
0
LINE
8
BLACK
6
CONTINUOUS
10
118.099
20
-207.885
11
118.384
21
-207.742
0
LINE
8
BLACK
6
CONTINUOUS
10
118.384
20
-207.742
11
118.813
21
-207.742
0
LINE
8
BLACK
6
CONTINUOUS
10
118.813
20
-207.742
11
119.099
21
-207.885
0
LINE
8
BLACK
6
CONTINUOUS
10
119.099
20
-207.885
11
119.242
21
-208.171
0
LINE
8
BLACK
6
CONTINUOUS
10
119.242
20
-208.171
11
119.242
21
-209.742
0
LINE
8
BLACK
6
CONTINUOUS
10
121.099
20
-209.742
11
120.813
21
-209.599
0
LINE
8
BLACK
6
CONTINUOUS
10
120.813
20
-209.599
11
120.67
21
-209.456
0
LINE
8
BLACK
6
CONTINUOUS
10
120.67
20
-209.456
11
120.527
21
-209.171
0
LINE
8
BLACK
6
CONTINUOUS
10
120.527
20
-209.171
11
120.527
21
-208.314
0
LINE
8
BLACK
6
CONTINUOUS
10
120.527
20
-208.314
11
120.67
21
-208.028
0
LINE
8
BLACK
6
CONTINUOUS
10
120.67
20
-208.028
11
120.813
21
-207.885
0
LINE
8
BLACK
6
CONTINUOUS
10
120.813
20
-207.885
11
121.099
21
-207.742
0
LINE
8
BLACK
6
CONTINUOUS
10
121.099
20
-207.742
11
121.527
21
-207.742
0
LINE
8
BLACK
6
CONTINUOUS
10
121.527
20
-207.742
11
121.813
21
-207.885
0
LINE
8
BLACK
6
CONTINUOUS
10
121.813
20
-207.885
11
121.956
21
-208.028
0
LINE
8
BLACK
6
CONTINUOUS
10
121.956
20
-208.028
11
122.099
21
-208.314
0
LINE
8
BLACK
6
CONTINUOUS
10
122.099
20
-208.314
11
122.099
21
-209.171
0
LINE
8
BLACK
6
CONTINUOUS
10
122.099
20
-209.171
11
121.956
21
-209.456
0
LINE
8
BLACK
6
CONTINUOUS
10
121.956
20
-209.456
11
121.813
21
-209.599
0
LINE
8
BLACK
6
CONTINUOUS
10
121.813
20
-209.599
11
121.527
21
-209.742
0
LINE
8
BLACK
6
CONTINUOUS
10
121.527
20
-209.742
11
121.099
21
-209.742
0
LINE
8
BLACK
6
CONTINUOUS
10
122.956
20
-207.742
11
124.099
21
-207.742
0
LINE
8
BLACK
6
CONTINUOUS
10
123.384
20
-206.742
11
123.384
21
-209.314
0
LINE
8
BLACK
6
CONTINUOUS
10
123.384
20
-209.314
11
123.527
21
-209.599
0
LINE
8
BLACK
6
CONTINUOUS
10
123.527
20
-209.599
11
123.813
21
-209.742
0
LINE
8
BLACK
6
CONTINUOUS
10
123.813
20
-209.742
11
124.099
21
-209.742
0
LINE
8
BLACK
6
CONTINUOUS
10
127.384
20
-207.742
11
127.384
21
-210.742
0
LINE
8
BLACK
6
CONTINUOUS
10
127.384
20
-207.885
11
127.67
21
-207.742
0
LINE
8
BLACK
6
CONTINUOUS
10
127.67
20
-207.742
11
128.242
21
-207.742
0
LINE
8
BLACK
6
CONTINUOUS
10
128.242
20
-207.742
11
128.527
21
-207.885
0
LINE
8
BLACK
6
CONTINUOUS
10
128.527
20
-207.885
11
128.67
21
-208.028
0
LINE
8
BLACK
6
CONTINUOUS
10
128.67
20
-208.028
11
128.813
21
-208.314
0
LINE
8
BLACK
6
CONTINUOUS
10
128.813
20
-208.314
11
128.813
21
-209.171
0
LINE
8
BLACK
6
CONTINUOUS
10
128.813
20
-209.171
11
128.67
21
-209.456
0
LINE
8
BLACK
6
CONTINUOUS
10
128.67
20
-209.456
11
128.527
21
-209.599
0
LINE
8
BLACK
6
CONTINUOUS
10
128.527
20
-209.599
11
128.242
21
-209.742
0
LINE
8
BLACK
6
CONTINUOUS
10
128.242
20
-209.742
11
127.67
21
-209.742
0
LINE
8
BLACK
6
CONTINUOUS
10
127.67
20
-209.742
11
127.384
21
-209.599
0
LINE
8
BLACK
6
CONTINUOUS
10
130.527
20
-209.742
11
130.242
21
-209.599
0
LINE
8
BLACK
6
CONTINUOUS
10
130.242
20
-209.599
11
130.099
21
-209.314
0
LINE
8
BLACK
6
CONTINUOUS
10
130.099
20
-209.314
11
130.099
21
-206.742
0
LINE
8
BLACK
6
CONTINUOUS
10
132.956
20
-209.742
11
132.956
21
-208.171
0
LINE
8
BLACK
6
CONTINUOUS
10
132.956
20
-208.171
11
132.813
21
-207.885
0
LINE
8
BLACK
6
CONTINUOUS
10
132.813
20
-207.885
11
132.527
21
-207.742
0
LINE
8
BLACK
6
CONTINUOUS
10
132.527
20
-207.742
11
131.956
21
-207.742
0
LINE
8
BLACK
6
CONTINUOUS
10
131.956
20
-207.742
11
131.67
21
-207.885
0
LINE
8
BLACK
6
CONTINUOUS
10
132.956
20
-209.599
11
132.67
21
-209.742
0
LINE
8
BLACK
6
CONTINUOUS
10
132.67
20
-209.742
11
131.956
21
-209.742
0
LINE
8
BLACK
6
CONTINUOUS
10
131.956
20
-209.742
11
131.67
21
-209.599
0
LINE
8
BLACK
6
CONTINUOUS
10
131.67
20
-209.599
11
131.527
21
-209.314
0
LINE
8
BLACK
6
CONTINUOUS
10
131.527
20
-209.314
11
131.527
21
-209.028
0
LINE
8
BLACK
6
CONTINUOUS
10
131.527
20
-209.028
11
131.67
21
-208.742
0
LINE
8
BLACK
6
CONTINUOUS
10
131.67
20
-208.742
11
131.956
21
-208.599
0
LINE
8
BLACK
6
CONTINUOUS
10
131.956
20
-208.599
11
132.67
21
-208.599
0
LINE
8
BLACK
6
CONTINUOUS
10
132.67
20
-208.599
11
132.956
21
-208.456
0
LINE
8
BLACK
6
CONTINUOUS
10
133.956
20
-207.742
11
135.099
21
-207.742
0
LINE
8
BLACK
6
CONTINUOUS
10
134.384
20
-206.742
11
134.384
21
-209.314
0
LINE
8
BLACK
6
CONTINUOUS
10
134.384
20
-209.314
11
134.527
21
-209.599
0
LINE
8
BLACK
6
CONTINUOUS
10
134.527
20
-209.599
11
134.813
21
-209.742
0
LINE
8
BLACK
6
CONTINUOUS
10
134.813
20
-209.742
11
135.099
21
-209.742
0
LINE
8
BLACK
6
CONTINUOUS
10
137.242
20
-209.599
11
136.956
21
-209.742
0
LINE
8
BLACK
6
CONTINUOUS
10
136.956
20
-209.742
11
136.384
21
-209.742
0
LINE
8
BLACK
6
CONTINUOUS
10
136.384
20
-209.742
11
136.099
21
-209.599
0
LINE
8
BLACK
6
CONTINUOUS
10
136.099
20
-209.599
11
135.956
21
-209.314
0
LINE
8
BLACK
6
CONTINUOUS
10
135.956
20
-209.314
11
135.956
21
-208.171
0
LINE
8
BLACK
6
CONTINUOUS
10
135.956
20
-208.171
11
136.099
21
-207.885
0
LINE
8
BLACK
6
CONTINUOUS
10
136.099
20
-207.885
11
136.384
21
-207.742
0
LINE
8
BLACK
6
CONTINUOUS
10
136.384
20
-207.742
11
136.956
21
-207.742
0
LINE
8
BLACK
6
CONTINUOUS
10
136.956
20
-207.742
11
137.242
21
-207.885
0
LINE
8
BLACK
6
CONTINUOUS
10
137.242
20
-207.885
11
137.384
21
-208.171
0
LINE
8
BLACK
6
CONTINUOUS
10
137.384
20
-208.171
11
137.384
21
-208.456
0
LINE
8
BLACK
6
CONTINUOUS
10
137.384
20
-208.456
11
135.956
21
-208.742
0
LINE
8
BLACK
6
CONTINUOUS
10
139.956
20
-209.742
11
139.956
21
-206.742
0
LINE
8
BLACK
6
CONTINUOUS
10
139.956
20
-209.599
11
139.67
21
-209.742
0
LINE
8
BLACK
6
CONTINUOUS
10
139.67
20
-209.742
11
139.099
21
-209.742
0
LINE
8
BLACK
6
CONTINUOUS
10
139.099
20
-209.742
11
138.813
21
-209.599
0
LINE
8
BLACK
6
CONTINUOUS
10
138.813
20
-209.599
11
138.67
21
-209.456
0
LINE
8
BLACK
6
CONTINUOUS
10
138.67
20
-209.456
11
138.527
21
-209.171
0
LINE
8
BLACK
6
CONTINUOUS
10
138.527
20
-209.171
11
138.527
21
-208.314
0
LINE
8
BLACK
6
CONTINUOUS
10
138.527
20
-208.314
11
138.67
21
-208.028
0
LINE
8
BLACK
6
CONTINUOUS
10
138.67
20
-208.028
11
138.813
21
-207.885
0
LINE
8
BLACK
6
CONTINUOUS
10
138.813
20
-207.885
11
139.099
21
-207.742
0
LINE
8
BLACK
6
CONTINUOUS
10
139.099
20
-207.742
11
139.67
21
-207.742
0
LINE
8
BLACK
6
CONTINUOUS
10
139.67
20
-207.742
11
139.956
21
-207.885
0
LINE
8
BLACK
6
CONTINUOUS
10
141.099
20
-210.885
11
141.242
21
-210.742
0
LINE
8
BLACK
6
CONTINUOUS
10
141.242
20
-210.742
11
141.527
21
-210.314
0
LINE
8
BLACK
6
CONTINUOUS
10
141.527
20
-210.314
11
141.67
21
-210.028
0
LINE
8
BLACK
6
CONTINUOUS
10
141.67
20
-210.028
11
141.813
21
-209.599
0
LINE
8
BLACK
6
CONTINUOUS
10
141.813
20
-209.599
11
141.956
21
-208.885
0
LINE
8
BLACK
6
CONTINUOUS
10
141.956
20
-208.885
11
141.956
21
-208.314
0
LINE
8
BLACK
6
CONTINUOUS
10
141.956
20
-208.314
11
141.813
21
-207.599
0
LINE
8
BLACK
6
CONTINUOUS
10
141.813
20
-207.599
11
141.67
21
-207.171
0
LINE
8
BLACK
6
CONTINUOUS
10
141.67
20
-207.171
11
141.527
21
-206.885
0
LINE
8
BLACK
6
CONTINUOUS
10
141.527
20
-206.885
11
141.242
21
-206.456
0
LINE
8
BLACK
6
CONTINUOUS
10
141.242
20
-206.456
11
141.099
21
-206.314
  0
ENDSEC
  0
EOF
