  0
SECTION
  2
HEADER
  9
$ANGBASE
  50
0.0
  9
$ANGDIR
  70
1
  9
$MEASUREMENT
  70
1
  0
ENDSEC
  0
SECTION
  2
TABLES
  0
TABLE
  2
LTYPE
  70
4
  0
LTYPE
  5
40F
  2
CONTINUOUS
  70
0
  3
Solid line
  72
65
  73
0
  40
0.0
  0
LTYPE
  5
410
  2
DASHDOT
 70
0
  3
Dash Dot ____ _ ____ _
 72
65
 73
4
 40
2.0
 49
1.25
 49
-0.25
 49
0.25
 49
-0.25
  0
LTYPE
  5
411
  2
DASHED
 70
0
  3
Dashed __ __ __ __ __
 72
65
 73
2
 40
0.75
 49
0.5
 49
-0.25
  0
LTYPE
  5
43B
  2
DOTTED
 70
0
  3
Dotted .  .  .  .
 72
65
 73
2
 40
0.2
 49
0.0
 49
-0.2
  0
ENDTAB
  0
TABLE
  2
STYLE
  70
4
  0
STYLE
  2
KICAD
  70
0
  40
0
  41
1
  42
1
  50
0
  71
0
  3
isocp.shx
  0
STYLE
  2
KICADB
  70
0
  40
0
  41
1
  42
1
  50
0
  71
0
  3
isocp.shx
  0
STYLE
  2
KICADI
  70
0
  40
0
  41
1
  42
1
  50
15
  71
0
  3
isocp.shx
  0
STYLE
  2
KICADBI
  70
0
  40
0
  41
1
  42
1
  50
15
  71
0
  3
isocp.shx
  0
ENDTAB
  0
TABLE
  2
LAYER
  70
1
  0
LAYER
  2
BLACK
  70
0
  62
7
  6
CONTINUOUS
  0
ENDTAB
  0
ENDSEC
  0
SECTION
  2
ENTITIES
0
ARC
8
BLACK
10
46.863
20
-62.738
40
3.175
50
90
51
180
0
ARC
8
BLACK
10
46.863
20
-187.325
40
3.175
50
180
51
270
0
ARC
8
BLACK
10
129.54
20
-187.325
40
3.175
50
-90
51
-0
0
ARC
8
BLACK
10
129.54
20
-62.738
40
3.175
50
-0
51
90
0
LINE
8
BLACK
6
CONTINUOUS
10
43.688
20
-187.325
11
43.688
21
-62.738
0
LINE
8
BLACK
6
CONTINUOUS
10
129.54
20
-190.5
11
46.863
21
-190.5
0
LINE
8
BLACK
6
CONTINUOUS
10
132.715
20
-62.738
11
132.715
21
-187.325
0
LINE
8
BLACK
6
CONTINUOUS
10
46.863
20
-59.563
11
129.54
21
-59.563
0
LINE
8
BLACK
6
CONTINUOUS
10
45.8375
20
-111.56
11
46.2375
21
-111.96
0
LINE
8
BLACK
6
CONTINUOUS
10
46.2375
20
-111.56
11
45.8375
21
-111.96
0
LINE
8
BLACK
6
CONTINUOUS
10
45.8375
20
-130.61
11
46.2375
21
-131.01
0
LINE
8
BLACK
6
CONTINUOUS
10
46.2375
20
-130.61
11
45.8375
21
-131.01
0
LINE
8
BLACK
6
CONTINUOUS
10
45.8375
20
-149.724
11
46.2375
21
-150.124
0
LINE
8
BLACK
6
CONTINUOUS
10
46.2375
20
-149.724
11
45.8375
21
-150.124
0
LINE
8
BLACK
6
CONTINUOUS
10
45.901
20
-168.837
11
46.301
21
-169.237
0
LINE
8
BLACK
6
CONTINUOUS
10
46.301
20
-168.837
11
45.901
21
-169.237
0
LINE
8
BLACK
6
CONTINUOUS
10
47.3615
20
-111.623
11
47.7615
21
-112.023
0
LINE
8
BLACK
6
CONTINUOUS
10
47.7615
20
-111.623
11
47.3615
21
-112.023
0
LINE
8
BLACK
6
CONTINUOUS
10
47.3615
20
-122.228
11
47.7615
21
-122.628
0
LINE
8
BLACK
6
CONTINUOUS
10
47.7615
20
-122.228
11
47.3615
21
-122.628
0
LINE
8
BLACK
6
CONTINUOUS
10
47.3615
20
-130.737
11
47.7615
21
-131.137
0
LINE
8
BLACK
6
CONTINUOUS
10
47.7615
20
-130.737
11
47.3615
21
-131.137
0
LINE
8
BLACK
6
CONTINUOUS
10
47.3615
20
-141.151
11
47.7615
21
-141.551
0
LINE
8
BLACK
6
CONTINUOUS
10
47.7615
20
-141.151
11
47.3615
21
-141.551
0
LINE
8
BLACK
6
CONTINUOUS
10
47.3615
20
-149.66
11
47.7615
21
-150.06
0
LINE
8
BLACK
6
CONTINUOUS
10
47.7615
20
-149.66
11
47.3615
21
-150.06
0
LINE
8
BLACK
6
CONTINUOUS
10
47.3615
20
-160.391
11
47.7615
21
-160.791
0
LINE
8
BLACK
6
CONTINUOUS
10
47.7615
20
-160.391
11
47.3615
21
-160.791
0
LINE
8
BLACK
6
CONTINUOUS
10
47.3615
20
-168.837
11
47.7615
21
-169.237
0
LINE
8
BLACK
6
CONTINUOUS
10
47.7615
20
-168.837
11
47.3615
21
-169.237
0
LINE
8
BLACK
6
CONTINUOUS
10
49.203
20
-96.701
11
49.603
21
-97.101
0
LINE
8
BLACK
6
CONTINUOUS
10
49.603
20
-96.701
11
49.203
21
-97.101
0
LINE
8
BLACK
6
CONTINUOUS
10
49.203
20
-128.261
11
49.603
21
-128.66
0
LINE
8
BLACK
6
CONTINUOUS
10
49.603
20
-128.261
11
49.203
21
-128.66
0
LINE
8
BLACK
6
CONTINUOUS
10
49.203
20
-166.487
11
49.603
21
-166.887
0
LINE
8
BLACK
6
CONTINUOUS
10
49.603
20
-166.487
11
49.203
21
-166.887
0
LINE
8
BLACK
6
CONTINUOUS
10
49.33
20
-109.147
11
49.73
21
-109.547
0
LINE
8
BLACK
6
CONTINUOUS
10
49.73
20
-109.147
11
49.33
21
-109.547
0
LINE
8
BLACK
6
CONTINUOUS
10
49.457
20
-147.31
11
49.857
21
-147.71
0
LINE
8
BLACK
6
CONTINUOUS
10
49.857
20
-147.31
11
49.457
21
-147.71
0
LINE
8
BLACK
6
CONTINUOUS
10
50.981
20
-125.022
11
51.381
21
-125.422
0
LINE
8
BLACK
6
CONTINUOUS
10
51.381
20
-125.022
11
50.981
21
-125.422
0
LINE
8
BLACK
6
CONTINUOUS
10
51.2985
20
-162.868
11
51.6985
21
-163.268
0
LINE
8
BLACK
6
CONTINUOUS
10
51.6985
20
-162.868
11
51.2985
21
-163.268
0
LINE
8
BLACK
6
CONTINUOUS
10
51.997
20
-113.909
11
52.397
21
-114.309
0
LINE
8
BLACK
6
CONTINUOUS
10
52.397
20
-113.909
11
51.997
21
-114.309
0
LINE
8
BLACK
6
CONTINUOUS
10
52.662
20
-70.7371
11
53.062
21
-71.1371
0
LINE
8
BLACK
6
CONTINUOUS
10
53.062
20
-70.7371
11
52.662
21
-71.1371
0
LINE
8
BLACK
6
CONTINUOUS
10
52.75
20
-150.422
11
53.15
21
-150.822
0
LINE
8
BLACK
6
CONTINUOUS
10
53.15
20
-150.422
11
52.75
21
-150.822
0
LINE
8
BLACK
6
CONTINUOUS
10
53.14
20
-83.62
11
53.54
21
-84.02
0
LINE
8
BLACK
6
CONTINUOUS
10
53.54
20
-83.62
11
53.14
21
-84.02
0
LINE
8
BLACK
6
CONTINUOUS
10
53.4702
20
-179.175
11
53.8702
21
-179.575
0
LINE
8
BLACK
6
CONTINUOUS
10
53.8702
20
-179.175
11
53.4702
21
-179.575
0
LINE
8
BLACK
6
CONTINUOUS
10
53.475
20
-102.924
11
53.875
21
-103.324
0
LINE
8
BLACK
6
CONTINUOUS
10
53.875
20
-102.924
11
53.475
21
-103.324
0
LINE
8
BLACK
6
CONTINUOUS
10
53.475
20
-121.974
11
53.875
21
-122.374
0
LINE
8
BLACK
6
CONTINUOUS
10
53.875
20
-121.974
11
53.475
21
-122.374
0
LINE
8
BLACK
6
CONTINUOUS
10
53.475
20
-141.024
11
53.875
21
-141.424
0
LINE
8
BLACK
6
CONTINUOUS
10
53.875
20
-141.024
11
53.475
21
-141.424
0
LINE
8
BLACK
6
CONTINUOUS
10
53.475
20
-160.074
11
53.875
21
-160.474
0
LINE
8
BLACK
6
CONTINUOUS
10
53.875
20
-160.074
11
53.475
21
-160.474
0
LINE
8
BLACK
6
CONTINUOUS
10
54.6005
20
-89.7287
11
55.0005
21
-90.1287
0
LINE
8
BLACK
6
CONTINUOUS
10
55.0005
20
-89.7287
11
54.6005
21
-90.1287
0
LINE
8
BLACK
6
CONTINUOUS
10
55.1212
20
-148.746
11
55.5212
21
-149.146
0
LINE
8
BLACK
6
CONTINUOUS
10
55.5212
20
-148.746
11
55.1212
21
-149.146
0
LINE
8
BLACK
6
CONTINUOUS
10
55.2228
20
-110.646
11
55.6228
21
-111.046
0
LINE
8
BLACK
6
CONTINUOUS
10
55.6228
20
-110.646
11
55.2228
21
-111.046
0
LINE
8
BLACK
6
CONTINUOUS
10
55.4514
20
-147.069
11
55.8514
21
-147.469
0
LINE
8
BLACK
6
CONTINUOUS
10
55.8514
20
-147.069
11
55.4514
21
-147.469
0
LINE
8
BLACK
6
CONTINUOUS
10
55.6673
20
-108.703
11
56.0673
21
-109.102
0
LINE
8
BLACK
6
CONTINUOUS
10
56.0673
20
-108.703
11
55.6673
21
-109.102
0
LINE
8
BLACK
6
CONTINUOUS
10
61.141
20
-76.2032
11
61.541
21
-76.6032
0
LINE
8
BLACK
6
CONTINUOUS
10
61.541
20
-76.2032
11
61.141
21
-76.6032
0
LINE
8
BLACK
6
CONTINUOUS
10
62.0808
20
-170.64
11
62.4808
21
-171.04
0
LINE
8
BLACK
6
CONTINUOUS
10
62.4808
20
-170.64
11
62.0808
21
-171.04
0
LINE
8
BLACK
6
CONTINUOUS
10
62.7158
20
-71.936
11
63.1158
21
-72.336
0
LINE
8
BLACK
6
CONTINUOUS
10
63.1158
20
-71.936
11
62.7158
21
-72.336
0
LINE
8
BLACK
6
CONTINUOUS
10
62.8936
20
-80.2418
11
63.2936
21
-80.6418
0
LINE
8
BLACK
6
CONTINUOUS
10
63.2936
20
-80.2418
11
62.8936
21
-80.6418
0
LINE
8
BLACK
6
CONTINUOUS
10
63.2238
20
-134.191
11
63.6238
21
-134.591
0
LINE
8
BLACK
6
CONTINUOUS
10
63.6238
20
-134.191
11
63.2238
21
-134.591
0
LINE
8
BLACK
6
CONTINUOUS
10
63.681
20
-131.22
11
64.081
21
-131.62
0
LINE
8
BLACK
6
CONTINUOUS
10
64.081
20
-131.22
11
63.681
21
-131.62
0
LINE
8
BLACK
6
CONTINUOUS
10
63.7191
20
-93.1323
11
64.1191
21
-93.5323
0
LINE
8
BLACK
6
CONTINUOUS
10
64.1191
20
-93.1323
11
63.7191
21
-93.5323
0
LINE
8
BLACK
6
CONTINUOUS
10
63.9223
20
-94.8595
11
64.3223
21
-95.2595
0
LINE
8
BLACK
6
CONTINUOUS
10
64.3223
20
-94.8595
11
63.9223
21
-95.2595
0
LINE
8
BLACK
6
CONTINUOUS
10
64.5171
20
-81.0415
11
64.9171
21
-81.4415
0
LINE
8
BLACK
6
CONTINUOUS
10
64.9171
20
-81.0415
11
64.5171
21
-81.4415
0
LINE
8
BLACK
6
CONTINUOUS
10
64.57
20
-186.363
11
64.97
21
-186.763
0
LINE
8
BLACK
6
CONTINUOUS
10
64.97
20
-186.363
11
64.57
21
-186.763
0
LINE
8
BLACK
6
CONTINUOUS
10
65.8654
20
-169.167
11
66.2654
21
-169.567
0
LINE
8
BLACK
6
CONTINUOUS
10
66.2654
20
-169.167
11
65.8654
21
-169.567
0
LINE
8
BLACK
6
CONTINUOUS
10
66.0178
20
-68.7864
11
66.4178
21
-69.1864
0
LINE
8
BLACK
6
CONTINUOUS
10
66.4178
20
-68.7864
11
66.0178
21
-69.1864
0
LINE
8
BLACK
6
CONTINUOUS
10
66.602
20
-77.524
11
67.002
21
-77.924
0
LINE
8
BLACK
6
CONTINUOUS
10
67.002
20
-77.524
11
66.602
21
-77.924
0
LINE
8
BLACK
6
CONTINUOUS
10
66.7544
20
-69.6246
11
67.1544
21
-70.0246
0
LINE
8
BLACK
6
CONTINUOUS
10
67.1544
20
-69.6246
11
66.7544
21
-70.0246
0
LINE
8
BLACK
6
CONTINUOUS
10
67.7958
20
-84.4836
11
68.1958
21
-84.8836
0
LINE
8
BLACK
6
CONTINUOUS
10
68.1958
20
-84.4836
11
67.7958
21
-84.8836
0
LINE
8
BLACK
6
CONTINUOUS
10
69.5992
20
-73.4473
11
69.9992
21
-73.8473
0
LINE
8
BLACK
6
CONTINUOUS
10
69.9992
20
-73.4473
11
69.5992
21
-73.8473
0
LINE
8
BLACK
6
CONTINUOUS
10
70.6595
20
-70.964
11
71.0595
21
-71.364
0
LINE
8
BLACK
6
CONTINUOUS
10
71.0595
20
-70.964
11
70.6595
21
-71.364
0
LINE
8
BLACK
6
CONTINUOUS
10
70.8565
20
-86.2235
11
71.2565
21
-86.6235
0
LINE
8
BLACK
6
CONTINUOUS
10
71.2565
20
-86.2235
11
70.8565
21
-86.6235
0
LINE
8
BLACK
6
CONTINUOUS
10
70.92
20
-184.775
11
71.32
21
-185.175
0
LINE
8
BLACK
6
CONTINUOUS
10
71.32
20
-184.775
11
70.92
21
-185.175
0
LINE
8
BLACK
6
CONTINUOUS
10
71.6058
20
-88.446
11
72.0058
21
-88.846
0
LINE
8
BLACK
6
CONTINUOUS
10
72.0058
20
-88.446
11
71.6058
21
-88.846
0
LINE
8
BLACK
6
CONTINUOUS
10
72.2662
20
-95.2786
11
72.6662
21
-95.6786
0
LINE
8
BLACK
6
CONTINUOUS
10
72.6662
20
-95.2786
11
72.2662
21
-95.6786
0
LINE
8
BLACK
6
CONTINUOUS
10
72.2662
20
-152.251
11
72.6662
21
-152.651
0
LINE
8
BLACK
6
CONTINUOUS
10
72.6662
20
-152.251
11
72.2662
21
-152.651
0
LINE
8
BLACK
6
CONTINUOUS
10
72.4948
20
-179.149
11
72.8948
21
-179.549
0
LINE
8
BLACK
6
CONTINUOUS
10
72.8948
20
-179.149
11
72.4948
21
-179.549
0
LINE
8
BLACK
6
CONTINUOUS
10
72.525
20
-102.924
11
72.925
21
-103.324
0
LINE
8
BLACK
6
CONTINUOUS
10
72.925
20
-102.924
11
72.525
21
-103.324
0
LINE
8
BLACK
6
CONTINUOUS
10
72.525
20
-121.974
11
72.925
21
-122.374
0
LINE
8
BLACK
6
CONTINUOUS
10
72.925
20
-121.974
11
72.525
21
-122.374
0
LINE
8
BLACK
6
CONTINUOUS
10
72.525
20
-141.024
11
72.925
21
-141.424
0
LINE
8
BLACK
6
CONTINUOUS
10
72.925
20
-141.024
11
72.525
21
-141.424
0
LINE
8
BLACK
6
CONTINUOUS
10
72.525
20
-160.074
11
72.925
21
-160.474
0
LINE
8
BLACK
6
CONTINUOUS
10
72.925
20
-160.074
11
72.525
21
-160.474
0
LINE
8
BLACK
6
CONTINUOUS
10
72.8198
20
-170.691
11
73.2198
21
-171.091
0
LINE
8
BLACK
6
CONTINUOUS
10
73.2198
20
-170.691
11
72.8198
21
-171.091
0
LINE
8
BLACK
6
CONTINUOUS
10
73.0028
20
-113.706
11
73.4028
21
-114.106
0
LINE
8
BLACK
6
CONTINUOUS
10
73.4028
20
-113.706
11
73.0028
21
-114.106
0
LINE
8
BLACK
6
CONTINUOUS
10
73.2187
20
-132.985
11
73.6187
21
-133.385
0
LINE
8
BLACK
6
CONTINUOUS
10
73.6187
20
-132.985
11
73.2187
21
-133.385
0
LINE
8
BLACK
6
CONTINUOUS
10
73.2695
20
-186.427
11
73.6695
21
-186.826
0
LINE
8
BLACK
6
CONTINUOUS
10
73.6695
20
-186.427
11
73.2695
21
-186.826
0
LINE
8
BLACK
6
CONTINUOUS
10
73.714
20
-187.887
11
74.114
21
-188.287
0
LINE
8
BLACK
6
CONTINUOUS
10
74.114
20
-187.887
11
73.714
21
-188.287
0
LINE
8
BLACK
6
CONTINUOUS
10
73.9045
20
-79.1115
11
74.3045
21
-79.5115
0
LINE
8
BLACK
6
CONTINUOUS
10
74.3045
20
-79.1115
11
73.9045
21
-79.5115
0
LINE
8
BLACK
6
CONTINUOUS
10
74.1712
20
-148.746
11
74.5712
21
-149.146
0
LINE
8
BLACK
6
CONTINUOUS
10
74.5712
20
-148.746
11
74.1712
21
-149.146
0
LINE
8
BLACK
6
CONTINUOUS
10
74.3236
20
-110.646
11
74.7236
21
-111.046
0
LINE
8
BLACK
6
CONTINUOUS
10
74.7236
20
-110.646
11
74.3236
21
-111.046
0
LINE
8
BLACK
6
CONTINUOUS
10
74.5395
20
-72.2535
11
74.9395
21
-72.6535
0
LINE
8
BLACK
6
CONTINUOUS
10
74.9395
20
-72.2535
11
74.5395
21
-72.6535
0
LINE
8
BLACK
6
CONTINUOUS
10
74.6792
20
-108.931
11
75.0792
21
-109.331
0
LINE
8
BLACK
6
CONTINUOUS
10
75.0792
20
-108.931
11
74.6792
21
-109.331
0
LINE
8
BLACK
6
CONTINUOUS
10
74.6919
20
-147.031
11
75.0919
21
-147.431
0
LINE
8
BLACK
6
CONTINUOUS
10
75.0919
20
-147.031
11
74.6919
21
-147.431
0
LINE
8
BLACK
6
CONTINUOUS
10
76.8128
20
-86.8204
11
77.2128
21
-87.2204
0
LINE
8
BLACK
6
CONTINUOUS
10
77.2128
20
-86.8204
11
76.8128
21
-87.2204
0
LINE
8
BLACK
6
CONTINUOUS
10
77.4224
20
-72.2916
11
77.8224
21
-72.6916
0
LINE
8
BLACK
6
CONTINUOUS
10
77.8224
20
-72.2916
11
77.4224
21
-72.6916
0
LINE
8
BLACK
6
CONTINUOUS
10
77.7145
20
-75.492
11
78.1145
21
-75.892
0
LINE
8
BLACK
6
CONTINUOUS
10
78.1145
20
-75.492
11
77.7145
21
-75.892
0
LINE
8
BLACK
6
CONTINUOUS
10
78.8575
20
-80.0005
11
79.2575
21
-80.4005
0
LINE
8
BLACK
6
CONTINUOUS
10
79.2575
20
-80.0005
11
78.8575
21
-80.4005
0
LINE
8
BLACK
6
CONTINUOUS
10
80.445
20
-82.1595
11
80.845
21
-82.5595
0
LINE
8
BLACK
6
CONTINUOUS
10
80.845
20
-82.1595
11
80.445
21
-82.5595
0
LINE
8
BLACK
6
CONTINUOUS
10
81.4864
20
-84.5344
11
81.8864
21
-84.9344
0
LINE
8
BLACK
6
CONTINUOUS
10
81.8864
20
-84.5344
11
81.4864
21
-84.9344
0
LINE
8
BLACK
6
CONTINUOUS
10
81.715
20
-96.193
11
82.115
21
-96.593
0
LINE
8
BLACK
6
CONTINUOUS
10
82.115
20
-96.193
11
81.715
21
-96.593
0
LINE
8
BLACK
6
CONTINUOUS
10
81.9944
20
-172.177
11
82.3944
21
-172.577
0
LINE
8
BLACK
6
CONTINUOUS
10
82.3944
20
-172.177
11
81.9944
21
-172.577
0
LINE
8
BLACK
6
CONTINUOUS
10
82.1087
20
-134.217
11
82.5087
21
-134.617
0
LINE
8
BLACK
6
CONTINUOUS
10
82.5087
20
-134.217
11
82.1087
21
-134.617
0
LINE
8
BLACK
6
CONTINUOUS
10
82.223
20
-75.9365
11
82.623
21
-76.3365
0
LINE
8
BLACK
6
CONTINUOUS
10
82.623
20
-75.9365
11
82.223
21
-76.3365
0
LINE
8
BLACK
6
CONTINUOUS
10
82.4135
20
-79.1115
11
82.8135
21
-79.5115
0
LINE
8
BLACK
6
CONTINUOUS
10
82.8135
20
-79.1115
11
82.4135
21
-79.5115
0
LINE
8
BLACK
6
CONTINUOUS
10
82.7818
20
-131.245
11
83.1818
21
-131.645
0
LINE
8
BLACK
6
CONTINUOUS
10
83.1818
20
-131.245
11
82.7818
21
-131.645
0
LINE
8
BLACK
6
CONTINUOUS
10
82.9342
20
-93.1704
11
83.3342
21
-93.5704
0
LINE
8
BLACK
6
CONTINUOUS
10
83.3342
20
-93.1704
11
82.9342
21
-93.5704
0
LINE
8
BLACK
6
CONTINUOUS
10
82.9596
20
-169.32
11
83.3596
21
-169.72
0
LINE
8
BLACK
6
CONTINUOUS
10
83.3596
20
-169.32
11
82.9596
21
-169.72
0
LINE
8
BLACK
6
CONTINUOUS
10
83.6962
20
-152.403
11
84.0962
21
-152.803
0
LINE
8
BLACK
6
CONTINUOUS
10
84.0962
20
-152.403
11
83.6962
21
-152.803
0
LINE
8
BLACK
6
CONTINUOUS
10
83.7216
20
-113.922
11
84.1216
21
-114.322
0
LINE
8
BLACK
6
CONTINUOUS
10
84.1216
20
-113.922
11
83.7216
21
-114.322
0
LINE
8
BLACK
6
CONTINUOUS
10
83.7724
20
-171.047
11
84.1724
21
-171.447
0
LINE
8
BLACK
6
CONTINUOUS
10
84.1724
20
-171.047
11
83.7724
21
-171.447
0
LINE
8
BLACK
6
CONTINUOUS
10
84.0264
20
-95.1008
11
84.4264
21
-95.5008
0
LINE
8
BLACK
6
CONTINUOUS
10
84.4264
20
-95.1008
11
84.0264
21
-95.5008
0
LINE
8
BLACK
6
CONTINUOUS
10
84.4201
20
-132.883
11
84.8201
21
-133.283
0
LINE
8
BLACK
6
CONTINUOUS
10
84.8201
20
-132.883
11
84.4201
21
-133.283
0
LINE
8
BLACK
6
CONTINUOUS
10
87.1858
20
-78.9308
11
87.5858
21
-79.3308
0
LINE
8
BLACK
6
CONTINUOUS
10
87.5858
20
-78.9308
11
87.1858
21
-79.3308
0
LINE
8
BLACK
6
CONTINUOUS
10
87.4681
20
-86.16
11
87.8681
21
-86.56
0
LINE
8
BLACK
6
CONTINUOUS
10
87.8681
20
-86.16
11
87.4681
21
-86.56
0
LINE
8
BLACK
6
CONTINUOUS
10
87.9282
20
-79.6732
11
88.3282
21
-80.0732
0
LINE
8
BLACK
6
CONTINUOUS
10
88.3282
20
-79.6732
11
87.9282
21
-80.0732
0
LINE
8
BLACK
6
CONTINUOUS
10
88.0777
20
-82.6294
11
88.4777
21
-83.0294
0
LINE
8
BLACK
6
CONTINUOUS
10
88.4777
20
-82.6294
11
88.0777
21
-83.0294
0
LINE
8
BLACK
6
CONTINUOUS
10
88.2936
20
-74.476
11
88.6936
21
-74.876
0
LINE
8
BLACK
6
CONTINUOUS
10
88.6936
20
-74.476
11
88.2936
21
-74.876
0
LINE
8
BLACK
6
CONTINUOUS
10
89.3096
20
-82.7818
11
89.7096
21
-83.1818
0
LINE
8
BLACK
6
CONTINUOUS
10
89.7096
20
-82.7818
11
89.3096
21
-83.1818
0
LINE
8
BLACK
6
CONTINUOUS
10
90.4319
20
-82.4899
11
90.8319
21
-82.8899
0
LINE
8
BLACK
6
CONTINUOUS
10
90.8319
20
-82.4899
11
90.4319
21
-82.8899
0
LINE
8
BLACK
6
CONTINUOUS
10
90.478
20
-78.159
11
90.878
21
-78.559
0
LINE
8
BLACK
6
CONTINUOUS
10
90.878
20
-78.159
11
90.478
21
-78.559
0
LINE
8
BLACK
6
CONTINUOUS
10
91.24
20
-152.098
11
91.64
21
-152.498
0
LINE
8
BLACK
6
CONTINUOUS
10
91.64
20
-152.098
11
91.24
21
-152.498
0
LINE
8
BLACK
6
CONTINUOUS
10
91.2908
20
-90.0716
11
91.6908
21
-90.4716
0
LINE
8
BLACK
6
CONTINUOUS
10
91.6908
20
-90.0716
11
91.2908
21
-90.4716
0
LINE
8
BLACK
6
CONTINUOUS
10
91.3416
20
-171.047
11
91.7416
21
-171.447
0
LINE
8
BLACK
6
CONTINUOUS
10
91.7416
20
-171.047
11
91.3416
21
-171.447
0
LINE
8
BLACK
6
CONTINUOUS
10
91.5702
20
-179.086
11
91.9702
21
-179.486
0
LINE
8
BLACK
6
CONTINUOUS
10
91.9702
20
-179.086
11
91.5702
21
-179.486
0
LINE
8
BLACK
6
CONTINUOUS
10
91.575
20
-102.924
11
91.975
21
-103.324
0
LINE
8
BLACK
6
CONTINUOUS
10
91.975
20
-102.924
11
91.575
21
-103.324
0
LINE
8
BLACK
6
CONTINUOUS
10
91.575
20
-121.974
11
91.975
21
-122.374
0
LINE
8
BLACK
6
CONTINUOUS
10
91.975
20
-121.974
11
91.575
21
-122.374
0
LINE
8
BLACK
6
CONTINUOUS
10
91.575
20
-141.024
11
91.975
21
-141.424
0
LINE
8
BLACK
6
CONTINUOUS
10
91.975
20
-141.024
11
91.575
21
-141.424
0
LINE
8
BLACK
6
CONTINUOUS
10
91.575
20
-160.074
11
91.975
21
-160.474
0
LINE
8
BLACK
6
CONTINUOUS
10
91.975
20
-160.074
11
91.575
21
-160.474
0
LINE
8
BLACK
6
CONTINUOUS
10
92.3068
20
-113.871
11
92.7068
21
-114.271
0
LINE
8
BLACK
6
CONTINUOUS
10
92.7068
20
-113.871
11
92.3068
21
-114.271
0
LINE
8
BLACK
6
CONTINUOUS
10
92.3195
20
-132.845
11
92.7195
21
-133.245
0
LINE
8
BLACK
6
CONTINUOUS
10
92.7195
20
-132.845
11
92.3195
21
-133.245
0
LINE
8
BLACK
6
CONTINUOUS
10
93.145
20
-71.2502
11
93.545
21
-71.6502
0
LINE
8
BLACK
6
CONTINUOUS
10
93.545
20
-71.2502
11
93.145
21
-71.6502
0
LINE
8
BLACK
6
CONTINUOUS
10
93.272
20
-148.796
11
93.672
21
-149.196
0
LINE
8
BLACK
6
CONTINUOUS
10
93.672
20
-148.796
11
93.272
21
-149.196
0
LINE
8
BLACK
6
CONTINUOUS
10
93.3228
20
-110.696
11
93.7228
21
-111.096
0
LINE
8
BLACK
6
CONTINUOUS
10
93.7228
20
-110.696
11
93.3228
21
-111.096
0
LINE
8
BLACK
6
CONTINUOUS
10
93.4752
20
-95.1262
11
93.8752
21
-95.5262
0
LINE
8
BLACK
6
CONTINUOUS
10
93.8752
20
-95.1262
11
93.4752
21
-95.5262
0
LINE
8
BLACK
6
CONTINUOUS
10
93.5895
20
-82.858
11
93.9895
21
-83.258
0
LINE
8
BLACK
6
CONTINUOUS
10
93.9895
20
-82.858
11
93.5895
21
-83.258
0
LINE
8
BLACK
6
CONTINUOUS
10
93.6149
20
-147.056
11
94.0149
21
-147.457
0
LINE
8
BLACK
6
CONTINUOUS
10
94.0149
20
-147.056
11
93.6149
21
-147.457
0
LINE
8
BLACK
6
CONTINUOUS
10
93.7419
20
-108.868
11
94.1419
21
-109.268
0
LINE
8
BLACK
6
CONTINUOUS
10
94.1419
20
-108.868
11
93.7419
21
-109.268
0
LINE
8
BLACK
6
CONTINUOUS
10
93.78
20
-77.4605
11
94.18
21
-77.8605
0
LINE
8
BLACK
6
CONTINUOUS
10
94.18
20
-77.4605
11
93.78
21
-77.8605
0
LINE
8
BLACK
6
CONTINUOUS
10
94.7113
20
-82.6396
11
95.1113
21
-83.0396
0
LINE
8
BLACK
6
CONTINUOUS
10
95.1113
20
-82.6396
11
94.7113
21
-83.0396
0
LINE
8
BLACK
6
CONTINUOUS
10
95.939
20
-80.191
11
96.339
21
-80.591
0
LINE
8
BLACK
6
CONTINUOUS
10
96.339
20
-80.191
11
95.939
21
-80.591
0
LINE
8
BLACK
6
CONTINUOUS
10
96.066
20
-85.8425
11
96.466
21
-86.2425
0
LINE
8
BLACK
6
CONTINUOUS
10
96.466
20
-85.8425
11
96.066
21
-86.2425
0
LINE
8
BLACK
6
CONTINUOUS
10
96.447
20
-86.922
11
96.847
21
-87.322
0
LINE
8
BLACK
6
CONTINUOUS
10
96.847
20
-86.922
11
96.447
21
-87.322
0
LINE
8
BLACK
6
CONTINUOUS
10
96.5384
20
-61.9995
11
96.9384
21
-62.3995
0
LINE
8
BLACK
6
CONTINUOUS
10
96.9384
20
-61.9995
11
96.5384
21
-62.3995
0
LINE
8
BLACK
6
CONTINUOUS
10
96.7264
20
-68.7402
11
97.1264
21
-69.1402
0
LINE
8
BLACK
6
CONTINUOUS
10
97.1264
20
-68.7402
11
96.7264
21
-69.1402
0
LINE
8
BLACK
6
CONTINUOUS
10
97.6306
20
-82.6396
11
98.0306
21
-83.0396
0
LINE
8
BLACK
6
CONTINUOUS
10
98.0306
20
-82.6396
11
97.6306
21
-83.0396
0
LINE
8
BLACK
6
CONTINUOUS
10
97.8567
20
-87.2268
11
98.2567
21
-87.6268
0
LINE
8
BLACK
6
CONTINUOUS
10
98.2567
20
-87.2268
11
97.8567
21
-87.6268
0
LINE
8
BLACK
6
CONTINUOUS
10
98.3622
20
-75.812
11
98.7622
21
-76.212
0
LINE
8
BLACK
6
CONTINUOUS
10
98.7622
20
-75.812
11
98.3622
21
-76.212
0
LINE
8
BLACK
6
CONTINUOUS
10
99.2791
20
-86.3251
11
99.6791
21
-86.7251
0
LINE
8
BLACK
6
CONTINUOUS
10
99.6791
20
-86.3251
11
99.2791
21
-86.7251
0
LINE
8
BLACK
6
CONTINUOUS
10
100.624
20
-86.8656
11
101.024
21
-87.2656
0
LINE
8
BLACK
6
CONTINUOUS
10
101.024
20
-86.8656
11
100.624
21
-87.2656
0
LINE
8
BLACK
6
CONTINUOUS
10
100.778
20
-172.228
11
101.178
21
-172.628
0
LINE
8
BLACK
6
CONTINUOUS
10
101.178
20
-172.228
11
100.778
21
-172.628
0
LINE
8
BLACK
6
CONTINUOUS
10
100.841
20
-71.2248
11
101.241
21
-71.6248
0
LINE
8
BLACK
6
CONTINUOUS
10
101.241
20
-71.2248
11
100.841
21
-71.6248
0
LINE
8
BLACK
6
CONTINUOUS
10
100.892
20
-134.204
11
101.292
21
-134.604
0
LINE
8
BLACK
6
CONTINUOUS
10
101.292
20
-134.204
11
100.892
21
-134.604
0
LINE
8
BLACK
6
CONTINUOUS
10
100.958
20
-81.9792
11
101.358
21
-82.3792
0
LINE
8
BLACK
6
CONTINUOUS
10
101.358
20
-81.9792
11
100.958
21
-82.3792
0
LINE
8
BLACK
6
CONTINUOUS
10
100.981
20
-85.9314
11
101.381
21
-86.3314
0
LINE
8
BLACK
6
CONTINUOUS
10
101.381
20
-85.9314
11
100.981
21
-86.3314
0
LINE
8
BLACK
6
CONTINUOUS
10
101.032
20
-96.0025
11
101.432
21
-96.4025
0
LINE
8
BLACK
6
CONTINUOUS
10
101.432
20
-96.0025
11
101.032
21
-96.4025
0
LINE
8
BLACK
6
CONTINUOUS
10
101.527
20
-78.54
11
101.927
21
-78.94
0
LINE
8
BLACK
6
CONTINUOUS
10
101.927
20
-78.54
11
101.527
21
-78.94
0
LINE
8
BLACK
6
CONTINUOUS
10
101.756
20
-131.245
11
102.156
21
-131.645
0
LINE
8
BLACK
6
CONTINUOUS
10
102.156
20
-131.245
11
101.756
21
-131.645
0
LINE
8
BLACK
6
CONTINUOUS
10
101.781
20
-75.111
11
102.181
21
-75.511
0
LINE
8
BLACK
6
CONTINUOUS
10
102.181
20
-75.111
11
101.781
21
-75.511
0
LINE
8
BLACK
6
CONTINUOUS
10
101.844
20
-80.9403
11
102.245
21
-81.3403
0
LINE
8
BLACK
6
CONTINUOUS
10
102.245
20
-80.9403
11
101.844
21
-81.3403
0
LINE
8
BLACK
6
CONTINUOUS
10
101.883
20
-93.1069
11
102.283
21
-93.5069
0
LINE
8
BLACK
6
CONTINUOUS
10
102.283
20
-93.1069
11
101.883
21
-93.5069
0
LINE
8
BLACK
6
CONTINUOUS
10
102.01
20
-169.269
11
102.41
21
-169.669
0
LINE
8
BLACK
6
CONTINUOUS
10
102.41
20
-169.269
11
102.01
21
-169.669
0
LINE
8
BLACK
6
CONTINUOUS
10
102.543
20
-152.149
11
102.943
21
-152.549
0
LINE
8
BLACK
6
CONTINUOUS
10
102.943
20
-152.149
11
102.543
21
-152.549
0
LINE
8
BLACK
6
CONTINUOUS
10
102.568
20
-85.906
11
102.968
21
-86.306
0
LINE
8
BLACK
6
CONTINUOUS
10
102.968
20
-85.906
11
102.568
21
-86.306
0
LINE
8
BLACK
6
CONTINUOUS
10
102.746
20
-83.5184
11
103.146
21
-83.9184
0
LINE
8
BLACK
6
CONTINUOUS
10
103.146
20
-83.5184
11
102.746
21
-83.9184
0
LINE
8
BLACK
6
CONTINUOUS
10
102.848
20
-171.377
11
103.248
21
-171.777
0
LINE
8
BLACK
6
CONTINUOUS
10
103.248
20
-171.377
11
102.848
21
-171.777
0
LINE
8
BLACK
6
CONTINUOUS
10
102.987
20
-186.363
11
103.387
21
-186.763
0
LINE
8
BLACK
6
CONTINUOUS
10
103.387
20
-186.363
11
102.987
21
-186.763
0
LINE
8
BLACK
6
CONTINUOUS
10
103.064
20
-132.553
11
103.464
21
-132.953
0
LINE
8
BLACK
6
CONTINUOUS
10
103.464
20
-132.553
11
103.064
21
-132.953
0
LINE
8
BLACK
6
CONTINUOUS
10
103.127
20
-72.9012
11
103.527
21
-73.3012
0
LINE
8
BLACK
6
CONTINUOUS
10
103.527
20
-72.9012
11
103.127
21
-73.3012
0
LINE
8
BLACK
6
CONTINUOUS
10
103.153
20
-95.0373
11
103.553
21
-95.4373
0
LINE
8
BLACK
6
CONTINUOUS
10
103.553
20
-95.0373
11
103.153
21
-95.4373
0
LINE
8
BLACK
6
CONTINUOUS
10
103.343
20
-113.503
11
103.743
21
-113.903
0
LINE
8
BLACK
6
CONTINUOUS
10
103.743
20
-113.503
11
103.343
21
-113.903
0
LINE
8
BLACK
6
CONTINUOUS
10
105.68
20
-91.4305
11
106.08
21
-91.8305
0
LINE
8
BLACK
6
CONTINUOUS
10
106.08
20
-91.4305
11
105.68
21
-91.8305
0
LINE
8
BLACK
6
CONTINUOUS
10
105.845
20
-81.7785
11
106.245
21
-82.1785
0
LINE
8
BLACK
6
CONTINUOUS
10
106.245
20
-81.7785
11
105.845
21
-82.1785
0
LINE
8
BLACK
6
CONTINUOUS
10
106.747
20
-90.2367
11
107.147
21
-90.6367
0
LINE
8
BLACK
6
CONTINUOUS
10
107.147
20
-90.2367
11
106.747
21
-90.6367
0
LINE
8
BLACK
6
CONTINUOUS
10
106.848
20
-106.213
11
107.248
21
-106.613
0
LINE
8
BLACK
6
CONTINUOUS
10
107.248
20
-106.213
11
106.848
21
-106.613
0
LINE
8
BLACK
6
CONTINUOUS
10
107.242
20
-80.953
11
107.642
21
-81.353
0
LINE
8
BLACK
6
CONTINUOUS
10
107.642
20
-80.953
11
107.242
21
-81.353
0
LINE
8
BLACK
6
CONTINUOUS
10
107.255
20
-124.641
11
107.655
21
-125.041
0
LINE
8
BLACK
6
CONTINUOUS
10
107.655
20
-124.641
11
107.255
21
-125.041
0
LINE
8
BLACK
6
CONTINUOUS
10
107.788
20
-91.4178
11
108.188
21
-91.8178
0
LINE
8
BLACK
6
CONTINUOUS
10
108.188
20
-91.4178
11
107.788
21
-91.8178
0
LINE
8
BLACK
6
CONTINUOUS
10
108.233
20
-143.577
11
108.633
21
-143.977
0
LINE
8
BLACK
6
CONTINUOUS
10
108.633
20
-143.577
11
108.233
21
-143.977
0
LINE
8
BLACK
6
CONTINUOUS
10
108.715
20
-90.2494
11
109.115
21
-90.6494
0
LINE
8
BLACK
6
CONTINUOUS
10
109.115
20
-90.2494
11
108.715
21
-90.6494
0
LINE
8
BLACK
6
CONTINUOUS
10
108.753
20
-163.046
11
109.153
21
-163.446
0
LINE
8
BLACK
6
CONTINUOUS
10
109.153
20
-163.046
11
108.753
21
-163.446
0
LINE
8
BLACK
6
CONTINUOUS
10
108.956
20
-184.522
11
109.356
21
-184.921
0
LINE
8
BLACK
6
CONTINUOUS
10
109.356
20
-184.522
11
108.956
21
-184.921
0
LINE
8
BLACK
6
CONTINUOUS
10
110.544
20
-62.9698
11
110.944
21
-63.3698
0
LINE
8
BLACK
6
CONTINUOUS
10
110.944
20
-62.9698
11
110.544
21
-63.3698
0
LINE
8
BLACK
6
CONTINUOUS
10
110.582
20
-179.099
11
110.982
21
-179.499
0
LINE
8
BLACK
6
CONTINUOUS
10
110.982
20
-179.099
11
110.582
21
-179.499
0
LINE
8
BLACK
6
CONTINUOUS
10
110.625
20
-102.924
11
111.025
21
-103.324
0
LINE
8
BLACK
6
CONTINUOUS
10
111.025
20
-102.924
11
110.625
21
-103.324
0
LINE
8
BLACK
6
CONTINUOUS
10
110.646
20
-171.174
11
111.046
21
-171.574
0
LINE
8
BLACK
6
CONTINUOUS
10
111.046
20
-171.174
11
110.646
21
-171.574
0
LINE
8
BLACK
6
CONTINUOUS
10
111.154
20
-152.403
11
111.554
21
-152.803
0
LINE
8
BLACK
6
CONTINUOUS
10
111.554
20
-152.403
11
111.154
21
-152.803
0
LINE
8
BLACK
6
CONTINUOUS
10
111.268
20
-90.9098
11
111.668
21
-91.3098
0
LINE
8
BLACK
6
CONTINUOUS
10
111.668
20
-90.9098
11
111.268
21
-91.3098
0
LINE
8
BLACK
6
CONTINUOUS
10
111.281
20
-113.706
11
111.681
21
-114.106
0
LINE
8
BLACK
6
CONTINUOUS
10
111.681
20
-113.706
11
111.281
21
-114.106
0
LINE
8
BLACK
6
CONTINUOUS
10
111.306
20
-186.427
11
111.706
21
-186.826
0
LINE
8
BLACK
6
CONTINUOUS
10
111.706
20
-186.427
11
111.306
21
-186.826
0
LINE
8
BLACK
6
CONTINUOUS
10
111.433
20
-187.951
11
111.833
21
-188.35
0
LINE
8
BLACK
6
CONTINUOUS
10
111.833
20
-187.951
11
111.433
21
-188.35
0
LINE
8
BLACK
6
CONTINUOUS
10
111.75
20
-132.756
11
112.15
21
-133.156
0
LINE
8
BLACK
6
CONTINUOUS
10
112.15
20
-132.756
11
111.75
21
-133.156
0
LINE
8
BLACK
6
CONTINUOUS
10
112.006
20
-94.9738
11
112.406
21
-95.3738
0
LINE
8
BLACK
6
CONTINUOUS
10
112.406
20
-94.9738
11
112.006
21
-95.3738
0
LINE
8
BLACK
6
CONTINUOUS
10
112.322
20
-110.696
11
112.722
21
-111.096
0
LINE
8
BLACK
6
CONTINUOUS
10
112.722
20
-110.696
11
112.322
21
-111.096
0
LINE
8
BLACK
6
CONTINUOUS
10
112.322
20
-148.796
11
112.722
21
-149.196
0
LINE
8
BLACK
6
CONTINUOUS
10
112.722
20
-148.796
11
112.322
21
-149.196
0
LINE
8
BLACK
6
CONTINUOUS
10
112.83
20
-108.918
11
113.23
21
-109.318
0
LINE
8
BLACK
6
CONTINUOUS
10
113.23
20
-108.918
11
112.83
21
-109.318
0
LINE
8
BLACK
6
CONTINUOUS
10
112.83
20
-147.056
11
113.23
21
-147.457
0
LINE
8
BLACK
6
CONTINUOUS
10
113.23
20
-147.056
11
112.83
21
-147.457
0
LINE
8
BLACK
6
CONTINUOUS
10
114.227
20
-77.016
11
114.627
21
-77.416
0
LINE
8
BLACK
6
CONTINUOUS
10
114.627
20
-77.016
11
114.227
21
-77.416
0
LINE
8
BLACK
6
CONTINUOUS
10
119.028
20
-77.0668
11
119.428
21
-77.4668
0
LINE
8
BLACK
6
CONTINUOUS
10
119.428
20
-77.0668
11
119.028
21
-77.4668
0
LINE
8
BLACK
6
CONTINUOUS
10
119.447
20
-170.552
11
119.847
21
-170.951
0
LINE
8
BLACK
6
CONTINUOUS
10
119.847
20
-170.552
11
119.447
21
-170.951
0
LINE
8
BLACK
6
CONTINUOUS
10
119.917
20
-96.1422
11
120.317
21
-96.5422
0
LINE
8
BLACK
6
CONTINUOUS
10
120.317
20
-96.1422
11
119.917
21
-96.5422
0
LINE
8
BLACK
6
CONTINUOUS
10
120.094
20
-134.242
11
120.494
21
-134.642
0
LINE
8
BLACK
6
CONTINUOUS
10
120.494
20
-134.242
11
120.094
21
-134.642
0
LINE
8
BLACK
6
CONTINUOUS
10
120.907
20
-93.0815
11
121.307
21
-93.4815
0
LINE
8
BLACK
6
CONTINUOUS
10
121.307
20
-93.0815
11
120.907
21
-93.4815
0
LINE
8
BLACK
6
CONTINUOUS
10
121.098
20
-131.283
11
121.498
21
-131.683
0
LINE
8
BLACK
6
CONTINUOUS
10
121.498
20
-131.283
11
121.098
21
-131.683
0
LINE
8
BLACK
6
CONTINUOUS
10
121.441
20
-152.048
11
121.841
21
-152.448
0
LINE
8
BLACK
6
CONTINUOUS
10
121.841
20
-152.048
11
121.441
21
-152.448
0
LINE
8
BLACK
6
CONTINUOUS
10
121.618
20
-168.126
11
122.018
21
-168.526
0
LINE
8
BLACK
6
CONTINUOUS
10
122.018
20
-168.126
11
121.618
21
-168.526
0
LINE
8
BLACK
6
CONTINUOUS
10
121.682
20
-113.655
11
122.082
21
-114.055
0
LINE
8
BLACK
6
CONTINUOUS
10
122.082
20
-113.655
11
121.682
21
-114.055
0
LINE
8
BLACK
6
CONTINUOUS
10
121.822
20
-133.315
11
122.222
21
-133.715
0
LINE
8
BLACK
6
CONTINUOUS
10
122.222
20
-133.315
11
121.822
21
-133.715
0
LINE
8
BLACK
6
CONTINUOUS
10
122.101
20
-94.7833
11
122.501
21
-95.1833
0
LINE
8
BLACK
6
CONTINUOUS
10
122.501
20
-94.7833
11
122.101
21
-95.1833
0
LINE
8
BLACK
6
CONTINUOUS
10
122.736
20
-143.818
11
123.136
21
-144.218
0
LINE
8
BLACK
6
CONTINUOUS
10
123.136
20
-143.818
11
122.736
21
-144.218
0
LINE
8
BLACK
6
CONTINUOUS
10
123.295
20
-168.862
11
123.695
21
-169.262
0
LINE
8
BLACK
6
CONTINUOUS
10
123.695
20
-168.862
11
123.295
21
-169.262
0
LINE
8
BLACK
6
CONTINUOUS
10
123.498
20
-129.784
11
123.898
21
-130.184
0
LINE
8
BLACK
6
CONTINUOUS
10
123.898
20
-129.784
11
123.498
21
-130.184
0
LINE
8
BLACK
6
CONTINUOUS
10
123.503
20
-87.2166
11
123.903
21
-87.6166
0
LINE
8
BLACK
6
CONTINUOUS
10
123.903
20
-87.2166
11
123.503
21
-87.6166
0
LINE
8
BLACK
6
CONTINUOUS
10
124.387
20
-61.776
11
124.787
21
-62.176
0
LINE
8
BLACK
6
CONTINUOUS
10
124.787
20
-61.776
11
124.387
21
-62.176
0
LINE
8
BLACK
6
CONTINUOUS
10
125.593
20
-105.21
11
125.993
21
-105.61
0
LINE
8
BLACK
6
CONTINUOUS
10
125.993
20
-105.21
11
125.593
21
-105.61
0
LINE
8
BLACK
6
CONTINUOUS
10
125.784
20
-90.5415
11
126.184
21
-90.9415
0
LINE
8
BLACK
6
CONTINUOUS
10
126.184
20
-90.5415
11
125.784
21
-90.9415
0
LINE
8
BLACK
6
CONTINUOUS
10
126.14
20
-65.6749
11
126.54
21
-66.0749
0
LINE
8
BLACK
6
CONTINUOUS
10
126.54
20
-65.6749
11
126.14
21
-66.0749
0
LINE
8
BLACK
6
CONTINUOUS
10
126.8
20
-105.527
11
127.2
21
-105.927
0
LINE
8
BLACK
6
CONTINUOUS
10
127.2
20
-105.527
11
126.8
21
-105.927
0
LINE
8
BLACK
6
CONTINUOUS
10
126.8
20
-143.691
11
127.2
21
-144.091
0
LINE
8
BLACK
6
CONTINUOUS
10
127.2
20
-143.691
11
126.8
21
-144.091
0
LINE
8
BLACK
6
CONTINUOUS
10
126.863
20
-124.45
11
127.263
21
-124.85
0
LINE
8
BLACK
6
CONTINUOUS
10
127.263
20
-124.45
11
126.863
21
-124.85
0
LINE
8
BLACK
6
CONTINUOUS
10
126.927
20
-162.55
11
127.327
21
-162.951
0
LINE
8
BLACK
6
CONTINUOUS
10
127.327
20
-162.55
11
126.927
21
-162.951
0
LINE
8
BLACK
6
CONTINUOUS
10
128.578
20
-103.114
11
128.978
21
-103.514
0
LINE
8
BLACK
6
CONTINUOUS
10
128.978
20
-103.114
11
128.578
21
-103.514
0
LINE
8
BLACK
6
CONTINUOUS
10
128.578
20
-111.623
11
128.978
21
-112.023
0
LINE
8
BLACK
6
CONTINUOUS
10
128.978
20
-111.623
11
128.578
21
-112.023
0
LINE
8
BLACK
6
CONTINUOUS
10
128.578
20
-122.228
11
128.978
21
-122.628
0
LINE
8
BLACK
6
CONTINUOUS
10
128.978
20
-122.228
11
128.578
21
-122.628
0
LINE
8
BLACK
6
CONTINUOUS
10
128.578
20
-130.737
11
128.978
21
-131.137
0
LINE
8
BLACK
6
CONTINUOUS
10
128.978
20
-130.737
11
128.578
21
-131.137
0
LINE
8
BLACK
6
CONTINUOUS
10
128.578
20
-141.341
11
128.978
21
-141.742
0
LINE
8
BLACK
6
CONTINUOUS
10
128.978
20
-141.341
11
128.578
21
-141.742
0
LINE
8
BLACK
6
CONTINUOUS
10
128.578
20
-149.85
11
128.978
21
-150.25
0
LINE
8
BLACK
6
CONTINUOUS
10
128.978
20
-149.85
11
128.578
21
-150.25
0
LINE
8
BLACK
6
CONTINUOUS
10
128.578
20
-160.391
11
128.978
21
-160.791
0
LINE
8
BLACK
6
CONTINUOUS
10
128.978
20
-160.391
11
128.578
21
-160.791
0
LINE
8
BLACK
6
CONTINUOUS
10
128.578
20
-168.9
11
128.978
21
-169.3
0
LINE
8
BLACK
6
CONTINUOUS
10
128.978
20
-168.9
11
128.578
21
-169.3
0
LINE
8
BLACK
6
CONTINUOUS
10
130.102
20
-141.088
11
130.502
21
-141.487
0
LINE
8
BLACK
6
CONTINUOUS
10
130.502
20
-141.088
11
130.102
21
-141.487
0
LINE
8
BLACK
6
CONTINUOUS
10
130.102
20
-160.01
11
130.502
21
-160.41
0
LINE
8
BLACK
6
CONTINUOUS
10
130.502
20
-160.01
11
130.102
21
-160.41
0
LINE
8
BLACK
6
CONTINUOUS
10
130.165
20
-121.974
11
130.565
21
-122.374
0
LINE
8
BLACK
6
CONTINUOUS
10
130.565
20
-121.974
11
130.165
21
-122.374
0
LINE
8
BLACK
6
CONTINUOUS
10
100.746
20
-64.109
11
101.146
21
-64.509
0
LINE
8
BLACK
6
CONTINUOUS
10
101.146
20
-64.109
11
100.746
21
-64.509
0
LINE
8
BLACK
6
CONTINUOUS
10
100.746
20
-65.459
11
101.146
21
-65.859
0
LINE
8
BLACK
6
CONTINUOUS
10
101.146
20
-65.459
11
100.746
21
-65.859
0
LINE
8
BLACK
6
CONTINUOUS
10
101.596
20
-64.109
11
101.996
21
-64.509
0
LINE
8
BLACK
6
CONTINUOUS
10
101.996
20
-64.109
11
101.596
21
-64.509
0
LINE
8
BLACK
6
CONTINUOUS
10
101.596
20
-65.459
11
101.996
21
-65.859
0
LINE
8
BLACK
6
CONTINUOUS
10
101.996
20
-65.459
11
101.596
21
-65.859
0
LINE
8
BLACK
6
CONTINUOUS
10
102.446
20
-64.109
11
102.846
21
-64.509
0
LINE
8
BLACK
6
CONTINUOUS
10
102.846
20
-64.109
11
102.446
21
-64.509
0
LINE
8
BLACK
6
CONTINUOUS
10
102.446
20
-65.459
11
102.846
21
-65.859
0
LINE
8
BLACK
6
CONTINUOUS
10
102.846
20
-65.459
11
102.446
21
-65.859
0
LINE
8
BLACK
6
CONTINUOUS
10
103.296
20
-64.109
11
103.696
21
-64.509
0
LINE
8
BLACK
6
CONTINUOUS
10
103.696
20
-64.109
11
103.296
21
-64.509
0
LINE
8
BLACK
6
CONTINUOUS
10
103.296
20
-65.459
11
103.696
21
-65.859
0
LINE
8
BLACK
6
CONTINUOUS
10
103.696
20
-65.459
11
103.296
21
-65.859
0
LINE
8
BLACK
6
CONTINUOUS
10
104.146
20
-64.109
11
104.546
21
-64.509
0
LINE
8
BLACK
6
CONTINUOUS
10
104.546
20
-64.109
11
104.146
21
-64.509
0
LINE
8
BLACK
6
CONTINUOUS
10
104.146
20
-65.459
11
104.546
21
-65.859
0
LINE
8
BLACK
6
CONTINUOUS
10
104.546
20
-65.459
11
104.146
21
-65.859
0
LINE
8
BLACK
6
CONTINUOUS
10
104.996
20
-64.109
11
105.396
21
-64.509
0
LINE
8
BLACK
6
CONTINUOUS
10
105.396
20
-64.109
11
104.996
21
-64.509
0
LINE
8
BLACK
6
CONTINUOUS
10
104.996
20
-65.459
11
105.396
21
-65.859
0
LINE
8
BLACK
6
CONTINUOUS
10
105.396
20
-65.459
11
104.996
21
-65.859
0
LINE
8
BLACK
6
CONTINUOUS
10
105.846
20
-64.109
11
106.246
21
-64.509
0
LINE
8
BLACK
6
CONTINUOUS
10
106.246
20
-64.109
11
105.846
21
-64.509
0
LINE
8
BLACK
6
CONTINUOUS
10
105.846
20
-65.459
11
106.246
21
-65.859
0
LINE
8
BLACK
6
CONTINUOUS
10
106.246
20
-65.459
11
105.846
21
-65.859
0
LINE
8
BLACK
6
CONTINUOUS
10
106.696
20
-64.109
11
107.096
21
-64.509
0
LINE
8
BLACK
6
CONTINUOUS
10
107.096
20
-64.109
11
106.696
21
-64.509
0
LINE
8
BLACK
6
CONTINUOUS
10
106.696
20
-65.459
11
107.096
21
-65.859
0
LINE
8
BLACK
6
CONTINUOUS
10
107.096
20
-65.459
11
106.696
21
-65.859
0
LINE
8
BLACK
6
CONTINUOUS
10
86.7759
20
-64.109
11
87.1759
21
-64.509
0
LINE
8
BLACK
6
CONTINUOUS
10
87.1759
20
-64.109
11
86.7759
21
-64.509
0
LINE
8
BLACK
6
CONTINUOUS
10
86.7759
20
-65.459
11
87.1759
21
-65.859
0
LINE
8
BLACK
6
CONTINUOUS
10
87.1759
20
-65.459
11
86.7759
21
-65.859
0
LINE
8
BLACK
6
CONTINUOUS
10
87.6259
20
-64.109
11
88.0259
21
-64.509
0
LINE
8
BLACK
6
CONTINUOUS
10
88.0259
20
-64.109
11
87.6259
21
-64.509
0
LINE
8
BLACK
6
CONTINUOUS
10
87.6259
20
-65.459
11
88.0259
21
-65.859
0
LINE
8
BLACK
6
CONTINUOUS
10
88.0259
20
-65.459
11
87.6259
21
-65.859
0
LINE
8
BLACK
6
CONTINUOUS
10
88.4759
20
-64.109
11
88.8759
21
-64.509
0
LINE
8
BLACK
6
CONTINUOUS
10
88.8759
20
-64.109
11
88.4759
21
-64.509
0
LINE
8
BLACK
6
CONTINUOUS
10
88.4759
20
-65.459
11
88.8759
21
-65.859
0
LINE
8
BLACK
6
CONTINUOUS
10
88.8759
20
-65.459
11
88.4759
21
-65.859
0
LINE
8
BLACK
6
CONTINUOUS
10
89.3259
20
-64.109
11
89.7259
21
-64.509
0
LINE
8
BLACK
6
CONTINUOUS
10
89.7259
20
-64.109
11
89.3259
21
-64.509
0
LINE
8
BLACK
6
CONTINUOUS
10
89.3259
20
-65.459
11
89.7259
21
-65.859
0
LINE
8
BLACK
6
CONTINUOUS
10
89.7259
20
-65.459
11
89.3259
21
-65.859
0
LINE
8
BLACK
6
CONTINUOUS
10
90.1759
20
-64.109
11
90.5759
21
-64.509
0
LINE
8
BLACK
6
CONTINUOUS
10
90.5759
20
-64.109
11
90.1759
21
-64.509
0
LINE
8
BLACK
6
CONTINUOUS
10
90.1759
20
-65.459
11
90.5759
21
-65.859
0
LINE
8
BLACK
6
CONTINUOUS
10
90.5759
20
-65.459
11
90.1759
21
-65.859
0
LINE
8
BLACK
6
CONTINUOUS
10
91.0259
20
-64.109
11
91.4259
21
-64.509
0
LINE
8
BLACK
6
CONTINUOUS
10
91.4259
20
-64.109
11
91.0259
21
-64.509
0
LINE
8
BLACK
6
CONTINUOUS
10
91.0259
20
-65.459
11
91.4259
21
-65.859
0
LINE
8
BLACK
6
CONTINUOUS
10
91.4259
20
-65.459
11
91.0259
21
-65.859
0
LINE
8
BLACK
6
CONTINUOUS
10
91.8759
20
-64.109
11
92.2759
21
-64.509
0
LINE
8
BLACK
6
CONTINUOUS
10
92.2759
20
-64.109
11
91.8759
21
-64.509
0
LINE
8
BLACK
6
CONTINUOUS
10
91.8759
20
-65.459
11
92.2759
21
-65.859
0
LINE
8
BLACK
6
CONTINUOUS
10
92.2759
20
-65.459
11
91.8759
21
-65.859
0
LINE
8
BLACK
6
CONTINUOUS
10
92.7259
20
-64.109
11
93.1259
21
-64.509
0
LINE
8
BLACK
6
CONTINUOUS
10
93.1259
20
-64.109
11
92.7259
21
-64.509
0
LINE
8
BLACK
6
CONTINUOUS
10
92.7259
20
-65.459
11
93.1259
21
-65.859
0
LINE
8
BLACK
6
CONTINUOUS
10
93.1259
20
-65.459
11
92.7259
21
-65.859
0
LINE
8
BLACK
6
CONTINUOUS
10
114.716
20
-64.109
11
115.116
21
-64.509
0
LINE
8
BLACK
6
CONTINUOUS
10
115.116
20
-64.109
11
114.716
21
-64.509
0
LINE
8
BLACK
6
CONTINUOUS
10
114.716
20
-65.459
11
115.116
21
-65.859
0
LINE
8
BLACK
6
CONTINUOUS
10
115.116
20
-65.459
11
114.716
21
-65.859
0
LINE
8
BLACK
6
CONTINUOUS
10
115.566
20
-64.109
11
115.966
21
-64.509
0
LINE
8
BLACK
6
CONTINUOUS
10
115.966
20
-64.109
11
115.566
21
-64.509
0
LINE
8
BLACK
6
CONTINUOUS
10
115.566
20
-65.459
11
115.966
21
-65.859
0
LINE
8
BLACK
6
CONTINUOUS
10
115.966
20
-65.459
11
115.566
21
-65.859
0
LINE
8
BLACK
6
CONTINUOUS
10
116.416
20
-64.109
11
116.816
21
-64.509
0
LINE
8
BLACK
6
CONTINUOUS
10
116.816
20
-64.109
11
116.416
21
-64.509
0
LINE
8
BLACK
6
CONTINUOUS
10
116.416
20
-65.459
11
116.816
21
-65.859
0
LINE
8
BLACK
6
CONTINUOUS
10
116.816
20
-65.459
11
116.416
21
-65.859
0
LINE
8
BLACK
6
CONTINUOUS
10
117.266
20
-64.109
11
117.666
21
-64.509
0
LINE
8
BLACK
6
CONTINUOUS
10
117.666
20
-64.109
11
117.266
21
-64.509
0
LINE
8
BLACK
6
CONTINUOUS
10
117.266
20
-65.459
11
117.666
21
-65.859
0
LINE
8
BLACK
6
CONTINUOUS
10
117.666
20
-65.459
11
117.266
21
-65.859
0
LINE
8
BLACK
6
CONTINUOUS
10
118.116
20
-64.109
11
118.516
21
-64.509
0
LINE
8
BLACK
6
CONTINUOUS
10
118.516
20
-64.109
11
118.116
21
-64.509
0
LINE
8
BLACK
6
CONTINUOUS
10
118.116
20
-65.459
11
118.516
21
-65.859
0
LINE
8
BLACK
6
CONTINUOUS
10
118.516
20
-65.459
11
118.116
21
-65.859
0
LINE
8
BLACK
6
CONTINUOUS
10
118.966
20
-64.109
11
119.366
21
-64.509
0
LINE
8
BLACK
6
CONTINUOUS
10
119.366
20
-64.109
11
118.966
21
-64.509
0
LINE
8
BLACK
6
CONTINUOUS
10
118.966
20
-65.459
11
119.366
21
-65.859
0
LINE
8
BLACK
6
CONTINUOUS
10
119.366
20
-65.459
11
118.966
21
-65.859
0
LINE
8
BLACK
6
CONTINUOUS
10
119.816
20
-64.109
11
120.216
21
-64.509
0
LINE
8
BLACK
6
CONTINUOUS
10
120.216
20
-64.109
11
119.816
21
-64.509
0
LINE
8
BLACK
6
CONTINUOUS
10
119.816
20
-65.459
11
120.216
21
-65.859
0
LINE
8
BLACK
6
CONTINUOUS
10
120.216
20
-65.459
11
119.816
21
-65.859
0
LINE
8
BLACK
6
CONTINUOUS
10
120.666
20
-64.109
11
121.066
21
-64.509
0
LINE
8
BLACK
6
CONTINUOUS
10
121.066
20
-64.109
11
120.666
21
-64.509
0
LINE
8
BLACK
6
CONTINUOUS
10
120.666
20
-65.459
11
121.066
21
-65.859
0
LINE
8
BLACK
6
CONTINUOUS
10
121.066
20
-65.459
11
120.666
21
-65.859
0
LINE
8
BLACK
6
CONTINUOUS
10
48.234
20
-69.4785
11
48.634
21
-69.8785
0
LINE
8
BLACK
6
CONTINUOUS
10
48.634
20
-69.4785
11
48.234
21
-69.8785
0
LINE
8
BLACK
6
CONTINUOUS
10
48.234
20
-70.3285
11
48.634
21
-70.7285
0
LINE
8
BLACK
6
CONTINUOUS
10
48.634
20
-70.3285
11
48.234
21
-70.7285
0
LINE
8
BLACK
6
CONTINUOUS
10
48.234
20
-71.1785
11
48.634
21
-71.5785
0
LINE
8
BLACK
6
CONTINUOUS
10
48.634
20
-71.1785
11
48.234
21
-71.5785
0
LINE
8
BLACK
6
CONTINUOUS
10
48.234
20
-72.0285
11
48.634
21
-72.4285
0
LINE
8
BLACK
6
CONTINUOUS
10
48.634
20
-72.0285
11
48.234
21
-72.4285
0
LINE
8
BLACK
6
CONTINUOUS
10
48.234
20
-72.8785
11
48.634
21
-73.2785
0
LINE
8
BLACK
6
CONTINUOUS
10
48.634
20
-72.8785
11
48.234
21
-73.2785
0
LINE
8
BLACK
6
CONTINUOUS
10
48.234
20
-73.7285
11
48.634
21
-74.1285
0
LINE
8
BLACK
6
CONTINUOUS
10
48.634
20
-73.7285
11
48.234
21
-74.1285
0
LINE
8
BLACK
6
CONTINUOUS
10
48.234
20
-74.5785
11
48.634
21
-74.9785
0
LINE
8
BLACK
6
CONTINUOUS
10
48.634
20
-74.5785
11
48.234
21
-74.9785
0
LINE
8
BLACK
6
CONTINUOUS
10
48.234
20
-75.4285
11
48.634
21
-75.8285
0
LINE
8
BLACK
6
CONTINUOUS
10
48.634
20
-75.4285
11
48.234
21
-75.8285
0
LINE
8
BLACK
6
CONTINUOUS
10
49.584
20
-69.4785
11
49.984
21
-69.8785
0
LINE
8
BLACK
6
CONTINUOUS
10
49.984
20
-69.4785
11
49.584
21
-69.8785
0
LINE
8
BLACK
6
CONTINUOUS
10
49.584
20
-70.3285
11
49.984
21
-70.7285
0
LINE
8
BLACK
6
CONTINUOUS
10
49.984
20
-70.3285
11
49.584
21
-70.7285
0
LINE
8
BLACK
6
CONTINUOUS
10
49.584
20
-71.1785
11
49.984
21
-71.5785
0
LINE
8
BLACK
6
CONTINUOUS
10
49.984
20
-71.1785
11
49.584
21
-71.5785
0
LINE
8
BLACK
6
CONTINUOUS
10
49.584
20
-72.0285
11
49.984
21
-72.4285
0
LINE
8
BLACK
6
CONTINUOUS
10
49.984
20
-72.0285
11
49.584
21
-72.4285
0
LINE
8
BLACK
6
CONTINUOUS
10
49.584
20
-72.8785
11
49.984
21
-73.2785
0
LINE
8
BLACK
6
CONTINUOUS
10
49.984
20
-72.8785
11
49.584
21
-73.2785
0
LINE
8
BLACK
6
CONTINUOUS
10
49.584
20
-73.7285
11
49.984
21
-74.1285
0
LINE
8
BLACK
6
CONTINUOUS
10
49.984
20
-73.7285
11
49.584
21
-74.1285
0
LINE
8
BLACK
6
CONTINUOUS
10
49.584
20
-74.5785
11
49.984
21
-74.9785
0
LINE
8
BLACK
6
CONTINUOUS
10
49.984
20
-74.5785
11
49.584
21
-74.9785
0
LINE
8
BLACK
6
CONTINUOUS
10
49.584
20
-75.4285
11
49.984
21
-75.8285
0
LINE
8
BLACK
6
CONTINUOUS
10
49.984
20
-75.4285
11
49.584
21
-75.8285
0
CIRCLE
8
BLACK
10
99.5959
20
-61.299
40
0.3
0
LINE
8
BLACK
6
CONTINUOUS
10
99.8959
20
-61.699
11
99.8959
21
-60.899
0
LINE
8
BLACK
6
CONTINUOUS
10
99.2959
20
-61.699
11
99.2959
21
-60.899
0
ARC
8
BLACK
10
99.5959
20
-60.899
40
0.3
50
360
51
540
0
ARC
8
BLACK
10
99.5959
20
-61.699
40
0.3
50
180
51
360
0
CIRCLE
8
BLACK
10
99.5959
20
-64.679
40
0.3
0
LINE
8
BLACK
6
CONTINUOUS
10
99.8959
20
-65.429
11
99.8959
21
-63.929
0
LINE
8
BLACK
6
CONTINUOUS
10
99.2959
20
-65.429
11
99.2959
21
-63.929
0
ARC
8
BLACK
10
99.5959
20
-63.929
40
0.3
50
360
51
540
0
ARC
8
BLACK
10
99.5959
20
-65.429
40
0.3
50
180
51
360
0
CIRCLE
8
BLACK
10
108.246
20
-61.299
40
0.3
0
LINE
8
BLACK
6
CONTINUOUS
10
108.546
20
-61.699
11
108.546
21
-60.899
0
LINE
8
BLACK
6
CONTINUOUS
10
107.946
20
-61.699
11
107.946
21
-60.899
0
ARC
8
BLACK
10
108.246
20
-60.899
40
0.3
50
360
51
540
0
ARC
8
BLACK
10
108.246
20
-61.699
40
0.3
50
180
51
360
0
CIRCLE
8
BLACK
10
108.246
20
-64.679
40
0.3
0
LINE
8
BLACK
6
CONTINUOUS
10
108.546
20
-65.429
11
108.546
21
-63.929
0
LINE
8
BLACK
6
CONTINUOUS
10
107.946
20
-65.429
11
107.946
21
-63.929
0
ARC
8
BLACK
10
108.246
20
-63.929
40
0.3
50
360
51
540
0
ARC
8
BLACK
10
108.246
20
-65.429
40
0.3
50
180
51
360
0
CIRCLE
8
BLACK
10
85.6259
20
-61.299
40
0.3
0
LINE
8
BLACK
6
CONTINUOUS
10
85.9259
20
-61.699
11
85.9259
21
-60.899
0
LINE
8
BLACK
6
CONTINUOUS
10
85.3259
20
-61.699
11
85.3259
21
-60.899
0
ARC
8
BLACK
10
85.6259
20
-60.899
40
0.3
50
360
51
540
0
ARC
8
BLACK
10
85.6259
20
-61.699
40
0.3
50
180
51
360
0
CIRCLE
8
BLACK
10
85.6259
20
-64.679
40
0.3
0
LINE
8
BLACK
6
CONTINUOUS
10
85.9259
20
-65.429
11
85.9259
21
-63.929
0
LINE
8
BLACK
6
CONTINUOUS
10
85.3259
20
-65.429
11
85.3259
21
-63.929
0
ARC
8
BLACK
10
85.6259
20
-63.929
40
0.3
50
360
51
540
0
ARC
8
BLACK
10
85.6259
20
-65.429
40
0.3
50
180
51
360
0
CIRCLE
8
BLACK
10
94.2759
20
-61.299
40
0.3
0
LINE
8
BLACK
6
CONTINUOUS
10
94.5759
20
-61.699
11
94.5759
21
-60.899
0
LINE
8
BLACK
6
CONTINUOUS
10
93.9759
20
-61.699
11
93.9759
21
-60.899
0
ARC
8
BLACK
10
94.2759
20
-60.899
40
0.3
50
360
51
540
0
ARC
8
BLACK
10
94.2759
20
-61.699
40
0.3
50
180
51
360
0
CIRCLE
8
BLACK
10
94.2759
20
-64.679
40
0.3
0
LINE
8
BLACK
6
CONTINUOUS
10
94.5759
20
-65.429
11
94.5759
21
-63.929
0
LINE
8
BLACK
6
CONTINUOUS
10
93.9759
20
-65.429
11
93.9759
21
-63.929
0
ARC
8
BLACK
10
94.2759
20
-63.929
40
0.3
50
360
51
540
0
ARC
8
BLACK
10
94.2759
20
-65.429
40
0.3
50
180
51
360
0
CIRCLE
8
BLACK
10
113.566
20
-61.299
40
0.3
0
LINE
8
BLACK
6
CONTINUOUS
10
113.866
20
-61.699
11
113.866
21
-60.899
0
LINE
8
BLACK
6
CONTINUOUS
10
113.266
20
-61.699
11
113.266
21
-60.899
0
ARC
8
BLACK
10
113.566
20
-60.899
40
0.3
50
360
51
540
0
ARC
8
BLACK
10
113.566
20
-61.699
40
0.3
50
180
51
360
0
CIRCLE
8
BLACK
10
113.566
20
-64.679
40
0.3
0
LINE
8
BLACK
6
CONTINUOUS
10
113.866
20
-65.429
11
113.866
21
-63.929
0
LINE
8
BLACK
6
CONTINUOUS
10
113.266
20
-65.429
11
113.266
21
-63.929
0
ARC
8
BLACK
10
113.566
20
-63.929
40
0.3
50
360
51
540
0
ARC
8
BLACK
10
113.566
20
-65.429
40
0.3
50
180
51
360
0
CIRCLE
8
BLACK
10
122.216
20
-61.299
40
0.3
0
LINE
8
BLACK
6
CONTINUOUS
10
122.516
20
-61.699
11
122.516
21
-60.899
0
LINE
8
BLACK
6
CONTINUOUS
10
121.916
20
-61.699
11
121.916
21
-60.899
0
ARC
8
BLACK
10
122.216
20
-60.899
40
0.3
50
360
51
540
0
ARC
8
BLACK
10
122.216
20
-61.699
40
0.3
50
180
51
360
0
CIRCLE
8
BLACK
10
122.216
20
-64.679
40
0.3
0
LINE
8
BLACK
6
CONTINUOUS
10
122.516
20
-65.429
11
122.516
21
-63.929
0
LINE
8
BLACK
6
CONTINUOUS
10
121.916
20
-65.429
11
121.916
21
-63.929
0
ARC
8
BLACK
10
122.216
20
-63.929
40
0.3
50
360
51
540
0
ARC
8
BLACK
10
122.216
20
-65.429
40
0.3
50
180
51
360
0
CIRCLE
8
BLACK
10
45.424
20
-68.3285
40
0.3
0
LINE
8
BLACK
6
CONTINUOUS
10
45.024
20
-68.6285
11
45.824
21
-68.6285
0
LINE
8
BLACK
6
CONTINUOUS
10
45.024
20
-68.0285
11
45.824
21
-68.0285
0
ARC
8
BLACK
10
45.824
20
-68.3285
40
0.3
50
270
51
450
0
ARC
8
BLACK
10
45.024
20
-68.3285
40
0.3
50
90
51
270
0
CIRCLE
8
BLACK
10
45.424
20
-76.9785
40
0.3
0
LINE
8
BLACK
6
CONTINUOUS
10
45.024
20
-77.2785
11
45.824
21
-77.2785
0
LINE
8
BLACK
6
CONTINUOUS
10
45.024
20
-76.6785
11
45.824
21
-76.6785
0
ARC
8
BLACK
10
45.824
20
-76.9785
40
0.3
50
270
51
450
0
ARC
8
BLACK
10
45.024
20
-76.9785
40
0.3
50
90
51
270
0
CIRCLE
8
BLACK
10
48.804
20
-68.3285
40
0.3
0
LINE
8
BLACK
6
CONTINUOUS
10
48.054
20
-68.6285
11
49.554
21
-68.6285
0
LINE
8
BLACK
6
CONTINUOUS
10
48.054
20
-68.0285
11
49.554
21
-68.0285
0
ARC
8
BLACK
10
49.554
20
-68.3285
40
0.3
50
270
51
450
0
ARC
8
BLACK
10
48.054
20
-68.3285
40
0.3
50
90
51
270
0
CIRCLE
8
BLACK
10
48.804
20
-76.9785
40
0.3
0
LINE
8
BLACK
6
CONTINUOUS
10
48.054
20
-77.2785
11
49.554
21
-77.2785
0
LINE
8
BLACK
6
CONTINUOUS
10
48.054
20
-76.6785
11
49.554
21
-76.6785
0
ARC
8
BLACK
10
49.554
20
-76.9785
40
0.3
50
270
51
450
0
ARC
8
BLACK
10
48.054
20
-76.9785
40
0.3
50
90
51
270
0
LINE
8
BLACK
6
CONTINUOUS
10
114.38
20
-71.128
11
114.38
21
-72.128
0
LINE
8
BLACK
6
CONTINUOUS
10
113.88
20
-71.628
11
114.88
21
-71.628
0
LINE
8
BLACK
6
CONTINUOUS
10
114.38
20
-85.628
11
114.38
21
-86.628
0
LINE
8
BLACK
6
CONTINUOUS
10
113.88
20
-86.128
11
114.88
21
-86.128
0
LINE
8
BLACK
6
CONTINUOUS
10
116.88
20
-71.128
11
116.88
21
-72.128
0
LINE
8
BLACK
6
CONTINUOUS
10
116.38
20
-71.628
11
117.38
21
-71.628
0
LINE
8
BLACK
6
CONTINUOUS
10
119.38
20
-71.128
11
119.38
21
-72.128
0
LINE
8
BLACK
6
CONTINUOUS
10
118.88
20
-71.628
11
119.88
21
-71.628
0
LINE
8
BLACK
6
CONTINUOUS
10
119.38
20
-85.628
11
119.38
21
-86.628
0
LINE
8
BLACK
6
CONTINUOUS
10
118.88
20
-86.128
11
119.88
21
-86.128
0
LINE
8
BLACK
6
CONTINUOUS
10
54.8513
20
-60.9553
11
54.8513
21
-61.9553
0
LINE
8
BLACK
6
CONTINUOUS
10
54.3513
20
-61.4553
11
55.3513
21
-61.4553
0
LINE
8
BLACK
6
CONTINUOUS
10
57.3913
20
-60.9553
11
57.3913
21
-61.9553
0
LINE
8
BLACK
6
CONTINUOUS
10
56.8913
20
-61.4553
11
57.8913
21
-61.4553
0
LINE
8
BLACK
6
CONTINUOUS
10
59.9313
20
-60.9553
11
59.9313
21
-61.9553
0
LINE
8
BLACK
6
CONTINUOUS
10
59.4313
20
-61.4553
11
60.4313
21
-61.4553
0
LINE
8
BLACK
6
CONTINUOUS
10
62.4713
20
-60.9553
11
62.4713
21
-61.9553
0
LINE
8
BLACK
6
CONTINUOUS
10
61.9713
20
-61.4553
11
62.9713
21
-61.4553
0
LINE
8
BLACK
6
CONTINUOUS
10
111.81
20
-79.6583
11
111.81
21
-78.5977
0
LINE
8
BLACK
6
CONTINUOUS
10
111.81
20
-78.5977
11
110.75
21
-78.5977
0
LINE
8
BLACK
6
CONTINUOUS
10
110.75
20
-78.5977
11
110.75
21
-79.6583
0
LINE
8
BLACK
6
CONTINUOUS
10
110.75
20
-79.6583
11
111.81
21
-79.6583
0
LINE
8
BLACK
6
CONTINUOUS
10
110.53
20
-78.478
11
110.53
21
-79.778
0
LINE
8
BLACK
6
CONTINUOUS
10
112.03
20
-78.478
11
112.03
21
-79.778
0
ARC
8
BLACK
10
111.28
20
-79.778
40
0.75
50
180
51
360
0
ARC
8
BLACK
10
111.28
20
-78.478
40
0.75
50
0
51
180
0
LINE
8
BLACK
6
CONTINUOUS
10
123.01
20
-79.6583
11
123.01
21
-78.5977
0
LINE
8
BLACK
6
CONTINUOUS
10
123.01
20
-78.5977
11
121.95
21
-78.5977
0
LINE
8
BLACK
6
CONTINUOUS
10
121.95
20
-78.5977
11
121.95
21
-79.6583
0
LINE
8
BLACK
6
CONTINUOUS
10
121.95
20
-79.6583
11
123.01
21
-79.6583
0
LINE
8
BLACK
6
CONTINUOUS
10
121.73
20
-78.478
11
121.73
21
-79.778
0
LINE
8
BLACK
6
CONTINUOUS
10
123.23
20
-78.478
11
123.23
21
-79.778
0
ARC
8
BLACK
10
122.48
20
-79.778
40
0.75
50
180
51
360
0
ARC
8
BLACK
10
122.48
20
-78.478
40
0.75
50
0
51
180
0
LINE
8
BLACK
6
CONTINUOUS
10
129.54
20
-64.338
11
131.14
21
-62.738
0
LINE
8
BLACK
6
CONTINUOUS
10
131.14
20
-62.738
11
129.54
21
-61.138
0
LINE
8
BLACK
6
CONTINUOUS
10
129.54
20
-61.138
11
127.94
21
-62.738
0
LINE
8
BLACK
6
CONTINUOUS
10
127.94
20
-62.738
11
129.54
21
-64.338
0
LINE
8
BLACK
6
CONTINUOUS
10
46.863
20
-188.925
11
48.463
21
-187.325
0
LINE
8
BLACK
6
CONTINUOUS
10
48.463
20
-187.325
11
46.863
21
-185.725
0
LINE
8
BLACK
6
CONTINUOUS
10
46.863
20
-185.725
11
45.263
21
-187.325
0
LINE
8
BLACK
6
CONTINUOUS
10
45.263
20
-187.325
11
46.863
21
-188.925
0
LINE
8
BLACK
6
CONTINUOUS
10
129.54
20
-188.925
11
131.14
21
-187.325
0
LINE
8
BLACK
6
CONTINUOUS
10
131.14
20
-187.325
11
129.54
21
-185.725
0
LINE
8
BLACK
6
CONTINUOUS
10
129.54
20
-185.725
11
127.94
21
-187.325
0
LINE
8
BLACK
6
CONTINUOUS
10
127.94
20
-187.325
11
129.54
21
-188.925
0
LINE
8
BLACK
6
CONTINUOUS
10
46.863
20
-64.338
11
48.463
21
-62.738
0
LINE
8
BLACK
6
CONTINUOUS
10
48.463
20
-62.738
11
46.863
21
-61.138
0
LINE
8
BLACK
6
CONTINUOUS
10
46.863
20
-61.138
11
45.263
21
-62.738
0
LINE
8
BLACK
6
CONTINUOUS
10
45.263
20
-62.738
11
46.863
21
-64.338
0
LINE
8
BLACK
6
CONTINUOUS
10
46.5273
20
-195.182
11
46.5273
21
-192.182
0
LINE
8
BLACK
6
CONTINUOUS
10
46.5273
20
-192.182
11
47.2416
21
-192.182
0
LINE
8
BLACK
6
CONTINUOUS
10
47.2416
20
-192.182
11
47.6701
21
-192.325
0
LINE
8
BLACK
6
CONTINUOUS
10
47.6701
20
-192.325
11
47.9559
21
-192.611
0
LINE
8
BLACK
6
CONTINUOUS
10
47.9559
20
-192.611
11
48.0987
21
-192.896
0
LINE
8
BLACK
6
CONTINUOUS
10
48.0987
20
-192.896
11
48.2416
21
-193.468
0
LINE
8
BLACK
6
CONTINUOUS
10
48.2416
20
-193.468
11
48.2416
21
-193.896
0
LINE
8
BLACK
6
CONTINUOUS
10
48.2416
20
-193.896
11
48.0987
21
-194.468
0
LINE
8
BLACK
6
CONTINUOUS
10
48.0987
20
-194.468
11
47.9559
21
-194.754
0
LINE
8
BLACK
6
CONTINUOUS
10
47.9559
20
-194.754
11
47.6701
21
-195.039
0
LINE
8
BLACK
6
CONTINUOUS
10
47.6701
20
-195.039
11
47.2416
21
-195.182
0
LINE
8
BLACK
6
CONTINUOUS
10
47.2416
20
-195.182
11
46.5273
21
-195.182
0
LINE
8
BLACK
6
CONTINUOUS
10
49.5273
20
-195.182
11
49.5273
21
-193.182
0
LINE
8
BLACK
6
CONTINUOUS
10
49.5273
20
-193.754
11
49.6701
21
-193.468
0
LINE
8
BLACK
6
CONTINUOUS
10
49.6701
20
-193.468
11
49.813
21
-193.325
0
LINE
8
BLACK
6
CONTINUOUS
10
49.813
20
-193.325
11
50.0987
21
-193.182
0
LINE
8
BLACK
6
CONTINUOUS
10
50.0987
20
-193.182
11
50.3844
21
-193.182
0
LINE
8
BLACK
6
CONTINUOUS
10
51.3844
20
-195.182
11
51.3844
21
-193.182
0
LINE
8
BLACK
6
CONTINUOUS
10
51.3844
20
-192.182
11
51.2416
21
-192.325
0
LINE
8
BLACK
6
CONTINUOUS
10
51.2416
20
-192.325
11
51.3844
21
-192.468
0
LINE
8
BLACK
6
CONTINUOUS
10
51.3844
20
-192.468
11
51.5273
21
-192.325
0
LINE
8
BLACK
6
CONTINUOUS
10
51.5273
20
-192.325
11
51.3844
21
-192.182
0
LINE
8
BLACK
6
CONTINUOUS
10
51.3844
20
-192.182
11
51.3844
21
-192.468
0
LINE
8
BLACK
6
CONTINUOUS
10
53.2416
20
-195.182
11
52.9559
21
-195.039
0
LINE
8
BLACK
6
CONTINUOUS
10
52.9559
20
-195.039
11
52.813
21
-194.754
0
LINE
8
BLACK
6
CONTINUOUS
10
52.813
20
-194.754
11
52.813
21
-192.182
0
LINE
8
BLACK
6
CONTINUOUS
10
54.813
20
-195.182
11
54.5273
21
-195.039
0
LINE
8
BLACK
6
CONTINUOUS
10
54.5273
20
-195.039
11
54.3844
21
-194.754
0
LINE
8
BLACK
6
CONTINUOUS
10
54.3844
20
-194.754
11
54.3844
21
-192.182
0
LINE
8
BLACK
6
CONTINUOUS
10
58.2416
20
-195.182
11
58.2416
21
-192.182
0
LINE
8
BLACK
6
CONTINUOUS
10
58.2416
20
-192.182
11
59.2416
21
-194.325
0
LINE
8
BLACK
6
CONTINUOUS
10
59.2416
20
-194.325
11
60.2416
21
-192.182
0
LINE
8
BLACK
6
CONTINUOUS
10
60.2416
20
-192.182
11
60.2416
21
-195.182
0
LINE
8
BLACK
6
CONTINUOUS
10
62.9559
20
-195.182
11
62.9559
21
-193.611
0
LINE
8
BLACK
6
CONTINUOUS
10
62.9559
20
-193.611
11
62.813
21
-193.325
0
LINE
8
BLACK
6
CONTINUOUS
10
62.813
20
-193.325
11
62.5273
21
-193.182
0
LINE
8
BLACK
6
CONTINUOUS
10
62.5273
20
-193.182
11
61.9559
21
-193.182
0
LINE
8
BLACK
6
CONTINUOUS
10
61.9559
20
-193.182
11
61.6701
21
-193.325
0
LINE
8
BLACK
6
CONTINUOUS
10
62.9559
20
-195.039
11
62.6701
21
-195.182
0
LINE
8
BLACK
6
CONTINUOUS
10
62.6701
20
-195.182
11
61.9559
21
-195.182
0
LINE
8
BLACK
6
CONTINUOUS
10
61.9559
20
-195.182
11
61.6701
21
-195.039
0
LINE
8
BLACK
6
CONTINUOUS
10
61.6701
20
-195.039
11
61.5273
21
-194.754
0
LINE
8
BLACK
6
CONTINUOUS
10
61.5273
20
-194.754
11
61.5273
21
-194.468
0
LINE
8
BLACK
6
CONTINUOUS
10
61.5273
20
-194.468
11
61.6701
21
-194.182
0
LINE
8
BLACK
6
CONTINUOUS
10
61.6701
20
-194.182
11
61.9559
21
-194.039
0
LINE
8
BLACK
6
CONTINUOUS
10
61.9559
20
-194.039
11
62.6701
21
-194.039
0
LINE
8
BLACK
6
CONTINUOUS
10
62.6701
20
-194.039
11
62.9559
21
-193.896
0
LINE
8
BLACK
6
CONTINUOUS
10
64.3844
20
-193.182
11
64.3844
21
-196.182
0
LINE
8
BLACK
6
CONTINUOUS
10
64.3844
20
-193.325
11
64.6701
21
-193.182
0
LINE
8
BLACK
6
CONTINUOUS
10
64.6701
20
-193.182
11
65.2416
21
-193.182
0
LINE
8
BLACK
6
CONTINUOUS
10
65.2416
20
-193.182
11
65.5273
21
-193.325
0
LINE
8
BLACK
6
CONTINUOUS
10
65.5273
20
-193.325
11
65.6701
21
-193.468
0
LINE
8
BLACK
6
CONTINUOUS
10
65.6701
20
-193.468
11
65.813
21
-193.754
0
LINE
8
BLACK
6
CONTINUOUS
10
65.813
20
-193.754
11
65.813
21
-194.611
0
LINE
8
BLACK
6
CONTINUOUS
10
65.813
20
-194.611
11
65.6701
21
-194.896
0
LINE
8
BLACK
6
CONTINUOUS
10
65.6701
20
-194.896
11
65.5273
21
-195.039
0
LINE
8
BLACK
6
CONTINUOUS
10
65.5273
20
-195.039
11
65.2416
21
-195.182
0
LINE
8
BLACK
6
CONTINUOUS
10
65.2416
20
-195.182
11
64.6701
21
-195.182
0
LINE
8
BLACK
6
CONTINUOUS
10
64.6701
20
-195.182
11
64.3844
21
-195.039
0
LINE
8
BLACK
6
CONTINUOUS
10
67.0987
20
-194.896
11
67.2416
21
-195.039
0
LINE
8
BLACK
6
CONTINUOUS
10
67.2416
20
-195.039
11
67.0987
21
-195.182
0
LINE
8
BLACK
6
CONTINUOUS
10
67.0987
20
-195.182
11
66.9559
21
-195.039
0
LINE
8
BLACK
6
CONTINUOUS
10
66.9559
20
-195.039
11
67.0987
21
-194.896
0
LINE
8
BLACK
6
CONTINUOUS
10
67.0987
20
-194.896
11
67.0987
21
-195.182
0
LINE
8
BLACK
6
CONTINUOUS
10
67.0987
20
-193.325
11
67.2416
21
-193.468
0
LINE
8
BLACK
6
CONTINUOUS
10
67.2416
20
-193.468
11
67.0987
21
-193.611
0
LINE
8
BLACK
6
CONTINUOUS
10
67.0987
20
-193.611
11
66.9559
21
-193.468
0
LINE
8
BLACK
6
CONTINUOUS
10
66.9559
20
-193.468
11
67.0987
21
-193.325
0
LINE
8
BLACK
6
CONTINUOUS
10
67.0987
20
-193.325
11
67.0987
21
-193.611
0
LINE
8
BLACK
6
CONTINUOUS
10
43.263
20
-199.925
11
43.663
21
-200.325
0
LINE
8
BLACK
6
CONTINUOUS
10
43.663
20
-199.925
11
43.263
21
-200.325
0
LINE
8
BLACK
6
CONTINUOUS
10
47.0987
20
-198.482
11
47.3844
21
-198.482
0
LINE
8
BLACK
6
CONTINUOUS
10
47.3844
20
-198.482
11
47.6701
21
-198.625
0
LINE
8
BLACK
6
CONTINUOUS
10
47.6701
20
-198.625
11
47.813
21
-198.768
0
LINE
8
BLACK
6
CONTINUOUS
10
47.813
20
-198.768
11
47.9559
21
-199.054
0
LINE
8
BLACK
6
CONTINUOUS
10
47.9559
20
-199.054
11
48.0987
21
-199.625
0
LINE
8
BLACK
6
CONTINUOUS
10
48.0987
20
-199.625
11
48.0987
21
-200.339
0
LINE
8
BLACK
6
CONTINUOUS
10
48.0987
20
-200.339
11
47.9559
21
-200.911
0
LINE
8
BLACK
6
CONTINUOUS
10
47.9559
20
-200.911
11
47.813
21
-201.196
0
LINE
8
BLACK
6
CONTINUOUS
10
47.813
20
-201.196
11
47.6701
21
-201.339
0
LINE
8
BLACK
6
CONTINUOUS
10
47.6701
20
-201.339
11
47.3844
21
-201.482
0
LINE
8
BLACK
6
CONTINUOUS
10
47.3844
20
-201.482
11
47.0987
21
-201.482
0
LINE
8
BLACK
6
CONTINUOUS
10
47.0987
20
-201.482
11
46.813
21
-201.339
0
LINE
8
BLACK
6
CONTINUOUS
10
46.813
20
-201.339
11
46.6701
21
-201.196
0
LINE
8
BLACK
6
CONTINUOUS
10
46.6701
20
-201.196
11
46.5273
21
-200.911
0
LINE
8
BLACK
6
CONTINUOUS
10
46.5273
20
-200.911
11
46.3844
21
-200.339
0
LINE
8
BLACK
6
CONTINUOUS
10
46.3844
20
-200.339
11
46.3844
21
-199.625
0
LINE
8
BLACK
6
CONTINUOUS
10
46.3844
20
-199.625
11
46.5273
21
-199.054
0
LINE
8
BLACK
6
CONTINUOUS
10
46.5273
20
-199.054
11
46.6701
21
-198.768
0
LINE
8
BLACK
6
CONTINUOUS
10
46.6701
20
-198.768
11
46.813
21
-198.625
0
LINE
8
BLACK
6
CONTINUOUS
10
46.813
20
-198.625
11
47.0987
21
-198.482
0
LINE
8
BLACK
6
CONTINUOUS
10
49.3844
20
-201.196
11
49.5273
21
-201.339
0
LINE
8
BLACK
6
CONTINUOUS
10
49.5273
20
-201.339
11
49.3844
21
-201.482
0
LINE
8
BLACK
6
CONTINUOUS
10
49.3844
20
-201.482
11
49.2416
21
-201.339
0
LINE
8
BLACK
6
CONTINUOUS
10
49.2416
20
-201.339
11
49.3844
21
-201.196
0
LINE
8
BLACK
6
CONTINUOUS
10
49.3844
20
-201.196
11
49.3844
21
-201.482
0
LINE
8
BLACK
6
CONTINUOUS
10
52.0987
20
-199.482
11
52.0987
21
-201.482
0
LINE
8
BLACK
6
CONTINUOUS
10
51.3844
20
-198.339
11
50.6701
21
-200.482
0
LINE
8
BLACK
6
CONTINUOUS
10
50.6701
20
-200.482
11
52.5273
21
-200.482
0
LINE
8
BLACK
6
CONTINUOUS
10
54.2416
20
-198.482
11
54.5273
21
-198.482
0
LINE
8
BLACK
6
CONTINUOUS
10
54.5273
20
-198.482
11
54.813
21
-198.625
0
LINE
8
BLACK
6
CONTINUOUS
10
54.813
20
-198.625
11
54.9559
21
-198.768
0
LINE
8
BLACK
6
CONTINUOUS
10
54.9559
20
-198.768
11
55.0987
21
-199.054
0
LINE
8
BLACK
6
CONTINUOUS
10
55.0987
20
-199.054
11
55.2416
21
-199.625
0
LINE
8
BLACK
6
CONTINUOUS
10
55.2416
20
-199.625
11
55.2416
21
-200.339
0
LINE
8
BLACK
6
CONTINUOUS
10
55.2416
20
-200.339
11
55.0987
21
-200.911
0
LINE
8
BLACK
6
CONTINUOUS
10
55.0987
20
-200.911
11
54.9559
21
-201.196
0
LINE
8
BLACK
6
CONTINUOUS
10
54.9559
20
-201.196
11
54.813
21
-201.339
0
LINE
8
BLACK
6
CONTINUOUS
10
54.813
20
-201.339
11
54.5273
21
-201.482
0
LINE
8
BLACK
6
CONTINUOUS
10
54.5273
20
-201.482
11
54.2416
21
-201.482
0
LINE
8
BLACK
6
CONTINUOUS
10
54.2416
20
-201.482
11
53.9559
21
-201.339
0
LINE
8
BLACK
6
CONTINUOUS
10
53.9559
20
-201.339
11
53.813
21
-201.196
0
LINE
8
BLACK
6
CONTINUOUS
10
53.813
20
-201.196
11
53.6701
21
-200.911
0
LINE
8
BLACK
6
CONTINUOUS
10
53.6701
20
-200.911
11
53.5273
21
-200.339
0
LINE
8
BLACK
6
CONTINUOUS
10
53.5273
20
-200.339
11
53.5273
21
-199.625
0
LINE
8
BLACK
6
CONTINUOUS
10
53.5273
20
-199.625
11
53.6701
21
-199.054
0
LINE
8
BLACK
6
CONTINUOUS
10
53.6701
20
-199.054
11
53.813
21
-198.768
0
LINE
8
BLACK
6
CONTINUOUS
10
53.813
20
-198.768
11
53.9559
21
-198.625
0
LINE
8
BLACK
6
CONTINUOUS
10
53.9559
20
-198.625
11
54.2416
21
-198.482
0
LINE
8
BLACK
6
CONTINUOUS
10
56.5273
20
-201.482
11
56.5273
21
-199.482
0
LINE
8
BLACK
6
CONTINUOUS
10
56.5273
20
-199.768
11
56.6701
21
-199.625
0
LINE
8
BLACK
6
CONTINUOUS
10
56.6701
20
-199.625
11
56.9559
21
-199.482
0
LINE
8
BLACK
6
CONTINUOUS
10
56.9559
20
-199.482
11
57.3844
21
-199.482
0
LINE
8
BLACK
6
CONTINUOUS
10
57.3844
20
-199.482
11
57.6701
21
-199.625
0
LINE
8
BLACK
6
CONTINUOUS
10
57.6701
20
-199.625
11
57.813
21
-199.911
0
LINE
8
BLACK
6
CONTINUOUS
10
57.813
20
-199.911
11
57.813
21
-201.482
0
LINE
8
BLACK
6
CONTINUOUS
10
57.813
20
-199.911
11
57.9559
21
-199.625
0
LINE
8
BLACK
6
CONTINUOUS
10
57.9559
20
-199.625
11
58.2416
21
-199.482
0
LINE
8
BLACK
6
CONTINUOUS
10
58.2416
20
-199.482
11
58.6701
21
-199.482
0
LINE
8
BLACK
6
CONTINUOUS
10
58.6701
20
-199.482
11
58.9559
21
-199.625
0
LINE
8
BLACK
6
CONTINUOUS
10
58.9559
20
-199.625
11
59.0987
21
-199.911
0
LINE
8
BLACK
6
CONTINUOUS
10
59.0987
20
-199.911
11
59.0987
21
-201.482
0
LINE
8
BLACK
6
CONTINUOUS
10
60.5273
20
-201.482
11
60.5273
21
-199.482
0
LINE
8
BLACK
6
CONTINUOUS
10
60.5273
20
-199.768
11
60.6701
21
-199.625
0
LINE
8
BLACK
6
CONTINUOUS
10
60.6701
20
-199.625
11
60.9559
21
-199.482
0
LINE
8
BLACK
6
CONTINUOUS
10
60.9559
20
-199.482
11
61.3844
21
-199.482
0
LINE
8
BLACK
6
CONTINUOUS
10
61.3844
20
-199.482
11
61.6701
21
-199.625
0
LINE
8
BLACK
6
CONTINUOUS
10
61.6701
20
-199.625
11
61.813
21
-199.911
0
LINE
8
BLACK
6
CONTINUOUS
10
61.813
20
-199.911
11
61.813
21
-201.482
0
LINE
8
BLACK
6
CONTINUOUS
10
61.813
20
-199.911
11
61.9559
21
-199.625
0
LINE
8
BLACK
6
CONTINUOUS
10
61.9559
20
-199.625
11
62.2416
21
-199.482
0
LINE
8
BLACK
6
CONTINUOUS
10
62.2416
20
-199.482
11
62.6701
21
-199.482
0
LINE
8
BLACK
6
CONTINUOUS
10
62.6701
20
-199.482
11
62.9559
21
-199.625
0
LINE
8
BLACK
6
CONTINUOUS
10
62.9559
20
-199.625
11
63.0987
21
-199.911
0
LINE
8
BLACK
6
CONTINUOUS
10
63.0987
20
-199.911
11
63.0987
21
-201.482
0
LINE
8
BLACK
6
CONTINUOUS
10
68.9559
20
-198.339
11
66.3844
21
-202.196
0
LINE
8
BLACK
6
CONTINUOUS
10
72.813
20
-198.482
11
73.0987
21
-198.482
0
LINE
8
BLACK
6
CONTINUOUS
10
73.0987
20
-198.482
11
73.3844
21
-198.625
0
LINE
8
BLACK
6
CONTINUOUS
10
73.3844
20
-198.625
11
73.5273
21
-198.768
0
LINE
8
BLACK
6
CONTINUOUS
10
73.5273
20
-198.768
11
73.6701
21
-199.054
0
LINE
8
BLACK
6
CONTINUOUS
10
73.6701
20
-199.054
11
73.813
21
-199.625
0
LINE
8
BLACK
6
CONTINUOUS
10
73.813
20
-199.625
11
73.813
21
-200.339
0
LINE
8
BLACK
6
CONTINUOUS
10
73.813
20
-200.339
11
73.6701
21
-200.911
0
LINE
8
BLACK
6
CONTINUOUS
10
73.6701
20
-200.911
11
73.5273
21
-201.196
0
LINE
8
BLACK
6
CONTINUOUS
10
73.5273
20
-201.196
11
73.3844
21
-201.339
0
LINE
8
BLACK
6
CONTINUOUS
10
73.3844
20
-201.339
11
73.0987
21
-201.482
0
LINE
8
BLACK
6
CONTINUOUS
10
73.0987
20
-201.482
11
72.813
21
-201.482
0
LINE
8
BLACK
6
CONTINUOUS
10
72.813
20
-201.482
11
72.5273
21
-201.339
0
LINE
8
BLACK
6
CONTINUOUS
10
72.5273
20
-201.339
11
72.3844
21
-201.196
0
LINE
8
BLACK
6
CONTINUOUS
10
72.3844
20
-201.196
11
72.2416
21
-200.911
0
LINE
8
BLACK
6
CONTINUOUS
10
72.2416
20
-200.911
11
72.0987
21
-200.339
0
LINE
8
BLACK
6
CONTINUOUS
10
72.0987
20
-200.339
11
72.0987
21
-199.625
0
LINE
8
BLACK
6
CONTINUOUS
10
72.0987
20
-199.625
11
72.2416
21
-199.054
0
LINE
8
BLACK
6
CONTINUOUS
10
72.2416
20
-199.054
11
72.3844
21
-198.768
0
LINE
8
BLACK
6
CONTINUOUS
10
72.3844
20
-198.768
11
72.5273
21
-198.625
0
LINE
8
BLACK
6
CONTINUOUS
10
72.5273
20
-198.625
11
72.813
21
-198.482
0
LINE
8
BLACK
6
CONTINUOUS
10
75.0987
20
-201.196
11
75.2416
21
-201.339
0
LINE
8
BLACK
6
CONTINUOUS
10
75.2416
20
-201.339
11
75.0987
21
-201.482
0
LINE
8
BLACK
6
CONTINUOUS
10
75.0987
20
-201.482
11
74.9559
21
-201.339
0
LINE
8
BLACK
6
CONTINUOUS
10
74.9559
20
-201.339
11
75.0987
21
-201.196
0
LINE
8
BLACK
6
CONTINUOUS
10
75.0987
20
-201.196
11
75.0987
21
-201.482
0
LINE
8
BLACK
6
CONTINUOUS
10
77.0987
20
-198.482
11
77.3844
21
-198.482
0
LINE
8
BLACK
6
CONTINUOUS
10
77.3844
20
-198.482
11
77.6701
21
-198.625
0
LINE
8
BLACK
6
CONTINUOUS
10
77.6701
20
-198.625
11
77.813
21
-198.768
0
LINE
8
BLACK
6
CONTINUOUS
10
77.813
20
-198.768
11
77.9559
21
-199.054
0
LINE
8
BLACK
6
CONTINUOUS
10
77.9559
20
-199.054
11
78.0987
21
-199.625
0
LINE
8
BLACK
6
CONTINUOUS
10
78.0987
20
-199.625
11
78.0987
21
-200.339
0
LINE
8
BLACK
6
CONTINUOUS
10
78.0987
20
-200.339
11
77.9559
21
-200.911
0
LINE
8
BLACK
6
CONTINUOUS
10
77.9559
20
-200.911
11
77.813
21
-201.196
0
LINE
8
BLACK
6
CONTINUOUS
10
77.813
20
-201.196
11
77.6701
21
-201.339
0
LINE
8
BLACK
6
CONTINUOUS
10
77.6701
20
-201.339
11
77.3844
21
-201.482
0
LINE
8
BLACK
6
CONTINUOUS
10
77.3844
20
-201.482
11
77.0987
21
-201.482
0
LINE
8
BLACK
6
CONTINUOUS
10
77.0987
20
-201.482
11
76.813
21
-201.339
0
LINE
8
BLACK
6
CONTINUOUS
10
76.813
20
-201.339
11
76.6701
21
-201.196
0
LINE
8
BLACK
6
CONTINUOUS
10
76.6701
20
-201.196
11
76.5273
21
-200.911
0
LINE
8
BLACK
6
CONTINUOUS
10
76.5273
20
-200.911
11
76.3844
21
-200.339
0
LINE
8
BLACK
6
CONTINUOUS
10
76.3844
20
-200.339
11
76.3844
21
-199.625
0
LINE
8
BLACK
6
CONTINUOUS
10
76.3844
20
-199.625
11
76.5273
21
-199.054
0
LINE
8
BLACK
6
CONTINUOUS
10
76.5273
20
-199.054
11
76.6701
21
-198.768
0
LINE
8
BLACK
6
CONTINUOUS
10
76.6701
20
-198.768
11
76.813
21
-198.625
0
LINE
8
BLACK
6
CONTINUOUS
10
76.813
20
-198.625
11
77.0987
21
-198.482
0
LINE
8
BLACK
6
CONTINUOUS
10
80.9559
20
-201.482
11
79.2416
21
-201.482
0
LINE
8
BLACK
6
CONTINUOUS
10
80.0987
20
-201.482
11
80.0987
21
-198.482
0
LINE
8
BLACK
6
CONTINUOUS
10
80.0987
20
-198.482
11
79.813
21
-198.911
0
LINE
8
BLACK
6
CONTINUOUS
10
79.813
20
-198.911
11
79.5273
21
-199.196
0
LINE
8
BLACK
6
CONTINUOUS
10
79.5273
20
-199.196
11
79.2416
21
-199.339
0
LINE
8
BLACK
6
CONTINUOUS
10
83.5273
20
-198.482
11
82.9559
21
-198.482
0
LINE
8
BLACK
6
CONTINUOUS
10
82.9559
20
-198.482
11
82.6701
21
-198.625
0
LINE
8
BLACK
6
CONTINUOUS
10
82.6701
20
-198.625
11
82.5273
21
-198.768
0
LINE
8
BLACK
6
CONTINUOUS
10
82.5273
20
-198.768
11
82.2416
21
-199.196
0
LINE
8
BLACK
6
CONTINUOUS
10
82.2416
20
-199.196
11
82.0987
21
-199.768
0
LINE
8
BLACK
6
CONTINUOUS
10
82.0987
20
-199.768
11
82.0987
21
-200.911
0
LINE
8
BLACK
6
CONTINUOUS
10
82.0987
20
-200.911
11
82.2416
21
-201.196
0
LINE
8
BLACK
6
CONTINUOUS
10
82.2416
20
-201.196
11
82.3844
21
-201.339
0
LINE
8
BLACK
6
CONTINUOUS
10
82.3844
20
-201.339
11
82.6701
21
-201.482
0
LINE
8
BLACK
6
CONTINUOUS
10
82.6701
20
-201.482
11
83.2416
21
-201.482
0
LINE
8
BLACK
6
CONTINUOUS
10
83.2416
20
-201.482
11
83.5273
21
-201.339
0
LINE
8
BLACK
6
CONTINUOUS
10
83.5273
20
-201.339
11
83.6701
21
-201.196
0
LINE
8
BLACK
6
CONTINUOUS
10
83.6701
20
-201.196
11
83.813
21
-200.911
0
LINE
8
BLACK
6
CONTINUOUS
10
83.813
20
-200.911
11
83.813
21
-200.196
0
LINE
8
BLACK
6
CONTINUOUS
10
83.813
20
-200.196
11
83.6701
21
-199.911
0
LINE
8
BLACK
6
CONTINUOUS
10
83.6701
20
-199.911
11
83.5273
21
-199.768
0
LINE
8
BLACK
6
CONTINUOUS
10
83.5273
20
-199.768
11
83.2416
21
-199.625
0
LINE
8
BLACK
6
CONTINUOUS
10
83.2416
20
-199.625
11
82.6701
21
-199.625
0
LINE
8
BLACK
6
CONTINUOUS
10
82.6701
20
-199.625
11
82.3844
21
-199.768
0
LINE
8
BLACK
6
CONTINUOUS
10
82.3844
20
-199.768
11
82.2416
21
-199.911
0
LINE
8
BLACK
6
CONTINUOUS
10
82.2416
20
-199.911
11
82.0987
21
-200.196
0
LINE
8
BLACK
6
CONTINUOUS
10
84.9559
20
-198.482
11
84.9559
21
-199.054
0
LINE
8
BLACK
6
CONTINUOUS
10
86.0987
20
-198.482
11
86.0987
21
-199.054
0
LINE
8
BLACK
6
CONTINUOUS
10
90.5273
20
-202.625
11
90.3844
21
-202.482
0
LINE
8
BLACK
6
CONTINUOUS
10
90.3844
20
-202.482
11
90.0987
21
-202.054
0
LINE
8
BLACK
6
CONTINUOUS
10
90.0987
20
-202.054
11
89.9559
21
-201.768
0
LINE
8
BLACK
6
CONTINUOUS
10
89.9559
20
-201.768
11
89.813
21
-201.339
0
LINE
8
BLACK
6
CONTINUOUS
10
89.813
20
-201.339
11
89.6701
21
-200.625
0
LINE
8
BLACK
6
CONTINUOUS
10
89.6701
20
-200.625
11
89.6701
21
-200.054
0
LINE
8
BLACK
6
CONTINUOUS
10
89.6701
20
-200.054
11
89.813
21
-199.339
0
LINE
8
BLACK
6
CONTINUOUS
10
89.813
20
-199.339
11
89.9559
21
-198.911
0
LINE
8
BLACK
6
CONTINUOUS
10
89.9559
20
-198.911
11
90.0987
21
-198.625
0
LINE
8
BLACK
6
CONTINUOUS
10
90.0987
20
-198.625
11
90.3844
21
-198.196
0
LINE
8
BLACK
6
CONTINUOUS
10
90.3844
20
-198.196
11
90.5273
21
-198.054
0
LINE
8
BLACK
6
CONTINUOUS
10
91.5273
20
-198.768
11
91.6701
21
-198.625
0
LINE
8
BLACK
6
CONTINUOUS
10
91.6701
20
-198.625
11
91.9559
21
-198.482
0
LINE
8
BLACK
6
CONTINUOUS
10
91.9559
20
-198.482
11
92.6701
21
-198.482
0
LINE
8
BLACK
6
CONTINUOUS
10
92.6701
20
-198.482
11
92.9559
21
-198.625
0
LINE
8
BLACK
6
CONTINUOUS
10
92.9559
20
-198.625
11
93.0987
21
-198.768
0
LINE
8
BLACK
6
CONTINUOUS
10
93.0987
20
-198.768
11
93.2416
21
-199.054
0
LINE
8
BLACK
6
CONTINUOUS
10
93.2416
20
-199.054
11
93.2416
21
-199.339
0
LINE
8
BLACK
6
CONTINUOUS
10
93.2416
20
-199.339
11
93.0987
21
-199.768
0
LINE
8
BLACK
6
CONTINUOUS
10
93.0987
20
-199.768
11
91.3844
21
-201.482
0
LINE
8
BLACK
6
CONTINUOUS
10
91.3844
20
-201.482
11
93.2416
21
-201.482
0
LINE
8
BLACK
6
CONTINUOUS
10
94.2416
20
-198.482
11
96.2416
21
-198.482
0
LINE
8
BLACK
6
CONTINUOUS
10
96.2416
20
-198.482
11
94.9559
21
-201.482
0
LINE
8
BLACK
6
CONTINUOUS
10
97.2416
20
-198.768
11
97.3844
21
-198.625
0
LINE
8
BLACK
6
CONTINUOUS
10
97.3844
20
-198.625
11
97.6701
21
-198.482
0
LINE
8
BLACK
6
CONTINUOUS
10
97.6701
20
-198.482
11
98.3844
21
-198.482
0
LINE
8
BLACK
6
CONTINUOUS
10
98.3844
20
-198.482
11
98.6701
21
-198.625
0
LINE
8
BLACK
6
CONTINUOUS
10
98.6701
20
-198.625
11
98.813
21
-198.768
0
LINE
8
BLACK
6
CONTINUOUS
10
98.813
20
-198.768
11
98.9559
21
-199.054
0
LINE
8
BLACK
6
CONTINUOUS
10
98.9559
20
-199.054
11
98.9559
21
-199.339
0
LINE
8
BLACK
6
CONTINUOUS
10
98.9559
20
-199.339
11
98.813
21
-199.768
0
LINE
8
BLACK
6
CONTINUOUS
10
98.813
20
-199.768
11
97.0987
21
-201.482
0
LINE
8
BLACK
6
CONTINUOUS
10
97.0987
20
-201.482
11
98.9559
21
-201.482
0
LINE
8
BLACK
6
CONTINUOUS
10
102.527
20
-201.482
11
102.527
21
-198.482
0
LINE
8
BLACK
6
CONTINUOUS
10
103.813
20
-201.482
11
103.813
21
-199.911
0
LINE
8
BLACK
6
CONTINUOUS
10
103.813
20
-199.911
11
103.67
21
-199.625
0
LINE
8
BLACK
6
CONTINUOUS
10
103.67
20
-199.625
11
103.384
21
-199.482
0
LINE
8
BLACK
6
CONTINUOUS
10
103.384
20
-199.482
11
102.956
21
-199.482
0
LINE
8
BLACK
6
CONTINUOUS
10
102.956
20
-199.482
11
102.67
21
-199.625
0
LINE
8
BLACK
6
CONTINUOUS
10
102.67
20
-199.625
11
102.527
21
-199.768
0
LINE
8
BLACK
6
CONTINUOUS
10
105.67
20
-201.482
11
105.384
21
-201.339
0
LINE
8
BLACK
6
CONTINUOUS
10
105.384
20
-201.339
11
105.242
21
-201.196
0
LINE
8
BLACK
6
CONTINUOUS
10
105.242
20
-201.196
11
105.099
21
-200.911
0
LINE
8
BLACK
6
CONTINUOUS
10
105.099
20
-200.911
11
105.099
21
-200.054
0
LINE
8
BLACK
6
CONTINUOUS
10
105.099
20
-200.054
11
105.242
21
-199.768
0
LINE
8
BLACK
6
CONTINUOUS
10
105.242
20
-199.768
11
105.384
21
-199.625
0
LINE
8
BLACK
6
CONTINUOUS
10
105.384
20
-199.625
11
105.67
21
-199.482
0
LINE
8
BLACK
6
CONTINUOUS
10
105.67
20
-199.482
11
106.099
21
-199.482
0
LINE
8
BLACK
6
CONTINUOUS
10
106.099
20
-199.482
11
106.384
21
-199.625
0
LINE
8
BLACK
6
CONTINUOUS
10
106.384
20
-199.625
11
106.527
21
-199.768
0
LINE
8
BLACK
6
CONTINUOUS
10
106.527
20
-199.768
11
106.67
21
-200.054
0
LINE
8
BLACK
6
CONTINUOUS
10
106.67
20
-200.054
11
106.67
21
-200.911
0
LINE
8
BLACK
6
CONTINUOUS
10
106.67
20
-200.911
11
106.527
21
-201.196
0
LINE
8
BLACK
6
CONTINUOUS
10
106.527
20
-201.196
11
106.384
21
-201.339
0
LINE
8
BLACK
6
CONTINUOUS
10
106.384
20
-201.339
11
106.099
21
-201.482
0
LINE
8
BLACK
6
CONTINUOUS
10
106.099
20
-201.482
11
105.67
21
-201.482
0
LINE
8
BLACK
6
CONTINUOUS
10
108.384
20
-201.482
11
108.099
21
-201.339
0
LINE
8
BLACK
6
CONTINUOUS
10
108.099
20
-201.339
11
107.956
21
-201.054
0
LINE
8
BLACK
6
CONTINUOUS
10
107.956
20
-201.054
11
107.956
21
-198.482
0
LINE
8
BLACK
6
CONTINUOUS
10
110.67
20
-201.339
11
110.384
21
-201.482
0
LINE
8
BLACK
6
CONTINUOUS
10
110.384
20
-201.482
11
109.813
21
-201.482
0
LINE
8
BLACK
6
CONTINUOUS
10
109.813
20
-201.482
11
109.527
21
-201.339
0
LINE
8
BLACK
6
CONTINUOUS
10
109.527
20
-201.339
11
109.384
21
-201.054
0
LINE
8
BLACK
6
CONTINUOUS
10
109.384
20
-201.054
11
109.384
21
-199.911
0
LINE
8
BLACK
6
CONTINUOUS
10
109.384
20
-199.911
11
109.527
21
-199.625
0
LINE
8
BLACK
6
CONTINUOUS
10
109.527
20
-199.625
11
109.813
21
-199.482
0
LINE
8
BLACK
6
CONTINUOUS
10
109.813
20
-199.482
11
110.384
21
-199.482
0
LINE
8
BLACK
6
CONTINUOUS
10
110.384
20
-199.482
11
110.67
21
-199.625
0
LINE
8
BLACK
6
CONTINUOUS
10
110.67
20
-199.625
11
110.813
21
-199.911
0
LINE
8
BLACK
6
CONTINUOUS
10
110.813
20
-199.911
11
110.813
21
-200.196
0
LINE
8
BLACK
6
CONTINUOUS
10
110.813
20
-200.196
11
109.384
21
-200.482
0
LINE
8
BLACK
6
CONTINUOUS
10
111.956
20
-201.339
11
112.242
21
-201.482
0
LINE
8
BLACK
6
CONTINUOUS
10
112.242
20
-201.482
11
112.813
21
-201.482
0
LINE
8
BLACK
6
CONTINUOUS
10
112.813
20
-201.482
11
113.099
21
-201.339
0
LINE
8
BLACK
6
CONTINUOUS
10
113.099
20
-201.339
11
113.242
21
-201.054
0
LINE
8
BLACK
6
CONTINUOUS
10
113.242
20
-201.054
11
113.242
21
-200.911
0
LINE
8
BLACK
6
CONTINUOUS
10
113.242
20
-200.911
11
113.099
21
-200.625
0
LINE
8
BLACK
6
CONTINUOUS
10
113.099
20
-200.625
11
112.813
21
-200.482
0
LINE
8
BLACK
6
CONTINUOUS
10
112.813
20
-200.482
11
112.384
21
-200.482
0
LINE
8
BLACK
6
CONTINUOUS
10
112.384
20
-200.482
11
112.099
21
-200.339
0
LINE
8
BLACK
6
CONTINUOUS
10
112.099
20
-200.339
11
111.956
21
-200.054
0
LINE
8
BLACK
6
CONTINUOUS
10
111.956
20
-200.054
11
111.956
21
-199.911
0
LINE
8
BLACK
6
CONTINUOUS
10
111.956
20
-199.911
11
112.099
21
-199.625
0
LINE
8
BLACK
6
CONTINUOUS
10
112.099
20
-199.625
11
112.384
21
-199.482
0
LINE
8
BLACK
6
CONTINUOUS
10
112.384
20
-199.482
11
112.813
21
-199.482
0
LINE
8
BLACK
6
CONTINUOUS
10
112.813
20
-199.482
11
113.099
21
-199.625
0
LINE
8
BLACK
6
CONTINUOUS
10
114.242
20
-202.625
11
114.384
21
-202.482
0
LINE
8
BLACK
6
CONTINUOUS
10
114.384
20
-202.482
11
114.67
21
-202.054
0
LINE
8
BLACK
6
CONTINUOUS
10
114.67
20
-202.054
11
114.813
21
-201.768
0
LINE
8
BLACK
6
CONTINUOUS
10
114.813
20
-201.768
11
114.956
21
-201.339
0
LINE
8
BLACK
6
CONTINUOUS
10
114.956
20
-201.339
11
115.099
21
-200.625
0
LINE
8
BLACK
6
CONTINUOUS
10
115.099
20
-200.625
11
115.099
21
-200.054
0
LINE
8
BLACK
6
CONTINUOUS
10
115.099
20
-200.054
11
114.956
21
-199.339
0
LINE
8
BLACK
6
CONTINUOUS
10
114.956
20
-199.339
11
114.813
21
-198.911
0
LINE
8
BLACK
6
CONTINUOUS
10
114.813
20
-198.911
11
114.67
21
-198.625
0
LINE
8
BLACK
6
CONTINUOUS
10
114.67
20
-198.625
11
114.384
21
-198.196
0
LINE
8
BLACK
6
CONTINUOUS
10
114.384
20
-198.196
11
114.242
21
-198.054
0
CIRCLE
8
BLACK
10
43.363
20
-204.085
40
0.3
0
LINE
8
BLACK
6
CONTINUOUS
10
47.0987
20
-202.442
11
47.3844
21
-202.442
0
LINE
8
BLACK
6
CONTINUOUS
10
47.3844
20
-202.442
11
47.6701
21
-202.585
0
LINE
8
BLACK
6
CONTINUOUS
10
47.6701
20
-202.585
11
47.813
21
-202.728
0
LINE
8
BLACK
6
CONTINUOUS
10
47.813
20
-202.728
11
47.9559
21
-203.014
0
LINE
8
BLACK
6
CONTINUOUS
10
47.9559
20
-203.014
11
48.0987
21
-203.585
0
LINE
8
BLACK
6
CONTINUOUS
10
48.0987
20
-203.585
11
48.0987
21
-204.299
0
LINE
8
BLACK
6
CONTINUOUS
10
48.0987
20
-204.299
11
47.9559
21
-204.871
0
LINE
8
BLACK
6
CONTINUOUS
10
47.9559
20
-204.871
11
47.813
21
-205.156
0
LINE
8
BLACK
6
CONTINUOUS
10
47.813
20
-205.156
11
47.6701
21
-205.299
0
LINE
8
BLACK
6
CONTINUOUS
10
47.6701
20
-205.299
11
47.3844
21
-205.442
0
LINE
8
BLACK
6
CONTINUOUS
10
47.3844
20
-205.442
11
47.0987
21
-205.442
0
LINE
8
BLACK
6
CONTINUOUS
10
47.0987
20
-205.442
11
46.813
21
-205.299
0
LINE
8
BLACK
6
CONTINUOUS
10
46.813
20
-205.299
11
46.6701
21
-205.156
0
LINE
8
BLACK
6
CONTINUOUS
10
46.6701
20
-205.156
11
46.5273
21
-204.871
0
LINE
8
BLACK
6
CONTINUOUS
10
46.5273
20
-204.871
11
46.3844
21
-204.299
0
LINE
8
BLACK
6
CONTINUOUS
10
46.3844
20
-204.299
11
46.3844
21
-203.585
0
LINE
8
BLACK
6
CONTINUOUS
10
46.3844
20
-203.585
11
46.5273
21
-203.014
0
LINE
8
BLACK
6
CONTINUOUS
10
46.5273
20
-203.014
11
46.6701
21
-202.728
0
LINE
8
BLACK
6
CONTINUOUS
10
46.6701
20
-202.728
11
46.813
21
-202.585
0
LINE
8
BLACK
6
CONTINUOUS
10
46.813
20
-202.585
11
47.0987
21
-202.442
0
LINE
8
BLACK
6
CONTINUOUS
10
49.3844
20
-205.156
11
49.5273
21
-205.299
0
LINE
8
BLACK
6
CONTINUOUS
10
49.5273
20
-205.299
11
49.3844
21
-205.442
0
LINE
8
BLACK
6
CONTINUOUS
10
49.3844
20
-205.442
11
49.2416
21
-205.299
0
LINE
8
BLACK
6
CONTINUOUS
10
49.2416
20
-205.299
11
49.3844
21
-205.156
0
LINE
8
BLACK
6
CONTINUOUS
10
49.3844
20
-205.156
11
49.3844
21
-205.442
0
LINE
8
BLACK
6
CONTINUOUS
10
52.0987
20
-202.442
11
51.5273
21
-202.442
0
LINE
8
BLACK
6
CONTINUOUS
10
51.5273
20
-202.442
11
51.2416
21
-202.585
0
LINE
8
BLACK
6
CONTINUOUS
10
51.2416
20
-202.585
11
51.0987
21
-202.728
0
LINE
8
BLACK
6
CONTINUOUS
10
51.0987
20
-202.728
11
50.813
21
-203.156
0
LINE
8
BLACK
6
CONTINUOUS
10
50.813
20
-203.156
11
50.6701
21
-203.728
0
LINE
8
BLACK
6
CONTINUOUS
10
50.6701
20
-203.728
11
50.6701
21
-204.871
0
LINE
8
BLACK
6
CONTINUOUS
10
50.6701
20
-204.871
11
50.813
21
-205.156
0
LINE
8
BLACK
6
CONTINUOUS
10
50.813
20
-205.156
11
50.9559
21
-205.299
0
LINE
8
BLACK
6
CONTINUOUS
10
50.9559
20
-205.299
11
51.2416
21
-205.442
0
LINE
8
BLACK
6
CONTINUOUS
10
51.2416
20
-205.442
11
51.813
21
-205.442
0
LINE
8
BLACK
6
CONTINUOUS
10
51.813
20
-205.442
11
52.0987
21
-205.299
0
LINE
8
BLACK
6
CONTINUOUS
10
52.0987
20
-205.299
11
52.2416
21
-205.156
0
LINE
8
BLACK
6
CONTINUOUS
10
52.2416
20
-205.156
11
52.3844
21
-204.871
0
LINE
8
BLACK
6
CONTINUOUS
10
52.3844
20
-204.871
11
52.3844
21
-204.156
0
LINE
8
BLACK
6
CONTINUOUS
10
52.3844
20
-204.156
11
52.2416
21
-203.871
0
LINE
8
BLACK
6
CONTINUOUS
10
52.2416
20
-203.871
11
52.0987
21
-203.728
0
LINE
8
BLACK
6
CONTINUOUS
10
52.0987
20
-203.728
11
51.813
21
-203.585
0
LINE
8
BLACK
6
CONTINUOUS
10
51.813
20
-203.585
11
51.2416
21
-203.585
0
LINE
8
BLACK
6
CONTINUOUS
10
51.2416
20
-203.585
11
50.9559
21
-203.728
0
LINE
8
BLACK
6
CONTINUOUS
10
50.9559
20
-203.728
11
50.813
21
-203.871
0
LINE
8
BLACK
6
CONTINUOUS
10
50.813
20
-203.871
11
50.6701
21
-204.156
0
LINE
8
BLACK
6
CONTINUOUS
10
54.2416
20
-202.442
11
54.5273
21
-202.442
0
LINE
8
BLACK
6
CONTINUOUS
10
54.5273
20
-202.442
11
54.813
21
-202.585
0
LINE
8
BLACK
6
CONTINUOUS
10
54.813
20
-202.585
11
54.9559
21
-202.728
0
LINE
8
BLACK
6
CONTINUOUS
10
54.9559
20
-202.728
11
55.0987
21
-203.014
0
LINE
8
BLACK
6
CONTINUOUS
10
55.0987
20
-203.014
11
55.2416
21
-203.585
0
LINE
8
BLACK
6
CONTINUOUS
10
55.2416
20
-203.585
11
55.2416
21
-204.299
0
LINE
8
BLACK
6
CONTINUOUS
10
55.2416
20
-204.299
11
55.0987
21
-204.871
0
LINE
8
BLACK
6
CONTINUOUS
10
55.0987
20
-204.871
11
54.9559
21
-205.156
0
LINE
8
BLACK
6
CONTINUOUS
10
54.9559
20
-205.156
11
54.813
21
-205.299
0
LINE
8
BLACK
6
CONTINUOUS
10
54.813
20
-205.299
11
54.5273
21
-205.442
0
LINE
8
BLACK
6
CONTINUOUS
10
54.5273
20
-205.442
11
54.2416
21
-205.442
0
LINE
8
BLACK
6
CONTINUOUS
10
54.2416
20
-205.442
11
53.9559
21
-205.299
0
LINE
8
BLACK
6
CONTINUOUS
10
53.9559
20
-205.299
11
53.813
21
-205.156
0
LINE
8
BLACK
6
CONTINUOUS
10
53.813
20
-205.156
11
53.6701
21
-204.871
0
LINE
8
BLACK
6
CONTINUOUS
10
53.6701
20
-204.871
11
53.5273
21
-204.299
0
LINE
8
BLACK
6
CONTINUOUS
10
53.5273
20
-204.299
11
53.5273
21
-203.585
0
LINE
8
BLACK
6
CONTINUOUS
10
53.5273
20
-203.585
11
53.6701
21
-203.014
0
LINE
8
BLACK
6
CONTINUOUS
10
53.6701
20
-203.014
11
53.813
21
-202.728
0
LINE
8
BLACK
6
CONTINUOUS
10
53.813
20
-202.728
11
53.9559
21
-202.585
0
LINE
8
BLACK
6
CONTINUOUS
10
53.9559
20
-202.585
11
54.2416
21
-202.442
0
LINE
8
BLACK
6
CONTINUOUS
10
56.5273
20
-205.442
11
56.5273
21
-203.442
0
LINE
8
BLACK
6
CONTINUOUS
10
56.5273
20
-203.728
11
56.6701
21
-203.585
0
LINE
8
BLACK
6
CONTINUOUS
10
56.6701
20
-203.585
11
56.9559
21
-203.442
0
LINE
8
BLACK
6
CONTINUOUS
10
56.9559
20
-203.442
11
57.3844
21
-203.442
0
LINE
8
BLACK
6
CONTINUOUS
10
57.3844
20
-203.442
11
57.6701
21
-203.585
0
LINE
8
BLACK
6
CONTINUOUS
10
57.6701
20
-203.585
11
57.813
21
-203.871
0
LINE
8
BLACK
6
CONTINUOUS
10
57.813
20
-203.871
11
57.813
21
-205.442
0
LINE
8
BLACK
6
CONTINUOUS
10
57.813
20
-203.871
11
57.9559
21
-203.585
0
LINE
8
BLACK
6
CONTINUOUS
10
57.9559
20
-203.585
11
58.2416
21
-203.442
0
LINE
8
BLACK
6
CONTINUOUS
10
58.2416
20
-203.442
11
58.6701
21
-203.442
0
LINE
8
BLACK
6
CONTINUOUS
10
58.6701
20
-203.442
11
58.9559
21
-203.585
0
LINE
8
BLACK
6
CONTINUOUS
10
58.9559
20
-203.585
11
59.0987
21
-203.871
0
LINE
8
BLACK
6
CONTINUOUS
10
59.0987
20
-203.871
11
59.0987
21
-205.442
0
LINE
8
BLACK
6
CONTINUOUS
10
60.5273
20
-205.442
11
60.5273
21
-203.442
0
LINE
8
BLACK
6
CONTINUOUS
10
60.5273
20
-203.728
11
60.6701
21
-203.585
0
LINE
8
BLACK
6
CONTINUOUS
10
60.6701
20
-203.585
11
60.9559
21
-203.442
0
LINE
8
BLACK
6
CONTINUOUS
10
60.9559
20
-203.442
11
61.3844
21
-203.442
0
LINE
8
BLACK
6
CONTINUOUS
10
61.3844
20
-203.442
11
61.6701
21
-203.585
0
LINE
8
BLACK
6
CONTINUOUS
10
61.6701
20
-203.585
11
61.813
21
-203.871
0
LINE
8
BLACK
6
CONTINUOUS
10
61.813
20
-203.871
11
61.813
21
-205.442
0
LINE
8
BLACK
6
CONTINUOUS
10
61.813
20
-203.871
11
61.9559
21
-203.585
0
LINE
8
BLACK
6
CONTINUOUS
10
61.9559
20
-203.585
11
62.2416
21
-203.442
0
LINE
8
BLACK
6
CONTINUOUS
10
62.2416
20
-203.442
11
62.6701
21
-203.442
0
LINE
8
BLACK
6
CONTINUOUS
10
62.6701
20
-203.442
11
62.9559
21
-203.585
0
LINE
8
BLACK
6
CONTINUOUS
10
62.9559
20
-203.585
11
63.0987
21
-203.871
0
LINE
8
BLACK
6
CONTINUOUS
10
63.0987
20
-203.871
11
63.0987
21
-205.442
0
LINE
8
BLACK
6
CONTINUOUS
10
68.9559
20
-202.299
11
66.3844
21
-206.156
0
LINE
8
BLACK
6
CONTINUOUS
10
72.813
20
-202.442
11
73.0987
21
-202.442
0
LINE
8
BLACK
6
CONTINUOUS
10
73.0987
20
-202.442
11
73.3844
21
-202.585
0
LINE
8
BLACK
6
CONTINUOUS
10
73.3844
20
-202.585
11
73.5273
21
-202.728
0
LINE
8
BLACK
6
CONTINUOUS
10
73.5273
20
-202.728
11
73.6701
21
-203.014
0
LINE
8
BLACK
6
CONTINUOUS
10
73.6701
20
-203.014
11
73.813
21
-203.585
0
LINE
8
BLACK
6
CONTINUOUS
10
73.813
20
-203.585
11
73.813
21
-204.299
0
LINE
8
BLACK
6
CONTINUOUS
10
73.813
20
-204.299
11
73.6701
21
-204.871
0
LINE
8
BLACK
6
CONTINUOUS
10
73.6701
20
-204.871
11
73.5273
21
-205.156
0
LINE
8
BLACK
6
CONTINUOUS
10
73.5273
20
-205.156
11
73.3844
21
-205.299
0
LINE
8
BLACK
6
CONTINUOUS
10
73.3844
20
-205.299
11
73.0987
21
-205.442
0
LINE
8
BLACK
6
CONTINUOUS
10
73.0987
20
-205.442
11
72.813
21
-205.442
0
LINE
8
BLACK
6
CONTINUOUS
10
72.813
20
-205.442
11
72.5273
21
-205.299
0
LINE
8
BLACK
6
CONTINUOUS
10
72.5273
20
-205.299
11
72.3844
21
-205.156
0
LINE
8
BLACK
6
CONTINUOUS
10
72.3844
20
-205.156
11
72.2416
21
-204.871
0
LINE
8
BLACK
6
CONTINUOUS
10
72.2416
20
-204.871
11
72.0987
21
-204.299
0
LINE
8
BLACK
6
CONTINUOUS
10
72.0987
20
-204.299
11
72.0987
21
-203.585
0
LINE
8
BLACK
6
CONTINUOUS
10
72.0987
20
-203.585
11
72.2416
21
-203.014
0
LINE
8
BLACK
6
CONTINUOUS
10
72.2416
20
-203.014
11
72.3844
21
-202.728
0
LINE
8
BLACK
6
CONTINUOUS
10
72.3844
20
-202.728
11
72.5273
21
-202.585
0
LINE
8
BLACK
6
CONTINUOUS
10
72.5273
20
-202.585
11
72.813
21
-202.442
0
LINE
8
BLACK
6
CONTINUOUS
10
75.0987
20
-205.156
11
75.2416
21
-205.299
0
LINE
8
BLACK
6
CONTINUOUS
10
75.2416
20
-205.299
11
75.0987
21
-205.442
0
LINE
8
BLACK
6
CONTINUOUS
10
75.0987
20
-205.442
11
74.9559
21
-205.299
0
LINE
8
BLACK
6
CONTINUOUS
10
74.9559
20
-205.299
11
75.0987
21
-205.156
0
LINE
8
BLACK
6
CONTINUOUS
10
75.0987
20
-205.156
11
75.0987
21
-205.442
0
LINE
8
BLACK
6
CONTINUOUS
10
77.0987
20
-202.442
11
77.3844
21
-202.442
0
LINE
8
BLACK
6
CONTINUOUS
10
77.3844
20
-202.442
11
77.6701
21
-202.585
0
LINE
8
BLACK
6
CONTINUOUS
10
77.6701
20
-202.585
11
77.813
21
-202.728
0
LINE
8
BLACK
6
CONTINUOUS
10
77.813
20
-202.728
11
77.9559
21
-203.014
0
LINE
8
BLACK
6
CONTINUOUS
10
77.9559
20
-203.014
11
78.0987
21
-203.585
0
LINE
8
BLACK
6
CONTINUOUS
10
78.0987
20
-203.585
11
78.0987
21
-204.299
0
LINE
8
BLACK
6
CONTINUOUS
10
78.0987
20
-204.299
11
77.9559
21
-204.871
0
LINE
8
BLACK
6
CONTINUOUS
10
77.9559
20
-204.871
11
77.813
21
-205.156
0
LINE
8
BLACK
6
CONTINUOUS
10
77.813
20
-205.156
11
77.6701
21
-205.299
0
LINE
8
BLACK
6
CONTINUOUS
10
77.6701
20
-205.299
11
77.3844
21
-205.442
0
LINE
8
BLACK
6
CONTINUOUS
10
77.3844
20
-205.442
11
77.0987
21
-205.442
0
LINE
8
BLACK
6
CONTINUOUS
10
77.0987
20
-205.442
11
76.813
21
-205.299
0
LINE
8
BLACK
6
CONTINUOUS
10
76.813
20
-205.299
11
76.6701
21
-205.156
0
LINE
8
BLACK
6
CONTINUOUS
10
76.6701
20
-205.156
11
76.5273
21
-204.871
0
LINE
8
BLACK
6
CONTINUOUS
10
76.5273
20
-204.871
11
76.3844
21
-204.299
0
LINE
8
BLACK
6
CONTINUOUS
10
76.3844
20
-204.299
11
76.3844
21
-203.585
0
LINE
8
BLACK
6
CONTINUOUS
10
76.3844
20
-203.585
11
76.5273
21
-203.014
0
LINE
8
BLACK
6
CONTINUOUS
10
76.5273
20
-203.014
11
76.6701
21
-202.728
0
LINE
8
BLACK
6
CONTINUOUS
10
76.6701
20
-202.728
11
76.813
21
-202.585
0
LINE
8
BLACK
6
CONTINUOUS
10
76.813
20
-202.585
11
77.0987
21
-202.442
0
LINE
8
BLACK
6
CONTINUOUS
10
79.2416
20
-202.728
11
79.3844
21
-202.585
0
LINE
8
BLACK
6
CONTINUOUS
10
79.3844
20
-202.585
11
79.6701
21
-202.442
0
LINE
8
BLACK
6
CONTINUOUS
10
79.6701
20
-202.442
11
80.3844
21
-202.442
0
LINE
8
BLACK
6
CONTINUOUS
10
80.3844
20
-202.442
11
80.6701
21
-202.585
0
LINE
8
BLACK
6
CONTINUOUS
10
80.6701
20
-202.585
11
80.813
21
-202.728
0
LINE
8
BLACK
6
CONTINUOUS
10
80.813
20
-202.728
11
80.9559
21
-203.014
0
LINE
8
BLACK
6
CONTINUOUS
10
80.9559
20
-203.014
11
80.9559
21
-203.299
0
LINE
8
BLACK
6
CONTINUOUS
10
80.9559
20
-203.299
11
80.813
21
-203.728
0
LINE
8
BLACK
6
CONTINUOUS
10
80.813
20
-203.728
11
79.0987
21
-205.442
0
LINE
8
BLACK
6
CONTINUOUS
10
79.0987
20
-205.442
11
80.9559
21
-205.442
0
LINE
8
BLACK
6
CONTINUOUS
10
83.5273
20
-203.442
11
83.5273
21
-205.442
0
LINE
8
BLACK
6
CONTINUOUS
10
82.813
20
-202.299
11
82.0987
21
-204.442
0
LINE
8
BLACK
6
CONTINUOUS
10
82.0987
20
-204.442
11
83.9559
21
-204.442
0
LINE
8
BLACK
6
CONTINUOUS
10
84.9559
20
-202.442
11
84.9559
21
-203.014
0
LINE
8
BLACK
6
CONTINUOUS
10
86.0987
20
-202.442
11
86.0987
21
-203.014
0
LINE
8
BLACK
6
CONTINUOUS
10
90.5273
20
-206.585
11
90.3844
21
-206.442
0
LINE
8
BLACK
6
CONTINUOUS
10
90.3844
20
-206.442
11
90.0987
21
-206.014
0
LINE
8
BLACK
6
CONTINUOUS
10
90.0987
20
-206.014
11
89.9559
21
-205.728
0
LINE
8
BLACK
6
CONTINUOUS
10
89.9559
20
-205.728
11
89.813
21
-205.299
0
LINE
8
BLACK
6
CONTINUOUS
10
89.813
20
-205.299
11
89.6701
21
-204.585
0
LINE
8
BLACK
6
CONTINUOUS
10
89.6701
20
-204.585
11
89.6701
21
-204.014
0
LINE
8
BLACK
6
CONTINUOUS
10
89.6701
20
-204.014
11
89.813
21
-203.299
0
LINE
8
BLACK
6
CONTINUOUS
10
89.813
20
-203.299
11
89.9559
21
-202.871
0
LINE
8
BLACK
6
CONTINUOUS
10
89.9559
20
-202.871
11
90.0987
21
-202.585
0
LINE
8
BLACK
6
CONTINUOUS
10
90.0987
20
-202.585
11
90.3844
21
-202.156
0
LINE
8
BLACK
6
CONTINUOUS
10
90.3844
20
-202.156
11
90.5273
21
-202.014
0
LINE
8
BLACK
6
CONTINUOUS
10
92.2416
20
-202.442
11
92.5273
21
-202.442
0
LINE
8
BLACK
6
CONTINUOUS
10
92.5273
20
-202.442
11
92.813
21
-202.585
0
LINE
8
BLACK
6
CONTINUOUS
10
92.813
20
-202.585
11
92.9559
21
-202.728
0
LINE
8
BLACK
6
CONTINUOUS
10
92.9559
20
-202.728
11
93.0987
21
-203.014
0
LINE
8
BLACK
6
CONTINUOUS
10
93.0987
20
-203.014
11
93.2416
21
-203.585
0
LINE
8
BLACK
6
CONTINUOUS
10
93.2416
20
-203.585
11
93.2416
21
-204.299
0
LINE
8
BLACK
6
CONTINUOUS
10
93.2416
20
-204.299
11
93.0987
21
-204.871
0
LINE
8
BLACK
6
CONTINUOUS
10
93.0987
20
-204.871
11
92.9559
21
-205.156
0
LINE
8
BLACK
6
CONTINUOUS
10
92.9559
20
-205.156
11
92.813
21
-205.299
0
LINE
8
BLACK
6
CONTINUOUS
10
92.813
20
-205.299
11
92.5273
21
-205.442
0
LINE
8
BLACK
6
CONTINUOUS
10
92.5273
20
-205.442
11
92.2416
21
-205.442
0
LINE
8
BLACK
6
CONTINUOUS
10
92.2416
20
-205.442
11
91.9559
21
-205.299
0
LINE
8
BLACK
6
CONTINUOUS
10
91.9559
20
-205.299
11
91.813
21
-205.156
0
LINE
8
BLACK
6
CONTINUOUS
10
91.813
20
-205.156
11
91.6701
21
-204.871
0
LINE
8
BLACK
6
CONTINUOUS
10
91.6701
20
-204.871
11
91.5273
21
-204.299
0
LINE
8
BLACK
6
CONTINUOUS
10
91.5273
20
-204.299
11
91.5273
21
-203.585
0
LINE
8
BLACK
6
CONTINUOUS
10
91.5273
20
-203.585
11
91.6701
21
-203.014
0
LINE
8
BLACK
6
CONTINUOUS
10
91.6701
20
-203.014
11
91.813
21
-202.728
0
LINE
8
BLACK
6
CONTINUOUS
10
91.813
20
-202.728
11
91.9559
21
-202.585
0
LINE
8
BLACK
6
CONTINUOUS
10
91.9559
20
-202.585
11
92.2416
21
-202.442
0
LINE
8
BLACK
6
CONTINUOUS
10
96.813
20
-205.442
11
96.813
21
-202.442
0
LINE
8
BLACK
6
CONTINUOUS
10
98.0987
20
-205.442
11
98.0987
21
-203.871
0
LINE
8
BLACK
6
CONTINUOUS
10
98.0987
20
-203.871
11
97.9559
21
-203.585
0
LINE
8
BLACK
6
CONTINUOUS
10
97.9559
20
-203.585
11
97.6701
21
-203.442
0
LINE
8
BLACK
6
CONTINUOUS
10
97.6701
20
-203.442
11
97.2416
21
-203.442
0
LINE
8
BLACK
6
CONTINUOUS
10
97.2416
20
-203.442
11
96.9559
21
-203.585
0
LINE
8
BLACK
6
CONTINUOUS
10
96.9559
20
-203.585
11
96.813
21
-203.728
0
LINE
8
BLACK
6
CONTINUOUS
10
99.9559
20
-205.442
11
99.6701
21
-205.299
0
LINE
8
BLACK
6
CONTINUOUS
10
99.6701
20
-205.299
11
99.5273
21
-205.156
0
LINE
8
BLACK
6
CONTINUOUS
10
99.5273
20
-205.156
11
99.3844
21
-204.871
0
LINE
8
BLACK
6
CONTINUOUS
10
99.3844
20
-204.871
11
99.3844
21
-204.014
0
LINE
8
BLACK
6
CONTINUOUS
10
99.3844
20
-204.014
11
99.5273
21
-203.728
0
LINE
8
BLACK
6
CONTINUOUS
10
99.5273
20
-203.728
11
99.6701
21
-203.585
0
LINE
8
BLACK
6
CONTINUOUS
10
99.6701
20
-203.585
11
99.9559
21
-203.442
0
LINE
8
BLACK
6
CONTINUOUS
10
99.9559
20
-203.442
11
100.384
21
-203.442
0
LINE
8
BLACK
6
CONTINUOUS
10
100.384
20
-203.442
11
100.67
21
-203.585
0
LINE
8
BLACK
6
CONTINUOUS
10
100.67
20
-203.585
11
100.813
21
-203.728
0
LINE
8
BLACK
6
CONTINUOUS
10
100.813
20
-203.728
11
100.956
21
-204.014
0
LINE
8
BLACK
6
CONTINUOUS
10
100.956
20
-204.014
11
100.956
21
-204.871
0
LINE
8
BLACK
6
CONTINUOUS
10
100.956
20
-204.871
11
100.813
21
-205.156
0
LINE
8
BLACK
6
CONTINUOUS
10
100.813
20
-205.156
11
100.67
21
-205.299
0
LINE
8
BLACK
6
CONTINUOUS
10
100.67
20
-205.299
11
100.384
21
-205.442
0
LINE
8
BLACK
6
CONTINUOUS
10
100.384
20
-205.442
11
99.9559
21
-205.442
0
LINE
8
BLACK
6
CONTINUOUS
10
102.67
20
-205.442
11
102.384
21
-205.299
0
LINE
8
BLACK
6
CONTINUOUS
10
102.384
20
-205.299
11
102.242
21
-205.014
0
LINE
8
BLACK
6
CONTINUOUS
10
102.242
20
-205.014
11
102.242
21
-202.442
0
LINE
8
BLACK
6
CONTINUOUS
10
104.956
20
-205.299
11
104.67
21
-205.442
0
LINE
8
BLACK
6
CONTINUOUS
10
104.67
20
-205.442
11
104.099
21
-205.442
0
LINE
8
BLACK
6
CONTINUOUS
10
104.099
20
-205.442
11
103.813
21
-205.299
0
LINE
8
BLACK
6
CONTINUOUS
10
103.813
20
-205.299
11
103.67
21
-205.014
0
LINE
8
BLACK
6
CONTINUOUS
10
103.67
20
-205.014
11
103.67
21
-203.871
0
LINE
8
BLACK
6
CONTINUOUS
10
103.67
20
-203.871
11
103.813
21
-203.585
0
LINE
8
BLACK
6
CONTINUOUS
10
103.813
20
-203.585
11
104.099
21
-203.442
0
LINE
8
BLACK
6
CONTINUOUS
10
104.099
20
-203.442
11
104.67
21
-203.442
0
LINE
8
BLACK
6
CONTINUOUS
10
104.67
20
-203.442
11
104.956
21
-203.585
0
LINE
8
BLACK
6
CONTINUOUS
10
104.956
20
-203.585
11
105.099
21
-203.871
0
LINE
8
BLACK
6
CONTINUOUS
10
105.099
20
-203.871
11
105.099
21
-204.156
0
LINE
8
BLACK
6
CONTINUOUS
10
105.099
20
-204.156
11
103.67
21
-204.442
0
LINE
8
BLACK
6
CONTINUOUS
10
106.242
20
-205.299
11
106.527
21
-205.442
0
LINE
8
BLACK
6
CONTINUOUS
10
106.527
20
-205.442
11
107.099
21
-205.442
0
LINE
8
BLACK
6
CONTINUOUS
10
107.099
20
-205.442
11
107.384
21
-205.299
0
LINE
8
BLACK
6
CONTINUOUS
10
107.384
20
-205.299
11
107.527
21
-205.014
0
LINE
8
BLACK
6
CONTINUOUS
10
107.527
20
-205.014
11
107.527
21
-204.871
0
LINE
8
BLACK
6
CONTINUOUS
10
107.527
20
-204.871
11
107.384
21
-204.585
0
LINE
8
BLACK
6
CONTINUOUS
10
107.384
20
-204.585
11
107.099
21
-204.442
0
LINE
8
BLACK
6
CONTINUOUS
10
107.099
20
-204.442
11
106.67
21
-204.442
0
LINE
8
BLACK
6
CONTINUOUS
10
106.67
20
-204.442
11
106.384
21
-204.299
0
LINE
8
BLACK
6
CONTINUOUS
10
106.384
20
-204.299
11
106.242
21
-204.014
0
LINE
8
BLACK
6
CONTINUOUS
10
106.242
20
-204.014
11
106.242
21
-203.871
0
LINE
8
BLACK
6
CONTINUOUS
10
106.242
20
-203.871
11
106.384
21
-203.585
0
LINE
8
BLACK
6
CONTINUOUS
10
106.384
20
-203.585
11
106.67
21
-203.442
0
LINE
8
BLACK
6
CONTINUOUS
10
106.67
20
-203.442
11
107.099
21
-203.442
0
LINE
8
BLACK
6
CONTINUOUS
10
107.099
20
-203.442
11
107.384
21
-203.585
0
LINE
8
BLACK
6
CONTINUOUS
10
111.099
20
-204.299
11
113.384
21
-204.299
0
LINE
8
BLACK
6
CONTINUOUS
10
112.242
20
-205.442
11
112.242
21
-203.156
0
LINE
8
BLACK
6
CONTINUOUS
10
118.67
20
-205.442
11
116.956
21
-205.442
0
LINE
8
BLACK
6
CONTINUOUS
10
117.813
20
-205.442
11
117.813
21
-202.442
0
LINE
8
BLACK
6
CONTINUOUS
10
117.813
20
-202.442
11
117.527
21
-202.871
0
LINE
8
BLACK
6
CONTINUOUS
10
117.527
20
-202.871
11
117.242
21
-203.156
0
LINE
8
BLACK
6
CONTINUOUS
10
117.242
20
-203.156
11
116.956
21
-203.299
0
LINE
8
BLACK
6
CONTINUOUS
10
121.242
20
-202.442
11
120.67
21
-202.442
0
LINE
8
BLACK
6
CONTINUOUS
10
120.67
20
-202.442
11
120.384
21
-202.585
0
LINE
8
BLACK
6
CONTINUOUS
10
120.384
20
-202.585
11
120.242
21
-202.728
0
LINE
8
BLACK
6
CONTINUOUS
10
120.242
20
-202.728
11
119.956
21
-203.156
0
LINE
8
BLACK
6
CONTINUOUS
10
119.956
20
-203.156
11
119.813
21
-203.728
0
LINE
8
BLACK
6
CONTINUOUS
10
119.813
20
-203.728
11
119.813
21
-204.871
0
LINE
8
BLACK
6
CONTINUOUS
10
119.813
20
-204.871
11
119.956
21
-205.156
0
LINE
8
BLACK
6
CONTINUOUS
10
119.956
20
-205.156
11
120.099
21
-205.299
0
LINE
8
BLACK
6
CONTINUOUS
10
120.099
20
-205.299
11
120.384
21
-205.442
0
LINE
8
BLACK
6
CONTINUOUS
10
120.384
20
-205.442
11
120.956
21
-205.442
0
LINE
8
BLACK
6
CONTINUOUS
10
120.956
20
-205.442
11
121.242
21
-205.299
0
LINE
8
BLACK
6
CONTINUOUS
10
121.242
20
-205.299
11
121.384
21
-205.156
0
LINE
8
BLACK
6
CONTINUOUS
10
121.384
20
-205.156
11
121.527
21
-204.871
0
LINE
8
BLACK
6
CONTINUOUS
10
121.527
20
-204.871
11
121.527
21
-204.156
0
LINE
8
BLACK
6
CONTINUOUS
10
121.527
20
-204.156
11
121.384
21
-203.871
0
LINE
8
BLACK
6
CONTINUOUS
10
121.384
20
-203.871
11
121.242
21
-203.728
0
LINE
8
BLACK
6
CONTINUOUS
10
121.242
20
-203.728
11
120.956
21
-203.585
0
LINE
8
BLACK
6
CONTINUOUS
10
120.956
20
-203.585
11
120.384
21
-203.585
0
LINE
8
BLACK
6
CONTINUOUS
10
120.384
20
-203.585
11
120.099
21
-203.728
0
LINE
8
BLACK
6
CONTINUOUS
10
120.099
20
-203.728
11
119.956
21
-203.871
0
LINE
8
BLACK
6
CONTINUOUS
10
119.956
20
-203.871
11
119.813
21
-204.156
0
LINE
8
BLACK
6
CONTINUOUS
10
124.956
20
-205.299
11
125.242
21
-205.442
0
LINE
8
BLACK
6
CONTINUOUS
10
125.242
20
-205.442
11
125.813
21
-205.442
0
LINE
8
BLACK
6
CONTINUOUS
10
125.813
20
-205.442
11
126.099
21
-205.299
0
LINE
8
BLACK
6
CONTINUOUS
10
126.099
20
-205.299
11
126.242
21
-205.014
0
LINE
8
BLACK
6
CONTINUOUS
10
126.242
20
-205.014
11
126.242
21
-204.871
0
LINE
8
BLACK
6
CONTINUOUS
10
126.242
20
-204.871
11
126.099
21
-204.585
0
LINE
8
BLACK
6
CONTINUOUS
10
126.099
20
-204.585
11
125.813
21
-204.442
0
LINE
8
BLACK
6
CONTINUOUS
10
125.813
20
-204.442
11
125.384
21
-204.442
0
LINE
8
BLACK
6
CONTINUOUS
10
125.384
20
-204.442
11
125.099
21
-204.299
0
LINE
8
BLACK
6
CONTINUOUS
10
125.099
20
-204.299
11
124.956
21
-204.014
0
LINE
8
BLACK
6
CONTINUOUS
10
124.956
20
-204.014
11
124.956
21
-203.871
0
LINE
8
BLACK
6
CONTINUOUS
10
124.956
20
-203.871
11
125.099
21
-203.585
0
LINE
8
BLACK
6
CONTINUOUS
10
125.099
20
-203.585
11
125.384
21
-203.442
0
LINE
8
BLACK
6
CONTINUOUS
10
125.384
20
-203.442
11
125.813
21
-203.442
0
LINE
8
BLACK
6
CONTINUOUS
10
125.813
20
-203.442
11
126.099
21
-203.585
0
LINE
8
BLACK
6
CONTINUOUS
10
127.956
20
-205.442
11
127.67
21
-205.299
0
LINE
8
BLACK
6
CONTINUOUS
10
127.67
20
-205.299
11
127.527
21
-205.014
0
LINE
8
BLACK
6
CONTINUOUS
10
127.527
20
-205.014
11
127.527
21
-202.442
0
LINE
8
BLACK
6
CONTINUOUS
10
129.527
20
-205.442
11
129.242
21
-205.299
0
LINE
8
BLACK
6
CONTINUOUS
10
129.242
20
-205.299
11
129.099
21
-205.156
0
LINE
8
BLACK
6
CONTINUOUS
10
129.099
20
-205.156
11
128.956
21
-204.871
0
LINE
8
BLACK
6
CONTINUOUS
10
128.956
20
-204.871
11
128.956
21
-204.014
0
LINE
8
BLACK
6
CONTINUOUS
10
128.956
20
-204.014
11
129.099
21
-203.728
0
LINE
8
BLACK
6
CONTINUOUS
10
129.099
20
-203.728
11
129.242
21
-203.585
0
LINE
8
BLACK
6
CONTINUOUS
10
129.242
20
-203.585
11
129.527
21
-203.442
0
LINE
8
BLACK
6
CONTINUOUS
10
129.527
20
-203.442
11
129.956
21
-203.442
0
LINE
8
BLACK
6
CONTINUOUS
10
129.956
20
-203.442
11
130.242
21
-203.585
0
LINE
8
BLACK
6
CONTINUOUS
10
130.242
20
-203.585
11
130.384
21
-203.728
0
LINE
8
BLACK
6
CONTINUOUS
10
130.384
20
-203.728
11
130.527
21
-204.014
0
LINE
8
BLACK
6
CONTINUOUS
10
130.527
20
-204.014
11
130.527
21
-204.871
0
LINE
8
BLACK
6
CONTINUOUS
10
130.527
20
-204.871
11
130.384
21
-205.156
0
LINE
8
BLACK
6
CONTINUOUS
10
130.384
20
-205.156
11
130.242
21
-205.299
0
LINE
8
BLACK
6
CONTINUOUS
10
130.242
20
-205.299
11
129.956
21
-205.442
0
LINE
8
BLACK
6
CONTINUOUS
10
129.956
20
-205.442
11
129.527
21
-205.442
0
LINE
8
BLACK
6
CONTINUOUS
10
131.384
20
-203.442
11
132.527
21
-203.442
0
LINE
8
BLACK
6
CONTINUOUS
10
131.813
20
-202.442
11
131.813
21
-205.014
0
LINE
8
BLACK
6
CONTINUOUS
10
131.813
20
-205.014
11
131.956
21
-205.299
0
LINE
8
BLACK
6
CONTINUOUS
10
131.956
20
-205.299
11
132.242
21
-205.442
0
LINE
8
BLACK
6
CONTINUOUS
10
132.242
20
-205.442
11
132.527
21
-205.442
0
LINE
8
BLACK
6
CONTINUOUS
10
133.384
20
-205.299
11
133.67
21
-205.442
0
LINE
8
BLACK
6
CONTINUOUS
10
133.67
20
-205.442
11
134.242
21
-205.442
0
LINE
8
BLACK
6
CONTINUOUS
10
134.242
20
-205.442
11
134.527
21
-205.299
0
LINE
8
BLACK
6
CONTINUOUS
10
134.527
20
-205.299
11
134.67
21
-205.014
0
LINE
8
BLACK
6
CONTINUOUS
10
134.67
20
-205.014
11
134.67
21
-204.871
0
LINE
8
BLACK
6
CONTINUOUS
10
134.67
20
-204.871
11
134.527
21
-204.585
0
LINE
8
BLACK
6
CONTINUOUS
10
134.527
20
-204.585
11
134.242
21
-204.442
0
LINE
8
BLACK
6
CONTINUOUS
10
134.242
20
-204.442
11
133.813
21
-204.442
0
LINE
8
BLACK
6
CONTINUOUS
10
133.813
20
-204.442
11
133.527
21
-204.299
0
LINE
8
BLACK
6
CONTINUOUS
10
133.527
20
-204.299
11
133.384
21
-204.014
0
LINE
8
BLACK
6
CONTINUOUS
10
133.384
20
-204.014
11
133.384
21
-203.871
0
LINE
8
BLACK
6
CONTINUOUS
10
133.384
20
-203.871
11
133.527
21
-203.585
0
LINE
8
BLACK
6
CONTINUOUS
10
133.527
20
-203.585
11
133.813
21
-203.442
0
LINE
8
BLACK
6
CONTINUOUS
10
133.813
20
-203.442
11
134.242
21
-203.442
0
LINE
8
BLACK
6
CONTINUOUS
10
134.242
20
-203.442
11
134.527
21
-203.585
0
LINE
8
BLACK
6
CONTINUOUS
10
135.67
20
-206.585
11
135.813
21
-206.442
0
LINE
8
BLACK
6
CONTINUOUS
10
135.813
20
-206.442
11
136.099
21
-206.014
0
LINE
8
BLACK
6
CONTINUOUS
10
136.099
20
-206.014
11
136.242
21
-205.728
0
LINE
8
BLACK
6
CONTINUOUS
10
136.242
20
-205.728
11
136.384
21
-205.299
0
LINE
8
BLACK
6
CONTINUOUS
10
136.384
20
-205.299
11
136.527
21
-204.585
0
LINE
8
BLACK
6
CONTINUOUS
10
136.527
20
-204.585
11
136.527
21
-204.014
0
LINE
8
BLACK
6
CONTINUOUS
10
136.527
20
-204.014
11
136.384
21
-203.299
0
LINE
8
BLACK
6
CONTINUOUS
10
136.384
20
-203.299
11
136.242
21
-202.871
0
LINE
8
BLACK
6
CONTINUOUS
10
136.242
20
-202.871
11
136.099
21
-202.585
0
LINE
8
BLACK
6
CONTINUOUS
10
136.099
20
-202.585
11
135.813
21
-202.156
0
LINE
8
BLACK
6
CONTINUOUS
10
135.813
20
-202.156
11
135.67
21
-202.014
0
LINE
8
BLACK
6
CONTINUOUS
10
43.163
20
-207.545
11
43.163
21
-208.545
0
LINE
8
BLACK
6
CONTINUOUS
10
42.663
20
-208.045
11
43.663
21
-208.045
0
LINE
8
BLACK
6
CONTINUOUS
10
48.0987
20
-209.402
11
46.3844
21
-209.402
0
LINE
8
BLACK
6
CONTINUOUS
10
47.2416
20
-209.402
11
47.2416
21
-206.402
0
LINE
8
BLACK
6
CONTINUOUS
10
47.2416
20
-206.402
11
46.9559
21
-206.831
0
LINE
8
BLACK
6
CONTINUOUS
10
46.9559
20
-206.831
11
46.6701
21
-207.116
0
LINE
8
BLACK
6
CONTINUOUS
10
46.6701
20
-207.116
11
46.3844
21
-207.259
0
LINE
8
BLACK
6
CONTINUOUS
10
49.3844
20
-209.116
11
49.5273
21
-209.259
0
LINE
8
BLACK
6
CONTINUOUS
10
49.5273
20
-209.259
11
49.3844
21
-209.402
0
LINE
8
BLACK
6
CONTINUOUS
10
49.3844
20
-209.402
11
49.2416
21
-209.259
0
LINE
8
BLACK
6
CONTINUOUS
10
49.2416
20
-209.259
11
49.3844
21
-209.116
0
LINE
8
BLACK
6
CONTINUOUS
10
49.3844
20
-209.116
11
49.3844
21
-209.402
0
LINE
8
BLACK
6
CONTINUOUS
10
51.3844
20
-206.402
11
51.6701
21
-206.402
0
LINE
8
BLACK
6
CONTINUOUS
10
51.6701
20
-206.402
11
51.9559
21
-206.545
0
LINE
8
BLACK
6
CONTINUOUS
10
51.9559
20
-206.545
11
52.0987
21
-206.688
0
LINE
8
BLACK
6
CONTINUOUS
10
52.0987
20
-206.688
11
52.2416
21
-206.974
0
LINE
8
BLACK
6
CONTINUOUS
10
52.2416
20
-206.974
11
52.3844
21
-207.545
0
LINE
8
BLACK
6
CONTINUOUS
10
52.3844
20
-207.545
11
52.3844
21
-208.259
0
LINE
8
BLACK
6
CONTINUOUS
10
52.3844
20
-208.259
11
52.2416
21
-208.831
0
LINE
8
BLACK
6
CONTINUOUS
10
52.2416
20
-208.831
11
52.0987
21
-209.116
0
LINE
8
BLACK
6
CONTINUOUS
10
52.0987
20
-209.116
11
51.9559
21
-209.259
0
LINE
8
BLACK
6
CONTINUOUS
10
51.9559
20
-209.259
11
51.6701
21
-209.402
0
LINE
8
BLACK
6
CONTINUOUS
10
51.6701
20
-209.402
11
51.3844
21
-209.402
0
LINE
8
BLACK
6
CONTINUOUS
10
51.3844
20
-209.402
11
51.0987
21
-209.259
0
LINE
8
BLACK
6
CONTINUOUS
10
51.0987
20
-209.259
11
50.9559
21
-209.116
0
LINE
8
BLACK
6
CONTINUOUS
10
50.9559
20
-209.116
11
50.813
21
-208.831
0
LINE
8
BLACK
6
CONTINUOUS
10
50.813
20
-208.831
11
50.6701
21
-208.259
0
LINE
8
BLACK
6
CONTINUOUS
10
50.6701
20
-208.259
11
50.6701
21
-207.545
0
LINE
8
BLACK
6
CONTINUOUS
10
50.6701
20
-207.545
11
50.813
21
-206.974
0
LINE
8
BLACK
6
CONTINUOUS
10
50.813
20
-206.974
11
50.9559
21
-206.688
0
LINE
8
BLACK
6
CONTINUOUS
10
50.9559
20
-206.688
11
51.0987
21
-206.545
0
LINE
8
BLACK
6
CONTINUOUS
10
51.0987
20
-206.545
11
51.3844
21
-206.402
0
LINE
8
BLACK
6
CONTINUOUS
10
54.2416
20
-206.402
11
54.5273
21
-206.402
0
LINE
8
BLACK
6
CONTINUOUS
10
54.5273
20
-206.402
11
54.813
21
-206.545
0
LINE
8
BLACK
6
CONTINUOUS
10
54.813
20
-206.545
11
54.9559
21
-206.688
0
LINE
8
BLACK
6
CONTINUOUS
10
54.9559
20
-206.688
11
55.0987
21
-206.974
0
LINE
8
BLACK
6
CONTINUOUS
10
55.0987
20
-206.974
11
55.2416
21
-207.545
0
LINE
8
BLACK
6
CONTINUOUS
10
55.2416
20
-207.545
11
55.2416
21
-208.259
0
LINE
8
BLACK
6
CONTINUOUS
10
55.2416
20
-208.259
11
55.0987
21
-208.831
0
LINE
8
BLACK
6
CONTINUOUS
10
55.0987
20
-208.831
11
54.9559
21
-209.116
0
LINE
8
BLACK
6
CONTINUOUS
10
54.9559
20
-209.116
11
54.813
21
-209.259
0
LINE
8
BLACK
6
CONTINUOUS
10
54.813
20
-209.259
11
54.5273
21
-209.402
0
LINE
8
BLACK
6
CONTINUOUS
10
54.5273
20
-209.402
11
54.2416
21
-209.402
0
LINE
8
BLACK
6
CONTINUOUS
10
54.2416
20
-209.402
11
53.9559
21
-209.259
0
LINE
8
BLACK
6
CONTINUOUS
10
53.9559
20
-209.259
11
53.813
21
-209.116
0
LINE
8
BLACK
6
CONTINUOUS
10
53.813
20
-209.116
11
53.6701
21
-208.831
0
LINE
8
BLACK
6
CONTINUOUS
10
53.6701
20
-208.831
11
53.5273
21
-208.259
0
LINE
8
BLACK
6
CONTINUOUS
10
53.5273
20
-208.259
11
53.5273
21
-207.545
0
LINE
8
BLACK
6
CONTINUOUS
10
53.5273
20
-207.545
11
53.6701
21
-206.974
0
LINE
8
BLACK
6
CONTINUOUS
10
53.6701
20
-206.974
11
53.813
21
-206.688
0
LINE
8
BLACK
6
CONTINUOUS
10
53.813
20
-206.688
11
53.9559
21
-206.545
0
LINE
8
BLACK
6
CONTINUOUS
10
53.9559
20
-206.545
11
54.2416
21
-206.402
0
LINE
8
BLACK
6
CONTINUOUS
10
56.5273
20
-209.402
11
56.5273
21
-207.402
0
LINE
8
BLACK
6
CONTINUOUS
10
56.5273
20
-207.688
11
56.6701
21
-207.545
0
LINE
8
BLACK
6
CONTINUOUS
10
56.6701
20
-207.545
11
56.9559
21
-207.402
0
LINE
8
BLACK
6
CONTINUOUS
10
56.9559
20
-207.402
11
57.3844
21
-207.402
0
LINE
8
BLACK
6
CONTINUOUS
10
57.3844
20
-207.402
11
57.6701
21
-207.545
0
LINE
8
BLACK
6
CONTINUOUS
10
57.6701
20
-207.545
11
57.813
21
-207.831
0
LINE
8
BLACK
6
CONTINUOUS
10
57.813
20
-207.831
11
57.813
21
-209.402
0
LINE
8
BLACK
6
CONTINUOUS
10
57.813
20
-207.831
11
57.9559
21
-207.545
0
LINE
8
BLACK
6
CONTINUOUS
10
57.9559
20
-207.545
11
58.2416
21
-207.402
0
LINE
8
BLACK
6
CONTINUOUS
10
58.2416
20
-207.402
11
58.6701
21
-207.402
0
LINE
8
BLACK
6
CONTINUOUS
10
58.6701
20
-207.402
11
58.9559
21
-207.545
0
LINE
8
BLACK
6
CONTINUOUS
10
58.9559
20
-207.545
11
59.0987
21
-207.831
0
LINE
8
BLACK
6
CONTINUOUS
10
59.0987
20
-207.831
11
59.0987
21
-209.402
0
LINE
8
BLACK
6
CONTINUOUS
10
60.5273
20
-209.402
11
60.5273
21
-207.402
0
LINE
8
BLACK
6
CONTINUOUS
10
60.5273
20
-207.688
11
60.6701
21
-207.545
0
LINE
8
BLACK
6
CONTINUOUS
10
60.6701
20
-207.545
11
60.9559
21
-207.402
0
LINE
8
BLACK
6
CONTINUOUS
10
60.9559
20
-207.402
11
61.3844
21
-207.402
0
LINE
8
BLACK
6
CONTINUOUS
10
61.3844
20
-207.402
11
61.6701
21
-207.545
0
LINE
8
BLACK
6
CONTINUOUS
10
61.6701
20
-207.545
11
61.813
21
-207.831
0
LINE
8
BLACK
6
CONTINUOUS
10
61.813
20
-207.831
11
61.813
21
-209.402
0
LINE
8
BLACK
6
CONTINUOUS
10
61.813
20
-207.831
11
61.9559
21
-207.545
0
LINE
8
BLACK
6
CONTINUOUS
10
61.9559
20
-207.545
11
62.2416
21
-207.402
0
LINE
8
BLACK
6
CONTINUOUS
10
62.2416
20
-207.402
11
62.6701
21
-207.402
0
LINE
8
BLACK
6
CONTINUOUS
10
62.6701
20
-207.402
11
62.9559
21
-207.545
0
LINE
8
BLACK
6
CONTINUOUS
10
62.9559
20
-207.545
11
63.0987
21
-207.831
0
LINE
8
BLACK
6
CONTINUOUS
10
63.0987
20
-207.831
11
63.0987
21
-209.402
0
LINE
8
BLACK
6
CONTINUOUS
10
68.9559
20
-206.259
11
66.3844
21
-210.116
0
LINE
8
BLACK
6
CONTINUOUS
10
72.813
20
-206.402
11
73.0987
21
-206.402
0
LINE
8
BLACK
6
CONTINUOUS
10
73.0987
20
-206.402
11
73.3844
21
-206.545
0
LINE
8
BLACK
6
CONTINUOUS
10
73.3844
20
-206.545
11
73.5273
21
-206.688
0
LINE
8
BLACK
6
CONTINUOUS
10
73.5273
20
-206.688
11
73.6701
21
-206.974
0
LINE
8
BLACK
6
CONTINUOUS
10
73.6701
20
-206.974
11
73.813
21
-207.545
0
LINE
8
BLACK
6
CONTINUOUS
10
73.813
20
-207.545
11
73.813
21
-208.259
0
LINE
8
BLACK
6
CONTINUOUS
10
73.813
20
-208.259
11
73.6701
21
-208.831
0
LINE
8
BLACK
6
CONTINUOUS
10
73.6701
20
-208.831
11
73.5273
21
-209.116
0
LINE
8
BLACK
6
CONTINUOUS
10
73.5273
20
-209.116
11
73.3844
21
-209.259
0
LINE
8
BLACK
6
CONTINUOUS
10
73.3844
20
-209.259
11
73.0987
21
-209.402
0
LINE
8
BLACK
6
CONTINUOUS
10
73.0987
20
-209.402
11
72.813
21
-209.402
0
LINE
8
BLACK
6
CONTINUOUS
10
72.813
20
-209.402
11
72.5273
21
-209.259
0
LINE
8
BLACK
6
CONTINUOUS
10
72.5273
20
-209.259
11
72.3844
21
-209.116
0
LINE
8
BLACK
6
CONTINUOUS
10
72.3844
20
-209.116
11
72.2416
21
-208.831
0
LINE
8
BLACK
6
CONTINUOUS
10
72.2416
20
-208.831
11
72.0987
21
-208.259
0
LINE
8
BLACK
6
CONTINUOUS
10
72.0987
20
-208.259
11
72.0987
21
-207.545
0
LINE
8
BLACK
6
CONTINUOUS
10
72.0987
20
-207.545
11
72.2416
21
-206.974
0
LINE
8
BLACK
6
CONTINUOUS
10
72.2416
20
-206.974
11
72.3844
21
-206.688
0
LINE
8
BLACK
6
CONTINUOUS
10
72.3844
20
-206.688
11
72.5273
21
-206.545
0
LINE
8
BLACK
6
CONTINUOUS
10
72.5273
20
-206.545
11
72.813
21
-206.402
0
LINE
8
BLACK
6
CONTINUOUS
10
75.0987
20
-209.116
11
75.2416
21
-209.259
0
LINE
8
BLACK
6
CONTINUOUS
10
75.2416
20
-209.259
11
75.0987
21
-209.402
0
LINE
8
BLACK
6
CONTINUOUS
10
75.0987
20
-209.402
11
74.9559
21
-209.259
0
LINE
8
BLACK
6
CONTINUOUS
10
74.9559
20
-209.259
11
75.0987
21
-209.116
0
LINE
8
BLACK
6
CONTINUOUS
10
75.0987
20
-209.116
11
75.0987
21
-209.402
0
LINE
8
BLACK
6
CONTINUOUS
10
77.0987
20
-206.402
11
77.3844
21
-206.402
0
LINE
8
BLACK
6
CONTINUOUS
10
77.3844
20
-206.402
11
77.6701
21
-206.545
0
LINE
8
BLACK
6
CONTINUOUS
10
77.6701
20
-206.545
11
77.813
21
-206.688
0
LINE
8
BLACK
6
CONTINUOUS
10
77.813
20
-206.688
11
77.9559
21
-206.974
0
LINE
8
BLACK
6
CONTINUOUS
10
77.9559
20
-206.974
11
78.0987
21
-207.545
0
LINE
8
BLACK
6
CONTINUOUS
10
78.0987
20
-207.545
11
78.0987
21
-208.259
0
LINE
8
BLACK
6
CONTINUOUS
10
78.0987
20
-208.259
11
77.9559
21
-208.831
0
LINE
8
BLACK
6
CONTINUOUS
10
77.9559
20
-208.831
11
77.813
21
-209.116
0
LINE
8
BLACK
6
CONTINUOUS
10
77.813
20
-209.116
11
77.6701
21
-209.259
0
LINE
8
BLACK
6
CONTINUOUS
10
77.6701
20
-209.259
11
77.3844
21
-209.402
0
LINE
8
BLACK
6
CONTINUOUS
10
77.3844
20
-209.402
11
77.0987
21
-209.402
0
LINE
8
BLACK
6
CONTINUOUS
10
77.0987
20
-209.402
11
76.813
21
-209.259
0
LINE
8
BLACK
6
CONTINUOUS
10
76.813
20
-209.259
11
76.6701
21
-209.116
0
LINE
8
BLACK
6
CONTINUOUS
10
76.6701
20
-209.116
11
76.5273
21
-208.831
0
LINE
8
BLACK
6
CONTINUOUS
10
76.5273
20
-208.831
11
76.3844
21
-208.259
0
LINE
8
BLACK
6
CONTINUOUS
10
76.3844
20
-208.259
11
76.3844
21
-207.545
0
LINE
8
BLACK
6
CONTINUOUS
10
76.3844
20
-207.545
11
76.5273
21
-206.974
0
LINE
8
BLACK
6
CONTINUOUS
10
76.5273
20
-206.974
11
76.6701
21
-206.688
0
LINE
8
BLACK
6
CONTINUOUS
10
76.6701
20
-206.688
11
76.813
21
-206.545
0
LINE
8
BLACK
6
CONTINUOUS
10
76.813
20
-206.545
11
77.0987
21
-206.402
0
LINE
8
BLACK
6
CONTINUOUS
10
79.0987
20
-206.402
11
80.9559
21
-206.402
0
LINE
8
BLACK
6
CONTINUOUS
10
80.9559
20
-206.402
11
79.9559
21
-207.545
0
LINE
8
BLACK
6
CONTINUOUS
10
79.9559
20
-207.545
11
80.3844
21
-207.545
0
LINE
8
BLACK
6
CONTINUOUS
10
80.3844
20
-207.545
11
80.6701
21
-207.688
0
LINE
8
BLACK
6
CONTINUOUS
10
80.6701
20
-207.688
11
80.813
21
-207.831
0
LINE
8
BLACK
6
CONTINUOUS
10
80.813
20
-207.831
11
80.9559
21
-208.116
0
LINE
8
BLACK
6
CONTINUOUS
10
80.9559
20
-208.116
11
80.9559
21
-208.831
0
LINE
8
BLACK
6
CONTINUOUS
10
80.9559
20
-208.831
11
80.813
21
-209.116
0
LINE
8
BLACK
6
CONTINUOUS
10
80.813
20
-209.116
11
80.6701
21
-209.259
0
LINE
8
BLACK
6
CONTINUOUS
10
80.6701
20
-209.259
11
80.3844
21
-209.402
0
LINE
8
BLACK
6
CONTINUOUS
10
80.3844
20
-209.402
11
79.5273
21
-209.402
0
LINE
8
BLACK
6
CONTINUOUS
10
79.5273
20
-209.402
11
79.2416
21
-209.259
0
LINE
8
BLACK
6
CONTINUOUS
10
79.2416
20
-209.259
11
79.0987
21
-209.116
0
LINE
8
BLACK
6
CONTINUOUS
10
82.3844
20
-209.402
11
82.9559
21
-209.402
0
LINE
8
BLACK
6
CONTINUOUS
10
82.9559
20
-209.402
11
83.2416
21
-209.259
0
LINE
8
BLACK
6
CONTINUOUS
10
83.2416
20
-209.259
11
83.3844
21
-209.116
0
LINE
8
BLACK
6
CONTINUOUS
10
83.3844
20
-209.116
11
83.6701
21
-208.688
0
LINE
8
BLACK
6
CONTINUOUS
10
83.6701
20
-208.688
11
83.813
21
-208.116
0
LINE
8
BLACK
6
CONTINUOUS
10
83.813
20
-208.116
11
83.813
21
-206.974
0
LINE
8
BLACK
6
CONTINUOUS
10
83.813
20
-206.974
11
83.6701
21
-206.688
0
LINE
8
BLACK
6
CONTINUOUS
10
83.6701
20
-206.688
11
83.5273
21
-206.545
0
LINE
8
BLACK
6
CONTINUOUS
10
83.5273
20
-206.545
11
83.2416
21
-206.402
0
LINE
8
BLACK
6
CONTINUOUS
10
83.2416
20
-206.402
11
82.6701
21
-206.402
0
LINE
8
BLACK
6
CONTINUOUS
10
82.6701
20
-206.402
11
82.3844
21
-206.545
0
LINE
8
BLACK
6
CONTINUOUS
10
82.3844
20
-206.545
11
82.2416
21
-206.688
0
LINE
8
BLACK
6
CONTINUOUS
10
82.2416
20
-206.688
11
82.0987
21
-206.974
0
LINE
8
BLACK
6
CONTINUOUS
10
82.0987
20
-206.974
11
82.0987
21
-207.688
0
LINE
8
BLACK
6
CONTINUOUS
10
82.0987
20
-207.688
11
82.2416
21
-207.974
0
LINE
8
BLACK
6
CONTINUOUS
10
82.2416
20
-207.974
11
82.3844
21
-208.116
0
LINE
8
BLACK
6
CONTINUOUS
10
82.3844
20
-208.116
11
82.6701
21
-208.259
0
LINE
8
BLACK
6
CONTINUOUS
10
82.6701
20
-208.259
11
83.2416
21
-208.259
0
LINE
8
BLACK
6
CONTINUOUS
10
83.2416
20
-208.259
11
83.5273
21
-208.116
0
LINE
8
BLACK
6
CONTINUOUS
10
83.5273
20
-208.116
11
83.6701
21
-207.974
0
LINE
8
BLACK
6
CONTINUOUS
10
83.6701
20
-207.974
11
83.813
21
-207.688
0
LINE
8
BLACK
6
CONTINUOUS
10
84.9559
20
-206.402
11
84.9559
21
-206.974
0
LINE
8
BLACK
6
CONTINUOUS
10
86.0987
20
-206.402
11
86.0987
21
-206.974
0
LINE
8
BLACK
6
CONTINUOUS
10
90.5273
20
-210.545
11
90.3844
21
-210.402
0
LINE
8
BLACK
6
CONTINUOUS
10
90.3844
20
-210.402
11
90.0987
21
-209.974
0
LINE
8
BLACK
6
CONTINUOUS
10
90.0987
20
-209.974
11
89.9559
21
-209.688
0
LINE
8
BLACK
6
CONTINUOUS
10
89.9559
20
-209.688
11
89.813
21
-209.259
0
LINE
8
BLACK
6
CONTINUOUS
10
89.813
20
-209.259
11
89.6701
21
-208.545
0
LINE
8
BLACK
6
CONTINUOUS
10
89.6701
20
-208.545
11
89.6701
21
-207.974
0
LINE
8
BLACK
6
CONTINUOUS
10
89.6701
20
-207.974
11
89.813
21
-207.259
0
LINE
8
BLACK
6
CONTINUOUS
10
89.813
20
-207.259
11
89.9559
21
-206.831
0
LINE
8
BLACK
6
CONTINUOUS
10
89.9559
20
-206.831
11
90.0987
21
-206.545
0
LINE
8
BLACK
6
CONTINUOUS
10
90.0987
20
-206.545
11
90.3844
21
-206.116
0
LINE
8
BLACK
6
CONTINUOUS
10
90.3844
20
-206.116
11
90.5273
21
-205.974
0
LINE
8
BLACK
6
CONTINUOUS
10
91.813
20
-209.402
11
92.3844
21
-209.402
0
LINE
8
BLACK
6
CONTINUOUS
10
92.3844
20
-209.402
11
92.6701
21
-209.259
0
LINE
8
BLACK
6
CONTINUOUS
10
92.6701
20
-209.259
11
92.813
21
-209.116
0
LINE
8
BLACK
6
CONTINUOUS
10
92.813
20
-209.116
11
93.0987
21
-208.688
0
LINE
8
BLACK
6
CONTINUOUS
10
93.0987
20
-208.688
11
93.2416
21
-208.116
0
LINE
8
BLACK
6
CONTINUOUS
10
93.2416
20
-208.116
11
93.2416
21
-206.974
0
LINE
8
BLACK
6
CONTINUOUS
10
93.2416
20
-206.974
11
93.0987
21
-206.688
0
LINE
8
BLACK
6
CONTINUOUS
10
93.0987
20
-206.688
11
92.9559
21
-206.545
0
LINE
8
BLACK
6
CONTINUOUS
10
92.9559
20
-206.545
11
92.6701
21
-206.402
0
LINE
8
BLACK
6
CONTINUOUS
10
92.6701
20
-206.402
11
92.0987
21
-206.402
0
LINE
8
BLACK
6
CONTINUOUS
10
92.0987
20
-206.402
11
91.813
21
-206.545
0
LINE
8
BLACK
6
CONTINUOUS
10
91.813
20
-206.545
11
91.6701
21
-206.688
0
LINE
8
BLACK
6
CONTINUOUS
10
91.6701
20
-206.688
11
91.5273
21
-206.974
0
LINE
8
BLACK
6
CONTINUOUS
10
91.5273
20
-206.974
11
91.5273
21
-207.688
0
LINE
8
BLACK
6
CONTINUOUS
10
91.5273
20
-207.688
11
91.6701
21
-207.974
0
LINE
8
BLACK
6
CONTINUOUS
10
91.6701
20
-207.974
11
91.813
21
-208.116
0
LINE
8
BLACK
6
CONTINUOUS
10
91.813
20
-208.116
11
92.0987
21
-208.259
0
LINE
8
BLACK
6
CONTINUOUS
10
92.0987
20
-208.259
11
92.6701
21
-208.259
0
LINE
8
BLACK
6
CONTINUOUS
10
92.6701
20
-208.259
11
92.9559
21
-208.116
0
LINE
8
BLACK
6
CONTINUOUS
10
92.9559
20
-208.116
11
93.0987
21
-207.974
0
LINE
8
BLACK
6
CONTINUOUS
10
93.0987
20
-207.974
11
93.2416
21
-207.688
0
LINE
8
BLACK
6
CONTINUOUS
10
96.813
20
-209.402
11
96.813
21
-206.402
0
LINE
8
BLACK
6
CONTINUOUS
10
98.0987
20
-209.402
11
98.0987
21
-207.831
0
LINE
8
BLACK
6
CONTINUOUS
10
98.0987
20
-207.831
11
97.9559
21
-207.545
0
LINE
8
BLACK
6
CONTINUOUS
10
97.9559
20
-207.545
11
97.6701
21
-207.402
0
LINE
8
BLACK
6
CONTINUOUS
10
97.6701
20
-207.402
11
97.2416
21
-207.402
0
LINE
8
BLACK
6
CONTINUOUS
10
97.2416
20
-207.402
11
96.9559
21
-207.545
0
LINE
8
BLACK
6
CONTINUOUS
10
96.9559
20
-207.545
11
96.813
21
-207.688
0
LINE
8
BLACK
6
CONTINUOUS
10
99.9559
20
-209.402
11
99.6701
21
-209.259
0
LINE
8
BLACK
6
CONTINUOUS
10
99.6701
20
-209.259
11
99.5273
21
-209.116
0
LINE
8
BLACK
6
CONTINUOUS
10
99.5273
20
-209.116
11
99.3844
21
-208.831
0
LINE
8
BLACK
6
CONTINUOUS
10
99.3844
20
-208.831
11
99.3844
21
-207.974
0
LINE
8
BLACK
6
CONTINUOUS
10
99.3844
20
-207.974
11
99.5273
21
-207.688
0
LINE
8
BLACK
6
CONTINUOUS
10
99.5273
20
-207.688
11
99.6701
21
-207.545
0
LINE
8
BLACK
6
CONTINUOUS
10
99.6701
20
-207.545
11
99.9559
21
-207.402
0
LINE
8
BLACK
6
CONTINUOUS
10
99.9559
20
-207.402
11
100.384
21
-207.402
0
LINE
8
BLACK
6
CONTINUOUS
10
100.384
20
-207.402
11
100.67
21
-207.545
0
LINE
8
BLACK
6
CONTINUOUS
10
100.67
20
-207.545
11
100.813
21
-207.688
0
LINE
8
BLACK
6
CONTINUOUS
10
100.813
20
-207.688
11
100.956
21
-207.974
0
LINE
8
BLACK
6
CONTINUOUS
10
100.956
20
-207.974
11
100.956
21
-208.831
0
LINE
8
BLACK
6
CONTINUOUS
10
100.956
20
-208.831
11
100.813
21
-209.116
0
LINE
8
BLACK
6
CONTINUOUS
10
100.813
20
-209.116
11
100.67
21
-209.259
0
LINE
8
BLACK
6
CONTINUOUS
10
100.67
20
-209.259
11
100.384
21
-209.402
0
LINE
8
BLACK
6
CONTINUOUS
10
100.384
20
-209.402
11
99.9559
21
-209.402
0
LINE
8
BLACK
6
CONTINUOUS
10
102.67
20
-209.402
11
102.384
21
-209.259
0
LINE
8
BLACK
6
CONTINUOUS
10
102.384
20
-209.259
11
102.242
21
-208.974
0
LINE
8
BLACK
6
CONTINUOUS
10
102.242
20
-208.974
11
102.242
21
-206.402
0
LINE
8
BLACK
6
CONTINUOUS
10
104.956
20
-209.259
11
104.67
21
-209.402
0
LINE
8
BLACK
6
CONTINUOUS
10
104.67
20
-209.402
11
104.099
21
-209.402
0
LINE
8
BLACK
6
CONTINUOUS
10
104.099
20
-209.402
11
103.813
21
-209.259
0
LINE
8
BLACK
6
CONTINUOUS
10
103.813
20
-209.259
11
103.67
21
-208.974
0
LINE
8
BLACK
6
CONTINUOUS
10
103.67
20
-208.974
11
103.67
21
-207.831
0
LINE
8
BLACK
6
CONTINUOUS
10
103.67
20
-207.831
11
103.813
21
-207.545
0
LINE
8
BLACK
6
CONTINUOUS
10
103.813
20
-207.545
11
104.099
21
-207.402
0
LINE
8
BLACK
6
CONTINUOUS
10
104.099
20
-207.402
11
104.67
21
-207.402
0
LINE
8
BLACK
6
CONTINUOUS
10
104.67
20
-207.402
11
104.956
21
-207.545
0
LINE
8
BLACK
6
CONTINUOUS
10
104.956
20
-207.545
11
105.099
21
-207.831
0
LINE
8
BLACK
6
CONTINUOUS
10
105.099
20
-207.831
11
105.099
21
-208.116
0
LINE
8
BLACK
6
CONTINUOUS
10
105.099
20
-208.116
11
103.67
21
-208.402
0
LINE
8
BLACK
6
CONTINUOUS
10
106.242
20
-209.259
11
106.527
21
-209.402
0
LINE
8
BLACK
6
CONTINUOUS
10
106.527
20
-209.402
11
107.099
21
-209.402
0
LINE
8
BLACK
6
CONTINUOUS
10
107.099
20
-209.402
11
107.384
21
-209.259
0
LINE
8
BLACK
6
CONTINUOUS
10
107.384
20
-209.259
11
107.527
21
-208.974
0
LINE
8
BLACK
6
CONTINUOUS
10
107.527
20
-208.974
11
107.527
21
-208.831
0
LINE
8
BLACK
6
CONTINUOUS
10
107.527
20
-208.831
11
107.384
21
-208.545
0
LINE
8
BLACK
6
CONTINUOUS
10
107.384
20
-208.545
11
107.099
21
-208.402
0
LINE
8
BLACK
6
CONTINUOUS
10
107.099
20
-208.402
11
106.67
21
-208.402
0
LINE
8
BLACK
6
CONTINUOUS
10
106.67
20
-208.402
11
106.384
21
-208.259
0
LINE
8
BLACK
6
CONTINUOUS
10
106.384
20
-208.259
11
106.242
21
-207.974
0
LINE
8
BLACK
6
CONTINUOUS
10
106.242
20
-207.974
11
106.242
21
-207.831
0
LINE
8
BLACK
6
CONTINUOUS
10
106.242
20
-207.831
11
106.384
21
-207.545
0
LINE
8
BLACK
6
CONTINUOUS
10
106.384
20
-207.545
11
106.67
21
-207.402
0
LINE
8
BLACK
6
CONTINUOUS
10
106.67
20
-207.402
11
107.099
21
-207.402
0
LINE
8
BLACK
6
CONTINUOUS
10
107.099
20
-207.402
11
107.384
21
-207.545
0
LINE
8
BLACK
6
CONTINUOUS
10
108.527
20
-210.545
11
108.67
21
-210.402
0
LINE
8
BLACK
6
CONTINUOUS
10
108.67
20
-210.402
11
108.956
21
-209.974
0
LINE
8
BLACK
6
CONTINUOUS
10
108.956
20
-209.974
11
109.099
21
-209.688
0
LINE
8
BLACK
6
CONTINUOUS
10
109.099
20
-209.688
11
109.242
21
-209.259
0
LINE
8
BLACK
6
CONTINUOUS
10
109.242
20
-209.259
11
109.384
21
-208.545
0
LINE
8
BLACK
6
CONTINUOUS
10
109.384
20
-208.545
11
109.384
21
-207.974
0
LINE
8
BLACK
6
CONTINUOUS
10
109.384
20
-207.974
11
109.242
21
-207.259
0
LINE
8
BLACK
6
CONTINUOUS
10
109.242
20
-207.259
11
109.099
21
-206.831
0
LINE
8
BLACK
6
CONTINUOUS
10
109.099
20
-206.831
11
108.956
21
-206.545
0
LINE
8
BLACK
6
CONTINUOUS
10
108.956
20
-206.545
11
108.67
21
-206.116
0
LINE
8
BLACK
6
CONTINUOUS
10
108.67
20
-206.116
11
108.527
21
-205.974
0
LINE
8
BLACK
6
CONTINUOUS
10
43.4433
20
-212.535
11
43.4433
21
-211.475
0
LINE
8
BLACK
6
CONTINUOUS
10
43.4433
20
-211.475
11
42.3827
21
-211.475
0
LINE
8
BLACK
6
CONTINUOUS
10
42.3827
20
-211.475
11
42.3827
21
-212.535
0
LINE
8
BLACK
6
CONTINUOUS
10
42.3827
20
-212.535
11
43.4433
21
-212.535
0
LINE
8
BLACK
6
CONTINUOUS
10
48.0987
20
-213.362
11
46.3844
21
-213.362
0
LINE
8
BLACK
6
CONTINUOUS
10
47.2416
20
-213.362
11
47.2416
21
-210.362
0
LINE
8
BLACK
6
CONTINUOUS
10
47.2416
20
-210.362
11
46.9559
21
-210.791
0
LINE
8
BLACK
6
CONTINUOUS
10
46.9559
20
-210.791
11
46.6701
21
-211.076
0
LINE
8
BLACK
6
CONTINUOUS
10
46.6701
20
-211.076
11
46.3844
21
-211.219
0
LINE
8
BLACK
6
CONTINUOUS
10
49.3844
20
-213.076
11
49.5273
21
-213.219
0
LINE
8
BLACK
6
CONTINUOUS
10
49.5273
20
-213.219
11
49.3844
21
-213.362
0
LINE
8
BLACK
6
CONTINUOUS
10
49.3844
20
-213.362
11
49.2416
21
-213.219
0
LINE
8
BLACK
6
CONTINUOUS
10
49.2416
20
-213.219
11
49.3844
21
-213.076
0
LINE
8
BLACK
6
CONTINUOUS
10
49.3844
20
-213.076
11
49.3844
21
-213.362
0
LINE
8
BLACK
6
CONTINUOUS
10
52.2416
20
-210.362
11
50.813
21
-210.362
0
LINE
8
BLACK
6
CONTINUOUS
10
50.813
20
-210.362
11
50.6701
21
-211.791
0
LINE
8
BLACK
6
CONTINUOUS
10
50.6701
20
-211.791
11
50.813
21
-211.648
0
LINE
8
BLACK
6
CONTINUOUS
10
50.813
20
-211.648
11
51.0987
21
-211.505
0
LINE
8
BLACK
6
CONTINUOUS
10
51.0987
20
-211.505
11
51.813
21
-211.505
0
LINE
8
BLACK
6
CONTINUOUS
10
51.813
20
-211.505
11
52.0987
21
-211.648
0
LINE
8
BLACK
6
CONTINUOUS
10
52.0987
20
-211.648
11
52.2416
21
-211.791
0
LINE
8
BLACK
6
CONTINUOUS
10
52.2416
20
-211.791
11
52.3844
21
-212.076
0
LINE
8
BLACK
6
CONTINUOUS
10
52.3844
20
-212.076
11
52.3844
21
-212.791
0
LINE
8
BLACK
6
CONTINUOUS
10
52.3844
20
-212.791
11
52.2416
21
-213.076
0
LINE
8
BLACK
6
CONTINUOUS
10
52.2416
20
-213.076
11
52.0987
21
-213.219
0
LINE
8
BLACK
6
CONTINUOUS
10
52.0987
20
-213.219
11
51.813
21
-213.362
0
LINE
8
BLACK
6
CONTINUOUS
10
51.813
20
-213.362
11
51.0987
21
-213.362
0
LINE
8
BLACK
6
CONTINUOUS
10
51.0987
20
-213.362
11
50.813
21
-213.219
0
LINE
8
BLACK
6
CONTINUOUS
10
50.813
20
-213.219
11
50.6701
21
-213.076
0
LINE
8
BLACK
6
CONTINUOUS
10
54.2416
20
-210.362
11
54.5273
21
-210.362
0
LINE
8
BLACK
6
CONTINUOUS
10
54.5273
20
-210.362
11
54.813
21
-210.505
0
LINE
8
BLACK
6
CONTINUOUS
10
54.813
20
-210.505
11
54.9559
21
-210.648
0
LINE
8
BLACK
6
CONTINUOUS
10
54.9559
20
-210.648
11
55.0987
21
-210.934
0
LINE
8
BLACK
6
CONTINUOUS
10
55.0987
20
-210.934
11
55.2416
21
-211.505
0
LINE
8
BLACK
6
CONTINUOUS
10
55.2416
20
-211.505
11
55.2416
21
-212.219
0
LINE
8
BLACK
6
CONTINUOUS
10
55.2416
20
-212.219
11
55.0987
21
-212.791
0
LINE
8
BLACK
6
CONTINUOUS
10
55.0987
20
-212.791
11
54.9559
21
-213.076
0
LINE
8
BLACK
6
CONTINUOUS
10
54.9559
20
-213.076
11
54.813
21
-213.219
0
LINE
8
BLACK
6
CONTINUOUS
10
54.813
20
-213.219
11
54.5273
21
-213.362
0
LINE
8
BLACK
6
CONTINUOUS
10
54.5273
20
-213.362
11
54.2416
21
-213.362
0
LINE
8
BLACK
6
CONTINUOUS
10
54.2416
20
-213.362
11
53.9559
21
-213.219
0
LINE
8
BLACK
6
CONTINUOUS
10
53.9559
20
-213.219
11
53.813
21
-213.076
0
LINE
8
BLACK
6
CONTINUOUS
10
53.813
20
-213.076
11
53.6701
21
-212.791
0
LINE
8
BLACK
6
CONTINUOUS
10
53.6701
20
-212.791
11
53.5273
21
-212.219
0
LINE
8
BLACK
6
CONTINUOUS
10
53.5273
20
-212.219
11
53.5273
21
-211.505
0
LINE
8
BLACK
6
CONTINUOUS
10
53.5273
20
-211.505
11
53.6701
21
-210.934
0
LINE
8
BLACK
6
CONTINUOUS
10
53.6701
20
-210.934
11
53.813
21
-210.648
0
LINE
8
BLACK
6
CONTINUOUS
10
53.813
20
-210.648
11
53.9559
21
-210.505
0
LINE
8
BLACK
6
CONTINUOUS
10
53.9559
20
-210.505
11
54.2416
21
-210.362
0
LINE
8
BLACK
6
CONTINUOUS
10
56.5273
20
-213.362
11
56.5273
21
-211.362
0
LINE
8
BLACK
6
CONTINUOUS
10
56.5273
20
-211.648
11
56.6701
21
-211.505
0
LINE
8
BLACK
6
CONTINUOUS
10
56.6701
20
-211.505
11
56.9559
21
-211.362
0
LINE
8
BLACK
6
CONTINUOUS
10
56.9559
20
-211.362
11
57.3844
21
-211.362
0
LINE
8
BLACK
6
CONTINUOUS
10
57.3844
20
-211.362
11
57.6701
21
-211.505
0
LINE
8
BLACK
6
CONTINUOUS
10
57.6701
20
-211.505
11
57.813
21
-211.791
0
LINE
8
BLACK
6
CONTINUOUS
10
57.813
20
-211.791
11
57.813
21
-213.362
0
LINE
8
BLACK
6
CONTINUOUS
10
57.813
20
-211.791
11
57.9559
21
-211.505
0
LINE
8
BLACK
6
CONTINUOUS
10
57.9559
20
-211.505
11
58.2416
21
-211.362
0
LINE
8
BLACK
6
CONTINUOUS
10
58.2416
20
-211.362
11
58.6701
21
-211.362
0
LINE
8
BLACK
6
CONTINUOUS
10
58.6701
20
-211.362
11
58.9559
21
-211.505
0
LINE
8
BLACK
6
CONTINUOUS
10
58.9559
20
-211.505
11
59.0987
21
-211.791
0
LINE
8
BLACK
6
CONTINUOUS
10
59.0987
20
-211.791
11
59.0987
21
-213.362
0
LINE
8
BLACK
6
CONTINUOUS
10
60.5273
20
-213.362
11
60.5273
21
-211.362
0
LINE
8
BLACK
6
CONTINUOUS
10
60.5273
20
-211.648
11
60.6701
21
-211.505
0
LINE
8
BLACK
6
CONTINUOUS
10
60.6701
20
-211.505
11
60.9559
21
-211.362
0
LINE
8
BLACK
6
CONTINUOUS
10
60.9559
20
-211.362
11
61.3844
21
-211.362
0
LINE
8
BLACK
6
CONTINUOUS
10
61.3844
20
-211.362
11
61.6701
21
-211.505
0
LINE
8
BLACK
6
CONTINUOUS
10
61.6701
20
-211.505
11
61.813
21
-211.791
0
LINE
8
BLACK
6
CONTINUOUS
10
61.813
20
-211.791
11
61.813
21
-213.362
0
LINE
8
BLACK
6
CONTINUOUS
10
61.813
20
-211.791
11
61.9559
21
-211.505
0
LINE
8
BLACK
6
CONTINUOUS
10
61.9559
20
-211.505
11
62.2416
21
-211.362
0
LINE
8
BLACK
6
CONTINUOUS
10
62.2416
20
-211.362
11
62.6701
21
-211.362
0
LINE
8
BLACK
6
CONTINUOUS
10
62.6701
20
-211.362
11
62.9559
21
-211.505
0
LINE
8
BLACK
6
CONTINUOUS
10
62.9559
20
-211.505
11
63.0987
21
-211.791
0
LINE
8
BLACK
6
CONTINUOUS
10
63.0987
20
-211.791
11
63.0987
21
-213.362
0
LINE
8
BLACK
6
CONTINUOUS
10
68.9559
20
-210.219
11
66.3844
21
-214.076
0
LINE
8
BLACK
6
CONTINUOUS
10
72.813
20
-210.362
11
73.0987
21
-210.362
0
LINE
8
BLACK
6
CONTINUOUS
10
73.0987
20
-210.362
11
73.3844
21
-210.505
0
LINE
8
BLACK
6
CONTINUOUS
10
73.3844
20
-210.505
11
73.5273
21
-210.648
0
LINE
8
BLACK
6
CONTINUOUS
10
73.5273
20
-210.648
11
73.6701
21
-210.934
0
LINE
8
BLACK
6
CONTINUOUS
10
73.6701
20
-210.934
11
73.813
21
-211.505
0
LINE
8
BLACK
6
CONTINUOUS
10
73.813
20
-211.505
11
73.813
21
-212.219
0
LINE
8
BLACK
6
CONTINUOUS
10
73.813
20
-212.219
11
73.6701
21
-212.791
0
LINE
8
BLACK
6
CONTINUOUS
10
73.6701
20
-212.791
11
73.5273
21
-213.076
0
LINE
8
BLACK
6
CONTINUOUS
10
73.5273
20
-213.076
11
73.3844
21
-213.219
0
LINE
8
BLACK
6
CONTINUOUS
10
73.3844
20
-213.219
11
73.0987
21
-213.362
0
LINE
8
BLACK
6
CONTINUOUS
10
73.0987
20
-213.362
11
72.813
21
-213.362
0
LINE
8
BLACK
6
CONTINUOUS
10
72.813
20
-213.362
11
72.5273
21
-213.219
0
LINE
8
BLACK
6
CONTINUOUS
10
72.5273
20
-213.219
11
72.3844
21
-213.076
0
LINE
8
BLACK
6
CONTINUOUS
10
72.3844
20
-213.076
11
72.2416
21
-212.791
0
LINE
8
BLACK
6
CONTINUOUS
10
72.2416
20
-212.791
11
72.0987
21
-212.219
0
LINE
8
BLACK
6
CONTINUOUS
10
72.0987
20
-212.219
11
72.0987
21
-211.505
0
LINE
8
BLACK
6
CONTINUOUS
10
72.0987
20
-211.505
11
72.2416
21
-210.934
0
LINE
8
BLACK
6
CONTINUOUS
10
72.2416
20
-210.934
11
72.3844
21
-210.648
0
LINE
8
BLACK
6
CONTINUOUS
10
72.3844
20
-210.648
11
72.5273
21
-210.505
0
LINE
8
BLACK
6
CONTINUOUS
10
72.5273
20
-210.505
11
72.813
21
-210.362
0
LINE
8
BLACK
6
CONTINUOUS
10
75.0987
20
-213.076
11
75.2416
21
-213.219
0
LINE
8
BLACK
6
CONTINUOUS
10
75.2416
20
-213.219
11
75.0987
21
-213.362
0
LINE
8
BLACK
6
CONTINUOUS
10
75.0987
20
-213.362
11
74.9559
21
-213.219
0
LINE
8
BLACK
6
CONTINUOUS
10
74.9559
20
-213.219
11
75.0987
21
-213.076
0
LINE
8
BLACK
6
CONTINUOUS
10
75.0987
20
-213.076
11
75.0987
21
-213.362
0
LINE
8
BLACK
6
CONTINUOUS
10
77.0987
20
-210.362
11
77.3844
21
-210.362
0
LINE
8
BLACK
6
CONTINUOUS
10
77.3844
20
-210.362
11
77.6701
21
-210.505
0
LINE
8
BLACK
6
CONTINUOUS
10
77.6701
20
-210.505
11
77.813
21
-210.648
0
LINE
8
BLACK
6
CONTINUOUS
10
77.813
20
-210.648
11
77.9559
21
-210.934
0
LINE
8
BLACK
6
CONTINUOUS
10
77.9559
20
-210.934
11
78.0987
21
-211.505
0
LINE
8
BLACK
6
CONTINUOUS
10
78.0987
20
-211.505
11
78.0987
21
-212.219
0
LINE
8
BLACK
6
CONTINUOUS
10
78.0987
20
-212.219
11
77.9559
21
-212.791
0
LINE
8
BLACK
6
CONTINUOUS
10
77.9559
20
-212.791
11
77.813
21
-213.076
0
LINE
8
BLACK
6
CONTINUOUS
10
77.813
20
-213.076
11
77.6701
21
-213.219
0
LINE
8
BLACK
6
CONTINUOUS
10
77.6701
20
-213.219
11
77.3844
21
-213.362
0
LINE
8
BLACK
6
CONTINUOUS
10
77.3844
20
-213.362
11
77.0987
21
-213.362
0
LINE
8
BLACK
6
CONTINUOUS
10
77.0987
20
-213.362
11
76.813
21
-213.219
0
LINE
8
BLACK
6
CONTINUOUS
10
76.813
20
-213.219
11
76.6701
21
-213.076
0
LINE
8
BLACK
6
CONTINUOUS
10
76.6701
20
-213.076
11
76.5273
21
-212.791
0
LINE
8
BLACK
6
CONTINUOUS
10
76.5273
20
-212.791
11
76.3844
21
-212.219
0
LINE
8
BLACK
6
CONTINUOUS
10
76.3844
20
-212.219
11
76.3844
21
-211.505
0
LINE
8
BLACK
6
CONTINUOUS
10
76.3844
20
-211.505
11
76.5273
21
-210.934
0
LINE
8
BLACK
6
CONTINUOUS
10
76.5273
20
-210.934
11
76.6701
21
-210.648
0
LINE
8
BLACK
6
CONTINUOUS
10
76.6701
20
-210.648
11
76.813
21
-210.505
0
LINE
8
BLACK
6
CONTINUOUS
10
76.813
20
-210.505
11
77.0987
21
-210.362
0
LINE
8
BLACK
6
CONTINUOUS
10
80.813
20
-210.362
11
79.3844
21
-210.362
0
LINE
8
BLACK
6
CONTINUOUS
10
79.3844
20
-210.362
11
79.2416
21
-211.791
0
LINE
8
BLACK
6
CONTINUOUS
10
79.2416
20
-211.791
11
79.3844
21
-211.648
0
LINE
8
BLACK
6
CONTINUOUS
10
79.3844
20
-211.648
11
79.6701
21
-211.505
0
LINE
8
BLACK
6
CONTINUOUS
10
79.6701
20
-211.505
11
80.3844
21
-211.505
0
LINE
8
BLACK
6
CONTINUOUS
10
80.3844
20
-211.505
11
80.6701
21
-211.648
0
LINE
8
BLACK
6
CONTINUOUS
10
80.6701
20
-211.648
11
80.813
21
-211.791
0
LINE
8
BLACK
6
CONTINUOUS
10
80.813
20
-211.791
11
80.9559
21
-212.076
0
LINE
8
BLACK
6
CONTINUOUS
10
80.9559
20
-212.076
11
80.9559
21
-212.791
0
LINE
8
BLACK
6
CONTINUOUS
10
80.9559
20
-212.791
11
80.813
21
-213.076
0
LINE
8
BLACK
6
CONTINUOUS
10
80.813
20
-213.076
11
80.6701
21
-213.219
0
LINE
8
BLACK
6
CONTINUOUS
10
80.6701
20
-213.219
11
80.3844
21
-213.362
0
LINE
8
BLACK
6
CONTINUOUS
10
80.3844
20
-213.362
11
79.6701
21
-213.362
0
LINE
8
BLACK
6
CONTINUOUS
10
79.6701
20
-213.362
11
79.3844
21
-213.219
0
LINE
8
BLACK
6
CONTINUOUS
10
79.3844
20
-213.219
11
79.2416
21
-213.076
0
LINE
8
BLACK
6
CONTINUOUS
10
82.3844
20
-213.362
11
82.9559
21
-213.362
0
LINE
8
BLACK
6
CONTINUOUS
10
82.9559
20
-213.362
11
83.2416
21
-213.219
0
LINE
8
BLACK
6
CONTINUOUS
10
83.2416
20
-213.219
11
83.3844
21
-213.076
0
LINE
8
BLACK
6
CONTINUOUS
10
83.3844
20
-213.076
11
83.6701
21
-212.648
0
LINE
8
BLACK
6
CONTINUOUS
10
83.6701
20
-212.648
11
83.813
21
-212.076
0
LINE
8
BLACK
6
CONTINUOUS
10
83.813
20
-212.076
11
83.813
21
-210.934
0
LINE
8
BLACK
6
CONTINUOUS
10
83.813
20
-210.934
11
83.6701
21
-210.648
0
LINE
8
BLACK
6
CONTINUOUS
10
83.6701
20
-210.648
11
83.5273
21
-210.505
0
LINE
8
BLACK
6
CONTINUOUS
10
83.5273
20
-210.505
11
83.2416
21
-210.362
0
LINE
8
BLACK
6
CONTINUOUS
10
83.2416
20
-210.362
11
82.6701
21
-210.362
0
LINE
8
BLACK
6
CONTINUOUS
10
82.6701
20
-210.362
11
82.3844
21
-210.505
0
LINE
8
BLACK
6
CONTINUOUS
10
82.3844
20
-210.505
11
82.2416
21
-210.648
0
LINE
8
BLACK
6
CONTINUOUS
10
82.2416
20
-210.648
11
82.0987
21
-210.934
0
LINE
8
BLACK
6
CONTINUOUS
10
82.0987
20
-210.934
11
82.0987
21
-211.648
0
LINE
8
BLACK
6
CONTINUOUS
10
82.0987
20
-211.648
11
82.2416
21
-211.934
0
LINE
8
BLACK
6
CONTINUOUS
10
82.2416
20
-211.934
11
82.3844
21
-212.076
0
LINE
8
BLACK
6
CONTINUOUS
10
82.3844
20
-212.076
11
82.6701
21
-212.219
0
LINE
8
BLACK
6
CONTINUOUS
10
82.6701
20
-212.219
11
83.2416
21
-212.219
0
LINE
8
BLACK
6
CONTINUOUS
10
83.2416
20
-212.219
11
83.5273
21
-212.076
0
LINE
8
BLACK
6
CONTINUOUS
10
83.5273
20
-212.076
11
83.6701
21
-211.934
0
LINE
8
BLACK
6
CONTINUOUS
10
83.6701
20
-211.934
11
83.813
21
-211.648
0
LINE
8
BLACK
6
CONTINUOUS
10
84.9559
20
-210.362
11
84.9559
21
-210.934
0
LINE
8
BLACK
6
CONTINUOUS
10
86.0987
20
-210.362
11
86.0987
21
-210.934
0
LINE
8
BLACK
6
CONTINUOUS
10
90.5273
20
-214.505
11
90.3844
21
-214.362
0
LINE
8
BLACK
6
CONTINUOUS
10
90.3844
20
-214.362
11
90.0987
21
-213.934
0
LINE
8
BLACK
6
CONTINUOUS
10
90.0987
20
-213.934
11
89.9559
21
-213.648
0
LINE
8
BLACK
6
CONTINUOUS
10
89.9559
20
-213.648
11
89.813
21
-213.219
0
LINE
8
BLACK
6
CONTINUOUS
10
89.813
20
-213.219
11
89.6701
21
-212.505
0
LINE
8
BLACK
6
CONTINUOUS
10
89.6701
20
-212.505
11
89.6701
21
-211.934
0
LINE
8
BLACK
6
CONTINUOUS
10
89.6701
20
-211.934
11
89.813
21
-211.219
0
LINE
8
BLACK
6
CONTINUOUS
10
89.813
20
-211.219
11
89.9559
21
-210.791
0
LINE
8
BLACK
6
CONTINUOUS
10
89.9559
20
-210.791
11
90.0987
21
-210.505
0
LINE
8
BLACK
6
CONTINUOUS
10
90.0987
20
-210.505
11
90.3844
21
-210.076
0
LINE
8
BLACK
6
CONTINUOUS
10
90.3844
20
-210.076
11
90.5273
21
-209.934
0
LINE
8
BLACK
6
CONTINUOUS
10
92.2416
20
-210.362
11
92.5273
21
-210.362
0
LINE
8
BLACK
6
CONTINUOUS
10
92.5273
20
-210.362
11
92.813
21
-210.505
0
LINE
8
BLACK
6
CONTINUOUS
10
92.813
20
-210.505
11
92.9559
21
-210.648
0
LINE
8
BLACK
6
CONTINUOUS
10
92.9559
20
-210.648
11
93.0987
21
-210.934
0
LINE
8
BLACK
6
CONTINUOUS
10
93.0987
20
-210.934
11
93.2416
21
-211.505
0
LINE
8
BLACK
6
CONTINUOUS
10
93.2416
20
-211.505
11
93.2416
21
-212.219
0
LINE
8
BLACK
6
CONTINUOUS
10
93.2416
20
-212.219
11
93.0987
21
-212.791
0
LINE
8
BLACK
6
CONTINUOUS
10
93.0987
20
-212.791
11
92.9559
21
-213.076
0
LINE
8
BLACK
6
CONTINUOUS
10
92.9559
20
-213.076
11
92.813
21
-213.219
0
LINE
8
BLACK
6
CONTINUOUS
10
92.813
20
-213.219
11
92.5273
21
-213.362
0
LINE
8
BLACK
6
CONTINUOUS
10
92.5273
20
-213.362
11
92.2416
21
-213.362
0
LINE
8
BLACK
6
CONTINUOUS
10
92.2416
20
-213.362
11
91.9559
21
-213.219
0
LINE
8
BLACK
6
CONTINUOUS
10
91.9559
20
-213.219
11
91.813
21
-213.076
0
LINE
8
BLACK
6
CONTINUOUS
10
91.813
20
-213.076
11
91.6701
21
-212.791
0
LINE
8
BLACK
6
CONTINUOUS
10
91.6701
20
-212.791
11
91.5273
21
-212.219
0
LINE
8
BLACK
6
CONTINUOUS
10
91.5273
20
-212.219
11
91.5273
21
-211.505
0
LINE
8
BLACK
6
CONTINUOUS
10
91.5273
20
-211.505
11
91.6701
21
-210.934
0
LINE
8
BLACK
6
CONTINUOUS
10
91.6701
20
-210.934
11
91.813
21
-210.648
0
LINE
8
BLACK
6
CONTINUOUS
10
91.813
20
-210.648
11
91.9559
21
-210.505
0
LINE
8
BLACK
6
CONTINUOUS
10
91.9559
20
-210.505
11
92.2416
21
-210.362
0
LINE
8
BLACK
6
CONTINUOUS
10
96.813
20
-213.362
11
96.813
21
-210.362
0
LINE
8
BLACK
6
CONTINUOUS
10
98.0987
20
-213.362
11
98.0987
21
-211.791
0
LINE
8
BLACK
6
CONTINUOUS
10
98.0987
20
-211.791
11
97.9559
21
-211.505
0
LINE
8
BLACK
6
CONTINUOUS
10
97.9559
20
-211.505
11
97.6701
21
-211.362
0
LINE
8
BLACK
6
CONTINUOUS
10
97.6701
20
-211.362
11
97.2416
21
-211.362
0
LINE
8
BLACK
6
CONTINUOUS
10
97.2416
20
-211.362
11
96.9559
21
-211.505
0
LINE
8
BLACK
6
CONTINUOUS
10
96.9559
20
-211.505
11
96.813
21
-211.648
0
LINE
8
BLACK
6
CONTINUOUS
10
99.9559
20
-213.362
11
99.6701
21
-213.219
0
LINE
8
BLACK
6
CONTINUOUS
10
99.6701
20
-213.219
11
99.5273
21
-213.076
0
LINE
8
BLACK
6
CONTINUOUS
10
99.5273
20
-213.076
11
99.3844
21
-212.791
0
LINE
8
BLACK
6
CONTINUOUS
10
99.3844
20
-212.791
11
99.3844
21
-211.934
0
LINE
8
BLACK
6
CONTINUOUS
10
99.3844
20
-211.934
11
99.5273
21
-211.648
0
LINE
8
BLACK
6
CONTINUOUS
10
99.5273
20
-211.648
11
99.6701
21
-211.505
0
LINE
8
BLACK
6
CONTINUOUS
10
99.6701
20
-211.505
11
99.9559
21
-211.362
0
LINE
8
BLACK
6
CONTINUOUS
10
99.9559
20
-211.362
11
100.384
21
-211.362
0
LINE
8
BLACK
6
CONTINUOUS
10
100.384
20
-211.362
11
100.67
21
-211.505
0
LINE
8
BLACK
6
CONTINUOUS
10
100.67
20
-211.505
11
100.813
21
-211.648
0
LINE
8
BLACK
6
CONTINUOUS
10
100.813
20
-211.648
11
100.956
21
-211.934
0
LINE
8
BLACK
6
CONTINUOUS
10
100.956
20
-211.934
11
100.956
21
-212.791
0
LINE
8
BLACK
6
CONTINUOUS
10
100.956
20
-212.791
11
100.813
21
-213.076
0
LINE
8
BLACK
6
CONTINUOUS
10
100.813
20
-213.076
11
100.67
21
-213.219
0
LINE
8
BLACK
6
CONTINUOUS
10
100.67
20
-213.219
11
100.384
21
-213.362
0
LINE
8
BLACK
6
CONTINUOUS
10
100.384
20
-213.362
11
99.9559
21
-213.362
0
LINE
8
BLACK
6
CONTINUOUS
10
102.67
20
-213.362
11
102.384
21
-213.219
0
LINE
8
BLACK
6
CONTINUOUS
10
102.384
20
-213.219
11
102.242
21
-212.934
0
LINE
8
BLACK
6
CONTINUOUS
10
102.242
20
-212.934
11
102.242
21
-210.362
0
LINE
8
BLACK
6
CONTINUOUS
10
104.956
20
-213.219
11
104.67
21
-213.362
0
LINE
8
BLACK
6
CONTINUOUS
10
104.67
20
-213.362
11
104.099
21
-213.362
0
LINE
8
BLACK
6
CONTINUOUS
10
104.099
20
-213.362
11
103.813
21
-213.219
0
LINE
8
BLACK
6
CONTINUOUS
10
103.813
20
-213.219
11
103.67
21
-212.934
0
LINE
8
BLACK
6
CONTINUOUS
10
103.67
20
-212.934
11
103.67
21
-211.791
0
LINE
8
BLACK
6
CONTINUOUS
10
103.67
20
-211.791
11
103.813
21
-211.505
0
LINE
8
BLACK
6
CONTINUOUS
10
103.813
20
-211.505
11
104.099
21
-211.362
0
LINE
8
BLACK
6
CONTINUOUS
10
104.099
20
-211.362
11
104.67
21
-211.362
0
LINE
8
BLACK
6
CONTINUOUS
10
104.67
20
-211.362
11
104.956
21
-211.505
0
LINE
8
BLACK
6
CONTINUOUS
10
104.956
20
-211.505
11
105.099
21
-211.791
0
LINE
8
BLACK
6
CONTINUOUS
10
105.099
20
-211.791
11
105.099
21
-212.076
0
LINE
8
BLACK
6
CONTINUOUS
10
105.099
20
-212.076
11
103.67
21
-212.362
0
LINE
8
BLACK
6
CONTINUOUS
10
106.242
20
-213.219
11
106.527
21
-213.362
0
LINE
8
BLACK
6
CONTINUOUS
10
106.527
20
-213.362
11
107.099
21
-213.362
0
LINE
8
BLACK
6
CONTINUOUS
10
107.099
20
-213.362
11
107.384
21
-213.219
0
LINE
8
BLACK
6
CONTINUOUS
10
107.384
20
-213.219
11
107.527
21
-212.934
0
LINE
8
BLACK
6
CONTINUOUS
10
107.527
20
-212.934
11
107.527
21
-212.791
0
LINE
8
BLACK
6
CONTINUOUS
10
107.527
20
-212.791
11
107.384
21
-212.505
0
LINE
8
BLACK
6
CONTINUOUS
10
107.384
20
-212.505
11
107.099
21
-212.362
0
LINE
8
BLACK
6
CONTINUOUS
10
107.099
20
-212.362
11
106.67
21
-212.362
0
LINE
8
BLACK
6
CONTINUOUS
10
106.67
20
-212.362
11
106.384
21
-212.219
0
LINE
8
BLACK
6
CONTINUOUS
10
106.384
20
-212.219
11
106.242
21
-211.934
0
LINE
8
BLACK
6
CONTINUOUS
10
106.242
20
-211.934
11
106.242
21
-211.791
0
LINE
8
BLACK
6
CONTINUOUS
10
106.242
20
-211.791
11
106.384
21
-211.505
0
LINE
8
BLACK
6
CONTINUOUS
10
106.384
20
-211.505
11
106.67
21
-211.362
0
LINE
8
BLACK
6
CONTINUOUS
10
106.67
20
-211.362
11
107.099
21
-211.362
0
LINE
8
BLACK
6
CONTINUOUS
10
107.099
20
-211.362
11
107.384
21
-211.505
0
LINE
8
BLACK
6
CONTINUOUS
10
111.099
20
-212.219
11
113.384
21
-212.219
0
LINE
8
BLACK
6
CONTINUOUS
10
112.242
20
-213.362
11
112.242
21
-211.076
0
LINE
8
BLACK
6
CONTINUOUS
10
116.956
20
-210.648
11
117.099
21
-210.505
0
LINE
8
BLACK
6
CONTINUOUS
10
117.099
20
-210.505
11
117.384
21
-210.362
0
LINE
8
BLACK
6
CONTINUOUS
10
117.384
20
-210.362
11
118.099
21
-210.362
0
LINE
8
BLACK
6
CONTINUOUS
10
118.099
20
-210.362
11
118.384
21
-210.505
0
LINE
8
BLACK
6
CONTINUOUS
10
118.384
20
-210.505
11
118.527
21
-210.648
0
LINE
8
BLACK
6
CONTINUOUS
10
118.527
20
-210.648
11
118.67
21
-210.934
0
LINE
8
BLACK
6
CONTINUOUS
10
118.67
20
-210.934
11
118.67
21
-211.219
0
LINE
8
BLACK
6
CONTINUOUS
10
118.67
20
-211.219
11
118.527
21
-211.648
0
LINE
8
BLACK
6
CONTINUOUS
10
118.527
20
-211.648
11
116.813
21
-213.362
0
LINE
8
BLACK
6
CONTINUOUS
10
116.813
20
-213.362
11
118.67
21
-213.362
0
LINE
8
BLACK
6
CONTINUOUS
10
122.099
20
-213.219
11
122.384
21
-213.362
0
LINE
8
BLACK
6
CONTINUOUS
10
122.384
20
-213.362
11
122.956
21
-213.362
0
LINE
8
BLACK
6
CONTINUOUS
10
122.956
20
-213.362
11
123.242
21
-213.219
0
LINE
8
BLACK
6
CONTINUOUS
10
123.242
20
-213.219
11
123.384
21
-212.934
0
LINE
8
BLACK
6
CONTINUOUS
10
123.384
20
-212.934
11
123.384
21
-212.791
0
LINE
8
BLACK
6
CONTINUOUS
10
123.384
20
-212.791
11
123.242
21
-212.505
0
LINE
8
BLACK
6
CONTINUOUS
10
123.242
20
-212.505
11
122.956
21
-212.362
0
LINE
8
BLACK
6
CONTINUOUS
10
122.956
20
-212.362
11
122.527
21
-212.362
0
LINE
8
BLACK
6
CONTINUOUS
10
122.527
20
-212.362
11
122.242
21
-212.219
0
LINE
8
BLACK
6
CONTINUOUS
10
122.242
20
-212.219
11
122.099
21
-211.934
0
LINE
8
BLACK
6
CONTINUOUS
10
122.099
20
-211.934
11
122.099
21
-211.791
0
LINE
8
BLACK
6
CONTINUOUS
10
122.099
20
-211.791
11
122.242
21
-211.505
0
LINE
8
BLACK
6
CONTINUOUS
10
122.242
20
-211.505
11
122.527
21
-211.362
0
LINE
8
BLACK
6
CONTINUOUS
10
122.527
20
-211.362
11
122.956
21
-211.362
0
LINE
8
BLACK
6
CONTINUOUS
10
122.956
20
-211.362
11
123.242
21
-211.505
0
LINE
8
BLACK
6
CONTINUOUS
10
125.099
20
-213.362
11
124.813
21
-213.219
0
LINE
8
BLACK
6
CONTINUOUS
10
124.813
20
-213.219
11
124.67
21
-212.934
0
LINE
8
BLACK
6
CONTINUOUS
10
124.67
20
-212.934
11
124.67
21
-210.362
0
LINE
8
BLACK
6
CONTINUOUS
10
126.67
20
-213.362
11
126.384
21
-213.219
0
LINE
8
BLACK
6
CONTINUOUS
10
126.384
20
-213.219
11
126.242
21
-213.076
0
LINE
8
BLACK
6
CONTINUOUS
10
126.242
20
-213.076
11
126.099
21
-212.791
0
LINE
8
BLACK
6
CONTINUOUS
10
126.099
20
-212.791
11
126.099
21
-211.934
0
LINE
8
BLACK
6
CONTINUOUS
10
126.099
20
-211.934
11
126.242
21
-211.648
0
LINE
8
BLACK
6
CONTINUOUS
10
126.242
20
-211.648
11
126.384
21
-211.505
0
LINE
8
BLACK
6
CONTINUOUS
10
126.384
20
-211.505
11
126.67
21
-211.362
0
LINE
8
BLACK
6
CONTINUOUS
10
126.67
20
-211.362
11
127.099
21
-211.362
0
LINE
8
BLACK
6
CONTINUOUS
10
127.099
20
-211.362
11
127.384
21
-211.505
0
LINE
8
BLACK
6
CONTINUOUS
10
127.384
20
-211.505
11
127.527
21
-211.648
0
LINE
8
BLACK
6
CONTINUOUS
10
127.527
20
-211.648
11
127.67
21
-211.934
0
LINE
8
BLACK
6
CONTINUOUS
10
127.67
20
-211.934
11
127.67
21
-212.791
0
LINE
8
BLACK
6
CONTINUOUS
10
127.67
20
-212.791
11
127.527
21
-213.076
0
LINE
8
BLACK
6
CONTINUOUS
10
127.527
20
-213.076
11
127.384
21
-213.219
0
LINE
8
BLACK
6
CONTINUOUS
10
127.384
20
-213.219
11
127.099
21
-213.362
0
LINE
8
BLACK
6
CONTINUOUS
10
127.099
20
-213.362
11
126.67
21
-213.362
0
LINE
8
BLACK
6
CONTINUOUS
10
128.527
20
-211.362
11
129.67
21
-211.362
0
LINE
8
BLACK
6
CONTINUOUS
10
128.956
20
-210.362
11
128.956
21
-212.934
0
LINE
8
BLACK
6
CONTINUOUS
10
128.956
20
-212.934
11
129.099
21
-213.219
0
LINE
8
BLACK
6
CONTINUOUS
10
129.099
20
-213.219
11
129.384
21
-213.362
0
LINE
8
BLACK
6
CONTINUOUS
10
129.384
20
-213.362
11
129.67
21
-213.362
0
LINE
8
BLACK
6
CONTINUOUS
10
130.527
20
-213.219
11
130.813
21
-213.362
0
LINE
8
BLACK
6
CONTINUOUS
10
130.813
20
-213.362
11
131.384
21
-213.362
0
LINE
8
BLACK
6
CONTINUOUS
10
131.384
20
-213.362
11
131.67
21
-213.219
0
LINE
8
BLACK
6
CONTINUOUS
10
131.67
20
-213.219
11
131.813
21
-212.934
0
LINE
8
BLACK
6
CONTINUOUS
10
131.813
20
-212.934
11
131.813
21
-212.791
0
LINE
8
BLACK
6
CONTINUOUS
10
131.813
20
-212.791
11
131.67
21
-212.505
0
LINE
8
BLACK
6
CONTINUOUS
10
131.67
20
-212.505
11
131.384
21
-212.362
0
LINE
8
BLACK
6
CONTINUOUS
10
131.384
20
-212.362
11
130.956
21
-212.362
0
LINE
8
BLACK
6
CONTINUOUS
10
130.956
20
-212.362
11
130.67
21
-212.219
0
LINE
8
BLACK
6
CONTINUOUS
10
130.67
20
-212.219
11
130.527
21
-211.934
0
LINE
8
BLACK
6
CONTINUOUS
10
130.527
20
-211.934
11
130.527
21
-211.791
0
LINE
8
BLACK
6
CONTINUOUS
10
130.527
20
-211.791
11
130.67
21
-211.505
0
LINE
8
BLACK
6
CONTINUOUS
10
130.67
20
-211.505
11
130.956
21
-211.362
0
LINE
8
BLACK
6
CONTINUOUS
10
130.956
20
-211.362
11
131.384
21
-211.362
0
LINE
8
BLACK
6
CONTINUOUS
10
131.384
20
-211.362
11
131.67
21
-211.505
0
LINE
8
BLACK
6
CONTINUOUS
10
132.813
20
-214.505
11
132.956
21
-214.362
0
LINE
8
BLACK
6
CONTINUOUS
10
132.956
20
-214.362
11
133.242
21
-213.934
0
LINE
8
BLACK
6
CONTINUOUS
10
133.242
20
-213.934
11
133.384
21
-213.648
0
LINE
8
BLACK
6
CONTINUOUS
10
133.384
20
-213.648
11
133.527
21
-213.219
0
LINE
8
BLACK
6
CONTINUOUS
10
133.527
20
-213.219
11
133.67
21
-212.505
0
LINE
8
BLACK
6
CONTINUOUS
10
133.67
20
-212.505
11
133.67
21
-211.934
0
LINE
8
BLACK
6
CONTINUOUS
10
133.67
20
-211.934
11
133.527
21
-211.219
0
LINE
8
BLACK
6
CONTINUOUS
10
133.527
20
-211.219
11
133.384
21
-210.791
0
LINE
8
BLACK
6
CONTINUOUS
10
133.384
20
-210.791
11
133.242
21
-210.505
0
LINE
8
BLACK
6
CONTINUOUS
10
133.242
20
-210.505
11
132.956
21
-210.076
0
LINE
8
BLACK
6
CONTINUOUS
10
132.956
20
-210.076
11
132.813
21
-209.934
0
LINE
8
BLACK
6
CONTINUOUS
10
42.063
20
-217.565
11
43.663
21
-215.965
0
LINE
8
BLACK
6
CONTINUOUS
10
43.663
20
-215.965
11
42.063
21
-214.365
0
LINE
8
BLACK
6
CONTINUOUS
10
42.063
20
-214.365
11
40.463
21
-215.965
0
LINE
8
BLACK
6
CONTINUOUS
10
40.463
20
-215.965
11
42.063
21
-217.565
0
LINE
8
BLACK
6
CONTINUOUS
10
46.2416
20
-214.322
11
48.0987
21
-214.322
0
LINE
8
BLACK
6
CONTINUOUS
10
48.0987
20
-214.322
11
47.0987
21
-215.465
0
LINE
8
BLACK
6
CONTINUOUS
10
47.0987
20
-215.465
11
47.5273
21
-215.465
0
LINE
8
BLACK
6
CONTINUOUS
10
47.5273
20
-215.465
11
47.813
21
-215.608
0
LINE
8
BLACK
6
CONTINUOUS
10
47.813
20
-215.608
11
47.9559
21
-215.751
0
LINE
8
BLACK
6
CONTINUOUS
10
47.9559
20
-215.751
11
48.0987
21
-216.036
0
LINE
8
BLACK
6
CONTINUOUS
10
48.0987
20
-216.036
11
48.0987
21
-216.751
0
LINE
8
BLACK
6
CONTINUOUS
10
48.0987
20
-216.751
11
47.9559
21
-217.036
0
LINE
8
BLACK
6
CONTINUOUS
10
47.9559
20
-217.036
11
47.813
21
-217.179
0
LINE
8
BLACK
6
CONTINUOUS
10
47.813
20
-217.179
11
47.5273
21
-217.322
0
LINE
8
BLACK
6
CONTINUOUS
10
47.5273
20
-217.322
11
46.6701
21
-217.322
0
LINE
8
BLACK
6
CONTINUOUS
10
46.6701
20
-217.322
11
46.3844
21
-217.179
0
LINE
8
BLACK
6
CONTINUOUS
10
46.3844
20
-217.179
11
46.2416
21
-217.036
0
LINE
8
BLACK
6
CONTINUOUS
10
49.3844
20
-217.036
11
49.5273
21
-217.179
0
LINE
8
BLACK
6
CONTINUOUS
10
49.5273
20
-217.179
11
49.3844
21
-217.322
0
LINE
8
BLACK
6
CONTINUOUS
10
49.3844
20
-217.322
11
49.2416
21
-217.179
0
LINE
8
BLACK
6
CONTINUOUS
10
49.2416
20
-217.179
11
49.3844
21
-217.036
0
LINE
8
BLACK
6
CONTINUOUS
10
49.3844
20
-217.036
11
49.3844
21
-217.322
0
LINE
8
BLACK
6
CONTINUOUS
10
50.6701
20
-214.608
11
50.813
21
-214.465
0
LINE
8
BLACK
6
CONTINUOUS
10
50.813
20
-214.465
11
51.0987
21
-214.322
0
LINE
8
BLACK
6
CONTINUOUS
10
51.0987
20
-214.322
11
51.813
21
-214.322
0
LINE
8
BLACK
6
CONTINUOUS
10
51.813
20
-214.322
11
52.0987
21
-214.465
0
LINE
8
BLACK
6
CONTINUOUS
10
52.0987
20
-214.465
11
52.2416
21
-214.608
0
LINE
8
BLACK
6
CONTINUOUS
10
52.2416
20
-214.608
11
52.3844
21
-214.894
0
LINE
8
BLACK
6
CONTINUOUS
10
52.3844
20
-214.894
11
52.3844
21
-215.179
0
LINE
8
BLACK
6
CONTINUOUS
10
52.3844
20
-215.179
11
52.2416
21
-215.608
0
LINE
8
BLACK
6
CONTINUOUS
10
52.2416
20
-215.608
11
50.5273
21
-217.322
0
LINE
8
BLACK
6
CONTINUOUS
10
50.5273
20
-217.322
11
52.3844
21
-217.322
0
LINE
8
BLACK
6
CONTINUOUS
10
54.2416
20
-214.322
11
54.5273
21
-214.322
0
LINE
8
BLACK
6
CONTINUOUS
10
54.5273
20
-214.322
11
54.813
21
-214.465
0
LINE
8
BLACK
6
CONTINUOUS
10
54.813
20
-214.465
11
54.9559
21
-214.608
0
LINE
8
BLACK
6
CONTINUOUS
10
54.9559
20
-214.608
11
55.0987
21
-214.894
0
LINE
8
BLACK
6
CONTINUOUS
10
55.0987
20
-214.894
11
55.2416
21
-215.465
0
LINE
8
BLACK
6
CONTINUOUS
10
55.2416
20
-215.465
11
55.2416
21
-216.179
0
LINE
8
BLACK
6
CONTINUOUS
10
55.2416
20
-216.179
11
55.0987
21
-216.751
0
LINE
8
BLACK
6
CONTINUOUS
10
55.0987
20
-216.751
11
54.9559
21
-217.036
0
LINE
8
BLACK
6
CONTINUOUS
10
54.9559
20
-217.036
11
54.813
21
-217.179
0
LINE
8
BLACK
6
CONTINUOUS
10
54.813
20
-217.179
11
54.5273
21
-217.322
0
LINE
8
BLACK
6
CONTINUOUS
10
54.5273
20
-217.322
11
54.2416
21
-217.322
0
LINE
8
BLACK
6
CONTINUOUS
10
54.2416
20
-217.322
11
53.9559
21
-217.179
0
LINE
8
BLACK
6
CONTINUOUS
10
53.9559
20
-217.179
11
53.813
21
-217.036
0
LINE
8
BLACK
6
CONTINUOUS
10
53.813
20
-217.036
11
53.6701
21
-216.751
0
LINE
8
BLACK
6
CONTINUOUS
10
53.6701
20
-216.751
11
53.5273
21
-216.179
0
LINE
8
BLACK
6
CONTINUOUS
10
53.5273
20
-216.179
11
53.5273
21
-215.465
0
LINE
8
BLACK
6
CONTINUOUS
10
53.5273
20
-215.465
11
53.6701
21
-214.894
0
LINE
8
BLACK
6
CONTINUOUS
10
53.6701
20
-214.894
11
53.813
21
-214.608
0
LINE
8
BLACK
6
CONTINUOUS
10
53.813
20
-214.608
11
53.9559
21
-214.465
0
LINE
8
BLACK
6
CONTINUOUS
10
53.9559
20
-214.465
11
54.2416
21
-214.322
0
LINE
8
BLACK
6
CONTINUOUS
10
56.5273
20
-217.322
11
56.5273
21
-215.322
0
LINE
8
BLACK
6
CONTINUOUS
10
56.5273
20
-215.608
11
56.6701
21
-215.465
0
LINE
8
BLACK
6
CONTINUOUS
10
56.6701
20
-215.465
11
56.9559
21
-215.322
0
LINE
8
BLACK
6
CONTINUOUS
10
56.9559
20
-215.322
11
57.3844
21
-215.322
0
LINE
8
BLACK
6
CONTINUOUS
10
57.3844
20
-215.322
11
57.6701
21
-215.465
0
LINE
8
BLACK
6
CONTINUOUS
10
57.6701
20
-215.465
11
57.813
21
-215.751
0
LINE
8
BLACK
6
CONTINUOUS
10
57.813
20
-215.751
11
57.813
21
-217.322
0
LINE
8
BLACK
6
CONTINUOUS
10
57.813
20
-215.751
11
57.9559
21
-215.465
0
LINE
8
BLACK
6
CONTINUOUS
10
57.9559
20
-215.465
11
58.2416
21
-215.322
0
LINE
8
BLACK
6
CONTINUOUS
10
58.2416
20
-215.322
11
58.6701
21
-215.322
0
LINE
8
BLACK
6
CONTINUOUS
10
58.6701
20
-215.322
11
58.9559
21
-215.465
0
LINE
8
BLACK
6
CONTINUOUS
10
58.9559
20
-215.465
11
59.0987
21
-215.751
0
LINE
8
BLACK
6
CONTINUOUS
10
59.0987
20
-215.751
11
59.0987
21
-217.322
0
LINE
8
BLACK
6
CONTINUOUS
10
60.5273
20
-217.322
11
60.5273
21
-215.322
0
LINE
8
BLACK
6
CONTINUOUS
10
60.5273
20
-215.608
11
60.6701
21
-215.465
0
LINE
8
BLACK
6
CONTINUOUS
10
60.6701
20
-215.465
11
60.9559
21
-215.322
0
LINE
8
BLACK
6
CONTINUOUS
10
60.9559
20
-215.322
11
61.3844
21
-215.322
0
LINE
8
BLACK
6
CONTINUOUS
10
61.3844
20
-215.322
11
61.6701
21
-215.465
0
LINE
8
BLACK
6
CONTINUOUS
10
61.6701
20
-215.465
11
61.813
21
-215.751
0
LINE
8
BLACK
6
CONTINUOUS
10
61.813
20
-215.751
11
61.813
21
-217.322
0
LINE
8
BLACK
6
CONTINUOUS
10
61.813
20
-215.751
11
61.9559
21
-215.465
0
LINE
8
BLACK
6
CONTINUOUS
10
61.9559
20
-215.465
11
62.2416
21
-215.322
0
LINE
8
BLACK
6
CONTINUOUS
10
62.2416
20
-215.322
11
62.6701
21
-215.322
0
LINE
8
BLACK
6
CONTINUOUS
10
62.6701
20
-215.322
11
62.9559
21
-215.465
0
LINE
8
BLACK
6
CONTINUOUS
10
62.9559
20
-215.465
11
63.0987
21
-215.751
0
LINE
8
BLACK
6
CONTINUOUS
10
63.0987
20
-215.751
11
63.0987
21
-217.322
0
LINE
8
BLACK
6
CONTINUOUS
10
68.9559
20
-214.179
11
66.3844
21
-218.036
0
LINE
8
BLACK
6
CONTINUOUS
10
72.813
20
-214.322
11
73.0987
21
-214.322
0
LINE
8
BLACK
6
CONTINUOUS
10
73.0987
20
-214.322
11
73.3844
21
-214.465
0
LINE
8
BLACK
6
CONTINUOUS
10
73.3844
20
-214.465
11
73.5273
21
-214.608
0
LINE
8
BLACK
6
CONTINUOUS
10
73.5273
20
-214.608
11
73.6701
21
-214.894
0
LINE
8
BLACK
6
CONTINUOUS
10
73.6701
20
-214.894
11
73.813
21
-215.465
0
LINE
8
BLACK
6
CONTINUOUS
10
73.813
20
-215.465
11
73.813
21
-216.179
0
LINE
8
BLACK
6
CONTINUOUS
10
73.813
20
-216.179
11
73.6701
21
-216.751
0
LINE
8
BLACK
6
CONTINUOUS
10
73.6701
20
-216.751
11
73.5273
21
-217.036
0
LINE
8
BLACK
6
CONTINUOUS
10
73.5273
20
-217.036
11
73.3844
21
-217.179
0
LINE
8
BLACK
6
CONTINUOUS
10
73.3844
20
-217.179
11
73.0987
21
-217.322
0
LINE
8
BLACK
6
CONTINUOUS
10
73.0987
20
-217.322
11
72.813
21
-217.322
0
LINE
8
BLACK
6
CONTINUOUS
10
72.813
20
-217.322
11
72.5273
21
-217.179
0
LINE
8
BLACK
6
CONTINUOUS
10
72.5273
20
-217.179
11
72.3844
21
-217.036
0
LINE
8
BLACK
6
CONTINUOUS
10
72.3844
20
-217.036
11
72.2416
21
-216.751
0
LINE
8
BLACK
6
CONTINUOUS
10
72.2416
20
-216.751
11
72.0987
21
-216.179
0
LINE
8
BLACK
6
CONTINUOUS
10
72.0987
20
-216.179
11
72.0987
21
-215.465
0
LINE
8
BLACK
6
CONTINUOUS
10
72.0987
20
-215.465
11
72.2416
21
-214.894
0
LINE
8
BLACK
6
CONTINUOUS
10
72.2416
20
-214.894
11
72.3844
21
-214.608
0
LINE
8
BLACK
6
CONTINUOUS
10
72.3844
20
-214.608
11
72.5273
21
-214.465
0
LINE
8
BLACK
6
CONTINUOUS
10
72.5273
20
-214.465
11
72.813
21
-214.322
0
LINE
8
BLACK
6
CONTINUOUS
10
75.0987
20
-217.036
11
75.2416
21
-217.179
0
LINE
8
BLACK
6
CONTINUOUS
10
75.2416
20
-217.179
11
75.0987
21
-217.322
0
LINE
8
BLACK
6
CONTINUOUS
10
75.0987
20
-217.322
11
74.9559
21
-217.179
0
LINE
8
BLACK
6
CONTINUOUS
10
74.9559
20
-217.179
11
75.0987
21
-217.036
0
LINE
8
BLACK
6
CONTINUOUS
10
75.0987
20
-217.036
11
75.0987
21
-217.322
0
LINE
8
BLACK
6
CONTINUOUS
10
78.0987
20
-217.322
11
76.3844
21
-217.322
0
LINE
8
BLACK
6
CONTINUOUS
10
77.2416
20
-217.322
11
77.2416
21
-214.322
0
LINE
8
BLACK
6
CONTINUOUS
10
77.2416
20
-214.322
11
76.9559
21
-214.751
0
LINE
8
BLACK
6
CONTINUOUS
10
76.9559
20
-214.751
11
76.6701
21
-215.036
0
LINE
8
BLACK
6
CONTINUOUS
10
76.6701
20
-215.036
11
76.3844
21
-215.179
0
LINE
8
BLACK
6
CONTINUOUS
10
79.2416
20
-214.608
11
79.3844
21
-214.465
0
LINE
8
BLACK
6
CONTINUOUS
10
79.3844
20
-214.465
11
79.6701
21
-214.322
0
LINE
8
BLACK
6
CONTINUOUS
10
79.6701
20
-214.322
11
80.3844
21
-214.322
0
LINE
8
BLACK
6
CONTINUOUS
10
80.3844
20
-214.322
11
80.6701
21
-214.465
0
LINE
8
BLACK
6
CONTINUOUS
10
80.6701
20
-214.465
11
80.813
21
-214.608
0
LINE
8
BLACK
6
CONTINUOUS
10
80.813
20
-214.608
11
80.9559
21
-214.894
0
LINE
8
BLACK
6
CONTINUOUS
10
80.9559
20
-214.894
11
80.9559
21
-215.179
0
LINE
8
BLACK
6
CONTINUOUS
10
80.9559
20
-215.179
11
80.813
21
-215.608
0
LINE
8
BLACK
6
CONTINUOUS
10
80.813
20
-215.608
11
79.0987
21
-217.322
0
LINE
8
BLACK
6
CONTINUOUS
10
79.0987
20
-217.322
11
80.9559
21
-217.322
0
LINE
8
BLACK
6
CONTINUOUS
10
83.5273
20
-214.322
11
82.9559
21
-214.322
0
LINE
8
BLACK
6
CONTINUOUS
10
82.9559
20
-214.322
11
82.6701
21
-214.465
0
LINE
8
BLACK
6
CONTINUOUS
10
82.6701
20
-214.465
11
82.5273
21
-214.608
0
LINE
8
BLACK
6
CONTINUOUS
10
82.5273
20
-214.608
11
82.2416
21
-215.036
0
LINE
8
BLACK
6
CONTINUOUS
10
82.2416
20
-215.036
11
82.0987
21
-215.608
0
LINE
8
BLACK
6
CONTINUOUS
10
82.0987
20
-215.608
11
82.0987
21
-216.751
0
LINE
8
BLACK
6
CONTINUOUS
10
82.0987
20
-216.751
11
82.2416
21
-217.036
0
LINE
8
BLACK
6
CONTINUOUS
10
82.2416
20
-217.036
11
82.3844
21
-217.179
0
LINE
8
BLACK
6
CONTINUOUS
10
82.3844
20
-217.179
11
82.6701
21
-217.322
0
LINE
8
BLACK
6
CONTINUOUS
10
82.6701
20
-217.322
11
83.2416
21
-217.322
0
LINE
8
BLACK
6
CONTINUOUS
10
83.2416
20
-217.322
11
83.5273
21
-217.179
0
LINE
8
BLACK
6
CONTINUOUS
10
83.5273
20
-217.179
11
83.6701
21
-217.036
0
LINE
8
BLACK
6
CONTINUOUS
10
83.6701
20
-217.036
11
83.813
21
-216.751
0
LINE
8
BLACK
6
CONTINUOUS
10
83.813
20
-216.751
11
83.813
21
-216.036
0
LINE
8
BLACK
6
CONTINUOUS
10
83.813
20
-216.036
11
83.6701
21
-215.751
0
LINE
8
BLACK
6
CONTINUOUS
10
83.6701
20
-215.751
11
83.5273
21
-215.608
0
LINE
8
BLACK
6
CONTINUOUS
10
83.5273
20
-215.608
11
83.2416
21
-215.465
0
LINE
8
BLACK
6
CONTINUOUS
10
83.2416
20
-215.465
11
82.6701
21
-215.465
0
LINE
8
BLACK
6
CONTINUOUS
10
82.6701
20
-215.465
11
82.3844
21
-215.608
0
LINE
8
BLACK
6
CONTINUOUS
10
82.3844
20
-215.608
11
82.2416
21
-215.751
0
LINE
8
BLACK
6
CONTINUOUS
10
82.2416
20
-215.751
11
82.0987
21
-216.036
0
LINE
8
BLACK
6
CONTINUOUS
10
84.9559
20
-214.322
11
84.9559
21
-214.894
0
LINE
8
BLACK
6
CONTINUOUS
10
86.0987
20
-214.322
11
86.0987
21
-214.894
0
LINE
8
BLACK
6
CONTINUOUS
10
90.5273
20
-218.465
11
90.3844
21
-218.322
0
LINE
8
BLACK
6
CONTINUOUS
10
90.3844
20
-218.322
11
90.0987
21
-217.894
0
LINE
8
BLACK
6
CONTINUOUS
10
90.0987
20
-217.894
11
89.9559
21
-217.608
0
LINE
8
BLACK
6
CONTINUOUS
10
89.9559
20
-217.608
11
89.813
21
-217.179
0
LINE
8
BLACK
6
CONTINUOUS
10
89.813
20
-217.179
11
89.6701
21
-216.465
0
LINE
8
BLACK
6
CONTINUOUS
10
89.6701
20
-216.465
11
89.6701
21
-215.894
0
LINE
8
BLACK
6
CONTINUOUS
10
89.6701
20
-215.894
11
89.813
21
-215.179
0
LINE
8
BLACK
6
CONTINUOUS
10
89.813
20
-215.179
11
89.9559
21
-214.751
0
LINE
8
BLACK
6
CONTINUOUS
10
89.9559
20
-214.751
11
90.0987
21
-214.465
0
LINE
8
BLACK
6
CONTINUOUS
10
90.0987
20
-214.465
11
90.3844
21
-214.036
0
LINE
8
BLACK
6
CONTINUOUS
10
90.3844
20
-214.036
11
90.5273
21
-213.894
0
LINE
8
BLACK
6
CONTINUOUS
10
92.9559
20
-215.322
11
92.9559
21
-217.322
0
LINE
8
BLACK
6
CONTINUOUS
10
92.2416
20
-214.179
11
91.5273
21
-216.322
0
LINE
8
BLACK
6
CONTINUOUS
10
91.5273
20
-216.322
11
93.3844
21
-216.322
0
LINE
8
BLACK
6
CONTINUOUS
10
96.813
20
-217.322
11
96.813
21
-214.322
0
LINE
8
BLACK
6
CONTINUOUS
10
98.0987
20
-217.322
11
98.0987
21
-215.751
0
LINE
8
BLACK
6
CONTINUOUS
10
98.0987
20
-215.751
11
97.9559
21
-215.465
0
LINE
8
BLACK
6
CONTINUOUS
10
97.9559
20
-215.465
11
97.6701
21
-215.322
0
LINE
8
BLACK
6
CONTINUOUS
10
97.6701
20
-215.322
11
97.2416
21
-215.322
0
LINE
8
BLACK
6
CONTINUOUS
10
97.2416
20
-215.322
11
96.9559
21
-215.465
0
LINE
8
BLACK
6
CONTINUOUS
10
96.9559
20
-215.465
11
96.813
21
-215.608
0
LINE
8
BLACK
6
CONTINUOUS
10
99.9559
20
-217.322
11
99.6701
21
-217.179
0
LINE
8
BLACK
6
CONTINUOUS
10
99.6701
20
-217.179
11
99.5273
21
-217.036
0
LINE
8
BLACK
6
CONTINUOUS
10
99.5273
20
-217.036
11
99.3844
21
-216.751
0
LINE
8
BLACK
6
CONTINUOUS
10
99.3844
20
-216.751
11
99.3844
21
-215.894
0
LINE
8
BLACK
6
CONTINUOUS
10
99.3844
20
-215.894
11
99.5273
21
-215.608
0
LINE
8
BLACK
6
CONTINUOUS
10
99.5273
20
-215.608
11
99.6701
21
-215.465
0
LINE
8
BLACK
6
CONTINUOUS
10
99.6701
20
-215.465
11
99.9559
21
-215.322
0
LINE
8
BLACK
6
CONTINUOUS
10
99.9559
20
-215.322
11
100.384
21
-215.322
0
LINE
8
BLACK
6
CONTINUOUS
10
100.384
20
-215.322
11
100.67
21
-215.465
0
LINE
8
BLACK
6
CONTINUOUS
10
100.67
20
-215.465
11
100.813
21
-215.608
0
LINE
8
BLACK
6
CONTINUOUS
10
100.813
20
-215.608
11
100.956
21
-215.894
0
LINE
8
BLACK
6
CONTINUOUS
10
100.956
20
-215.894
11
100.956
21
-216.751
0
LINE
8
BLACK
6
CONTINUOUS
10
100.956
20
-216.751
11
100.813
21
-217.036
0
LINE
8
BLACK
6
CONTINUOUS
10
100.813
20
-217.036
11
100.67
21
-217.179
0
LINE
8
BLACK
6
CONTINUOUS
10
100.67
20
-217.179
11
100.384
21
-217.322
0
LINE
8
BLACK
6
CONTINUOUS
10
100.384
20
-217.322
11
99.9559
21
-217.322
0
LINE
8
BLACK
6
CONTINUOUS
10
102.67
20
-217.322
11
102.384
21
-217.179
0
LINE
8
BLACK
6
CONTINUOUS
10
102.384
20
-217.179
11
102.242
21
-216.894
0
LINE
8
BLACK
6
CONTINUOUS
10
102.242
20
-216.894
11
102.242
21
-214.322
0
LINE
8
BLACK
6
CONTINUOUS
10
104.956
20
-217.179
11
104.67
21
-217.322
0
LINE
8
BLACK
6
CONTINUOUS
10
104.67
20
-217.322
11
104.099
21
-217.322
0
LINE
8
BLACK
6
CONTINUOUS
10
104.099
20
-217.322
11
103.813
21
-217.179
0
LINE
8
BLACK
6
CONTINUOUS
10
103.813
20
-217.179
11
103.67
21
-216.894
0
LINE
8
BLACK
6
CONTINUOUS
10
103.67
20
-216.894
11
103.67
21
-215.751
0
LINE
8
BLACK
6
CONTINUOUS
10
103.67
20
-215.751
11
103.813
21
-215.465
0
LINE
8
BLACK
6
CONTINUOUS
10
103.813
20
-215.465
11
104.099
21
-215.322
0
LINE
8
BLACK
6
CONTINUOUS
10
104.099
20
-215.322
11
104.67
21
-215.322
0
LINE
8
BLACK
6
CONTINUOUS
10
104.67
20
-215.322
11
104.956
21
-215.465
0
LINE
8
BLACK
6
CONTINUOUS
10
104.956
20
-215.465
11
105.099
21
-215.751
0
LINE
8
BLACK
6
CONTINUOUS
10
105.099
20
-215.751
11
105.099
21
-216.036
0
LINE
8
BLACK
6
CONTINUOUS
10
105.099
20
-216.036
11
103.67
21
-216.322
0
LINE
8
BLACK
6
CONTINUOUS
10
106.242
20
-217.179
11
106.527
21
-217.322
0
LINE
8
BLACK
6
CONTINUOUS
10
106.527
20
-217.322
11
107.099
21
-217.322
0
LINE
8
BLACK
6
CONTINUOUS
10
107.099
20
-217.322
11
107.384
21
-217.179
0
LINE
8
BLACK
6
CONTINUOUS
10
107.384
20
-217.179
11
107.527
21
-216.894
0
LINE
8
BLACK
6
CONTINUOUS
10
107.527
20
-216.894
11
107.527
21
-216.751
0
LINE
8
BLACK
6
CONTINUOUS
10
107.527
20
-216.751
11
107.384
21
-216.465
0
LINE
8
BLACK
6
CONTINUOUS
10
107.384
20
-216.465
11
107.099
21
-216.322
0
LINE
8
BLACK
6
CONTINUOUS
10
107.099
20
-216.322
11
106.67
21
-216.322
0
LINE
8
BLACK
6
CONTINUOUS
10
106.67
20
-216.322
11
106.384
21
-216.179
0
LINE
8
BLACK
6
CONTINUOUS
10
106.384
20
-216.179
11
106.242
21
-215.894
0
LINE
8
BLACK
6
CONTINUOUS
10
106.242
20
-215.894
11
106.242
21
-215.751
0
LINE
8
BLACK
6
CONTINUOUS
10
106.242
20
-215.751
11
106.384
21
-215.465
0
LINE
8
BLACK
6
CONTINUOUS
10
106.384
20
-215.465
11
106.67
21
-215.322
0
LINE
8
BLACK
6
CONTINUOUS
10
106.67
20
-215.322
11
107.099
21
-215.322
0
LINE
8
BLACK
6
CONTINUOUS
10
107.099
20
-215.322
11
107.384
21
-215.465
0
LINE
8
BLACK
6
CONTINUOUS
10
108.527
20
-218.465
11
108.67
21
-218.322
0
LINE
8
BLACK
6
CONTINUOUS
10
108.67
20
-218.322
11
108.956
21
-217.894
0
LINE
8
BLACK
6
CONTINUOUS
10
108.956
20
-217.894
11
109.099
21
-217.608
0
LINE
8
BLACK
6
CONTINUOUS
10
109.099
20
-217.608
11
109.242
21
-217.179
0
LINE
8
BLACK
6
CONTINUOUS
10
109.242
20
-217.179
11
109.384
21
-216.465
0
LINE
8
BLACK
6
CONTINUOUS
10
109.384
20
-216.465
11
109.384
21
-215.894
0
LINE
8
BLACK
6
CONTINUOUS
10
109.384
20
-215.894
11
109.242
21
-215.179
0
LINE
8
BLACK
6
CONTINUOUS
10
109.242
20
-215.179
11
109.099
21
-214.751
0
LINE
8
BLACK
6
CONTINUOUS
10
109.099
20
-214.751
11
108.956
21
-214.465
0
LINE
8
BLACK
6
CONTINUOUS
10
108.956
20
-214.465
11
108.67
21
-214.036
0
LINE
8
BLACK
6
CONTINUOUS
10
108.67
20
-214.036
11
108.527
21
-213.894
  0
ENDSEC
  0
EOF
