M48
; DRILL file {KiCad (5.1.8)-1} date 08/19/21 19:14:50
; FORMAT={-:-/ absolute / inch / decimal}
; #@! TF.CreationDate,2021-08-19T19:14:50+10:00
; #@! TF.GenerationSoftware,Kicad,Pcbnew,(5.1.8)-1
; #@! TF.FileFunction,Plated,1,2,PTH
FMAT,2
INCH
T1C0.0157
T2C0.0236
T3C0.0394
T4C0.0591
T5C0.1260
%
G90
G05
T1
X1.8125Y-4.4
X1.8125Y-5.15
X1.8125Y-5.9025
X1.815Y-6.655
X1.8725Y-4.4025
X1.8725Y-4.82
X1.8725Y-5.155
X1.8725Y-5.565
X1.8725Y-5.9
X1.8725Y-6.3225
X1.8725Y-6.655
X1.945Y-3.815
X1.945Y-5.0575
X1.945Y-6.5625
X1.95Y-4.305
X1.955Y-5.8075
X2.015Y-4.93
X2.0275Y-6.42
X2.055Y-4.4925
X2.0812Y-2.7928
X2.0846Y-5.93
X2.1Y-3.3
X2.113Y-7.062
X2.1132Y-4.06
X2.1132Y-4.81
X2.1132Y-5.56
X2.1132Y-6.31
X2.1575Y-3.5405
X2.178Y-5.864
X2.182Y-4.364
X2.191Y-5.798
X2.1995Y-4.2875
X2.415Y-3.008
X2.452Y-6.726
X2.477Y-2.84
X2.484Y-3.167
X2.497Y-5.291
X2.515Y-5.174
X2.5165Y-3.6745
X2.5245Y-3.7425
X2.5479Y-3.1985
X2.55Y-7.345
X2.601Y-6.668
X2.607Y-2.716
X2.63Y-3.06
X2.636Y-2.749
X2.677Y-3.334
X2.748Y-2.8995
X2.7897Y-2.8017
X2.7975Y-3.4025
X2.8Y-7.2825
X2.827Y-3.49
X2.853Y-3.759
X2.853Y-6.002
X2.862Y-7.061
X2.8632Y-4.06
X2.8632Y-4.81
X2.8632Y-5.56
X2.8632Y-6.31
X2.8748Y-6.728
X2.882Y-4.4845
X2.8905Y-5.2435
X2.8925Y-7.3475
X2.91Y-7.405
X2.9175Y-3.1225
X2.928Y-5.864
X2.934Y-4.364
X2.9425Y-2.8525
X2.948Y-4.2965
X2.9485Y-5.7965
X3.032Y-3.426
X3.056Y-2.854
X3.0675Y-2.98
X3.1125Y-3.1575
X3.175Y-3.2425
X3.216Y-3.336
X3.225Y-3.795
X3.236Y-6.7865
X3.2405Y-5.292
X3.245Y-2.9975
X3.2525Y-3.1225
X3.267Y-5.175
X3.273Y-3.676
X3.274Y-6.674
X3.303Y-6.008
X3.304Y-4.493
X3.306Y-6.742
X3.316Y-3.752
X3.3315Y-5.2395
X3.4404Y-3.1154
X3.4515Y-3.4
X3.4696Y-3.1446
X3.4755Y-3.261
X3.484Y-2.94
X3.524Y-3.267
X3.5682Y-3.2555
X3.57Y-3.085
X3.6Y-5.996
X3.602Y-3.554
X3.604Y-6.742
X3.613Y-7.0585
X3.6132Y-4.06
X3.6132Y-4.81
X3.6132Y-5.56
X3.6132Y-6.31
X3.642Y-4.491
X3.6425Y-5.238
X3.675Y-2.813
X3.68Y-5.866
X3.682Y-4.366
X3.688Y-3.753
X3.6925Y-3.27
X3.6935Y-5.7975
X3.6985Y-4.294
X3.7Y-3.0575
X3.7367Y-3.2614
X3.785Y-3.165
X3.79Y-3.3875
X3.805Y-3.43
X3.8086Y-2.4488
X3.816Y-2.7142
X3.8516Y-3.2614
X3.8605Y-3.442
X3.8804Y-2.9926
X3.9165Y-3.4065
X3.9695Y-3.4278
X3.9755Y-6.7885
X3.978Y-2.812
X3.98Y-5.2915
X3.9826Y-3.2354
X3.9835Y-3.391
X3.9855Y-3.7875
X4.005Y-3.1
X4.014Y-5.175
X4.015Y-2.965
X4.0175Y-3.1945
X4.019Y-3.6735
X4.024Y-6.672
X4.045Y-5.998
X4.046Y-3.39
X4.053Y-3.296
X4.057Y-6.755
X4.0625Y-7.345
X4.0655Y-5.2265
X4.068Y-2.878
X4.069Y-3.7495
X4.0765Y-4.4765
X4.1685Y-3.6075
X4.175Y-3.2275
X4.2105Y-3.5605
X4.2145Y-4.1895
X4.23Y-3.195
X4.2305Y-4.915
X4.2515Y-3.607
X4.269Y-5.6605
X4.288Y-3.561
X4.2895Y-6.427
X4.2975Y-7.2725
X4.36Y-2.487
X4.3615Y-7.059
X4.3632Y-4.06
X4.364Y-6.747
X4.384Y-6.008
X4.3885Y-3.587
X4.389Y-4.4845
X4.39Y-7.3475
X4.395Y-7.4075
X4.4075Y-5.2345
X4.4175Y-3.747
X4.43Y-4.366
X4.43Y-5.866
X4.45Y-4.296
X4.45Y-5.7975
X4.505Y-3.04
X4.694Y-3.042
X4.7105Y-6.7225
X4.729Y-3.793
X4.736Y-5.293
X4.768Y-3.6725
X4.7755Y-5.1765
X4.789Y-5.994
X4.796Y-6.627
X4.7985Y-4.4825
X4.804Y-5.2565
X4.815Y-3.7395
X4.84Y-5.67
X4.862Y-6.656
X4.87Y-5.1175
X4.8702Y-3.4416
X4.905Y-2.44
X4.9525Y-4.15
X4.96Y-3.5725
X4.974Y-2.5935
X5.0Y-4.1625
X5.0Y-5.665
X5.0025Y-4.9075
X5.005Y-6.4075
X5.07Y-4.0675
X5.07Y-4.4025
X5.07Y-4.82
X5.07Y-5.155
X5.07Y-5.5725
X5.07Y-5.9075
X5.07Y-6.3225
X5.07Y-6.6575
X5.13Y-5.5625
X5.13Y-6.3075
X5.1325Y-4.81
X3.9742Y-2.5319
X3.9742Y-2.585
X4.0077Y-2.5319
X4.0077Y-2.585
X4.0412Y-2.5319
X4.0412Y-2.585
X4.0746Y-2.5319
X4.0746Y-2.585
X4.1081Y-2.5319
X4.1081Y-2.585
X4.1416Y-2.5319
X4.1416Y-2.585
X4.175Y-2.5319
X4.175Y-2.585
X4.2085Y-2.5319
X4.2085Y-2.585
X3.4242Y-2.5319
X3.4242Y-2.585
X3.4577Y-2.5319
X3.4577Y-2.585
X3.4912Y-2.5319
X3.4912Y-2.585
X3.5246Y-2.5319
X3.5246Y-2.585
X3.5581Y-2.5319
X3.5581Y-2.585
X3.5916Y-2.5319
X3.5916Y-2.585
X3.625Y-2.5319
X3.625Y-2.585
X3.6585Y-2.5319
X3.6585Y-2.585
X1.9069Y-2.7432
X1.9069Y-2.7767
X1.9069Y-2.8102
X1.9069Y-2.8436
X1.9069Y-2.8771
X1.9069Y-2.9106
X1.9069Y-2.944
X1.9069Y-2.9775
X1.96Y-2.7432
X1.96Y-2.7767
X1.96Y-2.8102
X1.96Y-2.8436
X1.96Y-2.8771
X1.96Y-2.9106
X1.96Y-2.944
X1.96Y-2.9775
X4.5242Y-2.5319
X4.5242Y-2.585
X4.5577Y-2.5319
X4.5577Y-2.585
X4.5912Y-2.5319
X4.5912Y-2.585
X4.6246Y-2.5319
X4.6246Y-2.585
X4.6581Y-2.5319
X4.6581Y-2.585
X4.6916Y-2.5319
X4.6916Y-2.585
X4.725Y-2.5319
X4.725Y-2.585
X4.7585Y-2.5319
X4.7585Y-2.585
T3
X2.1595Y-2.4195
X2.2595Y-2.4195
X2.3595Y-2.4195
X2.4595Y-2.4195
X4.5031Y-2.82
X4.5031Y-3.3909
X4.6016Y-2.82
X4.7Y-2.82
X4.7Y-3.3909
T5
X1.845Y-7.375
X5.1Y-7.375
X5.1Y-2.47
X1.845Y-2.47
T2
G00X3.9211Y-2.4291
M15
G01X3.9211Y-2.3976
M16
G05
G00X3.9211Y-2.5759
M15
G01X3.9211Y-2.5169
M16
G05
G00X4.2616Y-2.4291
M15
G01X4.2616Y-2.3976
M16
G05
G00X4.2616Y-2.5759
M15
G01X4.2616Y-2.5169
M16
G05
G00X3.3711Y-2.4291
M15
G01X3.3711Y-2.3976
M16
G05
G00X3.3711Y-2.5759
M15
G01X3.3711Y-2.5169
M16
G05
G00X3.7116Y-2.4291
M15
G01X3.7116Y-2.3976
M16
G05
G00X3.7116Y-2.5759
M15
G01X3.7116Y-2.5169
M16
G05
G00X1.7726Y-2.6901
M15
G01X1.8041Y-2.6901
M16
G05
G00X1.7726Y-3.0306
M15
G01X1.8041Y-3.0306
M16
G05
G00X1.8919Y-2.6901
M15
G01X1.9509Y-2.6901
M16
G05
G00X1.8919Y-3.0306
M15
G01X1.9509Y-3.0306
M16
G05
G00X4.4711Y-2.4291
M15
G01X4.4711Y-2.3976
M16
G05
G00X4.4711Y-2.5759
M15
G01X4.4711Y-2.5169
M16
G05
G00X4.8116Y-2.4291
M15
G01X4.8116Y-2.3976
M16
G05
G00X4.8116Y-2.5759
M15
G01X4.8116Y-2.5169
M16
G05
T4
G00X4.3811Y-3.0897
M15
G01X4.3811Y-3.1409
M16
G05
G00X4.822Y-3.0897
M15
G01X4.822Y-3.1409
M16
G05
T0
M30
