M48
; DRILL file {KiCad (5.1.8)-1} date 08/08/22 09:51:32
; FORMAT={-:-/ absolute / metric / decimal}
; #@! TF.CreationDate,2022-08-08T09:51:32+10:00
; #@! TF.GenerationSoftware,Kicad,Pcbnew,(5.1.8)-1
; #@! TF.FileFunction,Plated,1,2,PTH
FMAT,2
METRIC
T1C0.400
T2C0.600
T3C1.000
T4C1.500
T5C3.200
%
G90
G05
T1
X46.03Y-156.3
X46.038Y-111.76
X46.038Y-130.81
X46.038Y-149.923
X46.07Y-118.19
X46.075Y-99.6
X46.08Y-137.06
X46.101Y-169.037
X47.561Y-111.823
X47.561Y-122.428
X47.561Y-130.937
X47.561Y-141.351
X47.561Y-149.86
X47.561Y-160.591
X47.561Y-169.037
X49.403Y-96.901
X51.181Y-125.222
X51.498Y-163.068
X52.197Y-114.109
X52.862Y-70.937
X52.95Y-150.622
X53.34Y-83.82
X53.67Y-179.375
X53.675Y-103.124
X53.675Y-122.174
X53.675Y-141.224
X53.675Y-160.274
X54.8Y-89.929
X55.321Y-148.946
X55.423Y-110.846
X55.651Y-147.269
X55.867Y-108.902
X60.54Y-188.08
X62.281Y-170.84
X62.916Y-72.136
X63.094Y-80.442
X63.424Y-134.391
X63.77Y-74.3
X63.881Y-131.42
X63.919Y-93.332
X64.122Y-95.059
X64.77Y-186.563
X65.7Y-83.72
X65.98Y-72.32
X66.065Y-169.367
X66.89Y-74.94
X66.99Y-81.79
X67.18Y-77.04
X71.056Y-86.423
X71.66Y-91.46
X72.41Y-82.7
X72.466Y-95.479
X72.466Y-152.451
X72.695Y-179.349
X72.725Y-103.124
X72.725Y-122.174
X72.725Y-141.224
X72.725Y-160.274
X73.02Y-170.891
X73.203Y-113.906
X73.419Y-133.185
X73.469Y-186.626
X73.914Y-188.087
X73.998Y-79.205
X74.371Y-148.946
X74.524Y-110.846
X74.739Y-72.453
X74.879Y-109.131
X74.892Y-147.231
X76.302Y-76.556
X77.013Y-87.02
X77.622Y-72.492
X78.969Y-80.874
X81.01Y-81.909
X81.026Y-74.27
X81.915Y-96.393
X82.194Y-172.377
X82.309Y-134.417
X82.423Y-76.136
X82.614Y-79.311
X82.982Y-131.445
X83.134Y-93.37
X83.16Y-169.52
X83.896Y-152.603
X83.922Y-114.122
X83.972Y-171.247
X84.226Y-95.301
X84.62Y-133.083
X86.18Y-84.97
X86.772Y-71.718
X87.386Y-79.131
X88.128Y-79.873
X88.27Y-71.93
X88.278Y-82.829
X88.41Y-87.72
X89.51Y-82.982
X90.632Y-82.69
X90.678Y-78.359
X91.44Y-152.298
X91.491Y-90.272
X91.542Y-171.247
X91.76Y-71.93
X91.77Y-179.286
X91.775Y-103.124
X91.775Y-122.174
X91.775Y-141.224
X91.775Y-160.274
X92.507Y-114.071
X92.519Y-133.045
X93.345Y-71.45
X93.472Y-148.996
X93.523Y-110.896
X93.675Y-95.326
X93.774Y-83.063
X93.815Y-147.256
X93.875Y-77.475
X93.942Y-109.068
X94.5Y-75.575
X94.726Y-82.758
X94.742Y-80.421
X95.8Y-75.65
X96.176Y-82.273
X96.266Y-86.042
X96.738Y-62.2
X96.926Y-68.94
X97.375Y-79.975
X97.831Y-82.84
X98.89Y-188.1
X99.99Y-86.29
X100.675Y-79.4
X100.978Y-172.428
X101.041Y-71.425
X101.092Y-134.404
X101.158Y-82.179
X101.181Y-86.131
X101.232Y-96.203
X101.738Y-78.729
X101.956Y-131.445
X102.044Y-81.14
X102.083Y-93.307
X102.21Y-169.469
X102.743Y-152.349
X102.768Y-86.106
X102.946Y-83.718
X103.048Y-171.577
X103.188Y-186.563
X103.264Y-132.753
X103.353Y-95.237
X103.543Y-113.703
X104.6Y-71.975
X105.88Y-91.63
X106.045Y-81.978
X106.947Y-90.437
X107.048Y-106.413
X107.442Y-81.153
X107.455Y-124.841
X107.5Y-72.425
X107.988Y-91.618
X108.433Y-143.777
X108.915Y-90.449
X108.953Y-163.246
X110.744Y-63.17
X110.782Y-179.299
X110.825Y-103.124
X110.846Y-171.374
X111.354Y-152.603
X111.468Y-91.11
X111.481Y-113.906
X111.506Y-186.626
X111.633Y-188.15
X111.95Y-132.956
X112.206Y-95.174
X112.522Y-110.896
X112.522Y-148.996
X113.03Y-109.118
X113.03Y-147.256
X114.427Y-77.216
X119.228Y-77.267
X119.647Y-170.751
X120.117Y-96.342
X120.294Y-134.442
X121.107Y-93.281
X121.298Y-131.483
X121.641Y-152.248
X121.818Y-168.326
X121.882Y-113.855
X122.022Y-133.515
X122.301Y-94.983
X122.936Y-144.018
X123.495Y-169.062
X123.698Y-129.984
X123.703Y-87.417
X124.587Y-61.976
X125.793Y-105.41
X125.984Y-90.742
X126.34Y-65.875
X128.778Y-103.314
X128.778Y-111.823
X128.778Y-122.428
X128.778Y-130.937
X128.778Y-141.541
X128.778Y-150.05
X128.778Y-160.591
X128.778Y-169.1
X130.275Y-134.85
X130.3Y-154.425
X130.3Y-173.0
X130.302Y-115.91
X130.302Y-141.287
X130.302Y-160.21
X130.365Y-122.174
X100.946Y-64.309
X100.946Y-65.659
X101.796Y-64.309
X101.796Y-65.659
X102.646Y-64.309
X102.646Y-65.659
X103.496Y-64.309
X103.496Y-65.659
X104.346Y-64.309
X104.346Y-65.659
X105.196Y-64.309
X105.196Y-65.659
X106.046Y-64.309
X106.046Y-65.659
X106.896Y-64.309
X106.896Y-65.659
X48.434Y-69.678
X48.434Y-70.528
X48.434Y-71.379
X48.434Y-72.228
X48.434Y-73.078
X48.434Y-73.928
X48.434Y-74.778
X48.434Y-75.629
X49.784Y-69.678
X49.784Y-70.528
X49.784Y-71.379
X49.784Y-72.228
X49.784Y-73.078
X49.784Y-73.928
X49.784Y-74.778
X49.784Y-75.629
X114.916Y-64.309
X114.916Y-65.659
X115.766Y-64.309
X115.766Y-65.659
X116.616Y-64.309
X116.616Y-65.659
X117.466Y-64.309
X117.466Y-65.659
X118.316Y-64.309
X118.316Y-65.659
X119.166Y-64.309
X119.166Y-65.659
X120.016Y-64.309
X120.016Y-65.659
X120.866Y-64.309
X120.866Y-65.659
X86.976Y-64.309
X86.976Y-65.659
X87.826Y-64.309
X87.826Y-65.659
X88.676Y-64.309
X88.676Y-65.659
X89.526Y-64.309
X89.526Y-65.659
X90.376Y-64.309
X90.376Y-65.659
X91.226Y-64.309
X91.226Y-65.659
X92.076Y-64.309
X92.076Y-65.659
X92.926Y-64.309
X92.926Y-65.659
T3
X114.38Y-71.628
X114.38Y-86.128
X116.88Y-71.628
X119.38Y-71.628
X119.38Y-86.128
X54.851Y-61.455
X57.391Y-61.455
X59.931Y-61.455
X62.471Y-61.455
T5
X46.863Y-187.325
X46.863Y-62.738
X129.54Y-187.325
X129.54Y-62.738
T2
G00X45.024Y-68.328
M15
G01X45.824Y-68.328
M16
G05
G00X45.024Y-76.978
M15
G01X45.824Y-76.978
M16
G05
G00X48.054Y-68.328
M15
G01X49.554Y-68.328
M16
G05
G00X48.054Y-76.978
M15
G01X49.554Y-76.978
M16
G05
G00X113.566Y-61.699
M15
G01X113.566Y-60.899
M16
G05
G00X113.566Y-65.429
M15
G01X113.566Y-63.929
M16
G05
G00X122.216Y-61.699
M15
G01X122.216Y-60.899
M16
G05
G00X122.216Y-65.429
M15
G01X122.216Y-63.929
M16
G05
G00X85.626Y-61.699
M15
G01X85.626Y-60.899
M16
G05
G00X85.626Y-65.429
M15
G01X85.626Y-63.929
M16
G05
G00X94.276Y-61.699
M15
G01X94.276Y-60.899
M16
G05
G00X94.276Y-65.429
M15
G01X94.276Y-63.929
M16
G05
G00X99.596Y-61.699
M15
G01X99.596Y-60.899
M16
G05
G00X99.596Y-65.429
M15
G01X99.596Y-63.929
M16
G05
G00X108.246Y-61.699
M15
G01X108.246Y-60.899
M16
G05
G00X108.246Y-65.429
M15
G01X108.246Y-63.929
M16
G05
T4
G00X111.28Y-78.478
M15
G01X111.28Y-79.778
M16
G05
G00X122.48Y-78.478
M15
G01X122.48Y-79.778
M16
G05
T0
M30
