M48
; DRILL file {KiCad (5.1.8)-1} date 08/08/22 09:51:32
; FORMAT={-:-/ absolute / metric / decimal}
; #@! TF.CreationDate,2022-08-08T09:51:32+10:00
; #@! TF.GenerationSoftware,Kicad,Pcbnew,(5.1.8)-1
; #@! TF.FileFunction,NonPlated,1,2,NPTH
FMAT,2
METRIC
T1C1.750
T2C3.000
T3C4.000
%
G90
G05
T1
X73.66Y-136.144
X83.82Y-136.144
X54.61Y-136.144
X64.77Y-136.144
X73.66Y-98.044
X83.82Y-98.044
X73.66Y-174.244
X83.82Y-174.244
X111.76Y-174.244
X121.92Y-174.244
X54.61Y-117.094
X64.77Y-117.094
X92.71Y-155.194
X102.87Y-155.194
X73.66Y-155.194
X83.82Y-155.194
X54.61Y-98.044
X64.77Y-98.044
X73.66Y-117.094
X83.82Y-117.094
X92.71Y-174.244
X102.87Y-174.244
X54.61Y-174.244
X64.77Y-174.244
X92.71Y-117.094
X102.87Y-117.094
X111.76Y-155.194
X121.92Y-155.194
X111.76Y-136.144
X121.92Y-136.144
X92.71Y-98.044
X102.87Y-98.044
X111.76Y-117.094
X121.92Y-117.094
X111.76Y-98.044
X121.92Y-98.044
X92.71Y-136.144
X102.87Y-136.144
X54.61Y-155.194
X64.77Y-155.194
T2
X95.25Y-141.224
X101.6Y-138.684
X57.15Y-160.274
X63.5Y-157.734
X76.2Y-141.224
X82.55Y-138.684
X57.15Y-141.224
X63.5Y-138.684
X76.2Y-103.124
X82.55Y-100.584
X76.2Y-179.324
X82.55Y-176.784
X114.3Y-179.324
X120.65Y-176.784
X57.15Y-122.174
X63.5Y-119.634
X95.25Y-160.274
X101.6Y-157.734
X76.2Y-160.274
X82.55Y-157.734
X57.15Y-103.124
X63.5Y-100.584
X76.2Y-122.174
X82.55Y-119.634
X95.25Y-179.324
X101.6Y-176.784
X57.15Y-179.324
X63.5Y-176.784
X95.25Y-122.174
X101.6Y-119.634
X114.3Y-160.274
X120.65Y-157.734
X114.3Y-141.224
X120.65Y-138.684
X95.25Y-103.124
X101.6Y-100.584
X114.3Y-122.174
X120.65Y-119.634
X114.3Y-103.124
X120.65Y-100.584
T3
X97.79Y-174.244
X59.69Y-174.244
X97.79Y-117.094
X116.84Y-155.194
X116.84Y-136.144
X97.79Y-98.044
X116.84Y-117.094
X116.84Y-98.044
X97.79Y-136.144
X59.69Y-155.194
X78.74Y-136.144
X59.69Y-136.144
X78.74Y-98.044
X78.74Y-174.244
X116.84Y-174.244
X59.69Y-117.094
X97.79Y-155.194
X78.74Y-155.194
X59.69Y-98.044
X78.74Y-117.094
T0
M30
