%TF.GenerationSoftware,KiCad,Pcbnew,(5.1.8)-1*%
%TF.CreationDate,2022-08-08T09:51:38+10:00*%
%TF.ProjectId,Macropad,4d616372-6f70-4616-942e-6b696361645f,rev?*%
%TF.SameCoordinates,Original*%
%TF.FileFunction,Soldermask,Bot*%
%TF.FilePolarity,Negative*%
%FSLAX46Y46*%
G04 Gerber Fmt 4.6, Leading zero omitted, Abs format (unit mm)*
G04 Created by KiCad (PCBNEW (5.1.8)-1) date 2022-08-08 09:51:38*
%MOMM*%
%LPD*%
G01*
G04 APERTURE LIST*
%ADD10R,0.400000X0.650000*%
%ADD11R,1.800000X0.820000*%
%ADD12R,0.900000X1.700000*%
%ADD13O,0.900000X1.700000*%
%ADD14O,0.900000X2.400000*%
%ADD15C,0.700000*%
%ADD16C,4.000000*%
%ADD17C,1.750000*%
%ADD18C,3.000000*%
%ADD19R,2.550000X2.500000*%
%ADD20R,1.000000X3.150000*%
%ADD21R,1.500000X0.550000*%
%ADD22R,0.550000X1.500000*%
%ADD23R,0.850000X1.000000*%
%ADD24R,0.750000X0.450000*%
%ADD25O,1.700000X0.900000*%
%ADD26O,2.400000X0.900000*%
%ADD27R,1.000000X1.000000*%
%ADD28R,0.600000X0.800000*%
%ADD29C,2.000000*%
%ADD30R,2.000000X3.200000*%
%ADD31R,2.000000X2.000000*%
%ADD32O,1.700000X1.700000*%
%ADD33R,1.700000X1.700000*%
%ADD34C,5.700000*%
G04 APERTURE END LIST*
D10*
%TO.C,U3*%
X68330000Y-77040000D03*
X69630000Y-77040000D03*
X68980000Y-75140000D03*
X69630000Y-75140000D03*
X68330000Y-75140000D03*
%TD*%
%TO.C,R32*%
G36*
G01*
X70225000Y-73300000D02*
X70775000Y-73300000D01*
G75*
G02*
X70975000Y-73500000I0J-200000D01*
G01*
X70975000Y-73900000D01*
G75*
G02*
X70775000Y-74100000I-200000J0D01*
G01*
X70225000Y-74100000D01*
G75*
G02*
X70025000Y-73900000I0J200000D01*
G01*
X70025000Y-73500000D01*
G75*
G02*
X70225000Y-73300000I200000J0D01*
G01*
G37*
G36*
G01*
X70225000Y-71650000D02*
X70775000Y-71650000D01*
G75*
G02*
X70975000Y-71850000I0J-200000D01*
G01*
X70975000Y-72250000D01*
G75*
G02*
X70775000Y-72450000I-200000J0D01*
G01*
X70225000Y-72450000D01*
G75*
G02*
X70025000Y-72250000I0J200000D01*
G01*
X70025000Y-71850000D01*
G75*
G02*
X70225000Y-71650000I200000J0D01*
G01*
G37*
%TD*%
%TO.C,C33*%
G36*
G01*
X98700000Y-77700000D02*
X98700000Y-77200000D01*
G75*
G02*
X98925000Y-76975000I225000J0D01*
G01*
X99375000Y-76975000D01*
G75*
G02*
X99600000Y-77200000I0J-225000D01*
G01*
X99600000Y-77700000D01*
G75*
G02*
X99375000Y-77925000I-225000J0D01*
G01*
X98925000Y-77925000D01*
G75*
G02*
X98700000Y-77700000I0J225000D01*
G01*
G37*
G36*
G01*
X97150000Y-77700000D02*
X97150000Y-77200000D01*
G75*
G02*
X97375000Y-76975000I225000J0D01*
G01*
X97825000Y-76975000D01*
G75*
G02*
X98050000Y-77200000I0J-225000D01*
G01*
X98050000Y-77700000D01*
G75*
G02*
X97825000Y-77925000I-225000J0D01*
G01*
X97375000Y-77925000D01*
G75*
G02*
X97150000Y-77700000I0J225000D01*
G01*
G37*
%TD*%
D11*
%TO.C,D54*%
X114240000Y-93333000D03*
X114240000Y-91833000D03*
X119440000Y-91833000D03*
X119440000Y-93333000D03*
%TD*%
%TO.C,D53*%
X95190000Y-93333000D03*
X95190000Y-91833000D03*
X100390000Y-91833000D03*
X100390000Y-93333000D03*
%TD*%
%TO.C,D52*%
X76140000Y-93333000D03*
X76140000Y-91833000D03*
X81340000Y-91833000D03*
X81340000Y-93333000D03*
%TD*%
%TO.C,D51*%
X57090000Y-93333000D03*
X57090000Y-91833000D03*
X62290000Y-91833000D03*
X62290000Y-93333000D03*
%TD*%
%TO.C,D46*%
X114240000Y-169533000D03*
X114240000Y-168033000D03*
X119440000Y-168033000D03*
X119440000Y-169533000D03*
%TD*%
%TO.C,D45*%
X114240000Y-131433000D03*
X114240000Y-129933000D03*
X119440000Y-129933000D03*
X119440000Y-131433000D03*
%TD*%
%TO.C,D44*%
X119440000Y-148983000D03*
X119440000Y-150483000D03*
X114240000Y-150483000D03*
X114240000Y-148983000D03*
%TD*%
%TO.C,D43*%
X119440000Y-110883000D03*
X119440000Y-112383000D03*
X114240000Y-112383000D03*
X114240000Y-110883000D03*
%TD*%
%TO.C,D40*%
X95190000Y-169533000D03*
X95190000Y-168033000D03*
X100390000Y-168033000D03*
X100390000Y-169533000D03*
%TD*%
%TO.C,D39*%
X95190000Y-131433000D03*
X95190000Y-129933000D03*
X100390000Y-129933000D03*
X100390000Y-131433000D03*
%TD*%
%TO.C,D38*%
X100390000Y-148983000D03*
X100390000Y-150483000D03*
X95190000Y-150483000D03*
X95190000Y-148983000D03*
%TD*%
%TO.C,D37*%
X100390000Y-110883000D03*
X100390000Y-112383000D03*
X95190000Y-112383000D03*
X95190000Y-110883000D03*
%TD*%
%TO.C,D34*%
X76140000Y-169533000D03*
X76140000Y-168033000D03*
X81340000Y-168033000D03*
X81340000Y-169533000D03*
%TD*%
%TO.C,D33*%
X76140000Y-131433000D03*
X76140000Y-129933000D03*
X81340000Y-129933000D03*
X81340000Y-131433000D03*
%TD*%
%TO.C,D32*%
X81340000Y-148983000D03*
X81340000Y-150483000D03*
X76140000Y-150483000D03*
X76140000Y-148983000D03*
%TD*%
%TO.C,D31*%
X81340000Y-110883000D03*
X81340000Y-112383000D03*
X76140000Y-112383000D03*
X76140000Y-110883000D03*
%TD*%
%TO.C,D28*%
X57090000Y-169533000D03*
X57090000Y-168033000D03*
X62290000Y-168033000D03*
X62290000Y-169533000D03*
%TD*%
%TO.C,D27*%
X57090000Y-131433000D03*
X57090000Y-129933000D03*
X62290000Y-129933000D03*
X62290000Y-131433000D03*
%TD*%
%TO.C,D26*%
X62290000Y-148983000D03*
X62290000Y-150483000D03*
X57090000Y-150483000D03*
X57090000Y-148983000D03*
%TD*%
%TO.C,D25*%
X62290000Y-110883000D03*
X62290000Y-112383000D03*
X57090000Y-112383000D03*
X57090000Y-110883000D03*
%TD*%
%TO.C,R31*%
G36*
G01*
X84680000Y-74645000D02*
X84680000Y-75195000D01*
G75*
G02*
X84480000Y-75395000I-200000J0D01*
G01*
X84080000Y-75395000D01*
G75*
G02*
X83880000Y-75195000I0J200000D01*
G01*
X83880000Y-74645000D01*
G75*
G02*
X84080000Y-74445000I200000J0D01*
G01*
X84480000Y-74445000D01*
G75*
G02*
X84680000Y-74645000I0J-200000D01*
G01*
G37*
G36*
G01*
X86330000Y-74645000D02*
X86330000Y-75195000D01*
G75*
G02*
X86130000Y-75395000I-200000J0D01*
G01*
X85730000Y-75395000D01*
G75*
G02*
X85530000Y-75195000I0J200000D01*
G01*
X85530000Y-74645000D01*
G75*
G02*
X85730000Y-74445000I200000J0D01*
G01*
X86130000Y-74445000D01*
G75*
G02*
X86330000Y-74645000I0J-200000D01*
G01*
G37*
%TD*%
%TO.C,R30*%
G36*
G01*
X82000000Y-69675000D02*
X81450000Y-69675000D01*
G75*
G02*
X81250000Y-69475000I0J200000D01*
G01*
X81250000Y-69075000D01*
G75*
G02*
X81450000Y-68875000I200000J0D01*
G01*
X82000000Y-68875000D01*
G75*
G02*
X82200000Y-69075000I0J-200000D01*
G01*
X82200000Y-69475000D01*
G75*
G02*
X82000000Y-69675000I-200000J0D01*
G01*
G37*
G36*
G01*
X82000000Y-71325000D02*
X81450000Y-71325000D01*
G75*
G02*
X81250000Y-71125000I0J200000D01*
G01*
X81250000Y-70725000D01*
G75*
G02*
X81450000Y-70525000I200000J0D01*
G01*
X82000000Y-70525000D01*
G75*
G02*
X82200000Y-70725000I0J-200000D01*
G01*
X82200000Y-71125000D01*
G75*
G02*
X82000000Y-71325000I-200000J0D01*
G01*
G37*
%TD*%
%TO.C,R21*%
G36*
G01*
X83950000Y-73105000D02*
X83950000Y-73655000D01*
G75*
G02*
X83750000Y-73855000I-200000J0D01*
G01*
X83350000Y-73855000D01*
G75*
G02*
X83150000Y-73655000I0J200000D01*
G01*
X83150000Y-73105000D01*
G75*
G02*
X83350000Y-72905000I200000J0D01*
G01*
X83750000Y-72905000D01*
G75*
G02*
X83950000Y-73105000I0J-200000D01*
G01*
G37*
G36*
G01*
X85600000Y-73105000D02*
X85600000Y-73655000D01*
G75*
G02*
X85400000Y-73855000I-200000J0D01*
G01*
X85000000Y-73855000D01*
G75*
G02*
X84800000Y-73655000I0J200000D01*
G01*
X84800000Y-73105000D01*
G75*
G02*
X85000000Y-72905000I200000J0D01*
G01*
X85400000Y-72905000D01*
G75*
G02*
X85600000Y-73105000I0J-200000D01*
G01*
G37*
%TD*%
%TO.C,R20*%
G36*
G01*
X83195000Y-71500000D02*
X83745000Y-71500000D01*
G75*
G02*
X83945000Y-71700000I0J-200000D01*
G01*
X83945000Y-72100000D01*
G75*
G02*
X83745000Y-72300000I-200000J0D01*
G01*
X83195000Y-72300000D01*
G75*
G02*
X82995000Y-72100000I0J200000D01*
G01*
X82995000Y-71700000D01*
G75*
G02*
X83195000Y-71500000I200000J0D01*
G01*
G37*
G36*
G01*
X83195000Y-69850000D02*
X83745000Y-69850000D01*
G75*
G02*
X83945000Y-70050000I0J-200000D01*
G01*
X83945000Y-70450000D01*
G75*
G02*
X83745000Y-70650000I-200000J0D01*
G01*
X83195000Y-70650000D01*
G75*
G02*
X82995000Y-70450000I0J200000D01*
G01*
X82995000Y-70050000D01*
G75*
G02*
X83195000Y-69850000I200000J0D01*
G01*
G37*
%TD*%
%TO.C,R11*%
G36*
G01*
X76371400Y-78617400D02*
X76371400Y-79167400D01*
G75*
G02*
X76171400Y-79367400I-200000J0D01*
G01*
X75771400Y-79367400D01*
G75*
G02*
X75571400Y-79167400I0J200000D01*
G01*
X75571400Y-78617400D01*
G75*
G02*
X75771400Y-78417400I200000J0D01*
G01*
X76171400Y-78417400D01*
G75*
G02*
X76371400Y-78617400I0J-200000D01*
G01*
G37*
G36*
G01*
X78021400Y-78617400D02*
X78021400Y-79167400D01*
G75*
G02*
X77821400Y-79367400I-200000J0D01*
G01*
X77421400Y-79367400D01*
G75*
G02*
X77221400Y-79167400I0J200000D01*
G01*
X77221400Y-78617400D01*
G75*
G02*
X77421400Y-78417400I200000J0D01*
G01*
X77821400Y-78417400D01*
G75*
G02*
X78021400Y-78617400I0J-200000D01*
G01*
G37*
%TD*%
%TO.C,R10*%
G36*
G01*
X76371400Y-80192200D02*
X76371400Y-80742200D01*
G75*
G02*
X76171400Y-80942200I-200000J0D01*
G01*
X75771400Y-80942200D01*
G75*
G02*
X75571400Y-80742200I0J200000D01*
G01*
X75571400Y-80192200D01*
G75*
G02*
X75771400Y-79992200I200000J0D01*
G01*
X76171400Y-79992200D01*
G75*
G02*
X76371400Y-80192200I0J-200000D01*
G01*
G37*
G36*
G01*
X78021400Y-80192200D02*
X78021400Y-80742200D01*
G75*
G02*
X77821400Y-80942200I-200000J0D01*
G01*
X77421400Y-80942200D01*
G75*
G02*
X77221400Y-80742200I0J200000D01*
G01*
X77221400Y-80192200D01*
G75*
G02*
X77421400Y-79992200I200000J0D01*
G01*
X77821400Y-79992200D01*
G75*
G02*
X78021400Y-80192200I0J-200000D01*
G01*
G37*
%TD*%
%TO.C,R9*%
G36*
G01*
X71800000Y-68225000D02*
X71250000Y-68225000D01*
G75*
G02*
X71050000Y-68025000I0J200000D01*
G01*
X71050000Y-67625000D01*
G75*
G02*
X71250000Y-67425000I200000J0D01*
G01*
X71800000Y-67425000D01*
G75*
G02*
X72000000Y-67625000I0J-200000D01*
G01*
X72000000Y-68025000D01*
G75*
G02*
X71800000Y-68225000I-200000J0D01*
G01*
G37*
G36*
G01*
X71800000Y-69875000D02*
X71250000Y-69875000D01*
G75*
G02*
X71050000Y-69675000I0J200000D01*
G01*
X71050000Y-69275000D01*
G75*
G02*
X71250000Y-69075000I200000J0D01*
G01*
X71800000Y-69075000D01*
G75*
G02*
X72000000Y-69275000I0J-200000D01*
G01*
X72000000Y-69675000D01*
G75*
G02*
X71800000Y-69875000I-200000J0D01*
G01*
G37*
%TD*%
%TO.C,R6*%
G36*
G01*
X73525000Y-68950000D02*
X72975000Y-68950000D01*
G75*
G02*
X72775000Y-68750000I0J200000D01*
G01*
X72775000Y-68350000D01*
G75*
G02*
X72975000Y-68150000I200000J0D01*
G01*
X73525000Y-68150000D01*
G75*
G02*
X73725000Y-68350000I0J-200000D01*
G01*
X73725000Y-68750000D01*
G75*
G02*
X73525000Y-68950000I-200000J0D01*
G01*
G37*
G36*
G01*
X73525000Y-70600000D02*
X72975000Y-70600000D01*
G75*
G02*
X72775000Y-70400000I0J200000D01*
G01*
X72775000Y-70000000D01*
G75*
G02*
X72975000Y-69800000I200000J0D01*
G01*
X73525000Y-69800000D01*
G75*
G02*
X73725000Y-70000000I0J-200000D01*
G01*
X73725000Y-70400000D01*
G75*
G02*
X73525000Y-70600000I-200000J0D01*
G01*
G37*
%TD*%
%TO.C,R5*%
G36*
G01*
X69380000Y-82025000D02*
X69380000Y-81475000D01*
G75*
G02*
X69580000Y-81275000I200000J0D01*
G01*
X69980000Y-81275000D01*
G75*
G02*
X70180000Y-81475000I0J-200000D01*
G01*
X70180000Y-82025000D01*
G75*
G02*
X69980000Y-82225000I-200000J0D01*
G01*
X69580000Y-82225000D01*
G75*
G02*
X69380000Y-82025000I0J200000D01*
G01*
G37*
G36*
G01*
X67730000Y-82025000D02*
X67730000Y-81475000D01*
G75*
G02*
X67930000Y-81275000I200000J0D01*
G01*
X68330000Y-81275000D01*
G75*
G02*
X68530000Y-81475000I0J-200000D01*
G01*
X68530000Y-82025000D01*
G75*
G02*
X68330000Y-82225000I-200000J0D01*
G01*
X67930000Y-82225000D01*
G75*
G02*
X67730000Y-82025000I0J200000D01*
G01*
G37*
%TD*%
D12*
%TO.C,SW22*%
X87668100Y-84858860D03*
X83350100Y-84848700D03*
%TD*%
D13*
%TO.C,J5*%
X99595900Y-61299000D03*
X108245900Y-61299000D03*
D14*
X99595900Y-64679000D03*
X108245900Y-64679000D03*
D15*
X103495900Y-64309000D03*
X100945900Y-64309000D03*
X101795900Y-64309000D03*
X102645900Y-64309000D03*
X106895900Y-64309000D03*
X105195900Y-64309000D03*
X104345900Y-64309000D03*
X106045900Y-64309000D03*
X100945900Y-65659000D03*
X101795900Y-65659000D03*
X102645900Y-65659000D03*
X103495900Y-65659000D03*
X104345900Y-65659000D03*
X105195900Y-65659000D03*
X106045900Y-65659000D03*
X106895900Y-65659000D03*
%TD*%
%TO.C,C20*%
G36*
G01*
X63201000Y-94873000D02*
X63201000Y-95373000D01*
G75*
G02*
X62976000Y-95598000I-225000J0D01*
G01*
X62526000Y-95598000D01*
G75*
G02*
X62301000Y-95373000I0J225000D01*
G01*
X62301000Y-94873000D01*
G75*
G02*
X62526000Y-94648000I225000J0D01*
G01*
X62976000Y-94648000D01*
G75*
G02*
X63201000Y-94873000I0J-225000D01*
G01*
G37*
G36*
G01*
X61651000Y-94873000D02*
X61651000Y-95373000D01*
G75*
G02*
X61426000Y-95598000I-225000J0D01*
G01*
X60976000Y-95598000D01*
G75*
G02*
X60751000Y-95373000I0J225000D01*
G01*
X60751000Y-94873000D01*
G75*
G02*
X60976000Y-94648000I225000J0D01*
G01*
X61426000Y-94648000D01*
G75*
G02*
X61651000Y-94873000I0J-225000D01*
G01*
G37*
%TD*%
%TO.C,FB3*%
G36*
G01*
X52825000Y-68325750D02*
X52825000Y-69088250D01*
G75*
G02*
X52606250Y-69307000I-218750J0D01*
G01*
X52168750Y-69307000D01*
G75*
G02*
X51950000Y-69088250I0J218750D01*
G01*
X51950000Y-68325750D01*
G75*
G02*
X52168750Y-68107000I218750J0D01*
G01*
X52606250Y-68107000D01*
G75*
G02*
X52825000Y-68325750I0J-218750D01*
G01*
G37*
G36*
G01*
X54950000Y-68325750D02*
X54950000Y-69088250D01*
G75*
G02*
X54731250Y-69307000I-218750J0D01*
G01*
X54293750Y-69307000D01*
G75*
G02*
X54075000Y-69088250I0J218750D01*
G01*
X54075000Y-68325750D01*
G75*
G02*
X54293750Y-68107000I218750J0D01*
G01*
X54731250Y-68107000D01*
G75*
G02*
X54950000Y-68325750I0J-218750D01*
G01*
G37*
%TD*%
D16*
%TO.C,SW12*%
X97790000Y-117094000D03*
D17*
X102870000Y-117094000D03*
X92710000Y-117094000D03*
D18*
X101600000Y-119634000D03*
X95250000Y-122174000D03*
D19*
X105200000Y-119634000D03*
X91775000Y-122174000D03*
%TD*%
D16*
%TO.C,SW7*%
X78740000Y-117094000D03*
D17*
X83820000Y-117094000D03*
X73660000Y-117094000D03*
D18*
X82550000Y-119634000D03*
X76200000Y-122174000D03*
D19*
X86150000Y-119634000D03*
X72725000Y-122174000D03*
%TD*%
D16*
%TO.C,SW17*%
X116840000Y-117094000D03*
D17*
X121920000Y-117094000D03*
X111760000Y-117094000D03*
D18*
X120650000Y-119634000D03*
X114300000Y-122174000D03*
D19*
X124250000Y-119634000D03*
X110825000Y-122174000D03*
%TD*%
D16*
%TO.C,SW2*%
X59690000Y-117094000D03*
D17*
X64770000Y-117094000D03*
X54610000Y-117094000D03*
D18*
X63500000Y-119634000D03*
X57150000Y-122174000D03*
D19*
X67100000Y-119634000D03*
X53675000Y-122174000D03*
%TD*%
D16*
%TO.C,SW16*%
X116840000Y-98044000D03*
D17*
X121920000Y-98044000D03*
X111760000Y-98044000D03*
D18*
X120650000Y-100584000D03*
X114300000Y-103124000D03*
D19*
X124250000Y-100584000D03*
X110825000Y-103124000D03*
%TD*%
D16*
%TO.C,SW18*%
X116840000Y-136144000D03*
D17*
X121920000Y-136144000D03*
X111760000Y-136144000D03*
D18*
X120650000Y-138684000D03*
X114300000Y-141224000D03*
D19*
X124250000Y-138684000D03*
X110825000Y-141224000D03*
%TD*%
D16*
%TO.C,SW8*%
X78740000Y-136144000D03*
D17*
X83820000Y-136144000D03*
X73660000Y-136144000D03*
D18*
X82550000Y-138684000D03*
X76200000Y-141224000D03*
D19*
X86150000Y-138684000D03*
X72725000Y-141224000D03*
%TD*%
D16*
%TO.C,SW11*%
X97790000Y-98044000D03*
D17*
X102870000Y-98044000D03*
X92710000Y-98044000D03*
D18*
X101600000Y-100584000D03*
X95250000Y-103124000D03*
D19*
X105200000Y-100584000D03*
X91775000Y-103124000D03*
%TD*%
D16*
%TO.C,SW6*%
X78740000Y-98044000D03*
D17*
X83820000Y-98044000D03*
X73660000Y-98044000D03*
D18*
X82550000Y-100584000D03*
X76200000Y-103124000D03*
D19*
X86150000Y-100584000D03*
X72725000Y-103124000D03*
%TD*%
D16*
%TO.C,SW13*%
X97790000Y-136144000D03*
D17*
X102870000Y-136144000D03*
X92710000Y-136144000D03*
D18*
X101600000Y-138684000D03*
X95250000Y-141224000D03*
D19*
X105200000Y-138684000D03*
X91775000Y-141224000D03*
%TD*%
D16*
%TO.C,SW3*%
X59690000Y-136144000D03*
D17*
X64770000Y-136144000D03*
X54610000Y-136144000D03*
D18*
X63500000Y-138684000D03*
X57150000Y-141224000D03*
D19*
X67100000Y-138684000D03*
X53675000Y-141224000D03*
%TD*%
D16*
%TO.C,SW1*%
X59690000Y-98044000D03*
D17*
X64770000Y-98044000D03*
X54610000Y-98044000D03*
D18*
X63500000Y-100584000D03*
X57150000Y-103124000D03*
D19*
X67100000Y-100584000D03*
X53675000Y-103124000D03*
%TD*%
D20*
%TO.C,J3*%
X89662000Y-80421000D03*
X89662000Y-85471000D03*
X92202000Y-80421000D03*
X92202000Y-85471000D03*
X94742000Y-80421000D03*
X94742000Y-85471000D03*
%TD*%
D21*
%TO.C,U4*%
X72571500Y-80968500D03*
X72571500Y-80168500D03*
X72571500Y-79368500D03*
X72571500Y-78568500D03*
X72571500Y-77768500D03*
X72571500Y-76968500D03*
X72571500Y-76168500D03*
X72571500Y-75368500D03*
D22*
X73971500Y-73968500D03*
X74771500Y-73968500D03*
X75571500Y-73968500D03*
X76371500Y-73968500D03*
X77171500Y-73968500D03*
X77971500Y-73968500D03*
X78771500Y-73968500D03*
X79571500Y-73968500D03*
D21*
X80971500Y-75368500D03*
X80971500Y-76168500D03*
X80971500Y-76968500D03*
X80971500Y-77768500D03*
X80971500Y-78568500D03*
X80971500Y-79368500D03*
X80971500Y-80168500D03*
X80971500Y-80968500D03*
D22*
X79571500Y-82368500D03*
X78771500Y-82368500D03*
X77971500Y-82368500D03*
X77171500Y-82368500D03*
X76371500Y-82368500D03*
X75571500Y-82368500D03*
X74771500Y-82368500D03*
X73971500Y-82368500D03*
%TD*%
%TO.C,R1*%
G36*
G01*
X67730000Y-73385000D02*
X67730000Y-73935000D01*
G75*
G02*
X67530000Y-74135000I-200000J0D01*
G01*
X67130000Y-74135000D01*
G75*
G02*
X66930000Y-73935000I0J200000D01*
G01*
X66930000Y-73385000D01*
G75*
G02*
X67130000Y-73185000I200000J0D01*
G01*
X67530000Y-73185000D01*
G75*
G02*
X67730000Y-73385000I0J-200000D01*
G01*
G37*
G36*
G01*
X69380000Y-73385000D02*
X69380000Y-73935000D01*
G75*
G02*
X69180000Y-74135000I-200000J0D01*
G01*
X68780000Y-74135000D01*
G75*
G02*
X68580000Y-73935000I0J200000D01*
G01*
X68580000Y-73385000D01*
G75*
G02*
X68780000Y-73185000I200000J0D01*
G01*
X69180000Y-73185000D01*
G75*
G02*
X69380000Y-73385000I0J-200000D01*
G01*
G37*
%TD*%
%TO.C,C44*%
G36*
G01*
X68480000Y-72305600D02*
X68480000Y-71805600D01*
G75*
G02*
X68705000Y-71580600I225000J0D01*
G01*
X69155000Y-71580600D01*
G75*
G02*
X69380000Y-71805600I0J-225000D01*
G01*
X69380000Y-72305600D01*
G75*
G02*
X69155000Y-72530600I-225000J0D01*
G01*
X68705000Y-72530600D01*
G75*
G02*
X68480000Y-72305600I0J225000D01*
G01*
G37*
G36*
G01*
X66930000Y-72305600D02*
X66930000Y-71805600D01*
G75*
G02*
X67155000Y-71580600I225000J0D01*
G01*
X67605000Y-71580600D01*
G75*
G02*
X67830000Y-71805600I0J-225000D01*
G01*
X67830000Y-72305600D01*
G75*
G02*
X67605000Y-72530600I-225000J0D01*
G01*
X67155000Y-72530600D01*
G75*
G02*
X66930000Y-72305600I0J225000D01*
G01*
G37*
%TD*%
%TO.C,C43*%
G36*
G01*
X99903400Y-170971400D02*
X99903400Y-171471400D01*
G75*
G02*
X99678400Y-171696400I-225000J0D01*
G01*
X99228400Y-171696400D01*
G75*
G02*
X99003400Y-171471400I0J225000D01*
G01*
X99003400Y-170971400D01*
G75*
G02*
X99228400Y-170746400I225000J0D01*
G01*
X99678400Y-170746400D01*
G75*
G02*
X99903400Y-170971400I0J-225000D01*
G01*
G37*
G36*
G01*
X101453400Y-170971400D02*
X101453400Y-171471400D01*
G75*
G02*
X101228400Y-171696400I-225000J0D01*
G01*
X100778400Y-171696400D01*
G75*
G02*
X100553400Y-171471400I0J225000D01*
G01*
X100553400Y-170971400D01*
G75*
G02*
X100778400Y-170746400I225000J0D01*
G01*
X101228400Y-170746400D01*
G75*
G02*
X101453400Y-170971400I0J-225000D01*
G01*
G37*
%TD*%
%TO.C,C42*%
G36*
G01*
X81094400Y-170946000D02*
X81094400Y-171446000D01*
G75*
G02*
X80869400Y-171671000I-225000J0D01*
G01*
X80419400Y-171671000D01*
G75*
G02*
X80194400Y-171446000I0J225000D01*
G01*
X80194400Y-170946000D01*
G75*
G02*
X80419400Y-170721000I225000J0D01*
G01*
X80869400Y-170721000D01*
G75*
G02*
X81094400Y-170946000I0J-225000D01*
G01*
G37*
G36*
G01*
X82644400Y-170946000D02*
X82644400Y-171446000D01*
G75*
G02*
X82419400Y-171671000I-225000J0D01*
G01*
X81969400Y-171671000D01*
G75*
G02*
X81744400Y-171446000I0J225000D01*
G01*
X81744400Y-170946000D01*
G75*
G02*
X81969400Y-170721000I225000J0D01*
G01*
X82419400Y-170721000D01*
G75*
G02*
X82644400Y-170946000I0J-225000D01*
G01*
G37*
%TD*%
%TO.C,C41*%
G36*
G01*
X121568400Y-170809800D02*
X122068400Y-170809800D01*
G75*
G02*
X122293400Y-171034800I0J-225000D01*
G01*
X122293400Y-171484800D01*
G75*
G02*
X122068400Y-171709800I-225000J0D01*
G01*
X121568400Y-171709800D01*
G75*
G02*
X121343400Y-171484800I0J225000D01*
G01*
X121343400Y-171034800D01*
G75*
G02*
X121568400Y-170809800I225000J0D01*
G01*
G37*
G36*
G01*
X121568400Y-169259800D02*
X122068400Y-169259800D01*
G75*
G02*
X122293400Y-169484800I0J-225000D01*
G01*
X122293400Y-169934800D01*
G75*
G02*
X122068400Y-170159800I-225000J0D01*
G01*
X121568400Y-170159800D01*
G75*
G02*
X121343400Y-169934800I0J225000D01*
G01*
X121343400Y-169484800D01*
G75*
G02*
X121568400Y-169259800I225000J0D01*
G01*
G37*
%TD*%
%TO.C,C40*%
G36*
G01*
X64520000Y-170899000D02*
X65020000Y-170899000D01*
G75*
G02*
X65245000Y-171124000I0J-225000D01*
G01*
X65245000Y-171574000D01*
G75*
G02*
X65020000Y-171799000I-225000J0D01*
G01*
X64520000Y-171799000D01*
G75*
G02*
X64295000Y-171574000I0J225000D01*
G01*
X64295000Y-171124000D01*
G75*
G02*
X64520000Y-170899000I225000J0D01*
G01*
G37*
G36*
G01*
X64520000Y-169349000D02*
X65020000Y-169349000D01*
G75*
G02*
X65245000Y-169574000I0J-225000D01*
G01*
X65245000Y-170024000D01*
G75*
G02*
X65020000Y-170249000I-225000J0D01*
G01*
X64520000Y-170249000D01*
G75*
G02*
X64295000Y-170024000I0J225000D01*
G01*
X64295000Y-169574000D01*
G75*
G02*
X64520000Y-169349000I225000J0D01*
G01*
G37*
%TD*%
D23*
%TO.C,X2*%
X75565000Y-86980500D03*
X75565000Y-85280500D03*
X74215000Y-85280500D03*
X74215000Y-86980500D03*
%TD*%
%TO.C,R29*%
G36*
G01*
X84692440Y-79562280D02*
X84692440Y-80112280D01*
G75*
G02*
X84492440Y-80312280I-200000J0D01*
G01*
X84092440Y-80312280D01*
G75*
G02*
X83892440Y-80112280I0J200000D01*
G01*
X83892440Y-79562280D01*
G75*
G02*
X84092440Y-79362280I200000J0D01*
G01*
X84492440Y-79362280D01*
G75*
G02*
X84692440Y-79562280I0J-200000D01*
G01*
G37*
G36*
G01*
X86342440Y-79562280D02*
X86342440Y-80112280D01*
G75*
G02*
X86142440Y-80312280I-200000J0D01*
G01*
X85742440Y-80312280D01*
G75*
G02*
X85542440Y-80112280I0J200000D01*
G01*
X85542440Y-79562280D01*
G75*
G02*
X85742440Y-79362280I200000J0D01*
G01*
X86142440Y-79362280D01*
G75*
G02*
X86342440Y-79562280I0J-200000D01*
G01*
G37*
%TD*%
%TO.C,R28*%
G36*
G01*
X86342440Y-81121840D02*
X86342440Y-81671840D01*
G75*
G02*
X86142440Y-81871840I-200000J0D01*
G01*
X85742440Y-81871840D01*
G75*
G02*
X85542440Y-81671840I0J200000D01*
G01*
X85542440Y-81121840D01*
G75*
G02*
X85742440Y-80921840I200000J0D01*
G01*
X86142440Y-80921840D01*
G75*
G02*
X86342440Y-81121840I0J-200000D01*
G01*
G37*
G36*
G01*
X84692440Y-81121840D02*
X84692440Y-81671840D01*
G75*
G02*
X84492440Y-81871840I-200000J0D01*
G01*
X84092440Y-81871840D01*
G75*
G02*
X83892440Y-81671840I0J200000D01*
G01*
X83892440Y-81121840D01*
G75*
G02*
X84092440Y-80921840I200000J0D01*
G01*
X84492440Y-80921840D01*
G75*
G02*
X84692440Y-81121840I0J-200000D01*
G01*
G37*
%TD*%
%TO.C,R27*%
G36*
G01*
X84664500Y-76242500D02*
X84664500Y-76792500D01*
G75*
G02*
X84464500Y-76992500I-200000J0D01*
G01*
X84064500Y-76992500D01*
G75*
G02*
X83864500Y-76792500I0J200000D01*
G01*
X83864500Y-76242500D01*
G75*
G02*
X84064500Y-76042500I200000J0D01*
G01*
X84464500Y-76042500D01*
G75*
G02*
X84664500Y-76242500I0J-200000D01*
G01*
G37*
G36*
G01*
X86314500Y-76242500D02*
X86314500Y-76792500D01*
G75*
G02*
X86114500Y-76992500I-200000J0D01*
G01*
X85714500Y-76992500D01*
G75*
G02*
X85514500Y-76792500I0J200000D01*
G01*
X85514500Y-76242500D01*
G75*
G02*
X85714500Y-76042500I200000J0D01*
G01*
X86114500Y-76042500D01*
G75*
G02*
X86314500Y-76242500I0J-200000D01*
G01*
G37*
%TD*%
%TO.C,R26*%
G36*
G01*
X84664500Y-77766500D02*
X84664500Y-78316500D01*
G75*
G02*
X84464500Y-78516500I-200000J0D01*
G01*
X84064500Y-78516500D01*
G75*
G02*
X83864500Y-78316500I0J200000D01*
G01*
X83864500Y-77766500D01*
G75*
G02*
X84064500Y-77566500I200000J0D01*
G01*
X84464500Y-77566500D01*
G75*
G02*
X84664500Y-77766500I0J-200000D01*
G01*
G37*
G36*
G01*
X86314500Y-77766500D02*
X86314500Y-78316500D01*
G75*
G02*
X86114500Y-78516500I-200000J0D01*
G01*
X85714500Y-78516500D01*
G75*
G02*
X85514500Y-78316500I0J200000D01*
G01*
X85514500Y-77766500D01*
G75*
G02*
X85714500Y-77566500I200000J0D01*
G01*
X86114500Y-77566500D01*
G75*
G02*
X86314500Y-77766500I0J-200000D01*
G01*
G37*
%TD*%
%TO.C,R25*%
G36*
G01*
X77766500Y-70719000D02*
X78316500Y-70719000D01*
G75*
G02*
X78516500Y-70919000I0J-200000D01*
G01*
X78516500Y-71319000D01*
G75*
G02*
X78316500Y-71519000I-200000J0D01*
G01*
X77766500Y-71519000D01*
G75*
G02*
X77566500Y-71319000I0J200000D01*
G01*
X77566500Y-70919000D01*
G75*
G02*
X77766500Y-70719000I200000J0D01*
G01*
G37*
G36*
G01*
X77766500Y-69069000D02*
X78316500Y-69069000D01*
G75*
G02*
X78516500Y-69269000I0J-200000D01*
G01*
X78516500Y-69669000D01*
G75*
G02*
X78316500Y-69869000I-200000J0D01*
G01*
X77766500Y-69869000D01*
G75*
G02*
X77566500Y-69669000I0J200000D01*
G01*
X77566500Y-69269000D01*
G75*
G02*
X77766500Y-69069000I200000J0D01*
G01*
G37*
%TD*%
%TO.C,R24*%
G36*
G01*
X79354000Y-70719000D02*
X79904000Y-70719000D01*
G75*
G02*
X80104000Y-70919000I0J-200000D01*
G01*
X80104000Y-71319000D01*
G75*
G02*
X79904000Y-71519000I-200000J0D01*
G01*
X79354000Y-71519000D01*
G75*
G02*
X79154000Y-71319000I0J200000D01*
G01*
X79154000Y-70919000D01*
G75*
G02*
X79354000Y-70719000I200000J0D01*
G01*
G37*
G36*
G01*
X79354000Y-69069000D02*
X79904000Y-69069000D01*
G75*
G02*
X80104000Y-69269000I0J-200000D01*
G01*
X80104000Y-69669000D01*
G75*
G02*
X79904000Y-69869000I-200000J0D01*
G01*
X79354000Y-69869000D01*
G75*
G02*
X79154000Y-69669000I0J200000D01*
G01*
X79154000Y-69269000D01*
G75*
G02*
X79354000Y-69069000I200000J0D01*
G01*
G37*
%TD*%
%TO.C,R23*%
G36*
G01*
X74655000Y-70719000D02*
X75205000Y-70719000D01*
G75*
G02*
X75405000Y-70919000I0J-200000D01*
G01*
X75405000Y-71319000D01*
G75*
G02*
X75205000Y-71519000I-200000J0D01*
G01*
X74655000Y-71519000D01*
G75*
G02*
X74455000Y-71319000I0J200000D01*
G01*
X74455000Y-70919000D01*
G75*
G02*
X74655000Y-70719000I200000J0D01*
G01*
G37*
G36*
G01*
X74655000Y-69069000D02*
X75205000Y-69069000D01*
G75*
G02*
X75405000Y-69269000I0J-200000D01*
G01*
X75405000Y-69669000D01*
G75*
G02*
X75205000Y-69869000I-200000J0D01*
G01*
X74655000Y-69869000D01*
G75*
G02*
X74455000Y-69669000I0J200000D01*
G01*
X74455000Y-69269000D01*
G75*
G02*
X74655000Y-69069000I200000J0D01*
G01*
G37*
%TD*%
%TO.C,R22*%
G36*
G01*
X76179000Y-70719000D02*
X76729000Y-70719000D01*
G75*
G02*
X76929000Y-70919000I0J-200000D01*
G01*
X76929000Y-71319000D01*
G75*
G02*
X76729000Y-71519000I-200000J0D01*
G01*
X76179000Y-71519000D01*
G75*
G02*
X75979000Y-71319000I0J200000D01*
G01*
X75979000Y-70919000D01*
G75*
G02*
X76179000Y-70719000I200000J0D01*
G01*
G37*
G36*
G01*
X76179000Y-69069000D02*
X76729000Y-69069000D01*
G75*
G02*
X76929000Y-69269000I0J-200000D01*
G01*
X76929000Y-69669000D01*
G75*
G02*
X76729000Y-69869000I-200000J0D01*
G01*
X76179000Y-69869000D01*
G75*
G02*
X75979000Y-69669000I0J200000D01*
G01*
X75979000Y-69269000D01*
G75*
G02*
X76179000Y-69069000I200000J0D01*
G01*
G37*
%TD*%
%TO.C,R13*%
G36*
G01*
X114702000Y-74466400D02*
X114152000Y-74466400D01*
G75*
G02*
X113952000Y-74266400I0J200000D01*
G01*
X113952000Y-73866400D01*
G75*
G02*
X114152000Y-73666400I200000J0D01*
G01*
X114702000Y-73666400D01*
G75*
G02*
X114902000Y-73866400I0J-200000D01*
G01*
X114902000Y-74266400D01*
G75*
G02*
X114702000Y-74466400I-200000J0D01*
G01*
G37*
G36*
G01*
X114702000Y-76116400D02*
X114152000Y-76116400D01*
G75*
G02*
X113952000Y-75916400I0J200000D01*
G01*
X113952000Y-75516400D01*
G75*
G02*
X114152000Y-75316400I200000J0D01*
G01*
X114702000Y-75316400D01*
G75*
G02*
X114902000Y-75516400I0J-200000D01*
G01*
X114902000Y-75916400D01*
G75*
G02*
X114702000Y-76116400I-200000J0D01*
G01*
G37*
%TD*%
%TO.C,R8*%
G36*
G01*
X68525500Y-79865000D02*
X68525500Y-80415000D01*
G75*
G02*
X68325500Y-80615000I-200000J0D01*
G01*
X67925500Y-80615000D01*
G75*
G02*
X67725500Y-80415000I0J200000D01*
G01*
X67725500Y-79865000D01*
G75*
G02*
X67925500Y-79665000I200000J0D01*
G01*
X68325500Y-79665000D01*
G75*
G02*
X68525500Y-79865000I0J-200000D01*
G01*
G37*
G36*
G01*
X70175500Y-79865000D02*
X70175500Y-80415000D01*
G75*
G02*
X69975500Y-80615000I-200000J0D01*
G01*
X69575500Y-80615000D01*
G75*
G02*
X69375500Y-80415000I0J200000D01*
G01*
X69375500Y-79865000D01*
G75*
G02*
X69575500Y-79665000I200000J0D01*
G01*
X69975500Y-79665000D01*
G75*
G02*
X70175500Y-79865000I0J-200000D01*
G01*
G37*
%TD*%
%TO.C,R7*%
G36*
G01*
X68526500Y-78277500D02*
X68526500Y-78827500D01*
G75*
G02*
X68326500Y-79027500I-200000J0D01*
G01*
X67926500Y-79027500D01*
G75*
G02*
X67726500Y-78827500I0J200000D01*
G01*
X67726500Y-78277500D01*
G75*
G02*
X67926500Y-78077500I200000J0D01*
G01*
X68326500Y-78077500D01*
G75*
G02*
X68526500Y-78277500I0J-200000D01*
G01*
G37*
G36*
G01*
X70176500Y-78277500D02*
X70176500Y-78827500D01*
G75*
G02*
X69976500Y-79027500I-200000J0D01*
G01*
X69576500Y-79027500D01*
G75*
G02*
X69376500Y-78827500I0J200000D01*
G01*
X69376500Y-78277500D01*
G75*
G02*
X69576500Y-78077500I200000J0D01*
G01*
X69976500Y-78077500D01*
G75*
G02*
X70176500Y-78277500I0J-200000D01*
G01*
G37*
%TD*%
%TO.C,R4*%
G36*
G01*
X55520000Y-74185000D02*
X55520000Y-74735000D01*
G75*
G02*
X55320000Y-74935000I-200000J0D01*
G01*
X54920000Y-74935000D01*
G75*
G02*
X54720000Y-74735000I0J200000D01*
G01*
X54720000Y-74185000D01*
G75*
G02*
X54920000Y-73985000I200000J0D01*
G01*
X55320000Y-73985000D01*
G75*
G02*
X55520000Y-74185000I0J-200000D01*
G01*
G37*
G36*
G01*
X57170000Y-74185000D02*
X57170000Y-74735000D01*
G75*
G02*
X56970000Y-74935000I-200000J0D01*
G01*
X56570000Y-74935000D01*
G75*
G02*
X56370000Y-74735000I0J200000D01*
G01*
X56370000Y-74185000D01*
G75*
G02*
X56570000Y-73985000I200000J0D01*
G01*
X56970000Y-73985000D01*
G75*
G02*
X57170000Y-74185000I0J-200000D01*
G01*
G37*
%TD*%
%TO.C,R3*%
G36*
G01*
X51161900Y-66349200D02*
X51161900Y-66899200D01*
G75*
G02*
X50961900Y-67099200I-200000J0D01*
G01*
X50561900Y-67099200D01*
G75*
G02*
X50361900Y-66899200I0J200000D01*
G01*
X50361900Y-66349200D01*
G75*
G02*
X50561900Y-66149200I200000J0D01*
G01*
X50961900Y-66149200D01*
G75*
G02*
X51161900Y-66349200I0J-200000D01*
G01*
G37*
G36*
G01*
X52811900Y-66349200D02*
X52811900Y-66899200D01*
G75*
G02*
X52611900Y-67099200I-200000J0D01*
G01*
X52211900Y-67099200D01*
G75*
G02*
X52011900Y-66899200I0J200000D01*
G01*
X52011900Y-66349200D01*
G75*
G02*
X52211900Y-66149200I200000J0D01*
G01*
X52611900Y-66149200D01*
G75*
G02*
X52811900Y-66349200I0J-200000D01*
G01*
G37*
%TD*%
D24*
%TO.C,L1*%
X54891500Y-72180500D03*
X54891500Y-72980500D03*
X56741500Y-72980500D03*
X56741500Y-72180500D03*
%TD*%
D13*
%TO.C,J6*%
X113565900Y-61299000D03*
X122215900Y-61299000D03*
D14*
X113565900Y-64679000D03*
X122215900Y-64679000D03*
D15*
X117465900Y-64309000D03*
X114915900Y-64309000D03*
X115765900Y-64309000D03*
X116615900Y-64309000D03*
X120865900Y-64309000D03*
X119165900Y-64309000D03*
X118315900Y-64309000D03*
X120015900Y-64309000D03*
X114915900Y-65659000D03*
X115765900Y-65659000D03*
X116615900Y-65659000D03*
X117465900Y-65659000D03*
X118315900Y-65659000D03*
X119165900Y-65659000D03*
X120015900Y-65659000D03*
X120865900Y-65659000D03*
%TD*%
D13*
%TO.C,J4*%
X85625900Y-61299000D03*
X94275900Y-61299000D03*
D14*
X85625900Y-64679000D03*
X94275900Y-64679000D03*
D15*
X89525900Y-64309000D03*
X86975900Y-64309000D03*
X87825900Y-64309000D03*
X88675900Y-64309000D03*
X92925900Y-64309000D03*
X91225900Y-64309000D03*
X90375900Y-64309000D03*
X92075900Y-64309000D03*
X86975900Y-65659000D03*
X87825900Y-65659000D03*
X88675900Y-65659000D03*
X89525900Y-65659000D03*
X90375900Y-65659000D03*
X91225900Y-65659000D03*
X92075900Y-65659000D03*
X92925900Y-65659000D03*
%TD*%
D25*
%TO.C,J1*%
X45424000Y-68328500D03*
X45424000Y-76978500D03*
D26*
X48804000Y-68328500D03*
X48804000Y-76978500D03*
D15*
X48434000Y-72228500D03*
X48434000Y-69678500D03*
X48434000Y-70528500D03*
X48434000Y-71378500D03*
X48434000Y-75628500D03*
X48434000Y-73928500D03*
X48434000Y-73078500D03*
X48434000Y-74778500D03*
X49784000Y-69678500D03*
X49784000Y-70528500D03*
X49784000Y-71378500D03*
X49784000Y-72228500D03*
X49784000Y-73078500D03*
X49784000Y-73928500D03*
X49784000Y-74778500D03*
X49784000Y-75628500D03*
%TD*%
%TO.C,FB1*%
G36*
G01*
X54216550Y-77221700D02*
X53454050Y-77221700D01*
G75*
G02*
X53235300Y-77002950I0J218750D01*
G01*
X53235300Y-76565450D01*
G75*
G02*
X53454050Y-76346700I218750J0D01*
G01*
X54216550Y-76346700D01*
G75*
G02*
X54435300Y-76565450I0J-218750D01*
G01*
X54435300Y-77002950D01*
G75*
G02*
X54216550Y-77221700I-218750J0D01*
G01*
G37*
G36*
G01*
X54216550Y-79346700D02*
X53454050Y-79346700D01*
G75*
G02*
X53235300Y-79127950I0J218750D01*
G01*
X53235300Y-78690450D01*
G75*
G02*
X53454050Y-78471700I218750J0D01*
G01*
X54216550Y-78471700D01*
G75*
G02*
X54435300Y-78690450I0J-218750D01*
G01*
X54435300Y-79127950D01*
G75*
G02*
X54216550Y-79346700I-218750J0D01*
G01*
G37*
%TD*%
D27*
%TO.C,D22*%
X111125000Y-83058000D03*
X111125000Y-85458000D03*
%TD*%
%TO.C,D21*%
X124240000Y-170744000D03*
X124240000Y-173144000D03*
%TD*%
%TO.C,D20*%
X124240000Y-151694000D03*
X124240000Y-154094000D03*
%TD*%
%TO.C,D19*%
X124240000Y-132644000D03*
X124240000Y-135044000D03*
%TD*%
%TO.C,D18*%
X124240000Y-113594000D03*
X124240000Y-115994000D03*
%TD*%
%TO.C,D17*%
X124240000Y-94544000D03*
X124240000Y-96944000D03*
%TD*%
%TO.C,D16*%
X105190000Y-170744000D03*
X105190000Y-173144000D03*
%TD*%
%TO.C,D15*%
X105190000Y-151694000D03*
X105190000Y-154094000D03*
%TD*%
%TO.C,D14*%
X105190000Y-132644000D03*
X105190000Y-135044000D03*
%TD*%
%TO.C,D13*%
X105190000Y-113594000D03*
X105190000Y-115994000D03*
%TD*%
%TO.C,D12*%
X105190000Y-94544000D03*
X105190000Y-96944000D03*
%TD*%
%TO.C,D11*%
X86140000Y-170744000D03*
X86140000Y-173144000D03*
%TD*%
%TO.C,D10*%
X86140000Y-151694000D03*
X86140000Y-154094000D03*
%TD*%
%TO.C,D9*%
X86140000Y-132644000D03*
X86140000Y-135044000D03*
%TD*%
%TO.C,D8*%
X86140000Y-113594000D03*
X86140000Y-115994000D03*
%TD*%
%TO.C,D7*%
X86140000Y-94544000D03*
X86140000Y-96944000D03*
%TD*%
%TO.C,D6*%
X67090000Y-170744000D03*
X67090000Y-173144000D03*
%TD*%
%TO.C,D5*%
X67090000Y-154094000D03*
X67090000Y-151694000D03*
%TD*%
%TO.C,D4*%
X67090000Y-132644000D03*
X67090000Y-135044000D03*
%TD*%
%TO.C,D3*%
X67090000Y-113594000D03*
X67090000Y-115994000D03*
%TD*%
%TO.C,D2*%
X67090000Y-94544000D03*
X67090000Y-96944000D03*
%TD*%
D28*
%TO.C,X1*%
X100235160Y-80939640D03*
X98435160Y-80939640D03*
X98435160Y-82139640D03*
X100235160Y-82139640D03*
%TD*%
D29*
%TO.C,SW21*%
X114380000Y-86128000D03*
X119380000Y-86128000D03*
D30*
X111280000Y-79128000D03*
X122480000Y-79128000D03*
D29*
X114380000Y-71628000D03*
X116880000Y-71628000D03*
D31*
X119380000Y-71628000D03*
%TD*%
D16*
%TO.C,SW20*%
X116840000Y-174244000D03*
D17*
X121920000Y-174244000D03*
X111760000Y-174244000D03*
D18*
X120650000Y-176784000D03*
X114300000Y-179324000D03*
D19*
X124250000Y-176784000D03*
X110825000Y-179324000D03*
%TD*%
D16*
%TO.C,SW19*%
X116840000Y-155194000D03*
D17*
X121920000Y-155194000D03*
X111760000Y-155194000D03*
D18*
X120650000Y-157734000D03*
X114300000Y-160274000D03*
D19*
X124250000Y-157734000D03*
X110825000Y-160274000D03*
%TD*%
D16*
%TO.C,SW15*%
X97790000Y-174244000D03*
D17*
X102870000Y-174244000D03*
X92710000Y-174244000D03*
D18*
X101600000Y-176784000D03*
X95250000Y-179324000D03*
D19*
X105200000Y-176784000D03*
X91775000Y-179324000D03*
%TD*%
D16*
%TO.C,SW14*%
X97790000Y-155194000D03*
D17*
X102870000Y-155194000D03*
X92710000Y-155194000D03*
D18*
X101600000Y-157734000D03*
X95250000Y-160274000D03*
D19*
X105200000Y-157734000D03*
X91775000Y-160274000D03*
%TD*%
D16*
%TO.C,SW10*%
X78740000Y-174244000D03*
D17*
X83820000Y-174244000D03*
X73660000Y-174244000D03*
D18*
X82550000Y-176784000D03*
X76200000Y-179324000D03*
D19*
X86150000Y-176784000D03*
X72725000Y-179324000D03*
%TD*%
D16*
%TO.C,SW9*%
X78740000Y-155194000D03*
D17*
X83820000Y-155194000D03*
X73660000Y-155194000D03*
D18*
X82550000Y-157734000D03*
X76200000Y-160274000D03*
D19*
X86150000Y-157734000D03*
X72725000Y-160274000D03*
%TD*%
D16*
%TO.C,SW5*%
X59690000Y-174244000D03*
D17*
X64770000Y-174244000D03*
X54610000Y-174244000D03*
D18*
X63500000Y-176784000D03*
X57150000Y-179324000D03*
D19*
X67100000Y-176784000D03*
X53675000Y-179324000D03*
%TD*%
%TO.C,SW4*%
X53675000Y-160274000D03*
X67100000Y-157734000D03*
D18*
X57150000Y-160274000D03*
X63500000Y-157734000D03*
D17*
X54610000Y-155194000D03*
X64770000Y-155194000D03*
D16*
X59690000Y-155194000D03*
%TD*%
%TO.C,R18*%
G36*
G01*
X90790000Y-88795000D02*
X90790000Y-88245000D01*
G75*
G02*
X90990000Y-88045000I200000J0D01*
G01*
X91390000Y-88045000D01*
G75*
G02*
X91590000Y-88245000I0J-200000D01*
G01*
X91590000Y-88795000D01*
G75*
G02*
X91390000Y-88995000I-200000J0D01*
G01*
X90990000Y-88995000D01*
G75*
G02*
X90790000Y-88795000I0J200000D01*
G01*
G37*
G36*
G01*
X89140000Y-88795000D02*
X89140000Y-88245000D01*
G75*
G02*
X89340000Y-88045000I200000J0D01*
G01*
X89740000Y-88045000D01*
G75*
G02*
X89940000Y-88245000I0J-200000D01*
G01*
X89940000Y-88795000D01*
G75*
G02*
X89740000Y-88995000I-200000J0D01*
G01*
X89340000Y-88995000D01*
G75*
G02*
X89140000Y-88795000I0J200000D01*
G01*
G37*
%TD*%
%TO.C,R15*%
G36*
G01*
X119206600Y-164320000D02*
X119756600Y-164320000D01*
G75*
G02*
X119956600Y-164520000I0J-200000D01*
G01*
X119956600Y-164920000D01*
G75*
G02*
X119756600Y-165120000I-200000J0D01*
G01*
X119206600Y-165120000D01*
G75*
G02*
X119006600Y-164920000I0J200000D01*
G01*
X119006600Y-164520000D01*
G75*
G02*
X119206600Y-164320000I200000J0D01*
G01*
G37*
G36*
G01*
X119206600Y-165970000D02*
X119756600Y-165970000D01*
G75*
G02*
X119956600Y-166170000I0J-200000D01*
G01*
X119956600Y-166570000D01*
G75*
G02*
X119756600Y-166770000I-200000J0D01*
G01*
X119206600Y-166770000D01*
G75*
G02*
X119006600Y-166570000I0J200000D01*
G01*
X119006600Y-166170000D01*
G75*
G02*
X119206600Y-165970000I200000J0D01*
G01*
G37*
%TD*%
%TO.C,R14*%
G36*
G01*
X119528000Y-74809800D02*
X118978000Y-74809800D01*
G75*
G02*
X118778000Y-74609800I0J200000D01*
G01*
X118778000Y-74209800D01*
G75*
G02*
X118978000Y-74009800I200000J0D01*
G01*
X119528000Y-74009800D01*
G75*
G02*
X119728000Y-74209800I0J-200000D01*
G01*
X119728000Y-74609800D01*
G75*
G02*
X119528000Y-74809800I-200000J0D01*
G01*
G37*
G36*
G01*
X119528000Y-76459800D02*
X118978000Y-76459800D01*
G75*
G02*
X118778000Y-76259800I0J200000D01*
G01*
X118778000Y-75859800D01*
G75*
G02*
X118978000Y-75659800I200000J0D01*
G01*
X119528000Y-75659800D01*
G75*
G02*
X119728000Y-75859800I0J-200000D01*
G01*
X119728000Y-76259800D01*
G75*
G02*
X119528000Y-76459800I-200000J0D01*
G01*
G37*
%TD*%
D32*
%TO.C,J2*%
X62471300Y-61455300D03*
X59931300Y-61455300D03*
X57391300Y-61455300D03*
D33*
X54851300Y-61455300D03*
%TD*%
D34*
%TO.C,H4*%
X46863000Y-187325000D03*
%TD*%
%TO.C,H3*%
X129540000Y-187325000D03*
%TD*%
%TO.C,H2*%
X46863000Y-62738000D03*
%TD*%
%TO.C,H1*%
X129540000Y-62738000D03*
%TD*%
%TO.C,C36*%
G36*
G01*
X93935000Y-73220000D02*
X93935000Y-72720000D01*
G75*
G02*
X94160000Y-72495000I225000J0D01*
G01*
X94610000Y-72495000D01*
G75*
G02*
X94835000Y-72720000I0J-225000D01*
G01*
X94835000Y-73220000D01*
G75*
G02*
X94610000Y-73445000I-225000J0D01*
G01*
X94160000Y-73445000D01*
G75*
G02*
X93935000Y-73220000I0J225000D01*
G01*
G37*
G36*
G01*
X92385000Y-73220000D02*
X92385000Y-72720000D01*
G75*
G02*
X92610000Y-72495000I225000J0D01*
G01*
X93060000Y-72495000D01*
G75*
G02*
X93285000Y-72720000I0J-225000D01*
G01*
X93285000Y-73220000D01*
G75*
G02*
X93060000Y-73445000I-225000J0D01*
G01*
X92610000Y-73445000D01*
G75*
G02*
X92385000Y-73220000I0J225000D01*
G01*
G37*
%TD*%
%TO.C,C35*%
G36*
G01*
X105914000Y-81349000D02*
X105414000Y-81349000D01*
G75*
G02*
X105189000Y-81124000I0J225000D01*
G01*
X105189000Y-80674000D01*
G75*
G02*
X105414000Y-80449000I225000J0D01*
G01*
X105914000Y-80449000D01*
G75*
G02*
X106139000Y-80674000I0J-225000D01*
G01*
X106139000Y-81124000D01*
G75*
G02*
X105914000Y-81349000I-225000J0D01*
G01*
G37*
G36*
G01*
X105914000Y-79799000D02*
X105414000Y-79799000D01*
G75*
G02*
X105189000Y-79574000I0J225000D01*
G01*
X105189000Y-79124000D01*
G75*
G02*
X105414000Y-78899000I225000J0D01*
G01*
X105914000Y-78899000D01*
G75*
G02*
X106139000Y-79124000I0J-225000D01*
G01*
X106139000Y-79574000D01*
G75*
G02*
X105914000Y-79799000I-225000J0D01*
G01*
G37*
%TD*%
%TO.C,C32*%
G36*
G01*
X72640000Y-85336200D02*
X72140000Y-85336200D01*
G75*
G02*
X71915000Y-85111200I0J225000D01*
G01*
X71915000Y-84661200D01*
G75*
G02*
X72140000Y-84436200I225000J0D01*
G01*
X72640000Y-84436200D01*
G75*
G02*
X72865000Y-84661200I0J-225000D01*
G01*
X72865000Y-85111200D01*
G75*
G02*
X72640000Y-85336200I-225000J0D01*
G01*
G37*
G36*
G01*
X72640000Y-86886200D02*
X72140000Y-86886200D01*
G75*
G02*
X71915000Y-86661200I0J225000D01*
G01*
X71915000Y-86211200D01*
G75*
G02*
X72140000Y-85986200I225000J0D01*
G01*
X72640000Y-85986200D01*
G75*
G02*
X72865000Y-86211200I0J-225000D01*
G01*
X72865000Y-86661200D01*
G75*
G02*
X72640000Y-86886200I-225000J0D01*
G01*
G37*
%TD*%
%TO.C,C29*%
G36*
G01*
X75648400Y-147468400D02*
X75648400Y-146968400D01*
G75*
G02*
X75873400Y-146743400I225000J0D01*
G01*
X76323400Y-146743400D01*
G75*
G02*
X76548400Y-146968400I0J-225000D01*
G01*
X76548400Y-147468400D01*
G75*
G02*
X76323400Y-147693400I-225000J0D01*
G01*
X75873400Y-147693400D01*
G75*
G02*
X75648400Y-147468400I0J225000D01*
G01*
G37*
G36*
G01*
X77198400Y-147468400D02*
X77198400Y-146968400D01*
G75*
G02*
X77423400Y-146743400I225000J0D01*
G01*
X77873400Y-146743400D01*
G75*
G02*
X78098400Y-146968400I0J-225000D01*
G01*
X78098400Y-147468400D01*
G75*
G02*
X77873400Y-147693400I-225000J0D01*
G01*
X77423400Y-147693400D01*
G75*
G02*
X77198400Y-147468400I0J225000D01*
G01*
G37*
%TD*%
%TO.C,C27*%
G36*
G01*
X75648400Y-109368400D02*
X75648400Y-108868400D01*
G75*
G02*
X75873400Y-108643400I225000J0D01*
G01*
X76323400Y-108643400D01*
G75*
G02*
X76548400Y-108868400I0J-225000D01*
G01*
X76548400Y-109368400D01*
G75*
G02*
X76323400Y-109593400I-225000J0D01*
G01*
X75873400Y-109593400D01*
G75*
G02*
X75648400Y-109368400I0J225000D01*
G01*
G37*
G36*
G01*
X77198400Y-109368400D02*
X77198400Y-108868400D01*
G75*
G02*
X77423400Y-108643400I225000J0D01*
G01*
X77873400Y-108643400D01*
G75*
G02*
X78098400Y-108868400I0J-225000D01*
G01*
X78098400Y-109368400D01*
G75*
G02*
X77873400Y-109593400I-225000J0D01*
G01*
X77423400Y-109593400D01*
G75*
G02*
X77198400Y-109368400I0J225000D01*
G01*
G37*
%TD*%
%TO.C,C26*%
G36*
G01*
X120744700Y-132947600D02*
X120744700Y-133447600D01*
G75*
G02*
X120519700Y-133672600I-225000J0D01*
G01*
X120069700Y-133672600D01*
G75*
G02*
X119844700Y-133447600I0J225000D01*
G01*
X119844700Y-132947600D01*
G75*
G02*
X120069700Y-132722600I225000J0D01*
G01*
X120519700Y-132722600D01*
G75*
G02*
X120744700Y-132947600I0J-225000D01*
G01*
G37*
G36*
G01*
X119194700Y-132947600D02*
X119194700Y-133447600D01*
G75*
G02*
X118969700Y-133672600I-225000J0D01*
G01*
X118519700Y-133672600D01*
G75*
G02*
X118294700Y-133447600I0J225000D01*
G01*
X118294700Y-132947600D01*
G75*
G02*
X118519700Y-132722600I225000J0D01*
G01*
X118969700Y-132722600D01*
G75*
G02*
X119194700Y-132947600I0J-225000D01*
G01*
G37*
%TD*%
%TO.C,C24*%
G36*
G01*
X63873800Y-132896800D02*
X63873800Y-133396800D01*
G75*
G02*
X63648800Y-133621800I-225000J0D01*
G01*
X63198800Y-133621800D01*
G75*
G02*
X62973800Y-133396800I0J225000D01*
G01*
X62973800Y-132896800D01*
G75*
G02*
X63198800Y-132671800I225000J0D01*
G01*
X63648800Y-132671800D01*
G75*
G02*
X63873800Y-132896800I0J-225000D01*
G01*
G37*
G36*
G01*
X62323800Y-132896800D02*
X62323800Y-133396800D01*
G75*
G02*
X62098800Y-133621800I-225000J0D01*
G01*
X61648800Y-133621800D01*
G75*
G02*
X61423800Y-133396800I0J225000D01*
G01*
X61423800Y-132896800D01*
G75*
G02*
X61648800Y-132671800I225000J0D01*
G01*
X62098800Y-132671800D01*
G75*
G02*
X62323800Y-132896800I0J-225000D01*
G01*
G37*
%TD*%
%TO.C,C22*%
G36*
G01*
X82771400Y-132922200D02*
X82771400Y-133422200D01*
G75*
G02*
X82546400Y-133647200I-225000J0D01*
G01*
X82096400Y-133647200D01*
G75*
G02*
X81871400Y-133422200I0J225000D01*
G01*
X81871400Y-132922200D01*
G75*
G02*
X82096400Y-132697200I225000J0D01*
G01*
X82546400Y-132697200D01*
G75*
G02*
X82771400Y-132922200I0J-225000D01*
G01*
G37*
G36*
G01*
X81221400Y-132922200D02*
X81221400Y-133422200D01*
G75*
G02*
X80996400Y-133647200I-225000J0D01*
G01*
X80546400Y-133647200D01*
G75*
G02*
X80321400Y-133422200I0J225000D01*
G01*
X80321400Y-132922200D01*
G75*
G02*
X80546400Y-132697200I225000J0D01*
G01*
X80996400Y-132697200D01*
G75*
G02*
X81221400Y-132922200I0J-225000D01*
G01*
G37*
%TD*%
%TO.C,C19*%
G36*
G01*
X113748400Y-109368400D02*
X113748400Y-108868400D01*
G75*
G02*
X113973400Y-108643400I225000J0D01*
G01*
X114423400Y-108643400D01*
G75*
G02*
X114648400Y-108868400I0J-225000D01*
G01*
X114648400Y-109368400D01*
G75*
G02*
X114423400Y-109593400I-225000J0D01*
G01*
X113973400Y-109593400D01*
G75*
G02*
X113748400Y-109368400I0J225000D01*
G01*
G37*
G36*
G01*
X115298400Y-109368400D02*
X115298400Y-108868400D01*
G75*
G02*
X115523400Y-108643400I225000J0D01*
G01*
X115973400Y-108643400D01*
G75*
G02*
X116198400Y-108868400I0J-225000D01*
G01*
X116198400Y-109368400D01*
G75*
G02*
X115973400Y-109593400I-225000J0D01*
G01*
X115523400Y-109593400D01*
G75*
G02*
X115298400Y-109368400I0J225000D01*
G01*
G37*
%TD*%
%TO.C,C17*%
G36*
G01*
X82390400Y-94796800D02*
X82390400Y-95296800D01*
G75*
G02*
X82165400Y-95521800I-225000J0D01*
G01*
X81715400Y-95521800D01*
G75*
G02*
X81490400Y-95296800I0J225000D01*
G01*
X81490400Y-94796800D01*
G75*
G02*
X81715400Y-94571800I225000J0D01*
G01*
X82165400Y-94571800D01*
G75*
G02*
X82390400Y-94796800I0J-225000D01*
G01*
G37*
G36*
G01*
X80840400Y-94796800D02*
X80840400Y-95296800D01*
G75*
G02*
X80615400Y-95521800I-225000J0D01*
G01*
X80165400Y-95521800D01*
G75*
G02*
X79940400Y-95296800I0J225000D01*
G01*
X79940400Y-94796800D01*
G75*
G02*
X80165400Y-94571800I225000J0D01*
G01*
X80615400Y-94571800D01*
G75*
G02*
X80840400Y-94796800I0J-225000D01*
G01*
G37*
%TD*%
%TO.C,C15*%
G36*
G01*
X101516600Y-132896800D02*
X101516600Y-133396800D01*
G75*
G02*
X101291600Y-133621800I-225000J0D01*
G01*
X100841600Y-133621800D01*
G75*
G02*
X100616600Y-133396800I0J225000D01*
G01*
X100616600Y-132896800D01*
G75*
G02*
X100841600Y-132671800I225000J0D01*
G01*
X101291600Y-132671800D01*
G75*
G02*
X101516600Y-132896800I0J-225000D01*
G01*
G37*
G36*
G01*
X99966600Y-132896800D02*
X99966600Y-133396800D01*
G75*
G02*
X99741600Y-133621800I-225000J0D01*
G01*
X99291600Y-133621800D01*
G75*
G02*
X99066600Y-133396800I0J225000D01*
G01*
X99066600Y-132896800D01*
G75*
G02*
X99291600Y-132671800I225000J0D01*
G01*
X99741600Y-132671800D01*
G75*
G02*
X99966600Y-132896800I0J-225000D01*
G01*
G37*
%TD*%
%TO.C,C13*%
G36*
G01*
X94749200Y-109317600D02*
X94749200Y-108817600D01*
G75*
G02*
X94974200Y-108592600I225000J0D01*
G01*
X95424200Y-108592600D01*
G75*
G02*
X95649200Y-108817600I0J-225000D01*
G01*
X95649200Y-109317600D01*
G75*
G02*
X95424200Y-109542600I-225000J0D01*
G01*
X94974200Y-109542600D01*
G75*
G02*
X94749200Y-109317600I0J225000D01*
G01*
G37*
G36*
G01*
X96299200Y-109317600D02*
X96299200Y-108817600D01*
G75*
G02*
X96524200Y-108592600I225000J0D01*
G01*
X96974200Y-108592600D01*
G75*
G02*
X97199200Y-108817600I0J-225000D01*
G01*
X97199200Y-109317600D01*
G75*
G02*
X96974200Y-109542600I-225000J0D01*
G01*
X96524200Y-109542600D01*
G75*
G02*
X96299200Y-109317600I0J225000D01*
G01*
G37*
%TD*%
%TO.C,C11*%
G36*
G01*
X120566600Y-94860300D02*
X120566600Y-95360300D01*
G75*
G02*
X120341600Y-95585300I-225000J0D01*
G01*
X119891600Y-95585300D01*
G75*
G02*
X119666600Y-95360300I0J225000D01*
G01*
X119666600Y-94860300D01*
G75*
G02*
X119891600Y-94635300I225000J0D01*
G01*
X120341600Y-94635300D01*
G75*
G02*
X120566600Y-94860300I0J-225000D01*
G01*
G37*
G36*
G01*
X119016600Y-94860300D02*
X119016600Y-95360300D01*
G75*
G02*
X118791600Y-95585300I-225000J0D01*
G01*
X118341600Y-95585300D01*
G75*
G02*
X118116600Y-95360300I0J225000D01*
G01*
X118116600Y-94860300D01*
G75*
G02*
X118341600Y-94635300I225000J0D01*
G01*
X118791600Y-94635300D01*
G75*
G02*
X119016600Y-94860300I0J-225000D01*
G01*
G37*
%TD*%
%TO.C,C10*%
G36*
G01*
X56395200Y-147519200D02*
X56395200Y-147019200D01*
G75*
G02*
X56620200Y-146794200I225000J0D01*
G01*
X57070200Y-146794200D01*
G75*
G02*
X57295200Y-147019200I0J-225000D01*
G01*
X57295200Y-147519200D01*
G75*
G02*
X57070200Y-147744200I-225000J0D01*
G01*
X56620200Y-147744200D01*
G75*
G02*
X56395200Y-147519200I0J225000D01*
G01*
G37*
G36*
G01*
X57945200Y-147519200D02*
X57945200Y-147019200D01*
G75*
G02*
X58170200Y-146794200I225000J0D01*
G01*
X58620200Y-146794200D01*
G75*
G02*
X58845200Y-147019200I0J-225000D01*
G01*
X58845200Y-147519200D01*
G75*
G02*
X58620200Y-147744200I-225000J0D01*
G01*
X58170200Y-147744200D01*
G75*
G02*
X57945200Y-147519200I0J225000D01*
G01*
G37*
%TD*%
%TO.C,C9*%
G36*
G01*
X94546000Y-147519200D02*
X94546000Y-147019200D01*
G75*
G02*
X94771000Y-146794200I225000J0D01*
G01*
X95221000Y-146794200D01*
G75*
G02*
X95446000Y-147019200I0J-225000D01*
G01*
X95446000Y-147519200D01*
G75*
G02*
X95221000Y-147744200I-225000J0D01*
G01*
X94771000Y-147744200D01*
G75*
G02*
X94546000Y-147519200I0J225000D01*
G01*
G37*
G36*
G01*
X96096000Y-147519200D02*
X96096000Y-147019200D01*
G75*
G02*
X96321000Y-146794200I225000J0D01*
G01*
X96771000Y-146794200D01*
G75*
G02*
X96996000Y-147019200I0J-225000D01*
G01*
X96996000Y-147519200D01*
G75*
G02*
X96771000Y-147744200I-225000J0D01*
G01*
X96321000Y-147744200D01*
G75*
G02*
X96096000Y-147519200I0J225000D01*
G01*
G37*
%TD*%
%TO.C,C7*%
G36*
G01*
X56649200Y-109165200D02*
X56649200Y-108665200D01*
G75*
G02*
X56874200Y-108440200I225000J0D01*
G01*
X57324200Y-108440200D01*
G75*
G02*
X57549200Y-108665200I0J-225000D01*
G01*
X57549200Y-109165200D01*
G75*
G02*
X57324200Y-109390200I-225000J0D01*
G01*
X56874200Y-109390200D01*
G75*
G02*
X56649200Y-109165200I0J225000D01*
G01*
G37*
G36*
G01*
X58199200Y-109165200D02*
X58199200Y-108665200D01*
G75*
G02*
X58424200Y-108440200I225000J0D01*
G01*
X58874200Y-108440200D01*
G75*
G02*
X59099200Y-108665200I0J-225000D01*
G01*
X59099200Y-109165200D01*
G75*
G02*
X58874200Y-109390200I-225000J0D01*
G01*
X58424200Y-109390200D01*
G75*
G02*
X58199200Y-109165200I0J225000D01*
G01*
G37*
%TD*%
%TO.C,C6*%
G36*
G01*
X113799200Y-147519200D02*
X113799200Y-147019200D01*
G75*
G02*
X114024200Y-146794200I225000J0D01*
G01*
X114474200Y-146794200D01*
G75*
G02*
X114699200Y-147019200I0J-225000D01*
G01*
X114699200Y-147519200D01*
G75*
G02*
X114474200Y-147744200I-225000J0D01*
G01*
X114024200Y-147744200D01*
G75*
G02*
X113799200Y-147519200I0J225000D01*
G01*
G37*
G36*
G01*
X115349200Y-147519200D02*
X115349200Y-147019200D01*
G75*
G02*
X115574200Y-146794200I225000J0D01*
G01*
X116024200Y-146794200D01*
G75*
G02*
X116249200Y-147019200I0J-225000D01*
G01*
X116249200Y-147519200D01*
G75*
G02*
X116024200Y-147744200I-225000J0D01*
G01*
X115574200Y-147744200D01*
G75*
G02*
X115349200Y-147519200I0J225000D01*
G01*
G37*
%TD*%
%TO.C,C5*%
G36*
G01*
X101681700Y-94860300D02*
X101681700Y-95360300D01*
G75*
G02*
X101456700Y-95585300I-225000J0D01*
G01*
X101006700Y-95585300D01*
G75*
G02*
X100781700Y-95360300I0J225000D01*
G01*
X100781700Y-94860300D01*
G75*
G02*
X101006700Y-94635300I225000J0D01*
G01*
X101456700Y-94635300D01*
G75*
G02*
X101681700Y-94860300I0J-225000D01*
G01*
G37*
G36*
G01*
X100131700Y-94860300D02*
X100131700Y-95360300D01*
G75*
G02*
X99906700Y-95585300I-225000J0D01*
G01*
X99456700Y-95585300D01*
G75*
G02*
X99231700Y-95360300I0J225000D01*
G01*
X99231700Y-94860300D01*
G75*
G02*
X99456700Y-94635300I225000J0D01*
G01*
X99906700Y-94635300D01*
G75*
G02*
X100131700Y-94860300I0J-225000D01*
G01*
G37*
%TD*%
M02*
