%TF.GenerationSoftware,KiCad,Pcbnew,(5.1.8)-1*%
%TF.CreationDate,2021-08-19T19:14:59+10:00*%
%TF.ProjectId,Macropad,4d616372-6f70-4616-942e-6b696361645f,rev?*%
%TF.SameCoordinates,Original*%
%TF.FileFunction,Legend,Top*%
%TF.FilePolarity,Positive*%
%FSLAX46Y46*%
G04 Gerber Fmt 4.6, Leading zero omitted, Abs format (unit mm)*
G04 Created by KiCad (PCBNEW (5.1.8)-1) date 2021-08-19 19:14:59*
%MOMM*%
%LPD*%
G01*
G04 APERTURE LIST*
%ADD10C,0.150000*%
%ADD11C,0.250000*%
%ADD12C,0.120000*%
G04 APERTURE END LIST*
D10*
X82291571Y-185952380D02*
X82291571Y-184952380D01*
X82624904Y-185666666D01*
X82958238Y-184952380D01*
X82958238Y-185952380D01*
X83863000Y-185952380D02*
X83863000Y-185428571D01*
X83815380Y-185333333D01*
X83720142Y-185285714D01*
X83529666Y-185285714D01*
X83434428Y-185333333D01*
X83863000Y-185904761D02*
X83767761Y-185952380D01*
X83529666Y-185952380D01*
X83434428Y-185904761D01*
X83386809Y-185809523D01*
X83386809Y-185714285D01*
X83434428Y-185619047D01*
X83529666Y-185571428D01*
X83767761Y-185571428D01*
X83863000Y-185523809D01*
X84767761Y-185904761D02*
X84672523Y-185952380D01*
X84482047Y-185952380D01*
X84386809Y-185904761D01*
X84339190Y-185857142D01*
X84291571Y-185761904D01*
X84291571Y-185476190D01*
X84339190Y-185380952D01*
X84386809Y-185333333D01*
X84482047Y-185285714D01*
X84672523Y-185285714D01*
X84767761Y-185333333D01*
X85196333Y-185952380D02*
X85196333Y-185285714D01*
X85196333Y-185476190D02*
X85243952Y-185380952D01*
X85291571Y-185333333D01*
X85386809Y-185285714D01*
X85482047Y-185285714D01*
X85958238Y-185952380D02*
X85863000Y-185904761D01*
X85815380Y-185857142D01*
X85767761Y-185761904D01*
X85767761Y-185476190D01*
X85815380Y-185380952D01*
X85863000Y-185333333D01*
X85958238Y-185285714D01*
X86101095Y-185285714D01*
X86196333Y-185333333D01*
X86243952Y-185380952D01*
X86291571Y-185476190D01*
X86291571Y-185761904D01*
X86243952Y-185857142D01*
X86196333Y-185904761D01*
X86101095Y-185952380D01*
X85958238Y-185952380D01*
X86720142Y-185285714D02*
X86720142Y-186285714D01*
X86720142Y-185333333D02*
X86815380Y-185285714D01*
X87005857Y-185285714D01*
X87101095Y-185333333D01*
X87148714Y-185380952D01*
X87196333Y-185476190D01*
X87196333Y-185761904D01*
X87148714Y-185857142D01*
X87101095Y-185904761D01*
X87005857Y-185952380D01*
X86815380Y-185952380D01*
X86720142Y-185904761D01*
X88053476Y-185952380D02*
X88053476Y-185428571D01*
X88005857Y-185333333D01*
X87910619Y-185285714D01*
X87720142Y-185285714D01*
X87624904Y-185333333D01*
X88053476Y-185904761D02*
X87958238Y-185952380D01*
X87720142Y-185952380D01*
X87624904Y-185904761D01*
X87577285Y-185809523D01*
X87577285Y-185714285D01*
X87624904Y-185619047D01*
X87720142Y-185571428D01*
X87958238Y-185571428D01*
X88053476Y-185523809D01*
X88958238Y-185952380D02*
X88958238Y-184952380D01*
X88958238Y-185904761D02*
X88863000Y-185952380D01*
X88672523Y-185952380D01*
X88577285Y-185904761D01*
X88529666Y-185857142D01*
X88482047Y-185761904D01*
X88482047Y-185476190D01*
X88529666Y-185380952D01*
X88577285Y-185333333D01*
X88672523Y-185285714D01*
X88863000Y-185285714D01*
X88958238Y-185333333D01*
X90196333Y-185571428D02*
X90958238Y-185571428D01*
X92101095Y-185285714D02*
X92339190Y-185952380D01*
X92577285Y-185285714D01*
X93148714Y-184952380D02*
X93243952Y-184952380D01*
X93339190Y-185000000D01*
X93386809Y-185047619D01*
X93434428Y-185142857D01*
X93482047Y-185333333D01*
X93482047Y-185571428D01*
X93434428Y-185761904D01*
X93386809Y-185857142D01*
X93339190Y-185904761D01*
X93243952Y-185952380D01*
X93148714Y-185952380D01*
X93053476Y-185904761D01*
X93005857Y-185857142D01*
X92958238Y-185761904D01*
X92910619Y-185571428D01*
X92910619Y-185333333D01*
X92958238Y-185142857D01*
X93005857Y-185047619D01*
X93053476Y-185000000D01*
X93148714Y-184952380D01*
X81815380Y-187316666D02*
X82291571Y-187316666D01*
X81720142Y-187602380D02*
X82053476Y-186602380D01*
X82386809Y-187602380D01*
X82863000Y-187602380D02*
X82767761Y-187554761D01*
X82720142Y-187459523D01*
X82720142Y-186602380D01*
X83624904Y-187554761D02*
X83529666Y-187602380D01*
X83339190Y-187602380D01*
X83243952Y-187554761D01*
X83196333Y-187459523D01*
X83196333Y-187078571D01*
X83243952Y-186983333D01*
X83339190Y-186935714D01*
X83529666Y-186935714D01*
X83624904Y-186983333D01*
X83672523Y-187078571D01*
X83672523Y-187173809D01*
X83196333Y-187269047D01*
X84005857Y-187602380D02*
X84529666Y-186935714D01*
X84005857Y-186935714D02*
X84529666Y-187602380D01*
X86005857Y-187078571D02*
X86148714Y-187126190D01*
X86196333Y-187173809D01*
X86243952Y-187269047D01*
X86243952Y-187411904D01*
X86196333Y-187507142D01*
X86148714Y-187554761D01*
X86053476Y-187602380D01*
X85672523Y-187602380D01*
X85672523Y-186602380D01*
X86005857Y-186602380D01*
X86101095Y-186650000D01*
X86148714Y-186697619D01*
X86196333Y-186792857D01*
X86196333Y-186888095D01*
X86148714Y-186983333D01*
X86101095Y-187030952D01*
X86005857Y-187078571D01*
X85672523Y-187078571D01*
X86672523Y-187602380D02*
X86672523Y-186935714D01*
X86672523Y-186602380D02*
X86624904Y-186650000D01*
X86672523Y-186697619D01*
X86720142Y-186650000D01*
X86672523Y-186602380D01*
X86672523Y-186697619D01*
X87148714Y-186935714D02*
X87148714Y-187602380D01*
X87148714Y-187030952D02*
X87196333Y-186983333D01*
X87291571Y-186935714D01*
X87434428Y-186935714D01*
X87529666Y-186983333D01*
X87577285Y-187078571D01*
X87577285Y-187602380D01*
X88196333Y-187602380D02*
X88101095Y-187554761D01*
X88053476Y-187507142D01*
X88005857Y-187411904D01*
X88005857Y-187126190D01*
X88053476Y-187030952D01*
X88101095Y-186983333D01*
X88196333Y-186935714D01*
X88339190Y-186935714D01*
X88434428Y-186983333D01*
X88482047Y-187030952D01*
X88529666Y-187126190D01*
X88529666Y-187411904D01*
X88482047Y-187507142D01*
X88434428Y-187554761D01*
X88339190Y-187602380D01*
X88196333Y-187602380D01*
X88910619Y-187554761D02*
X89005857Y-187602380D01*
X89196333Y-187602380D01*
X89291571Y-187554761D01*
X89339190Y-187459523D01*
X89339190Y-187411904D01*
X89291571Y-187316666D01*
X89196333Y-187269047D01*
X89053476Y-187269047D01*
X88958238Y-187221428D01*
X88910619Y-187126190D01*
X88910619Y-187078571D01*
X88958238Y-186983333D01*
X89053476Y-186935714D01*
X89196333Y-186935714D01*
X89291571Y-186983333D01*
X90482047Y-186697619D02*
X90529666Y-186650000D01*
X90624904Y-186602380D01*
X90863000Y-186602380D01*
X90958238Y-186650000D01*
X91005857Y-186697619D01*
X91053476Y-186792857D01*
X91053476Y-186888095D01*
X91005857Y-187030952D01*
X90434428Y-187602380D01*
X91053476Y-187602380D01*
X91672523Y-186602380D02*
X91767761Y-186602380D01*
X91863000Y-186650000D01*
X91910619Y-186697619D01*
X91958238Y-186792857D01*
X92005857Y-186983333D01*
X92005857Y-187221428D01*
X91958238Y-187411904D01*
X91910619Y-187507142D01*
X91863000Y-187554761D01*
X91767761Y-187602380D01*
X91672523Y-187602380D01*
X91577285Y-187554761D01*
X91529666Y-187507142D01*
X91482047Y-187411904D01*
X91434428Y-187221428D01*
X91434428Y-186983333D01*
X91482047Y-186792857D01*
X91529666Y-186697619D01*
X91577285Y-186650000D01*
X91672523Y-186602380D01*
X92386809Y-186697619D02*
X92434428Y-186650000D01*
X92529666Y-186602380D01*
X92767761Y-186602380D01*
X92863000Y-186650000D01*
X92910619Y-186697619D01*
X92958238Y-186792857D01*
X92958238Y-186888095D01*
X92910619Y-187030952D01*
X92339190Y-187602380D01*
X92958238Y-187602380D01*
X93910619Y-187602380D02*
X93339190Y-187602380D01*
X93624904Y-187602380D02*
X93624904Y-186602380D01*
X93529666Y-186745238D01*
X93434428Y-186840476D01*
X93339190Y-186888095D01*
D11*
X46175600Y-103378000D02*
G75*
G03*
X46175600Y-103378000I-100000J0D01*
G01*
X46150200Y-122453400D02*
G75*
G03*
X46150200Y-122453400I-100000J0D01*
G01*
X46188300Y-141401800D02*
G75*
G03*
X46188300Y-141401800I-100000J0D01*
G01*
X46175600Y-160528000D02*
G75*
G03*
X46175600Y-160528000I-100000J0D01*
G01*
X65022400Y-188036200D02*
G75*
G03*
X65022400Y-188036200I-100000J0D01*
G01*
X103224000Y-188150500D02*
G75*
G03*
X103224000Y-188150500I-100000J0D01*
G01*
X130300400Y-168922700D02*
G75*
G03*
X130300400Y-168922700I-100000J0D01*
G01*
X130300400Y-149834600D02*
G75*
G03*
X130300400Y-149834600I-100000J0D01*
G01*
X130351200Y-130835400D02*
G75*
G03*
X130351200Y-130835400I-100000J0D01*
G01*
X130351200Y-111696500D02*
G75*
G03*
X130351200Y-111696500I-100000J0D01*
G01*
X61326700Y-75311000D02*
G75*
G03*
X61326700Y-75311000I-100000J0D01*
G01*
X53884500Y-73875900D02*
G75*
G03*
X53884500Y-73875900I-100000J0D01*
G01*
X127430200Y-65976500D02*
G75*
G03*
X127430200Y-65976500I-100000J0D01*
G01*
X96099300Y-71132700D02*
G75*
G03*
X96099300Y-71132700I-100000J0D01*
G01*
X92060700Y-72936100D02*
G75*
G03*
X92060700Y-72936100I-100000J0D01*
G01*
D10*
X51028695Y-81630900D02*
X50933457Y-81583280D01*
X50790600Y-81583280D01*
X50647742Y-81630900D01*
X50552504Y-81726138D01*
X50504885Y-81821376D01*
X50457266Y-82011852D01*
X50457266Y-82154709D01*
X50504885Y-82345185D01*
X50552504Y-82440423D01*
X50647742Y-82535661D01*
X50790600Y-82583280D01*
X50885838Y-82583280D01*
X51028695Y-82535661D01*
X51076314Y-82488042D01*
X51076314Y-82154709D01*
X50885838Y-82154709D01*
X51504885Y-82583280D02*
X51504885Y-81583280D01*
X52076314Y-82583280D01*
X52076314Y-81583280D01*
X52552504Y-82583280D02*
X52552504Y-81583280D01*
X52790600Y-81583280D01*
X52933457Y-81630900D01*
X53028695Y-81726138D01*
X53076314Y-81821376D01*
X53123933Y-82011852D01*
X53123933Y-82154709D01*
X53076314Y-82345185D01*
X53028695Y-82440423D01*
X52933457Y-82535661D01*
X52790600Y-82583280D01*
X52552504Y-82583280D01*
X46644085Y-82164228D02*
X47405990Y-82164228D01*
X47025038Y-82545180D02*
X47025038Y-81783276D01*
X48358371Y-81545180D02*
X47882180Y-81545180D01*
X47834561Y-82021371D01*
X47882180Y-81973752D01*
X47977419Y-81926133D01*
X48215514Y-81926133D01*
X48310752Y-81973752D01*
X48358371Y-82021371D01*
X48405990Y-82116609D01*
X48405990Y-82354704D01*
X48358371Y-82449942D01*
X48310752Y-82497561D01*
X48215514Y-82545180D01*
X47977419Y-82545180D01*
X47882180Y-82497561D01*
X47834561Y-82449942D01*
X48691704Y-81545180D02*
X49025038Y-82545180D01*
X49358371Y-81545180D01*
D12*
%TO.C,TP2*%
X65990700Y-84645500D02*
G75*
G03*
X65990700Y-84645500I-700000J0D01*
G01*
%TO.C,C30*%
X68655620Y-74496200D02*
X68936780Y-74496200D01*
X68655620Y-75516200D02*
X68936780Y-75516200D01*
%TO.C,C16*%
X62101820Y-78636400D02*
X62382980Y-78636400D01*
X62101820Y-79656400D02*
X62382980Y-79656400D01*
%TO.C,U8*%
X127949600Y-69183000D02*
X127949600Y-66733000D01*
X124729600Y-67383000D02*
X124729600Y-69183000D01*
%TO.C,U6*%
X95316400Y-68010200D02*
X95316400Y-70460200D01*
X98536400Y-69810200D02*
X98536400Y-68010200D01*
%TO.C,J5*%
X108515900Y-63259000D02*
X108515900Y-62359000D01*
X99325900Y-63259000D02*
X99325900Y-62359000D01*
X108515900Y-59659000D02*
X108515900Y-56929000D01*
X99325900Y-59659000D02*
X99325900Y-56929000D01*
X108395900Y-66339000D02*
X99445900Y-66339000D01*
X108515900Y-56929000D02*
X99325900Y-56929000D01*
%TO.C,SW12*%
X104790000Y-124094000D02*
X104790000Y-110094000D01*
X104790000Y-124094000D02*
X90790000Y-124094000D01*
X90790000Y-124094000D02*
X90790000Y-110094000D01*
X90790000Y-110094000D02*
X104790000Y-110094000D01*
%TO.C,SW7*%
X85740000Y-124094000D02*
X85740000Y-110094000D01*
X85740000Y-124094000D02*
X71740000Y-124094000D01*
X71740000Y-124094000D02*
X71740000Y-110094000D01*
X71740000Y-110094000D02*
X85740000Y-110094000D01*
%TO.C,SW17*%
X123840000Y-124094000D02*
X123840000Y-110094000D01*
X123840000Y-124094000D02*
X109840000Y-124094000D01*
X109840000Y-124094000D02*
X109840000Y-110094000D01*
X109840000Y-110094000D02*
X123840000Y-110094000D01*
%TO.C,SW2*%
X66690000Y-124094000D02*
X66690000Y-110094000D01*
X66690000Y-124094000D02*
X52690000Y-124094000D01*
X52690000Y-124094000D02*
X52690000Y-110094000D01*
X52690000Y-110094000D02*
X66690000Y-110094000D01*
%TO.C,C14*%
X48893000Y-126338420D02*
X48893000Y-126619580D01*
X49913000Y-126338420D02*
X49913000Y-126619580D01*
%TO.C,C23*%
X49020000Y-107288420D02*
X49020000Y-107569580D01*
X50040000Y-107288420D02*
X50040000Y-107569580D01*
%TO.C,SW16*%
X123840000Y-105044000D02*
X123840000Y-91044000D01*
X123840000Y-105044000D02*
X109840000Y-105044000D01*
X109840000Y-105044000D02*
X109840000Y-91044000D01*
X109840000Y-91044000D02*
X123840000Y-91044000D01*
%TO.C,SW18*%
X123840000Y-143144000D02*
X123840000Y-129144000D01*
X123840000Y-143144000D02*
X109840000Y-143144000D01*
X109840000Y-143144000D02*
X109840000Y-129144000D01*
X109840000Y-129144000D02*
X123840000Y-129144000D01*
%TO.C,SW8*%
X85740000Y-143144000D02*
X85740000Y-129144000D01*
X85740000Y-143144000D02*
X71740000Y-143144000D01*
X71740000Y-143144000D02*
X71740000Y-129144000D01*
X71740000Y-129144000D02*
X85740000Y-129144000D01*
%TO.C,SW11*%
X104790000Y-105044000D02*
X104790000Y-91044000D01*
X104790000Y-105044000D02*
X90790000Y-105044000D01*
X90790000Y-105044000D02*
X90790000Y-91044000D01*
X90790000Y-91044000D02*
X104790000Y-91044000D01*
%TO.C,SW6*%
X85740000Y-105044000D02*
X85740000Y-91044000D01*
X85740000Y-105044000D02*
X71740000Y-105044000D01*
X71740000Y-105044000D02*
X71740000Y-91044000D01*
X71740000Y-91044000D02*
X85740000Y-91044000D01*
%TO.C,SW13*%
X104790000Y-143144000D02*
X104790000Y-129144000D01*
X104790000Y-143144000D02*
X90790000Y-143144000D01*
X90790000Y-143144000D02*
X90790000Y-129144000D01*
X90790000Y-129144000D02*
X104790000Y-129144000D01*
%TO.C,SW3*%
X66690000Y-143144000D02*
X66690000Y-129144000D01*
X66690000Y-143144000D02*
X52690000Y-143144000D01*
X52690000Y-143144000D02*
X52690000Y-129144000D01*
X52690000Y-129144000D02*
X66690000Y-129144000D01*
%TO.C,SW1*%
X66690000Y-105044000D02*
X66690000Y-91044000D01*
X66690000Y-105044000D02*
X52690000Y-105044000D01*
X52690000Y-105044000D02*
X52690000Y-91044000D01*
X52690000Y-91044000D02*
X66690000Y-91044000D01*
%TO.C,C39*%
X111264160Y-65171900D02*
X111264160Y-64890740D01*
X110244160Y-65171900D02*
X110244160Y-64890740D01*
%TO.C,C46*%
X125097000Y-64275580D02*
X125097000Y-63994420D01*
X124077000Y-64275580D02*
X124077000Y-63994420D01*
%TO.C,C45*%
X97314480Y-64420060D02*
X97314480Y-64138900D01*
X96294480Y-64420060D02*
X96294480Y-64138900D01*
%TO.C,C38*%
X75818420Y-76202000D02*
X76099580Y-76202000D01*
X75818420Y-75182000D02*
X76099580Y-75182000D01*
%TO.C,C37*%
X78484000Y-78091420D02*
X78484000Y-78372580D01*
X79504000Y-78091420D02*
X79504000Y-78372580D01*
D10*
%TO.C,U5*%
X92675960Y-74114600D02*
X91400960Y-74114600D01*
X103025960Y-73539600D02*
X102350960Y-73539600D01*
X103025960Y-83889600D02*
X102350960Y-83889600D01*
X92675960Y-83889600D02*
X93350960Y-83889600D01*
X92675960Y-73539600D02*
X93350960Y-73539600D01*
X92675960Y-83889600D02*
X92675960Y-83214600D01*
X103025960Y-83889600D02*
X103025960Y-83214600D01*
X103025960Y-73539600D02*
X103025960Y-74214600D01*
X92675960Y-73539600D02*
X92675960Y-74114600D01*
D12*
%TO.C,U2*%
X53127000Y-70728000D02*
X53127000Y-73178000D01*
X56347000Y-72528000D02*
X56347000Y-70728000D01*
%TO.C,R2*%
X65238100Y-81729042D02*
X65238100Y-82203558D01*
X66283100Y-81729042D02*
X66283100Y-82203558D01*
%TO.C,J6*%
X122485900Y-63259000D02*
X122485900Y-62359000D01*
X113295900Y-63259000D02*
X113295900Y-62359000D01*
X122485900Y-59659000D02*
X122485900Y-56929000D01*
X113295900Y-59659000D02*
X113295900Y-56929000D01*
X122365900Y-66339000D02*
X113415900Y-66339000D01*
X122485900Y-56929000D02*
X113295900Y-56929000D01*
%TO.C,J4*%
X94545900Y-63259000D02*
X94545900Y-62359000D01*
X85355900Y-63259000D02*
X85355900Y-62359000D01*
X94545900Y-59659000D02*
X94545900Y-56929000D01*
X85355900Y-59659000D02*
X85355900Y-56929000D01*
X94425900Y-66339000D02*
X85475900Y-66339000D01*
X94545900Y-56929000D02*
X85355900Y-56929000D01*
%TO.C,FB2*%
X53633722Y-75386000D02*
X52834478Y-75386000D01*
X53633722Y-76506000D02*
X52834478Y-76506000D01*
%TO.C,D1*%
X68146600Y-83476300D02*
X68146600Y-81191300D01*
X66676600Y-83476300D02*
X68146600Y-83476300D01*
X66676600Y-81191300D02*
X66676600Y-83476300D01*
%TO.C,C3*%
X62130400Y-73038580D02*
X62130400Y-72757420D01*
X61110400Y-73038580D02*
X61110400Y-72757420D01*
%TO.C,C2*%
X46114580Y-71206900D02*
X45833420Y-71206900D01*
X46114580Y-72226900D02*
X45833420Y-72226900D01*
%TO.C,C1*%
X46114880Y-73264300D02*
X45833720Y-73264300D01*
X46114880Y-74284300D02*
X45833720Y-74284300D01*
%TO.C,TP3*%
X48833000Y-83820000D02*
G75*
G03*
X48833000Y-83820000I-700000J0D01*
G01*
%TO.C,TP1*%
X52516000Y-83820000D02*
G75*
G03*
X52516000Y-83820000I-700000J0D01*
G01*
%TO.C,SW21*%
X119880000Y-79128000D02*
G75*
G03*
X119880000Y-79128000I-3000000J0D01*
G01*
X122780000Y-81128000D02*
X122780000Y-85228000D01*
X110980000Y-85228000D02*
X110980000Y-81128000D01*
X110980000Y-77128000D02*
X110980000Y-73028000D01*
X122780000Y-77128000D02*
X122780000Y-73028000D01*
X122780000Y-73028000D02*
X110980000Y-73028000D01*
X120680000Y-71628000D02*
X120980000Y-71328000D01*
X120980000Y-71328000D02*
X120980000Y-71928000D01*
X120980000Y-71928000D02*
X120680000Y-71628000D01*
X122780000Y-85228000D02*
X120380000Y-85228000D01*
X118180000Y-85228000D02*
X115580000Y-85228000D01*
X113380000Y-85228000D02*
X110980000Y-85228000D01*
X117380000Y-79128000D02*
X116380000Y-79128000D01*
X116880000Y-78628000D02*
X116880000Y-79628000D01*
%TO.C,SW20*%
X123840000Y-181244000D02*
X123840000Y-167244000D01*
X123840000Y-181244000D02*
X109840000Y-181244000D01*
X109840000Y-181244000D02*
X109840000Y-167244000D01*
X109840000Y-167244000D02*
X123840000Y-167244000D01*
%TO.C,SW19*%
X123840000Y-162194000D02*
X123840000Y-148194000D01*
X123840000Y-162194000D02*
X109840000Y-162194000D01*
X109840000Y-162194000D02*
X109840000Y-148194000D01*
X109840000Y-148194000D02*
X123840000Y-148194000D01*
%TO.C,SW15*%
X104790000Y-181244000D02*
X104790000Y-167244000D01*
X104790000Y-181244000D02*
X90790000Y-181244000D01*
X90790000Y-181244000D02*
X90790000Y-167244000D01*
X90790000Y-167244000D02*
X104790000Y-167244000D01*
%TO.C,SW14*%
X104790000Y-162194000D02*
X104790000Y-148194000D01*
X104790000Y-162194000D02*
X90790000Y-162194000D01*
X90790000Y-162194000D02*
X90790000Y-148194000D01*
X90790000Y-148194000D02*
X104790000Y-148194000D01*
%TO.C,SW10*%
X85740000Y-181244000D02*
X85740000Y-167244000D01*
X85740000Y-181244000D02*
X71740000Y-181244000D01*
X71740000Y-181244000D02*
X71740000Y-167244000D01*
X71740000Y-167244000D02*
X85740000Y-167244000D01*
%TO.C,SW9*%
X85740000Y-162194000D02*
X85740000Y-148194000D01*
X85740000Y-162194000D02*
X71740000Y-162194000D01*
X71740000Y-162194000D02*
X71740000Y-148194000D01*
X71740000Y-148194000D02*
X85740000Y-148194000D01*
%TO.C,SW5*%
X66690000Y-181244000D02*
X66690000Y-167244000D01*
X66690000Y-181244000D02*
X52690000Y-181244000D01*
X52690000Y-181244000D02*
X52690000Y-167244000D01*
X52690000Y-167244000D02*
X66690000Y-167244000D01*
%TO.C,SW4*%
X52690000Y-148194000D02*
X66690000Y-148194000D01*
X52690000Y-162194000D02*
X52690000Y-148194000D01*
X66690000Y-162194000D02*
X52690000Y-162194000D01*
X66690000Y-162194000D02*
X66690000Y-148194000D01*
%TO.C,R21*%
X67651100Y-72538858D02*
X67651100Y-72064342D01*
X68696100Y-72538858D02*
X68696100Y-72064342D01*
%TO.C,R20*%
X65644500Y-72182258D02*
X65644500Y-71707742D01*
X66689500Y-72182258D02*
X66689500Y-71707742D01*
%TO.C,R16*%
X129779500Y-101680742D02*
X129779500Y-102155258D01*
X130824500Y-101680742D02*
X130824500Y-102155258D01*
%TO.C,J2*%
X56121300Y-62785300D02*
X56121300Y-60125300D01*
X56121300Y-62785300D02*
X63801300Y-62785300D01*
X63801300Y-62785300D02*
X63801300Y-60125300D01*
X56121300Y-60125300D02*
X63801300Y-60125300D01*
X53521300Y-60125300D02*
X54851300Y-60125300D01*
X53521300Y-61455300D02*
X53521300Y-60125300D01*
%TO.C,C31*%
X107060420Y-185168000D02*
X107341580Y-185168000D01*
X107060420Y-184148000D02*
X107341580Y-184148000D01*
%TO.C,C28*%
X126553500Y-126746580D02*
X126553500Y-126465420D01*
X127573500Y-126746580D02*
X127573500Y-126465420D01*
%TO.C,C25*%
X49147000Y-145388420D02*
X49147000Y-145669580D01*
X50167000Y-145388420D02*
X50167000Y-145669580D01*
%TO.C,C21*%
X127637000Y-164846580D02*
X127637000Y-164565420D01*
X126617000Y-164846580D02*
X126617000Y-164565420D01*
%TO.C,C18*%
X127510000Y-145949580D02*
X127510000Y-145668420D01*
X126490000Y-145949580D02*
X126490000Y-145668420D01*
%TO.C,C12*%
X69023920Y-185422000D02*
X69305080Y-185422000D01*
X69023920Y-184402000D02*
X69305080Y-184402000D01*
%TO.C,C8*%
X48893000Y-164438420D02*
X48893000Y-164719580D01*
X49913000Y-164438420D02*
X49913000Y-164719580D01*
%TO.C,C4*%
X126490000Y-107823580D02*
X126490000Y-107542420D01*
X127510000Y-107823580D02*
X127510000Y-107542420D01*
%TO.C,D50*%
D10*
X44986200Y-109286205D02*
X43986200Y-109286205D01*
X43986200Y-109048110D01*
X44033820Y-108905253D01*
X44129058Y-108810015D01*
X44224296Y-108762396D01*
X44414772Y-108714777D01*
X44557629Y-108714777D01*
X44748105Y-108762396D01*
X44843343Y-108810015D01*
X44938581Y-108905253D01*
X44986200Y-109048110D01*
X44986200Y-109286205D01*
X43986200Y-107810015D02*
X43986200Y-108286205D01*
X44462391Y-108333824D01*
X44414772Y-108286205D01*
X44367153Y-108190967D01*
X44367153Y-107952872D01*
X44414772Y-107857634D01*
X44462391Y-107810015D01*
X44557629Y-107762396D01*
X44795724Y-107762396D01*
X44890962Y-107810015D01*
X44938581Y-107857634D01*
X44986200Y-107952872D01*
X44986200Y-108190967D01*
X44938581Y-108286205D01*
X44890962Y-108333824D01*
X43986200Y-107143348D02*
X43986200Y-107048110D01*
X44033820Y-106952872D01*
X44081439Y-106905253D01*
X44176677Y-106857634D01*
X44367153Y-106810015D01*
X44605248Y-106810015D01*
X44795724Y-106857634D01*
X44890962Y-106905253D01*
X44938581Y-106952872D01*
X44986200Y-107048110D01*
X44986200Y-107143348D01*
X44938581Y-107238586D01*
X44890962Y-107286205D01*
X44795724Y-107333824D01*
X44605248Y-107381443D01*
X44367153Y-107381443D01*
X44176677Y-107333824D01*
X44081439Y-107286205D01*
X44033820Y-107238586D01*
X43986200Y-107143348D01*
%TO.C,D49*%
X132258060Y-165430365D02*
X131258060Y-165430365D01*
X131258060Y-165192270D01*
X131305680Y-165049413D01*
X131400918Y-164954175D01*
X131496156Y-164906556D01*
X131686632Y-164858937D01*
X131829489Y-164858937D01*
X132019965Y-164906556D01*
X132115203Y-164954175D01*
X132210441Y-165049413D01*
X132258060Y-165192270D01*
X132258060Y-165430365D01*
X131591394Y-164001794D02*
X132258060Y-164001794D01*
X131210441Y-164239889D02*
X131924727Y-164477984D01*
X131924727Y-163858937D01*
X132258060Y-163430365D02*
X132258060Y-163239889D01*
X132210441Y-163144651D01*
X132162822Y-163097032D01*
X132019965Y-163001794D01*
X131829489Y-162954175D01*
X131448537Y-162954175D01*
X131353299Y-163001794D01*
X131305680Y-163049413D01*
X131258060Y-163144651D01*
X131258060Y-163335127D01*
X131305680Y-163430365D01*
X131353299Y-163477984D01*
X131448537Y-163525603D01*
X131686632Y-163525603D01*
X131781870Y-163477984D01*
X131829489Y-163430365D01*
X131877108Y-163335127D01*
X131877108Y-163144651D01*
X131829489Y-163049413D01*
X131781870Y-163001794D01*
X131686632Y-162954175D01*
%TO.C,D48*%
X44986200Y-128336205D02*
X43986200Y-128336205D01*
X43986200Y-128098110D01*
X44033820Y-127955253D01*
X44129058Y-127860015D01*
X44224296Y-127812396D01*
X44414772Y-127764777D01*
X44557629Y-127764777D01*
X44748105Y-127812396D01*
X44843343Y-127860015D01*
X44938581Y-127955253D01*
X44986200Y-128098110D01*
X44986200Y-128336205D01*
X44319534Y-126907634D02*
X44986200Y-126907634D01*
X43938581Y-127145729D02*
X44652867Y-127383824D01*
X44652867Y-126764777D01*
X44414772Y-126240967D02*
X44367153Y-126336205D01*
X44319534Y-126383824D01*
X44224296Y-126431443D01*
X44176677Y-126431443D01*
X44081439Y-126383824D01*
X44033820Y-126336205D01*
X43986200Y-126240967D01*
X43986200Y-126050491D01*
X44033820Y-125955253D01*
X44081439Y-125907634D01*
X44176677Y-125860015D01*
X44224296Y-125860015D01*
X44319534Y-125907634D01*
X44367153Y-125955253D01*
X44414772Y-126050491D01*
X44414772Y-126240967D01*
X44462391Y-126336205D01*
X44510010Y-126383824D01*
X44605248Y-126431443D01*
X44795724Y-126431443D01*
X44890962Y-126383824D01*
X44938581Y-126336205D01*
X44986200Y-126240967D01*
X44986200Y-126050491D01*
X44938581Y-125955253D01*
X44890962Y-125907634D01*
X44795724Y-125860015D01*
X44605248Y-125860015D01*
X44510010Y-125907634D01*
X44462391Y-125955253D01*
X44414772Y-126050491D01*
%TO.C,D47*%
X132258060Y-146380365D02*
X131258060Y-146380365D01*
X131258060Y-146142270D01*
X131305680Y-145999413D01*
X131400918Y-145904175D01*
X131496156Y-145856556D01*
X131686632Y-145808937D01*
X131829489Y-145808937D01*
X132019965Y-145856556D01*
X132115203Y-145904175D01*
X132210441Y-145999413D01*
X132258060Y-146142270D01*
X132258060Y-146380365D01*
X131591394Y-144951794D02*
X132258060Y-144951794D01*
X131210441Y-145189889D02*
X131924727Y-145427984D01*
X131924727Y-144808937D01*
X131258060Y-144523222D02*
X131258060Y-143856556D01*
X132258060Y-144285127D01*
%TO.C,D42*%
X44986200Y-147386205D02*
X43986200Y-147386205D01*
X43986200Y-147148110D01*
X44033820Y-147005253D01*
X44129058Y-146910015D01*
X44224296Y-146862396D01*
X44414772Y-146814777D01*
X44557629Y-146814777D01*
X44748105Y-146862396D01*
X44843343Y-146910015D01*
X44938581Y-147005253D01*
X44986200Y-147148110D01*
X44986200Y-147386205D01*
X44319534Y-145957634D02*
X44986200Y-145957634D01*
X43938581Y-146195729D02*
X44652867Y-146433824D01*
X44652867Y-145814777D01*
X44081439Y-145481443D02*
X44033820Y-145433824D01*
X43986200Y-145338586D01*
X43986200Y-145100491D01*
X44033820Y-145005253D01*
X44081439Y-144957634D01*
X44176677Y-144910015D01*
X44271915Y-144910015D01*
X44414772Y-144957634D01*
X44986200Y-145529062D01*
X44986200Y-144910015D01*
%TO.C,D41*%
X132258060Y-127330365D02*
X131258060Y-127330365D01*
X131258060Y-127092270D01*
X131305680Y-126949413D01*
X131400918Y-126854175D01*
X131496156Y-126806556D01*
X131686632Y-126758937D01*
X131829489Y-126758937D01*
X132019965Y-126806556D01*
X132115203Y-126854175D01*
X132210441Y-126949413D01*
X132258060Y-127092270D01*
X132258060Y-127330365D01*
X131591394Y-125901794D02*
X132258060Y-125901794D01*
X131210441Y-126139889D02*
X131924727Y-126377984D01*
X131924727Y-125758937D01*
X132258060Y-124854175D02*
X132258060Y-125425603D01*
X132258060Y-125139889D02*
X131258060Y-125139889D01*
X131400918Y-125235127D01*
X131496156Y-125330365D01*
X131543775Y-125425603D01*
%TO.C,D36*%
X44986200Y-166436205D02*
X43986200Y-166436205D01*
X43986200Y-166198110D01*
X44033820Y-166055253D01*
X44129058Y-165960015D01*
X44224296Y-165912396D01*
X44414772Y-165864777D01*
X44557629Y-165864777D01*
X44748105Y-165912396D01*
X44843343Y-165960015D01*
X44938581Y-166055253D01*
X44986200Y-166198110D01*
X44986200Y-166436205D01*
X43986200Y-165531443D02*
X43986200Y-164912396D01*
X44367153Y-165245729D01*
X44367153Y-165102872D01*
X44414772Y-165007634D01*
X44462391Y-164960015D01*
X44557629Y-164912396D01*
X44795724Y-164912396D01*
X44890962Y-164960015D01*
X44938581Y-165007634D01*
X44986200Y-165102872D01*
X44986200Y-165388586D01*
X44938581Y-165483824D01*
X44890962Y-165531443D01*
X43986200Y-164055253D02*
X43986200Y-164245729D01*
X44033820Y-164340967D01*
X44081439Y-164388586D01*
X44224296Y-164483824D01*
X44414772Y-164531443D01*
X44795724Y-164531443D01*
X44890962Y-164483824D01*
X44938581Y-164436205D01*
X44986200Y-164340967D01*
X44986200Y-164150491D01*
X44938581Y-164055253D01*
X44890962Y-164007634D01*
X44795724Y-163960015D01*
X44557629Y-163960015D01*
X44462391Y-164007634D01*
X44414772Y-164055253D01*
X44367153Y-164150491D01*
X44367153Y-164340967D01*
X44414772Y-164436205D01*
X44462391Y-164483824D01*
X44557629Y-164531443D01*
%TO.C,D35*%
X132258060Y-108280365D02*
X131258060Y-108280365D01*
X131258060Y-108042270D01*
X131305680Y-107899413D01*
X131400918Y-107804175D01*
X131496156Y-107756556D01*
X131686632Y-107708937D01*
X131829489Y-107708937D01*
X132019965Y-107756556D01*
X132115203Y-107804175D01*
X132210441Y-107899413D01*
X132258060Y-108042270D01*
X132258060Y-108280365D01*
X131258060Y-107375603D02*
X131258060Y-106756556D01*
X131639013Y-107089889D01*
X131639013Y-106947032D01*
X131686632Y-106851794D01*
X131734251Y-106804175D01*
X131829489Y-106756556D01*
X132067584Y-106756556D01*
X132162822Y-106804175D01*
X132210441Y-106851794D01*
X132258060Y-106947032D01*
X132258060Y-107232746D01*
X132210441Y-107327984D01*
X132162822Y-107375603D01*
X131258060Y-105851794D02*
X131258060Y-106327984D01*
X131734251Y-106375603D01*
X131686632Y-106327984D01*
X131639013Y-106232746D01*
X131639013Y-105994651D01*
X131686632Y-105899413D01*
X131734251Y-105851794D01*
X131829489Y-105804175D01*
X132067584Y-105804175D01*
X132162822Y-105851794D01*
X132210441Y-105899413D01*
X132258060Y-105994651D01*
X132258060Y-106232746D01*
X132210441Y-106327984D01*
X132162822Y-106375603D01*
%TO.C,D30*%
X68503634Y-190043060D02*
X68503634Y-189043060D01*
X68741729Y-189043060D01*
X68884586Y-189090680D01*
X68979824Y-189185918D01*
X69027443Y-189281156D01*
X69075062Y-189471632D01*
X69075062Y-189614489D01*
X69027443Y-189804965D01*
X68979824Y-189900203D01*
X68884586Y-189995441D01*
X68741729Y-190043060D01*
X68503634Y-190043060D01*
X69408396Y-189043060D02*
X70027443Y-189043060D01*
X69694110Y-189424013D01*
X69836967Y-189424013D01*
X69932205Y-189471632D01*
X69979824Y-189519251D01*
X70027443Y-189614489D01*
X70027443Y-189852584D01*
X69979824Y-189947822D01*
X69932205Y-189995441D01*
X69836967Y-190043060D01*
X69551253Y-190043060D01*
X69456015Y-189995441D01*
X69408396Y-189947822D01*
X70646491Y-189043060D02*
X70741729Y-189043060D01*
X70836967Y-189090680D01*
X70884586Y-189138299D01*
X70932205Y-189233537D01*
X70979824Y-189424013D01*
X70979824Y-189662108D01*
X70932205Y-189852584D01*
X70884586Y-189947822D01*
X70836967Y-189995441D01*
X70741729Y-190043060D01*
X70646491Y-190043060D01*
X70551253Y-189995441D01*
X70503634Y-189947822D01*
X70456015Y-189852584D01*
X70408396Y-189662108D01*
X70408396Y-189424013D01*
X70456015Y-189233537D01*
X70503634Y-189138299D01*
X70551253Y-189090680D01*
X70646491Y-189043060D01*
%TO.C,D24*%
X106603634Y-190043060D02*
X106603634Y-189043060D01*
X106841729Y-189043060D01*
X106984586Y-189090680D01*
X107079824Y-189185918D01*
X107127443Y-189281156D01*
X107175062Y-189471632D01*
X107175062Y-189614489D01*
X107127443Y-189804965D01*
X107079824Y-189900203D01*
X106984586Y-189995441D01*
X106841729Y-190043060D01*
X106603634Y-190043060D01*
X107556015Y-189138299D02*
X107603634Y-189090680D01*
X107698872Y-189043060D01*
X107936967Y-189043060D01*
X108032205Y-189090680D01*
X108079824Y-189138299D01*
X108127443Y-189233537D01*
X108127443Y-189328775D01*
X108079824Y-189471632D01*
X107508396Y-190043060D01*
X108127443Y-190043060D01*
X108984586Y-189376394D02*
X108984586Y-190043060D01*
X108746491Y-188995441D02*
X108508396Y-189709727D01*
X109127443Y-189709727D01*
%TO.C,TP2*%
X64028795Y-82649880D02*
X64600223Y-82649880D01*
X64314509Y-83649880D02*
X64314509Y-82649880D01*
X64933557Y-83649880D02*
X64933557Y-82649880D01*
X65314509Y-82649880D01*
X65409747Y-82697500D01*
X65457366Y-82745119D01*
X65504985Y-82840357D01*
X65504985Y-82983214D01*
X65457366Y-83078452D01*
X65409747Y-83126071D01*
X65314509Y-83173690D01*
X64933557Y-83173690D01*
X65885938Y-82745119D02*
X65933557Y-82697500D01*
X66028795Y-82649880D01*
X66266890Y-82649880D01*
X66362128Y-82697500D01*
X66409747Y-82745119D01*
X66457366Y-82840357D01*
X66457366Y-82935595D01*
X66409747Y-83078452D01*
X65838319Y-83649880D01*
X66457366Y-83649880D01*
%TO.C,C30*%
X68165742Y-77014342D02*
X68118123Y-77061961D01*
X67975266Y-77109580D01*
X67880028Y-77109580D01*
X67737171Y-77061961D01*
X67641933Y-76966723D01*
X67594314Y-76871485D01*
X67546695Y-76681009D01*
X67546695Y-76538152D01*
X67594314Y-76347676D01*
X67641933Y-76252438D01*
X67737171Y-76157200D01*
X67880028Y-76109580D01*
X67975266Y-76109580D01*
X68118123Y-76157200D01*
X68165742Y-76204819D01*
X68499076Y-76109580D02*
X69118123Y-76109580D01*
X68784790Y-76490533D01*
X68927647Y-76490533D01*
X69022885Y-76538152D01*
X69070504Y-76585771D01*
X69118123Y-76681009D01*
X69118123Y-76919104D01*
X69070504Y-77014342D01*
X69022885Y-77061961D01*
X68927647Y-77109580D01*
X68641933Y-77109580D01*
X68546695Y-77061961D01*
X68499076Y-77014342D01*
X69737171Y-76109580D02*
X69832409Y-76109580D01*
X69927647Y-76157200D01*
X69975266Y-76204819D01*
X70022885Y-76300057D01*
X70070504Y-76490533D01*
X70070504Y-76728628D01*
X70022885Y-76919104D01*
X69975266Y-77014342D01*
X69927647Y-77061961D01*
X69832409Y-77109580D01*
X69737171Y-77109580D01*
X69641933Y-77061961D01*
X69594314Y-77014342D01*
X69546695Y-76919104D01*
X69499076Y-76728628D01*
X69499076Y-76490533D01*
X69546695Y-76300057D01*
X69594314Y-76204819D01*
X69641933Y-76157200D01*
X69737171Y-76109580D01*
%TO.C,C16*%
X60647342Y-81065642D02*
X60599723Y-81113261D01*
X60456866Y-81160880D01*
X60361628Y-81160880D01*
X60218771Y-81113261D01*
X60123533Y-81018023D01*
X60075914Y-80922785D01*
X60028295Y-80732309D01*
X60028295Y-80589452D01*
X60075914Y-80398976D01*
X60123533Y-80303738D01*
X60218771Y-80208500D01*
X60361628Y-80160880D01*
X60456866Y-80160880D01*
X60599723Y-80208500D01*
X60647342Y-80256119D01*
X61599723Y-81160880D02*
X61028295Y-81160880D01*
X61314009Y-81160880D02*
X61314009Y-80160880D01*
X61218771Y-80303738D01*
X61123533Y-80398976D01*
X61028295Y-80446595D01*
X62456866Y-80160880D02*
X62266390Y-80160880D01*
X62171152Y-80208500D01*
X62123533Y-80256119D01*
X62028295Y-80398976D01*
X61980676Y-80589452D01*
X61980676Y-80970404D01*
X62028295Y-81065642D01*
X62075914Y-81113261D01*
X62171152Y-81160880D01*
X62361628Y-81160880D01*
X62456866Y-81113261D01*
X62504485Y-81065642D01*
X62552104Y-80970404D01*
X62552104Y-80732309D01*
X62504485Y-80637071D01*
X62456866Y-80589452D01*
X62361628Y-80541833D01*
X62171152Y-80541833D01*
X62075914Y-80589452D01*
X62028295Y-80637071D01*
X61980676Y-80732309D01*
%TO.C,U8*%
X128691980Y-69044904D02*
X129501504Y-69044904D01*
X129596742Y-68997285D01*
X129644361Y-68949666D01*
X129691980Y-68854428D01*
X129691980Y-68663952D01*
X129644361Y-68568714D01*
X129596742Y-68521095D01*
X129501504Y-68473476D01*
X128691980Y-68473476D01*
X129120552Y-67854428D02*
X129072933Y-67949666D01*
X129025314Y-67997285D01*
X128930076Y-68044904D01*
X128882457Y-68044904D01*
X128787219Y-67997285D01*
X128739600Y-67949666D01*
X128691980Y-67854428D01*
X128691980Y-67663952D01*
X128739600Y-67568714D01*
X128787219Y-67521095D01*
X128882457Y-67473476D01*
X128930076Y-67473476D01*
X129025314Y-67521095D01*
X129072933Y-67568714D01*
X129120552Y-67663952D01*
X129120552Y-67854428D01*
X129168171Y-67949666D01*
X129215790Y-67997285D01*
X129311028Y-68044904D01*
X129501504Y-68044904D01*
X129596742Y-67997285D01*
X129644361Y-67949666D01*
X129691980Y-67854428D01*
X129691980Y-67663952D01*
X129644361Y-67568714D01*
X129596742Y-67521095D01*
X129501504Y-67473476D01*
X129311028Y-67473476D01*
X129215790Y-67521095D01*
X129168171Y-67568714D01*
X129120552Y-67663952D01*
%TO.C,U6*%
X93478780Y-69672104D02*
X94288304Y-69672104D01*
X94383542Y-69624485D01*
X94431161Y-69576866D01*
X94478780Y-69481628D01*
X94478780Y-69291152D01*
X94431161Y-69195914D01*
X94383542Y-69148295D01*
X94288304Y-69100676D01*
X93478780Y-69100676D01*
X93478780Y-68195914D02*
X93478780Y-68386390D01*
X93526400Y-68481628D01*
X93574019Y-68529247D01*
X93716876Y-68624485D01*
X93907352Y-68672104D01*
X94288304Y-68672104D01*
X94383542Y-68624485D01*
X94431161Y-68576866D01*
X94478780Y-68481628D01*
X94478780Y-68291152D01*
X94431161Y-68195914D01*
X94383542Y-68148295D01*
X94288304Y-68100676D01*
X94050209Y-68100676D01*
X93954971Y-68148295D01*
X93907352Y-68195914D01*
X93859733Y-68291152D01*
X93859733Y-68481628D01*
X93907352Y-68576866D01*
X93954971Y-68624485D01*
X94050209Y-68672104D01*
%TO.C,J5*%
X103587566Y-66911380D02*
X103587566Y-67625666D01*
X103539947Y-67768523D01*
X103444709Y-67863761D01*
X103301852Y-67911380D01*
X103206614Y-67911380D01*
X104539947Y-66911380D02*
X104063757Y-66911380D01*
X104016138Y-67387571D01*
X104063757Y-67339952D01*
X104158995Y-67292333D01*
X104397090Y-67292333D01*
X104492328Y-67339952D01*
X104539947Y-67387571D01*
X104587566Y-67482809D01*
X104587566Y-67720904D01*
X104539947Y-67816142D01*
X104492328Y-67863761D01*
X104397090Y-67911380D01*
X104158995Y-67911380D01*
X104063757Y-67863761D01*
X104016138Y-67816142D01*
%TO.C,SW12*%
X95980476Y-126161261D02*
X96123333Y-126208880D01*
X96361428Y-126208880D01*
X96456666Y-126161261D01*
X96504285Y-126113642D01*
X96551904Y-126018404D01*
X96551904Y-125923166D01*
X96504285Y-125827928D01*
X96456666Y-125780309D01*
X96361428Y-125732690D01*
X96170952Y-125685071D01*
X96075714Y-125637452D01*
X96028095Y-125589833D01*
X95980476Y-125494595D01*
X95980476Y-125399357D01*
X96028095Y-125304119D01*
X96075714Y-125256500D01*
X96170952Y-125208880D01*
X96409047Y-125208880D01*
X96551904Y-125256500D01*
X96885238Y-125208880D02*
X97123333Y-126208880D01*
X97313809Y-125494595D01*
X97504285Y-126208880D01*
X97742380Y-125208880D01*
X98647142Y-126208880D02*
X98075714Y-126208880D01*
X98361428Y-126208880D02*
X98361428Y-125208880D01*
X98266190Y-125351738D01*
X98170952Y-125446976D01*
X98075714Y-125494595D01*
X99028095Y-125304119D02*
X99075714Y-125256500D01*
X99170952Y-125208880D01*
X99409047Y-125208880D01*
X99504285Y-125256500D01*
X99551904Y-125304119D01*
X99599523Y-125399357D01*
X99599523Y-125494595D01*
X99551904Y-125637452D01*
X98980476Y-126208880D01*
X99599523Y-126208880D01*
%TO.C,SW7*%
X77406666Y-126161261D02*
X77549523Y-126208880D01*
X77787619Y-126208880D01*
X77882857Y-126161261D01*
X77930476Y-126113642D01*
X77978095Y-126018404D01*
X77978095Y-125923166D01*
X77930476Y-125827928D01*
X77882857Y-125780309D01*
X77787619Y-125732690D01*
X77597142Y-125685071D01*
X77501904Y-125637452D01*
X77454285Y-125589833D01*
X77406666Y-125494595D01*
X77406666Y-125399357D01*
X77454285Y-125304119D01*
X77501904Y-125256500D01*
X77597142Y-125208880D01*
X77835238Y-125208880D01*
X77978095Y-125256500D01*
X78311428Y-125208880D02*
X78549523Y-126208880D01*
X78740000Y-125494595D01*
X78930476Y-126208880D01*
X79168571Y-125208880D01*
X79454285Y-125208880D02*
X80120952Y-125208880D01*
X79692380Y-126208880D01*
%TO.C,SW17*%
X115030476Y-126161261D02*
X115173333Y-126208880D01*
X115411428Y-126208880D01*
X115506666Y-126161261D01*
X115554285Y-126113642D01*
X115601904Y-126018404D01*
X115601904Y-125923166D01*
X115554285Y-125827928D01*
X115506666Y-125780309D01*
X115411428Y-125732690D01*
X115220952Y-125685071D01*
X115125714Y-125637452D01*
X115078095Y-125589833D01*
X115030476Y-125494595D01*
X115030476Y-125399357D01*
X115078095Y-125304119D01*
X115125714Y-125256500D01*
X115220952Y-125208880D01*
X115459047Y-125208880D01*
X115601904Y-125256500D01*
X115935238Y-125208880D02*
X116173333Y-126208880D01*
X116363809Y-125494595D01*
X116554285Y-126208880D01*
X116792380Y-125208880D01*
X117697142Y-126208880D02*
X117125714Y-126208880D01*
X117411428Y-126208880D02*
X117411428Y-125208880D01*
X117316190Y-125351738D01*
X117220952Y-125446976D01*
X117125714Y-125494595D01*
X118030476Y-125208880D02*
X118697142Y-125208880D01*
X118268571Y-126208880D01*
%TO.C,SW2*%
X58356666Y-126161261D02*
X58499523Y-126208880D01*
X58737619Y-126208880D01*
X58832857Y-126161261D01*
X58880476Y-126113642D01*
X58928095Y-126018404D01*
X58928095Y-125923166D01*
X58880476Y-125827928D01*
X58832857Y-125780309D01*
X58737619Y-125732690D01*
X58547142Y-125685071D01*
X58451904Y-125637452D01*
X58404285Y-125589833D01*
X58356666Y-125494595D01*
X58356666Y-125399357D01*
X58404285Y-125304119D01*
X58451904Y-125256500D01*
X58547142Y-125208880D01*
X58785238Y-125208880D01*
X58928095Y-125256500D01*
X59261428Y-125208880D02*
X59499523Y-126208880D01*
X59690000Y-125494595D01*
X59880476Y-126208880D01*
X60118571Y-125208880D01*
X60451904Y-125304119D02*
X60499523Y-125256500D01*
X60594761Y-125208880D01*
X60832857Y-125208880D01*
X60928095Y-125256500D01*
X60975714Y-125304119D01*
X61023333Y-125399357D01*
X61023333Y-125494595D01*
X60975714Y-125637452D01*
X60404285Y-126208880D01*
X61023333Y-126208880D01*
%TO.C,C14*%
X51190142Y-127121857D02*
X51237761Y-127169476D01*
X51285380Y-127312333D01*
X51285380Y-127407571D01*
X51237761Y-127550428D01*
X51142523Y-127645666D01*
X51047285Y-127693285D01*
X50856809Y-127740904D01*
X50713952Y-127740904D01*
X50523476Y-127693285D01*
X50428238Y-127645666D01*
X50333000Y-127550428D01*
X50285380Y-127407571D01*
X50285380Y-127312333D01*
X50333000Y-127169476D01*
X50380619Y-127121857D01*
X51285380Y-126169476D02*
X51285380Y-126740904D01*
X51285380Y-126455190D02*
X50285380Y-126455190D01*
X50428238Y-126550428D01*
X50523476Y-126645666D01*
X50571095Y-126740904D01*
X50618714Y-125312333D02*
X51285380Y-125312333D01*
X50237761Y-125550428D02*
X50952047Y-125788523D01*
X50952047Y-125169476D01*
%TO.C,C23*%
X51317142Y-108071857D02*
X51364761Y-108119476D01*
X51412380Y-108262333D01*
X51412380Y-108357571D01*
X51364761Y-108500428D01*
X51269523Y-108595666D01*
X51174285Y-108643285D01*
X50983809Y-108690904D01*
X50840952Y-108690904D01*
X50650476Y-108643285D01*
X50555238Y-108595666D01*
X50460000Y-108500428D01*
X50412380Y-108357571D01*
X50412380Y-108262333D01*
X50460000Y-108119476D01*
X50507619Y-108071857D01*
X50507619Y-107690904D02*
X50460000Y-107643285D01*
X50412380Y-107548047D01*
X50412380Y-107309952D01*
X50460000Y-107214714D01*
X50507619Y-107167095D01*
X50602857Y-107119476D01*
X50698095Y-107119476D01*
X50840952Y-107167095D01*
X51412380Y-107738523D01*
X51412380Y-107119476D01*
X50412380Y-106786142D02*
X50412380Y-106167095D01*
X50793333Y-106500428D01*
X50793333Y-106357571D01*
X50840952Y-106262333D01*
X50888571Y-106214714D01*
X50983809Y-106167095D01*
X51221904Y-106167095D01*
X51317142Y-106214714D01*
X51364761Y-106262333D01*
X51412380Y-106357571D01*
X51412380Y-106643285D01*
X51364761Y-106738523D01*
X51317142Y-106786142D01*
%TO.C,SW16*%
X115030476Y-107111261D02*
X115173333Y-107158880D01*
X115411428Y-107158880D01*
X115506666Y-107111261D01*
X115554285Y-107063642D01*
X115601904Y-106968404D01*
X115601904Y-106873166D01*
X115554285Y-106777928D01*
X115506666Y-106730309D01*
X115411428Y-106682690D01*
X115220952Y-106635071D01*
X115125714Y-106587452D01*
X115078095Y-106539833D01*
X115030476Y-106444595D01*
X115030476Y-106349357D01*
X115078095Y-106254119D01*
X115125714Y-106206500D01*
X115220952Y-106158880D01*
X115459047Y-106158880D01*
X115601904Y-106206500D01*
X115935238Y-106158880D02*
X116173333Y-107158880D01*
X116363809Y-106444595D01*
X116554285Y-107158880D01*
X116792380Y-106158880D01*
X117697142Y-107158880D02*
X117125714Y-107158880D01*
X117411428Y-107158880D02*
X117411428Y-106158880D01*
X117316190Y-106301738D01*
X117220952Y-106396976D01*
X117125714Y-106444595D01*
X118554285Y-106158880D02*
X118363809Y-106158880D01*
X118268571Y-106206500D01*
X118220952Y-106254119D01*
X118125714Y-106396976D01*
X118078095Y-106587452D01*
X118078095Y-106968404D01*
X118125714Y-107063642D01*
X118173333Y-107111261D01*
X118268571Y-107158880D01*
X118459047Y-107158880D01*
X118554285Y-107111261D01*
X118601904Y-107063642D01*
X118649523Y-106968404D01*
X118649523Y-106730309D01*
X118601904Y-106635071D01*
X118554285Y-106587452D01*
X118459047Y-106539833D01*
X118268571Y-106539833D01*
X118173333Y-106587452D01*
X118125714Y-106635071D01*
X118078095Y-106730309D01*
%TO.C,SW18*%
X115030476Y-145211261D02*
X115173333Y-145258880D01*
X115411428Y-145258880D01*
X115506666Y-145211261D01*
X115554285Y-145163642D01*
X115601904Y-145068404D01*
X115601904Y-144973166D01*
X115554285Y-144877928D01*
X115506666Y-144830309D01*
X115411428Y-144782690D01*
X115220952Y-144735071D01*
X115125714Y-144687452D01*
X115078095Y-144639833D01*
X115030476Y-144544595D01*
X115030476Y-144449357D01*
X115078095Y-144354119D01*
X115125714Y-144306500D01*
X115220952Y-144258880D01*
X115459047Y-144258880D01*
X115601904Y-144306500D01*
X115935238Y-144258880D02*
X116173333Y-145258880D01*
X116363809Y-144544595D01*
X116554285Y-145258880D01*
X116792380Y-144258880D01*
X117697142Y-145258880D02*
X117125714Y-145258880D01*
X117411428Y-145258880D02*
X117411428Y-144258880D01*
X117316190Y-144401738D01*
X117220952Y-144496976D01*
X117125714Y-144544595D01*
X118268571Y-144687452D02*
X118173333Y-144639833D01*
X118125714Y-144592214D01*
X118078095Y-144496976D01*
X118078095Y-144449357D01*
X118125714Y-144354119D01*
X118173333Y-144306500D01*
X118268571Y-144258880D01*
X118459047Y-144258880D01*
X118554285Y-144306500D01*
X118601904Y-144354119D01*
X118649523Y-144449357D01*
X118649523Y-144496976D01*
X118601904Y-144592214D01*
X118554285Y-144639833D01*
X118459047Y-144687452D01*
X118268571Y-144687452D01*
X118173333Y-144735071D01*
X118125714Y-144782690D01*
X118078095Y-144877928D01*
X118078095Y-145068404D01*
X118125714Y-145163642D01*
X118173333Y-145211261D01*
X118268571Y-145258880D01*
X118459047Y-145258880D01*
X118554285Y-145211261D01*
X118601904Y-145163642D01*
X118649523Y-145068404D01*
X118649523Y-144877928D01*
X118601904Y-144782690D01*
X118554285Y-144735071D01*
X118459047Y-144687452D01*
%TO.C,SW8*%
X77406666Y-145211261D02*
X77549523Y-145258880D01*
X77787619Y-145258880D01*
X77882857Y-145211261D01*
X77930476Y-145163642D01*
X77978095Y-145068404D01*
X77978095Y-144973166D01*
X77930476Y-144877928D01*
X77882857Y-144830309D01*
X77787619Y-144782690D01*
X77597142Y-144735071D01*
X77501904Y-144687452D01*
X77454285Y-144639833D01*
X77406666Y-144544595D01*
X77406666Y-144449357D01*
X77454285Y-144354119D01*
X77501904Y-144306500D01*
X77597142Y-144258880D01*
X77835238Y-144258880D01*
X77978095Y-144306500D01*
X78311428Y-144258880D02*
X78549523Y-145258880D01*
X78740000Y-144544595D01*
X78930476Y-145258880D01*
X79168571Y-144258880D01*
X79692380Y-144687452D02*
X79597142Y-144639833D01*
X79549523Y-144592214D01*
X79501904Y-144496976D01*
X79501904Y-144449357D01*
X79549523Y-144354119D01*
X79597142Y-144306500D01*
X79692380Y-144258880D01*
X79882857Y-144258880D01*
X79978095Y-144306500D01*
X80025714Y-144354119D01*
X80073333Y-144449357D01*
X80073333Y-144496976D01*
X80025714Y-144592214D01*
X79978095Y-144639833D01*
X79882857Y-144687452D01*
X79692380Y-144687452D01*
X79597142Y-144735071D01*
X79549523Y-144782690D01*
X79501904Y-144877928D01*
X79501904Y-145068404D01*
X79549523Y-145163642D01*
X79597142Y-145211261D01*
X79692380Y-145258880D01*
X79882857Y-145258880D01*
X79978095Y-145211261D01*
X80025714Y-145163642D01*
X80073333Y-145068404D01*
X80073333Y-144877928D01*
X80025714Y-144782690D01*
X79978095Y-144735071D01*
X79882857Y-144687452D01*
%TO.C,SW11*%
X95980476Y-107111261D02*
X96123333Y-107158880D01*
X96361428Y-107158880D01*
X96456666Y-107111261D01*
X96504285Y-107063642D01*
X96551904Y-106968404D01*
X96551904Y-106873166D01*
X96504285Y-106777928D01*
X96456666Y-106730309D01*
X96361428Y-106682690D01*
X96170952Y-106635071D01*
X96075714Y-106587452D01*
X96028095Y-106539833D01*
X95980476Y-106444595D01*
X95980476Y-106349357D01*
X96028095Y-106254119D01*
X96075714Y-106206500D01*
X96170952Y-106158880D01*
X96409047Y-106158880D01*
X96551904Y-106206500D01*
X96885238Y-106158880D02*
X97123333Y-107158880D01*
X97313809Y-106444595D01*
X97504285Y-107158880D01*
X97742380Y-106158880D01*
X98647142Y-107158880D02*
X98075714Y-107158880D01*
X98361428Y-107158880D02*
X98361428Y-106158880D01*
X98266190Y-106301738D01*
X98170952Y-106396976D01*
X98075714Y-106444595D01*
X99599523Y-107158880D02*
X99028095Y-107158880D01*
X99313809Y-107158880D02*
X99313809Y-106158880D01*
X99218571Y-106301738D01*
X99123333Y-106396976D01*
X99028095Y-106444595D01*
%TO.C,SW6*%
X77406666Y-107111261D02*
X77549523Y-107158880D01*
X77787619Y-107158880D01*
X77882857Y-107111261D01*
X77930476Y-107063642D01*
X77978095Y-106968404D01*
X77978095Y-106873166D01*
X77930476Y-106777928D01*
X77882857Y-106730309D01*
X77787619Y-106682690D01*
X77597142Y-106635071D01*
X77501904Y-106587452D01*
X77454285Y-106539833D01*
X77406666Y-106444595D01*
X77406666Y-106349357D01*
X77454285Y-106254119D01*
X77501904Y-106206500D01*
X77597142Y-106158880D01*
X77835238Y-106158880D01*
X77978095Y-106206500D01*
X78311428Y-106158880D02*
X78549523Y-107158880D01*
X78740000Y-106444595D01*
X78930476Y-107158880D01*
X79168571Y-106158880D01*
X79978095Y-106158880D02*
X79787619Y-106158880D01*
X79692380Y-106206500D01*
X79644761Y-106254119D01*
X79549523Y-106396976D01*
X79501904Y-106587452D01*
X79501904Y-106968404D01*
X79549523Y-107063642D01*
X79597142Y-107111261D01*
X79692380Y-107158880D01*
X79882857Y-107158880D01*
X79978095Y-107111261D01*
X80025714Y-107063642D01*
X80073333Y-106968404D01*
X80073333Y-106730309D01*
X80025714Y-106635071D01*
X79978095Y-106587452D01*
X79882857Y-106539833D01*
X79692380Y-106539833D01*
X79597142Y-106587452D01*
X79549523Y-106635071D01*
X79501904Y-106730309D01*
%TO.C,SW13*%
X95980476Y-145211261D02*
X96123333Y-145258880D01*
X96361428Y-145258880D01*
X96456666Y-145211261D01*
X96504285Y-145163642D01*
X96551904Y-145068404D01*
X96551904Y-144973166D01*
X96504285Y-144877928D01*
X96456666Y-144830309D01*
X96361428Y-144782690D01*
X96170952Y-144735071D01*
X96075714Y-144687452D01*
X96028095Y-144639833D01*
X95980476Y-144544595D01*
X95980476Y-144449357D01*
X96028095Y-144354119D01*
X96075714Y-144306500D01*
X96170952Y-144258880D01*
X96409047Y-144258880D01*
X96551904Y-144306500D01*
X96885238Y-144258880D02*
X97123333Y-145258880D01*
X97313809Y-144544595D01*
X97504285Y-145258880D01*
X97742380Y-144258880D01*
X98647142Y-145258880D02*
X98075714Y-145258880D01*
X98361428Y-145258880D02*
X98361428Y-144258880D01*
X98266190Y-144401738D01*
X98170952Y-144496976D01*
X98075714Y-144544595D01*
X98980476Y-144258880D02*
X99599523Y-144258880D01*
X99266190Y-144639833D01*
X99409047Y-144639833D01*
X99504285Y-144687452D01*
X99551904Y-144735071D01*
X99599523Y-144830309D01*
X99599523Y-145068404D01*
X99551904Y-145163642D01*
X99504285Y-145211261D01*
X99409047Y-145258880D01*
X99123333Y-145258880D01*
X99028095Y-145211261D01*
X98980476Y-145163642D01*
%TO.C,SW3*%
X58356666Y-145211261D02*
X58499523Y-145258880D01*
X58737619Y-145258880D01*
X58832857Y-145211261D01*
X58880476Y-145163642D01*
X58928095Y-145068404D01*
X58928095Y-144973166D01*
X58880476Y-144877928D01*
X58832857Y-144830309D01*
X58737619Y-144782690D01*
X58547142Y-144735071D01*
X58451904Y-144687452D01*
X58404285Y-144639833D01*
X58356666Y-144544595D01*
X58356666Y-144449357D01*
X58404285Y-144354119D01*
X58451904Y-144306500D01*
X58547142Y-144258880D01*
X58785238Y-144258880D01*
X58928095Y-144306500D01*
X59261428Y-144258880D02*
X59499523Y-145258880D01*
X59690000Y-144544595D01*
X59880476Y-145258880D01*
X60118571Y-144258880D01*
X60404285Y-144258880D02*
X61023333Y-144258880D01*
X60690000Y-144639833D01*
X60832857Y-144639833D01*
X60928095Y-144687452D01*
X60975714Y-144735071D01*
X61023333Y-144830309D01*
X61023333Y-145068404D01*
X60975714Y-145163642D01*
X60928095Y-145211261D01*
X60832857Y-145258880D01*
X60547142Y-145258880D01*
X60451904Y-145211261D01*
X60404285Y-145163642D01*
%TO.C,SW1*%
X58356666Y-107111261D02*
X58499523Y-107158880D01*
X58737619Y-107158880D01*
X58832857Y-107111261D01*
X58880476Y-107063642D01*
X58928095Y-106968404D01*
X58928095Y-106873166D01*
X58880476Y-106777928D01*
X58832857Y-106730309D01*
X58737619Y-106682690D01*
X58547142Y-106635071D01*
X58451904Y-106587452D01*
X58404285Y-106539833D01*
X58356666Y-106444595D01*
X58356666Y-106349357D01*
X58404285Y-106254119D01*
X58451904Y-106206500D01*
X58547142Y-106158880D01*
X58785238Y-106158880D01*
X58928095Y-106206500D01*
X59261428Y-106158880D02*
X59499523Y-107158880D01*
X59690000Y-106444595D01*
X59880476Y-107158880D01*
X60118571Y-106158880D01*
X61023333Y-107158880D02*
X60451904Y-107158880D01*
X60737619Y-107158880D02*
X60737619Y-106158880D01*
X60642380Y-106301738D01*
X60547142Y-106396976D01*
X60451904Y-106444595D01*
%TO.C,C39*%
X111139242Y-62644257D02*
X111186861Y-62691876D01*
X111234480Y-62834733D01*
X111234480Y-62929971D01*
X111186861Y-63072828D01*
X111091623Y-63168066D01*
X110996385Y-63215685D01*
X110805909Y-63263304D01*
X110663052Y-63263304D01*
X110472576Y-63215685D01*
X110377338Y-63168066D01*
X110282100Y-63072828D01*
X110234480Y-62929971D01*
X110234480Y-62834733D01*
X110282100Y-62691876D01*
X110329719Y-62644257D01*
X110234480Y-62310923D02*
X110234480Y-61691876D01*
X110615433Y-62025209D01*
X110615433Y-61882352D01*
X110663052Y-61787114D01*
X110710671Y-61739495D01*
X110805909Y-61691876D01*
X111044004Y-61691876D01*
X111139242Y-61739495D01*
X111186861Y-61787114D01*
X111234480Y-61882352D01*
X111234480Y-62168066D01*
X111186861Y-62263304D01*
X111139242Y-62310923D01*
X111234480Y-61215685D02*
X111234480Y-61025209D01*
X111186861Y-60929971D01*
X111139242Y-60882352D01*
X110996385Y-60787114D01*
X110805909Y-60739495D01*
X110424957Y-60739495D01*
X110329719Y-60787114D01*
X110282100Y-60834733D01*
X110234480Y-60929971D01*
X110234480Y-61120447D01*
X110282100Y-61215685D01*
X110329719Y-61263304D01*
X110424957Y-61310923D01*
X110663052Y-61310923D01*
X110758290Y-61263304D01*
X110805909Y-61215685D01*
X110853528Y-61120447D01*
X110853528Y-60929971D01*
X110805909Y-60834733D01*
X110758290Y-60787114D01*
X110663052Y-60739495D01*
%TO.C,C46*%
X125007642Y-61882257D02*
X125055261Y-61929876D01*
X125102880Y-62072733D01*
X125102880Y-62167971D01*
X125055261Y-62310828D01*
X124960023Y-62406066D01*
X124864785Y-62453685D01*
X124674309Y-62501304D01*
X124531452Y-62501304D01*
X124340976Y-62453685D01*
X124245738Y-62406066D01*
X124150500Y-62310828D01*
X124102880Y-62167971D01*
X124102880Y-62072733D01*
X124150500Y-61929876D01*
X124198119Y-61882257D01*
X124436214Y-61025114D02*
X125102880Y-61025114D01*
X124055261Y-61263209D02*
X124769547Y-61501304D01*
X124769547Y-60882257D01*
X124102880Y-60072733D02*
X124102880Y-60263209D01*
X124150500Y-60358447D01*
X124198119Y-60406066D01*
X124340976Y-60501304D01*
X124531452Y-60548923D01*
X124912404Y-60548923D01*
X125007642Y-60501304D01*
X125055261Y-60453685D01*
X125102880Y-60358447D01*
X125102880Y-60167971D01*
X125055261Y-60072733D01*
X125007642Y-60025114D01*
X124912404Y-59977495D01*
X124674309Y-59977495D01*
X124579071Y-60025114D01*
X124531452Y-60072733D01*
X124483833Y-60167971D01*
X124483833Y-60358447D01*
X124531452Y-60453685D01*
X124579071Y-60501304D01*
X124674309Y-60548923D01*
%TO.C,C45*%
X97156542Y-61882257D02*
X97204161Y-61929876D01*
X97251780Y-62072733D01*
X97251780Y-62167971D01*
X97204161Y-62310828D01*
X97108923Y-62406066D01*
X97013685Y-62453685D01*
X96823209Y-62501304D01*
X96680352Y-62501304D01*
X96489876Y-62453685D01*
X96394638Y-62406066D01*
X96299400Y-62310828D01*
X96251780Y-62167971D01*
X96251780Y-62072733D01*
X96299400Y-61929876D01*
X96347019Y-61882257D01*
X96585114Y-61025114D02*
X97251780Y-61025114D01*
X96204161Y-61263209D02*
X96918447Y-61501304D01*
X96918447Y-60882257D01*
X96251780Y-60025114D02*
X96251780Y-60501304D01*
X96727971Y-60548923D01*
X96680352Y-60501304D01*
X96632733Y-60406066D01*
X96632733Y-60167971D01*
X96680352Y-60072733D01*
X96727971Y-60025114D01*
X96823209Y-59977495D01*
X97061304Y-59977495D01*
X97156542Y-60025114D01*
X97204161Y-60072733D01*
X97251780Y-60167971D01*
X97251780Y-60406066D01*
X97204161Y-60501304D01*
X97156542Y-60548923D01*
%TO.C,C38*%
X75316142Y-74619142D02*
X75268523Y-74666761D01*
X75125666Y-74714380D01*
X75030428Y-74714380D01*
X74887571Y-74666761D01*
X74792333Y-74571523D01*
X74744714Y-74476285D01*
X74697095Y-74285809D01*
X74697095Y-74142952D01*
X74744714Y-73952476D01*
X74792333Y-73857238D01*
X74887571Y-73762000D01*
X75030428Y-73714380D01*
X75125666Y-73714380D01*
X75268523Y-73762000D01*
X75316142Y-73809619D01*
X75649476Y-73714380D02*
X76268523Y-73714380D01*
X75935190Y-74095333D01*
X76078047Y-74095333D01*
X76173285Y-74142952D01*
X76220904Y-74190571D01*
X76268523Y-74285809D01*
X76268523Y-74523904D01*
X76220904Y-74619142D01*
X76173285Y-74666761D01*
X76078047Y-74714380D01*
X75792333Y-74714380D01*
X75697095Y-74666761D01*
X75649476Y-74619142D01*
X76839952Y-74142952D02*
X76744714Y-74095333D01*
X76697095Y-74047714D01*
X76649476Y-73952476D01*
X76649476Y-73904857D01*
X76697095Y-73809619D01*
X76744714Y-73762000D01*
X76839952Y-73714380D01*
X77030428Y-73714380D01*
X77125666Y-73762000D01*
X77173285Y-73809619D01*
X77220904Y-73904857D01*
X77220904Y-73952476D01*
X77173285Y-74047714D01*
X77125666Y-74095333D01*
X77030428Y-74142952D01*
X76839952Y-74142952D01*
X76744714Y-74190571D01*
X76697095Y-74238190D01*
X76649476Y-74333428D01*
X76649476Y-74523904D01*
X76697095Y-74619142D01*
X76744714Y-74666761D01*
X76839952Y-74714380D01*
X77030428Y-74714380D01*
X77125666Y-74666761D01*
X77173285Y-74619142D01*
X77220904Y-74523904D01*
X77220904Y-74333428D01*
X77173285Y-74238190D01*
X77125666Y-74190571D01*
X77030428Y-74142952D01*
%TO.C,C37*%
X80781142Y-78874857D02*
X80828761Y-78922476D01*
X80876380Y-79065333D01*
X80876380Y-79160571D01*
X80828761Y-79303428D01*
X80733523Y-79398666D01*
X80638285Y-79446285D01*
X80447809Y-79493904D01*
X80304952Y-79493904D01*
X80114476Y-79446285D01*
X80019238Y-79398666D01*
X79924000Y-79303428D01*
X79876380Y-79160571D01*
X79876380Y-79065333D01*
X79924000Y-78922476D01*
X79971619Y-78874857D01*
X79876380Y-78541523D02*
X79876380Y-77922476D01*
X80257333Y-78255809D01*
X80257333Y-78112952D01*
X80304952Y-78017714D01*
X80352571Y-77970095D01*
X80447809Y-77922476D01*
X80685904Y-77922476D01*
X80781142Y-77970095D01*
X80828761Y-78017714D01*
X80876380Y-78112952D01*
X80876380Y-78398666D01*
X80828761Y-78493904D01*
X80781142Y-78541523D01*
X79876380Y-77589142D02*
X79876380Y-76922476D01*
X80876380Y-77351047D01*
%TO.C,U5*%
X90347895Y-70254880D02*
X90347895Y-71064404D01*
X90395514Y-71159642D01*
X90443133Y-71207261D01*
X90538371Y-71254880D01*
X90728847Y-71254880D01*
X90824085Y-71207261D01*
X90871704Y-71159642D01*
X90919323Y-71064404D01*
X90919323Y-70254880D01*
X91871704Y-70254880D02*
X91395514Y-70254880D01*
X91347895Y-70731071D01*
X91395514Y-70683452D01*
X91490752Y-70635833D01*
X91728847Y-70635833D01*
X91824085Y-70683452D01*
X91871704Y-70731071D01*
X91919323Y-70826309D01*
X91919323Y-71064404D01*
X91871704Y-71159642D01*
X91824085Y-71207261D01*
X91728847Y-71254880D01*
X91490752Y-71254880D01*
X91395514Y-71207261D01*
X91347895Y-71159642D01*
%TO.C,U2*%
X55079995Y-68527680D02*
X55079995Y-69337204D01*
X55127614Y-69432442D01*
X55175233Y-69480061D01*
X55270471Y-69527680D01*
X55460947Y-69527680D01*
X55556185Y-69480061D01*
X55603804Y-69432442D01*
X55651423Y-69337204D01*
X55651423Y-68527680D01*
X56079995Y-68622919D02*
X56127614Y-68575300D01*
X56222852Y-68527680D01*
X56460947Y-68527680D01*
X56556185Y-68575300D01*
X56603804Y-68622919D01*
X56651423Y-68718157D01*
X56651423Y-68813395D01*
X56603804Y-68956252D01*
X56032376Y-69527680D01*
X56651423Y-69527680D01*
%TO.C,R2*%
X67978280Y-79592466D02*
X67502090Y-79925800D01*
X67978280Y-80163895D02*
X66978280Y-80163895D01*
X66978280Y-79782942D01*
X67025900Y-79687704D01*
X67073519Y-79640085D01*
X67168757Y-79592466D01*
X67311614Y-79592466D01*
X67406852Y-79640085D01*
X67454471Y-79687704D01*
X67502090Y-79782942D01*
X67502090Y-80163895D01*
X67073519Y-79211514D02*
X67025900Y-79163895D01*
X66978280Y-79068657D01*
X66978280Y-78830561D01*
X67025900Y-78735323D01*
X67073519Y-78687704D01*
X67168757Y-78640085D01*
X67263995Y-78640085D01*
X67406852Y-78687704D01*
X67978280Y-79259133D01*
X67978280Y-78640085D01*
%TO.C,J6*%
X117557566Y-66911380D02*
X117557566Y-67625666D01*
X117509947Y-67768523D01*
X117414709Y-67863761D01*
X117271852Y-67911380D01*
X117176614Y-67911380D01*
X118462328Y-66911380D02*
X118271852Y-66911380D01*
X118176614Y-66959000D01*
X118128995Y-67006619D01*
X118033757Y-67149476D01*
X117986138Y-67339952D01*
X117986138Y-67720904D01*
X118033757Y-67816142D01*
X118081376Y-67863761D01*
X118176614Y-67911380D01*
X118367090Y-67911380D01*
X118462328Y-67863761D01*
X118509947Y-67816142D01*
X118557566Y-67720904D01*
X118557566Y-67482809D01*
X118509947Y-67387571D01*
X118462328Y-67339952D01*
X118367090Y-67292333D01*
X118176614Y-67292333D01*
X118081376Y-67339952D01*
X118033757Y-67387571D01*
X117986138Y-67482809D01*
%TO.C,J4*%
X89617566Y-66911380D02*
X89617566Y-67625666D01*
X89569947Y-67768523D01*
X89474709Y-67863761D01*
X89331852Y-67911380D01*
X89236614Y-67911380D01*
X90522328Y-67244714D02*
X90522328Y-67911380D01*
X90284233Y-66863761D02*
X90046138Y-67578047D01*
X90665185Y-67578047D01*
%TO.C,FB2*%
X52430466Y-77652571D02*
X52097133Y-77652571D01*
X52097133Y-78176380D02*
X52097133Y-77176380D01*
X52573323Y-77176380D01*
X53287609Y-77652571D02*
X53430466Y-77700190D01*
X53478085Y-77747809D01*
X53525704Y-77843047D01*
X53525704Y-77985904D01*
X53478085Y-78081142D01*
X53430466Y-78128761D01*
X53335228Y-78176380D01*
X52954276Y-78176380D01*
X52954276Y-77176380D01*
X53287609Y-77176380D01*
X53382847Y-77224000D01*
X53430466Y-77271619D01*
X53478085Y-77366857D01*
X53478085Y-77462095D01*
X53430466Y-77557333D01*
X53382847Y-77604952D01*
X53287609Y-77652571D01*
X52954276Y-77652571D01*
X53906657Y-77271619D02*
X53954276Y-77224000D01*
X54049514Y-77176380D01*
X54287609Y-77176380D01*
X54382847Y-77224000D01*
X54430466Y-77271619D01*
X54478085Y-77366857D01*
X54478085Y-77462095D01*
X54430466Y-77604952D01*
X53859038Y-78176380D01*
X54478085Y-78176380D01*
%TO.C,D1*%
X66251080Y-80252795D02*
X65251080Y-80252795D01*
X65251080Y-80014700D01*
X65298700Y-79871842D01*
X65393938Y-79776604D01*
X65489176Y-79728985D01*
X65679652Y-79681366D01*
X65822509Y-79681366D01*
X66012985Y-79728985D01*
X66108223Y-79776604D01*
X66203461Y-79871842D01*
X66251080Y-80014700D01*
X66251080Y-80252795D01*
X66251080Y-78728985D02*
X66251080Y-79300414D01*
X66251080Y-79014700D02*
X65251080Y-79014700D01*
X65393938Y-79109938D01*
X65489176Y-79205176D01*
X65536795Y-79300414D01*
%TO.C,C3*%
X60547542Y-73064666D02*
X60595161Y-73112285D01*
X60642780Y-73255142D01*
X60642780Y-73350380D01*
X60595161Y-73493238D01*
X60499923Y-73588476D01*
X60404685Y-73636095D01*
X60214209Y-73683714D01*
X60071352Y-73683714D01*
X59880876Y-73636095D01*
X59785638Y-73588476D01*
X59690400Y-73493238D01*
X59642780Y-73350380D01*
X59642780Y-73255142D01*
X59690400Y-73112285D01*
X59738019Y-73064666D01*
X59642780Y-72731333D02*
X59642780Y-72112285D01*
X60023733Y-72445619D01*
X60023733Y-72302761D01*
X60071352Y-72207523D01*
X60118971Y-72159904D01*
X60214209Y-72112285D01*
X60452304Y-72112285D01*
X60547542Y-72159904D01*
X60595161Y-72207523D01*
X60642780Y-72302761D01*
X60642780Y-72588476D01*
X60595161Y-72683714D01*
X60547542Y-72731333D01*
%TO.C,C2*%
X45870833Y-70448442D02*
X45823214Y-70496061D01*
X45680357Y-70543680D01*
X45585119Y-70543680D01*
X45442261Y-70496061D01*
X45347023Y-70400823D01*
X45299404Y-70305585D01*
X45251785Y-70115109D01*
X45251785Y-69972252D01*
X45299404Y-69781776D01*
X45347023Y-69686538D01*
X45442261Y-69591300D01*
X45585119Y-69543680D01*
X45680357Y-69543680D01*
X45823214Y-69591300D01*
X45870833Y-69638919D01*
X46251785Y-69638919D02*
X46299404Y-69591300D01*
X46394642Y-69543680D01*
X46632738Y-69543680D01*
X46727976Y-69591300D01*
X46775595Y-69638919D01*
X46823214Y-69734157D01*
X46823214Y-69829395D01*
X46775595Y-69972252D01*
X46204166Y-70543680D01*
X46823214Y-70543680D01*
%TO.C,C1*%
X45807633Y-75561442D02*
X45760014Y-75609061D01*
X45617157Y-75656680D01*
X45521919Y-75656680D01*
X45379061Y-75609061D01*
X45283823Y-75513823D01*
X45236204Y-75418585D01*
X45188585Y-75228109D01*
X45188585Y-75085252D01*
X45236204Y-74894776D01*
X45283823Y-74799538D01*
X45379061Y-74704300D01*
X45521919Y-74656680D01*
X45617157Y-74656680D01*
X45760014Y-74704300D01*
X45807633Y-74751919D01*
X46760014Y-75656680D02*
X46188585Y-75656680D01*
X46474300Y-75656680D02*
X46474300Y-74656680D01*
X46379061Y-74799538D01*
X46283823Y-74894776D01*
X46188585Y-74942395D01*
%TO.C,U1*%
X63030195Y-73404480D02*
X63030195Y-74214004D01*
X63077814Y-74309242D01*
X63125433Y-74356861D01*
X63220671Y-74404480D01*
X63411147Y-74404480D01*
X63506385Y-74356861D01*
X63554004Y-74309242D01*
X63601623Y-74214004D01*
X63601623Y-73404480D01*
X64601623Y-74404480D02*
X64030195Y-74404480D01*
X64315909Y-74404480D02*
X64315909Y-73404480D01*
X64220671Y-73547338D01*
X64125433Y-73642576D01*
X64030195Y-73690195D01*
%TO.C,TP3*%
X46756795Y-80046580D02*
X47328223Y-80046580D01*
X47042509Y-81046580D02*
X47042509Y-80046580D01*
X47661557Y-81046580D02*
X47661557Y-80046580D01*
X48042509Y-80046580D01*
X48137747Y-80094200D01*
X48185366Y-80141819D01*
X48232985Y-80237057D01*
X48232985Y-80379914D01*
X48185366Y-80475152D01*
X48137747Y-80522771D01*
X48042509Y-80570390D01*
X47661557Y-80570390D01*
X48566319Y-80046580D02*
X49185366Y-80046580D01*
X48852033Y-80427533D01*
X48994890Y-80427533D01*
X49090128Y-80475152D01*
X49137747Y-80522771D01*
X49185366Y-80618009D01*
X49185366Y-80856104D01*
X49137747Y-80951342D01*
X49090128Y-80998961D01*
X48994890Y-81046580D01*
X48709176Y-81046580D01*
X48613938Y-80998961D01*
X48566319Y-80951342D01*
%TO.C,TP1*%
X50490595Y-80046580D02*
X51062023Y-80046580D01*
X50776309Y-81046580D02*
X50776309Y-80046580D01*
X51395357Y-81046580D02*
X51395357Y-80046580D01*
X51776309Y-80046580D01*
X51871547Y-80094200D01*
X51919166Y-80141819D01*
X51966785Y-80237057D01*
X51966785Y-80379914D01*
X51919166Y-80475152D01*
X51871547Y-80522771D01*
X51776309Y-80570390D01*
X51395357Y-80570390D01*
X52919166Y-81046580D02*
X52347738Y-81046580D01*
X52633452Y-81046580D02*
X52633452Y-80046580D01*
X52538214Y-80189438D01*
X52442976Y-80284676D01*
X52347738Y-80332295D01*
%TO.C,SW21*%
X124364976Y-72312161D02*
X124507833Y-72359780D01*
X124745928Y-72359780D01*
X124841166Y-72312161D01*
X124888785Y-72264542D01*
X124936404Y-72169304D01*
X124936404Y-72074066D01*
X124888785Y-71978828D01*
X124841166Y-71931209D01*
X124745928Y-71883590D01*
X124555452Y-71835971D01*
X124460214Y-71788352D01*
X124412595Y-71740733D01*
X124364976Y-71645495D01*
X124364976Y-71550257D01*
X124412595Y-71455019D01*
X124460214Y-71407400D01*
X124555452Y-71359780D01*
X124793547Y-71359780D01*
X124936404Y-71407400D01*
X125269738Y-71359780D02*
X125507833Y-72359780D01*
X125698309Y-71645495D01*
X125888785Y-72359780D01*
X126126880Y-71359780D01*
X126460214Y-71455019D02*
X126507833Y-71407400D01*
X126603071Y-71359780D01*
X126841166Y-71359780D01*
X126936404Y-71407400D01*
X126984023Y-71455019D01*
X127031642Y-71550257D01*
X127031642Y-71645495D01*
X126984023Y-71788352D01*
X126412595Y-72359780D01*
X127031642Y-72359780D01*
X127984023Y-72359780D02*
X127412595Y-72359780D01*
X127698309Y-72359780D02*
X127698309Y-71359780D01*
X127603071Y-71502638D01*
X127507833Y-71597876D01*
X127412595Y-71645495D01*
%TO.C,SW20*%
X115030476Y-183311261D02*
X115173333Y-183358880D01*
X115411428Y-183358880D01*
X115506666Y-183311261D01*
X115554285Y-183263642D01*
X115601904Y-183168404D01*
X115601904Y-183073166D01*
X115554285Y-182977928D01*
X115506666Y-182930309D01*
X115411428Y-182882690D01*
X115220952Y-182835071D01*
X115125714Y-182787452D01*
X115078095Y-182739833D01*
X115030476Y-182644595D01*
X115030476Y-182549357D01*
X115078095Y-182454119D01*
X115125714Y-182406500D01*
X115220952Y-182358880D01*
X115459047Y-182358880D01*
X115601904Y-182406500D01*
X115935238Y-182358880D02*
X116173333Y-183358880D01*
X116363809Y-182644595D01*
X116554285Y-183358880D01*
X116792380Y-182358880D01*
X117125714Y-182454119D02*
X117173333Y-182406500D01*
X117268571Y-182358880D01*
X117506666Y-182358880D01*
X117601904Y-182406500D01*
X117649523Y-182454119D01*
X117697142Y-182549357D01*
X117697142Y-182644595D01*
X117649523Y-182787452D01*
X117078095Y-183358880D01*
X117697142Y-183358880D01*
X118316190Y-182358880D02*
X118411428Y-182358880D01*
X118506666Y-182406500D01*
X118554285Y-182454119D01*
X118601904Y-182549357D01*
X118649523Y-182739833D01*
X118649523Y-182977928D01*
X118601904Y-183168404D01*
X118554285Y-183263642D01*
X118506666Y-183311261D01*
X118411428Y-183358880D01*
X118316190Y-183358880D01*
X118220952Y-183311261D01*
X118173333Y-183263642D01*
X118125714Y-183168404D01*
X118078095Y-182977928D01*
X118078095Y-182739833D01*
X118125714Y-182549357D01*
X118173333Y-182454119D01*
X118220952Y-182406500D01*
X118316190Y-182358880D01*
%TO.C,SW19*%
X115030476Y-164261261D02*
X115173333Y-164308880D01*
X115411428Y-164308880D01*
X115506666Y-164261261D01*
X115554285Y-164213642D01*
X115601904Y-164118404D01*
X115601904Y-164023166D01*
X115554285Y-163927928D01*
X115506666Y-163880309D01*
X115411428Y-163832690D01*
X115220952Y-163785071D01*
X115125714Y-163737452D01*
X115078095Y-163689833D01*
X115030476Y-163594595D01*
X115030476Y-163499357D01*
X115078095Y-163404119D01*
X115125714Y-163356500D01*
X115220952Y-163308880D01*
X115459047Y-163308880D01*
X115601904Y-163356500D01*
X115935238Y-163308880D02*
X116173333Y-164308880D01*
X116363809Y-163594595D01*
X116554285Y-164308880D01*
X116792380Y-163308880D01*
X117697142Y-164308880D02*
X117125714Y-164308880D01*
X117411428Y-164308880D02*
X117411428Y-163308880D01*
X117316190Y-163451738D01*
X117220952Y-163546976D01*
X117125714Y-163594595D01*
X118173333Y-164308880D02*
X118363809Y-164308880D01*
X118459047Y-164261261D01*
X118506666Y-164213642D01*
X118601904Y-164070785D01*
X118649523Y-163880309D01*
X118649523Y-163499357D01*
X118601904Y-163404119D01*
X118554285Y-163356500D01*
X118459047Y-163308880D01*
X118268571Y-163308880D01*
X118173333Y-163356500D01*
X118125714Y-163404119D01*
X118078095Y-163499357D01*
X118078095Y-163737452D01*
X118125714Y-163832690D01*
X118173333Y-163880309D01*
X118268571Y-163927928D01*
X118459047Y-163927928D01*
X118554285Y-163880309D01*
X118601904Y-163832690D01*
X118649523Y-163737452D01*
%TO.C,SW15*%
X95980476Y-183311261D02*
X96123333Y-183358880D01*
X96361428Y-183358880D01*
X96456666Y-183311261D01*
X96504285Y-183263642D01*
X96551904Y-183168404D01*
X96551904Y-183073166D01*
X96504285Y-182977928D01*
X96456666Y-182930309D01*
X96361428Y-182882690D01*
X96170952Y-182835071D01*
X96075714Y-182787452D01*
X96028095Y-182739833D01*
X95980476Y-182644595D01*
X95980476Y-182549357D01*
X96028095Y-182454119D01*
X96075714Y-182406500D01*
X96170952Y-182358880D01*
X96409047Y-182358880D01*
X96551904Y-182406500D01*
X96885238Y-182358880D02*
X97123333Y-183358880D01*
X97313809Y-182644595D01*
X97504285Y-183358880D01*
X97742380Y-182358880D01*
X98647142Y-183358880D02*
X98075714Y-183358880D01*
X98361428Y-183358880D02*
X98361428Y-182358880D01*
X98266190Y-182501738D01*
X98170952Y-182596976D01*
X98075714Y-182644595D01*
X99551904Y-182358880D02*
X99075714Y-182358880D01*
X99028095Y-182835071D01*
X99075714Y-182787452D01*
X99170952Y-182739833D01*
X99409047Y-182739833D01*
X99504285Y-182787452D01*
X99551904Y-182835071D01*
X99599523Y-182930309D01*
X99599523Y-183168404D01*
X99551904Y-183263642D01*
X99504285Y-183311261D01*
X99409047Y-183358880D01*
X99170952Y-183358880D01*
X99075714Y-183311261D01*
X99028095Y-183263642D01*
%TO.C,SW14*%
X95980476Y-164261261D02*
X96123333Y-164308880D01*
X96361428Y-164308880D01*
X96456666Y-164261261D01*
X96504285Y-164213642D01*
X96551904Y-164118404D01*
X96551904Y-164023166D01*
X96504285Y-163927928D01*
X96456666Y-163880309D01*
X96361428Y-163832690D01*
X96170952Y-163785071D01*
X96075714Y-163737452D01*
X96028095Y-163689833D01*
X95980476Y-163594595D01*
X95980476Y-163499357D01*
X96028095Y-163404119D01*
X96075714Y-163356500D01*
X96170952Y-163308880D01*
X96409047Y-163308880D01*
X96551904Y-163356500D01*
X96885238Y-163308880D02*
X97123333Y-164308880D01*
X97313809Y-163594595D01*
X97504285Y-164308880D01*
X97742380Y-163308880D01*
X98647142Y-164308880D02*
X98075714Y-164308880D01*
X98361428Y-164308880D02*
X98361428Y-163308880D01*
X98266190Y-163451738D01*
X98170952Y-163546976D01*
X98075714Y-163594595D01*
X99504285Y-163642214D02*
X99504285Y-164308880D01*
X99266190Y-163261261D02*
X99028095Y-163975547D01*
X99647142Y-163975547D01*
%TO.C,SW10*%
X76930476Y-183311261D02*
X77073333Y-183358880D01*
X77311428Y-183358880D01*
X77406666Y-183311261D01*
X77454285Y-183263642D01*
X77501904Y-183168404D01*
X77501904Y-183073166D01*
X77454285Y-182977928D01*
X77406666Y-182930309D01*
X77311428Y-182882690D01*
X77120952Y-182835071D01*
X77025714Y-182787452D01*
X76978095Y-182739833D01*
X76930476Y-182644595D01*
X76930476Y-182549357D01*
X76978095Y-182454119D01*
X77025714Y-182406500D01*
X77120952Y-182358880D01*
X77359047Y-182358880D01*
X77501904Y-182406500D01*
X77835238Y-182358880D02*
X78073333Y-183358880D01*
X78263809Y-182644595D01*
X78454285Y-183358880D01*
X78692380Y-182358880D01*
X79597142Y-183358880D02*
X79025714Y-183358880D01*
X79311428Y-183358880D02*
X79311428Y-182358880D01*
X79216190Y-182501738D01*
X79120952Y-182596976D01*
X79025714Y-182644595D01*
X80216190Y-182358880D02*
X80311428Y-182358880D01*
X80406666Y-182406500D01*
X80454285Y-182454119D01*
X80501904Y-182549357D01*
X80549523Y-182739833D01*
X80549523Y-182977928D01*
X80501904Y-183168404D01*
X80454285Y-183263642D01*
X80406666Y-183311261D01*
X80311428Y-183358880D01*
X80216190Y-183358880D01*
X80120952Y-183311261D01*
X80073333Y-183263642D01*
X80025714Y-183168404D01*
X79978095Y-182977928D01*
X79978095Y-182739833D01*
X80025714Y-182549357D01*
X80073333Y-182454119D01*
X80120952Y-182406500D01*
X80216190Y-182358880D01*
%TO.C,SW9*%
X77406666Y-164261261D02*
X77549523Y-164308880D01*
X77787619Y-164308880D01*
X77882857Y-164261261D01*
X77930476Y-164213642D01*
X77978095Y-164118404D01*
X77978095Y-164023166D01*
X77930476Y-163927928D01*
X77882857Y-163880309D01*
X77787619Y-163832690D01*
X77597142Y-163785071D01*
X77501904Y-163737452D01*
X77454285Y-163689833D01*
X77406666Y-163594595D01*
X77406666Y-163499357D01*
X77454285Y-163404119D01*
X77501904Y-163356500D01*
X77597142Y-163308880D01*
X77835238Y-163308880D01*
X77978095Y-163356500D01*
X78311428Y-163308880D02*
X78549523Y-164308880D01*
X78740000Y-163594595D01*
X78930476Y-164308880D01*
X79168571Y-163308880D01*
X79597142Y-164308880D02*
X79787619Y-164308880D01*
X79882857Y-164261261D01*
X79930476Y-164213642D01*
X80025714Y-164070785D01*
X80073333Y-163880309D01*
X80073333Y-163499357D01*
X80025714Y-163404119D01*
X79978095Y-163356500D01*
X79882857Y-163308880D01*
X79692380Y-163308880D01*
X79597142Y-163356500D01*
X79549523Y-163404119D01*
X79501904Y-163499357D01*
X79501904Y-163737452D01*
X79549523Y-163832690D01*
X79597142Y-163880309D01*
X79692380Y-163927928D01*
X79882857Y-163927928D01*
X79978095Y-163880309D01*
X80025714Y-163832690D01*
X80073333Y-163737452D01*
%TO.C,SW5*%
X58356666Y-183311261D02*
X58499523Y-183358880D01*
X58737619Y-183358880D01*
X58832857Y-183311261D01*
X58880476Y-183263642D01*
X58928095Y-183168404D01*
X58928095Y-183073166D01*
X58880476Y-182977928D01*
X58832857Y-182930309D01*
X58737619Y-182882690D01*
X58547142Y-182835071D01*
X58451904Y-182787452D01*
X58404285Y-182739833D01*
X58356666Y-182644595D01*
X58356666Y-182549357D01*
X58404285Y-182454119D01*
X58451904Y-182406500D01*
X58547142Y-182358880D01*
X58785238Y-182358880D01*
X58928095Y-182406500D01*
X59261428Y-182358880D02*
X59499523Y-183358880D01*
X59690000Y-182644595D01*
X59880476Y-183358880D01*
X60118571Y-182358880D01*
X60975714Y-182358880D02*
X60499523Y-182358880D01*
X60451904Y-182835071D01*
X60499523Y-182787452D01*
X60594761Y-182739833D01*
X60832857Y-182739833D01*
X60928095Y-182787452D01*
X60975714Y-182835071D01*
X61023333Y-182930309D01*
X61023333Y-183168404D01*
X60975714Y-183263642D01*
X60928095Y-183311261D01*
X60832857Y-183358880D01*
X60594761Y-183358880D01*
X60499523Y-183311261D01*
X60451904Y-183263642D01*
%TO.C,SW4*%
X58356666Y-164261261D02*
X58499523Y-164308880D01*
X58737619Y-164308880D01*
X58832857Y-164261261D01*
X58880476Y-164213642D01*
X58928095Y-164118404D01*
X58928095Y-164023166D01*
X58880476Y-163927928D01*
X58832857Y-163880309D01*
X58737619Y-163832690D01*
X58547142Y-163785071D01*
X58451904Y-163737452D01*
X58404285Y-163689833D01*
X58356666Y-163594595D01*
X58356666Y-163499357D01*
X58404285Y-163404119D01*
X58451904Y-163356500D01*
X58547142Y-163308880D01*
X58785238Y-163308880D01*
X58928095Y-163356500D01*
X59261428Y-163308880D02*
X59499523Y-164308880D01*
X59690000Y-163594595D01*
X59880476Y-164308880D01*
X60118571Y-163308880D01*
X60928095Y-163642214D02*
X60928095Y-164308880D01*
X60690000Y-163261261D02*
X60451904Y-163975547D01*
X61070952Y-163975547D01*
%TO.C,R21*%
X68702180Y-70022957D02*
X68225990Y-70356290D01*
X68702180Y-70594385D02*
X67702180Y-70594385D01*
X67702180Y-70213433D01*
X67749800Y-70118195D01*
X67797419Y-70070576D01*
X67892657Y-70022957D01*
X68035514Y-70022957D01*
X68130752Y-70070576D01*
X68178371Y-70118195D01*
X68225990Y-70213433D01*
X68225990Y-70594385D01*
X67797419Y-69642004D02*
X67749800Y-69594385D01*
X67702180Y-69499147D01*
X67702180Y-69261052D01*
X67749800Y-69165814D01*
X67797419Y-69118195D01*
X67892657Y-69070576D01*
X67987895Y-69070576D01*
X68130752Y-69118195D01*
X68702180Y-69689623D01*
X68702180Y-69070576D01*
X68702180Y-68118195D02*
X68702180Y-68689623D01*
X68702180Y-68403909D02*
X67702180Y-68403909D01*
X67845038Y-68499147D01*
X67940276Y-68594385D01*
X67987895Y-68689623D01*
%TO.C,R20*%
X66670180Y-69641957D02*
X66193990Y-69975290D01*
X66670180Y-70213385D02*
X65670180Y-70213385D01*
X65670180Y-69832433D01*
X65717800Y-69737195D01*
X65765419Y-69689576D01*
X65860657Y-69641957D01*
X66003514Y-69641957D01*
X66098752Y-69689576D01*
X66146371Y-69737195D01*
X66193990Y-69832433D01*
X66193990Y-70213385D01*
X65765419Y-69261004D02*
X65717800Y-69213385D01*
X65670180Y-69118147D01*
X65670180Y-68880052D01*
X65717800Y-68784814D01*
X65765419Y-68737195D01*
X65860657Y-68689576D01*
X65955895Y-68689576D01*
X66098752Y-68737195D01*
X66670180Y-69308623D01*
X66670180Y-68689576D01*
X65670180Y-68070528D02*
X65670180Y-67975290D01*
X65717800Y-67880052D01*
X65765419Y-67832433D01*
X65860657Y-67784814D01*
X66051133Y-67737195D01*
X66289228Y-67737195D01*
X66479704Y-67784814D01*
X66574942Y-67832433D01*
X66622561Y-67880052D01*
X66670180Y-67975290D01*
X66670180Y-68070528D01*
X66622561Y-68165766D01*
X66574942Y-68213385D01*
X66479704Y-68261004D01*
X66289228Y-68308623D01*
X66051133Y-68308623D01*
X65860657Y-68261004D01*
X65765419Y-68213385D01*
X65717800Y-68165766D01*
X65670180Y-68070528D01*
%TO.C,R16*%
X132184380Y-102560857D02*
X131708190Y-102894190D01*
X132184380Y-103132285D02*
X131184380Y-103132285D01*
X131184380Y-102751333D01*
X131232000Y-102656095D01*
X131279619Y-102608476D01*
X131374857Y-102560857D01*
X131517714Y-102560857D01*
X131612952Y-102608476D01*
X131660571Y-102656095D01*
X131708190Y-102751333D01*
X131708190Y-103132285D01*
X132184380Y-101608476D02*
X132184380Y-102179904D01*
X132184380Y-101894190D02*
X131184380Y-101894190D01*
X131327238Y-101989428D01*
X131422476Y-102084666D01*
X131470095Y-102179904D01*
X131184380Y-100751333D02*
X131184380Y-100941809D01*
X131232000Y-101037047D01*
X131279619Y-101084666D01*
X131422476Y-101179904D01*
X131612952Y-101227523D01*
X131993904Y-101227523D01*
X132089142Y-101179904D01*
X132136761Y-101132285D01*
X132184380Y-101037047D01*
X132184380Y-100846571D01*
X132136761Y-100751333D01*
X132089142Y-100703714D01*
X131993904Y-100656095D01*
X131755809Y-100656095D01*
X131660571Y-100703714D01*
X131612952Y-100751333D01*
X131565333Y-100846571D01*
X131565333Y-101037047D01*
X131612952Y-101132285D01*
X131660571Y-101179904D01*
X131755809Y-101227523D01*
%TO.C,J2*%
X51533680Y-61788633D02*
X52247966Y-61788633D01*
X52390823Y-61836252D01*
X52486061Y-61931490D01*
X52533680Y-62074347D01*
X52533680Y-62169585D01*
X51628919Y-61360061D02*
X51581300Y-61312442D01*
X51533680Y-61217204D01*
X51533680Y-60979109D01*
X51581300Y-60883871D01*
X51628919Y-60836252D01*
X51724157Y-60788633D01*
X51819395Y-60788633D01*
X51962252Y-60836252D01*
X52533680Y-61407680D01*
X52533680Y-60788633D01*
%TO.C,C31*%
X106558142Y-183585142D02*
X106510523Y-183632761D01*
X106367666Y-183680380D01*
X106272428Y-183680380D01*
X106129571Y-183632761D01*
X106034333Y-183537523D01*
X105986714Y-183442285D01*
X105939095Y-183251809D01*
X105939095Y-183108952D01*
X105986714Y-182918476D01*
X106034333Y-182823238D01*
X106129571Y-182728000D01*
X106272428Y-182680380D01*
X106367666Y-182680380D01*
X106510523Y-182728000D01*
X106558142Y-182775619D01*
X106891476Y-182680380D02*
X107510523Y-182680380D01*
X107177190Y-183061333D01*
X107320047Y-183061333D01*
X107415285Y-183108952D01*
X107462904Y-183156571D01*
X107510523Y-183251809D01*
X107510523Y-183489904D01*
X107462904Y-183585142D01*
X107415285Y-183632761D01*
X107320047Y-183680380D01*
X107034333Y-183680380D01*
X106939095Y-183632761D01*
X106891476Y-183585142D01*
X108462904Y-183680380D02*
X107891476Y-183680380D01*
X108177190Y-183680380D02*
X108177190Y-182680380D01*
X108081952Y-182823238D01*
X107986714Y-182918476D01*
X107891476Y-182966095D01*
%TO.C,C28*%
X125990642Y-127248857D02*
X126038261Y-127296476D01*
X126085880Y-127439333D01*
X126085880Y-127534571D01*
X126038261Y-127677428D01*
X125943023Y-127772666D01*
X125847785Y-127820285D01*
X125657309Y-127867904D01*
X125514452Y-127867904D01*
X125323976Y-127820285D01*
X125228738Y-127772666D01*
X125133500Y-127677428D01*
X125085880Y-127534571D01*
X125085880Y-127439333D01*
X125133500Y-127296476D01*
X125181119Y-127248857D01*
X125181119Y-126867904D02*
X125133500Y-126820285D01*
X125085880Y-126725047D01*
X125085880Y-126486952D01*
X125133500Y-126391714D01*
X125181119Y-126344095D01*
X125276357Y-126296476D01*
X125371595Y-126296476D01*
X125514452Y-126344095D01*
X126085880Y-126915523D01*
X126085880Y-126296476D01*
X125514452Y-125725047D02*
X125466833Y-125820285D01*
X125419214Y-125867904D01*
X125323976Y-125915523D01*
X125276357Y-125915523D01*
X125181119Y-125867904D01*
X125133500Y-125820285D01*
X125085880Y-125725047D01*
X125085880Y-125534571D01*
X125133500Y-125439333D01*
X125181119Y-125391714D01*
X125276357Y-125344095D01*
X125323976Y-125344095D01*
X125419214Y-125391714D01*
X125466833Y-125439333D01*
X125514452Y-125534571D01*
X125514452Y-125725047D01*
X125562071Y-125820285D01*
X125609690Y-125867904D01*
X125704928Y-125915523D01*
X125895404Y-125915523D01*
X125990642Y-125867904D01*
X126038261Y-125820285D01*
X126085880Y-125725047D01*
X126085880Y-125534571D01*
X126038261Y-125439333D01*
X125990642Y-125391714D01*
X125895404Y-125344095D01*
X125704928Y-125344095D01*
X125609690Y-125391714D01*
X125562071Y-125439333D01*
X125514452Y-125534571D01*
%TO.C,C25*%
X51444142Y-146171857D02*
X51491761Y-146219476D01*
X51539380Y-146362333D01*
X51539380Y-146457571D01*
X51491761Y-146600428D01*
X51396523Y-146695666D01*
X51301285Y-146743285D01*
X51110809Y-146790904D01*
X50967952Y-146790904D01*
X50777476Y-146743285D01*
X50682238Y-146695666D01*
X50587000Y-146600428D01*
X50539380Y-146457571D01*
X50539380Y-146362333D01*
X50587000Y-146219476D01*
X50634619Y-146171857D01*
X50634619Y-145790904D02*
X50587000Y-145743285D01*
X50539380Y-145648047D01*
X50539380Y-145409952D01*
X50587000Y-145314714D01*
X50634619Y-145267095D01*
X50729857Y-145219476D01*
X50825095Y-145219476D01*
X50967952Y-145267095D01*
X51539380Y-145838523D01*
X51539380Y-145219476D01*
X50539380Y-144314714D02*
X50539380Y-144790904D01*
X51015571Y-144838523D01*
X50967952Y-144790904D01*
X50920333Y-144695666D01*
X50920333Y-144457571D01*
X50967952Y-144362333D01*
X51015571Y-144314714D01*
X51110809Y-144267095D01*
X51348904Y-144267095D01*
X51444142Y-144314714D01*
X51491761Y-144362333D01*
X51539380Y-144457571D01*
X51539380Y-144695666D01*
X51491761Y-144790904D01*
X51444142Y-144838523D01*
%TO.C,C21*%
X126054142Y-165348857D02*
X126101761Y-165396476D01*
X126149380Y-165539333D01*
X126149380Y-165634571D01*
X126101761Y-165777428D01*
X126006523Y-165872666D01*
X125911285Y-165920285D01*
X125720809Y-165967904D01*
X125577952Y-165967904D01*
X125387476Y-165920285D01*
X125292238Y-165872666D01*
X125197000Y-165777428D01*
X125149380Y-165634571D01*
X125149380Y-165539333D01*
X125197000Y-165396476D01*
X125244619Y-165348857D01*
X125244619Y-164967904D02*
X125197000Y-164920285D01*
X125149380Y-164825047D01*
X125149380Y-164586952D01*
X125197000Y-164491714D01*
X125244619Y-164444095D01*
X125339857Y-164396476D01*
X125435095Y-164396476D01*
X125577952Y-164444095D01*
X126149380Y-165015523D01*
X126149380Y-164396476D01*
X126149380Y-163444095D02*
X126149380Y-164015523D01*
X126149380Y-163729809D02*
X125149380Y-163729809D01*
X125292238Y-163825047D01*
X125387476Y-163920285D01*
X125435095Y-164015523D01*
%TO.C,C18*%
X125927142Y-146451857D02*
X125974761Y-146499476D01*
X126022380Y-146642333D01*
X126022380Y-146737571D01*
X125974761Y-146880428D01*
X125879523Y-146975666D01*
X125784285Y-147023285D01*
X125593809Y-147070904D01*
X125450952Y-147070904D01*
X125260476Y-147023285D01*
X125165238Y-146975666D01*
X125070000Y-146880428D01*
X125022380Y-146737571D01*
X125022380Y-146642333D01*
X125070000Y-146499476D01*
X125117619Y-146451857D01*
X126022380Y-145499476D02*
X126022380Y-146070904D01*
X126022380Y-145785190D02*
X125022380Y-145785190D01*
X125165238Y-145880428D01*
X125260476Y-145975666D01*
X125308095Y-146070904D01*
X125450952Y-144928047D02*
X125403333Y-145023285D01*
X125355714Y-145070904D01*
X125260476Y-145118523D01*
X125212857Y-145118523D01*
X125117619Y-145070904D01*
X125070000Y-145023285D01*
X125022380Y-144928047D01*
X125022380Y-144737571D01*
X125070000Y-144642333D01*
X125117619Y-144594714D01*
X125212857Y-144547095D01*
X125260476Y-144547095D01*
X125355714Y-144594714D01*
X125403333Y-144642333D01*
X125450952Y-144737571D01*
X125450952Y-144928047D01*
X125498571Y-145023285D01*
X125546190Y-145070904D01*
X125641428Y-145118523D01*
X125831904Y-145118523D01*
X125927142Y-145070904D01*
X125974761Y-145023285D01*
X126022380Y-144928047D01*
X126022380Y-144737571D01*
X125974761Y-144642333D01*
X125927142Y-144594714D01*
X125831904Y-144547095D01*
X125641428Y-144547095D01*
X125546190Y-144594714D01*
X125498571Y-144642333D01*
X125450952Y-144737571D01*
%TO.C,C12*%
X68521642Y-183839142D02*
X68474023Y-183886761D01*
X68331166Y-183934380D01*
X68235928Y-183934380D01*
X68093071Y-183886761D01*
X67997833Y-183791523D01*
X67950214Y-183696285D01*
X67902595Y-183505809D01*
X67902595Y-183362952D01*
X67950214Y-183172476D01*
X67997833Y-183077238D01*
X68093071Y-182982000D01*
X68235928Y-182934380D01*
X68331166Y-182934380D01*
X68474023Y-182982000D01*
X68521642Y-183029619D01*
X69474023Y-183934380D02*
X68902595Y-183934380D01*
X69188309Y-183934380D02*
X69188309Y-182934380D01*
X69093071Y-183077238D01*
X68997833Y-183172476D01*
X68902595Y-183220095D01*
X69854976Y-183029619D02*
X69902595Y-182982000D01*
X69997833Y-182934380D01*
X70235928Y-182934380D01*
X70331166Y-182982000D01*
X70378785Y-183029619D01*
X70426404Y-183124857D01*
X70426404Y-183220095D01*
X70378785Y-183362952D01*
X69807357Y-183934380D01*
X70426404Y-183934380D01*
%TO.C,C8*%
X51190142Y-164745666D02*
X51237761Y-164793285D01*
X51285380Y-164936142D01*
X51285380Y-165031380D01*
X51237761Y-165174238D01*
X51142523Y-165269476D01*
X51047285Y-165317095D01*
X50856809Y-165364714D01*
X50713952Y-165364714D01*
X50523476Y-165317095D01*
X50428238Y-165269476D01*
X50333000Y-165174238D01*
X50285380Y-165031380D01*
X50285380Y-164936142D01*
X50333000Y-164793285D01*
X50380619Y-164745666D01*
X50713952Y-164174238D02*
X50666333Y-164269476D01*
X50618714Y-164317095D01*
X50523476Y-164364714D01*
X50475857Y-164364714D01*
X50380619Y-164317095D01*
X50333000Y-164269476D01*
X50285380Y-164174238D01*
X50285380Y-163983761D01*
X50333000Y-163888523D01*
X50380619Y-163840904D01*
X50475857Y-163793285D01*
X50523476Y-163793285D01*
X50618714Y-163840904D01*
X50666333Y-163888523D01*
X50713952Y-163983761D01*
X50713952Y-164174238D01*
X50761571Y-164269476D01*
X50809190Y-164317095D01*
X50904428Y-164364714D01*
X51094904Y-164364714D01*
X51190142Y-164317095D01*
X51237761Y-164269476D01*
X51285380Y-164174238D01*
X51285380Y-163983761D01*
X51237761Y-163888523D01*
X51190142Y-163840904D01*
X51094904Y-163793285D01*
X50904428Y-163793285D01*
X50809190Y-163840904D01*
X50761571Y-163888523D01*
X50713952Y-163983761D01*
%TO.C,C4*%
X125927142Y-107849666D02*
X125974761Y-107897285D01*
X126022380Y-108040142D01*
X126022380Y-108135380D01*
X125974761Y-108278238D01*
X125879523Y-108373476D01*
X125784285Y-108421095D01*
X125593809Y-108468714D01*
X125450952Y-108468714D01*
X125260476Y-108421095D01*
X125165238Y-108373476D01*
X125070000Y-108278238D01*
X125022380Y-108135380D01*
X125022380Y-108040142D01*
X125070000Y-107897285D01*
X125117619Y-107849666D01*
X125355714Y-106992523D02*
X126022380Y-106992523D01*
X124974761Y-107230619D02*
X125689047Y-107468714D01*
X125689047Y-106849666D01*
%TD*%
M02*
