%TF.GenerationSoftware,KiCad,Pcbnew,(5.1.8)-1*%
%TF.CreationDate,2022-08-08T09:51:38+10:00*%
%TF.ProjectId,Macropad,4d616372-6f70-4616-942e-6b696361645f,rev?*%
%TF.SameCoordinates,Original*%
%TF.FileFunction,Legend,Bot*%
%TF.FilePolarity,Positive*%
%FSLAX46Y46*%
G04 Gerber Fmt 4.6, Leading zero omitted, Abs format (unit mm)*
G04 Created by KiCad (PCBNEW (5.1.8)-1) date 2022-08-08 09:51:38*
%MOMM*%
%LPD*%
G01*
G04 APERTURE LIST*
%ADD10C,0.150000*%
%ADD11C,0.250000*%
%ADD12C,0.120000*%
%ADD13C,0.300000*%
G04 APERTURE END LIST*
D10*
X92755980Y-75034971D02*
X91755980Y-75034971D01*
X92470266Y-75368304D01*
X91755980Y-75701638D01*
X92755980Y-75701638D01*
X91755980Y-76368304D02*
X91755980Y-76558780D01*
X91803600Y-76654019D01*
X91898838Y-76749257D01*
X92089314Y-76796876D01*
X92422647Y-76796876D01*
X92613123Y-76749257D01*
X92708361Y-76654019D01*
X92755980Y-76558780D01*
X92755980Y-76368304D01*
X92708361Y-76273066D01*
X92613123Y-76177828D01*
X92422647Y-76130209D01*
X92089314Y-76130209D01*
X91898838Y-76177828D01*
X91803600Y-76273066D01*
X91755980Y-76368304D01*
X92708361Y-77177828D02*
X92755980Y-77320685D01*
X92755980Y-77558780D01*
X92708361Y-77654019D01*
X92660742Y-77701638D01*
X92565504Y-77749257D01*
X92470266Y-77749257D01*
X92375028Y-77701638D01*
X92327409Y-77654019D01*
X92279790Y-77558780D01*
X92232171Y-77368304D01*
X92184552Y-77273066D01*
X92136933Y-77225447D01*
X92041695Y-77177828D01*
X91946457Y-77177828D01*
X91851219Y-77225447D01*
X91803600Y-77273066D01*
X91755980Y-77368304D01*
X91755980Y-77606400D01*
X91803600Y-77749257D01*
X92755980Y-78177828D02*
X91755980Y-78177828D01*
X95332380Y-87728571D02*
X94332380Y-87728571D01*
X95046666Y-88061904D01*
X94332380Y-88395238D01*
X95332380Y-88395238D01*
X95332380Y-88871428D02*
X94332380Y-88871428D01*
X95284761Y-89300000D02*
X95332380Y-89442857D01*
X95332380Y-89680952D01*
X95284761Y-89776190D01*
X95237142Y-89823809D01*
X95141904Y-89871428D01*
X95046666Y-89871428D01*
X94951428Y-89823809D01*
X94903809Y-89776190D01*
X94856190Y-89680952D01*
X94808571Y-89490476D01*
X94760952Y-89395238D01*
X94713333Y-89347619D01*
X94618095Y-89300000D01*
X94522857Y-89300000D01*
X94427619Y-89347619D01*
X94380000Y-89395238D01*
X94332380Y-89490476D01*
X94332380Y-89728571D01*
X94380000Y-89871428D01*
X94332380Y-90490476D02*
X94332380Y-90680952D01*
X94380000Y-90776190D01*
X94475238Y-90871428D01*
X94665714Y-90919047D01*
X94999047Y-90919047D01*
X95189523Y-90871428D01*
X95284761Y-90776190D01*
X95332380Y-90680952D01*
X95332380Y-90490476D01*
X95284761Y-90395238D01*
X95189523Y-90300000D01*
X94999047Y-90252380D01*
X94665714Y-90252380D01*
X94475238Y-90300000D01*
X94380000Y-90395238D01*
X94332380Y-90490476D01*
X93254761Y-87715885D02*
X93302380Y-87858742D01*
X93302380Y-88096838D01*
X93254761Y-88192076D01*
X93207142Y-88239695D01*
X93111904Y-88287314D01*
X93016666Y-88287314D01*
X92921428Y-88239695D01*
X92873809Y-88192076D01*
X92826190Y-88096838D01*
X92778571Y-87906361D01*
X92730952Y-87811123D01*
X92683333Y-87763504D01*
X92588095Y-87715885D01*
X92492857Y-87715885D01*
X92397619Y-87763504D01*
X92350000Y-87811123D01*
X92302380Y-87906361D01*
X92302380Y-88144457D01*
X92350000Y-88287314D01*
X93207142Y-89287314D02*
X93254761Y-89239695D01*
X93302380Y-89096838D01*
X93302380Y-89001600D01*
X93254761Y-88858742D01*
X93159523Y-88763504D01*
X93064285Y-88715885D01*
X92873809Y-88668266D01*
X92730952Y-88668266D01*
X92540476Y-88715885D01*
X92445238Y-88763504D01*
X92350000Y-88858742D01*
X92302380Y-89001600D01*
X92302380Y-89096838D01*
X92350000Y-89239695D01*
X92397619Y-89287314D01*
X93302380Y-89715885D02*
X92302380Y-89715885D01*
X93302380Y-90287314D02*
X92730952Y-89858742D01*
X92302380Y-90287314D02*
X92873809Y-89715885D01*
X87762380Y-87462380D02*
X87286190Y-87129047D01*
X87762380Y-86890952D02*
X86762380Y-86890952D01*
X86762380Y-87271904D01*
X86810000Y-87367142D01*
X86857619Y-87414761D01*
X86952857Y-87462380D01*
X87095714Y-87462380D01*
X87190952Y-87414761D01*
X87238571Y-87367142D01*
X87286190Y-87271904D01*
X87286190Y-86890952D01*
X87714761Y-87843333D02*
X87762380Y-87986190D01*
X87762380Y-88224285D01*
X87714761Y-88319523D01*
X87667142Y-88367142D01*
X87571904Y-88414761D01*
X87476666Y-88414761D01*
X87381428Y-88367142D01*
X87333809Y-88319523D01*
X87286190Y-88224285D01*
X87238571Y-88033809D01*
X87190952Y-87938571D01*
X87143333Y-87890952D01*
X87048095Y-87843333D01*
X86952857Y-87843333D01*
X86857619Y-87890952D01*
X86810000Y-87938571D01*
X86762380Y-88033809D01*
X86762380Y-88271904D01*
X86810000Y-88414761D01*
X86762380Y-88700476D02*
X86762380Y-89271904D01*
X87762380Y-88986190D02*
X86762380Y-88986190D01*
D11*
X120762700Y-170345100D02*
G75*
G03*
X120762700Y-170345100I-100000J0D01*
G01*
X101954000Y-170345100D02*
G75*
G03*
X101954000Y-170345100I-100000J0D01*
G01*
X83069100Y-170205400D02*
G75*
G03*
X83069100Y-170205400I-100000J0D01*
G01*
X63612700Y-170472100D02*
G75*
G03*
X63612700Y-170472100I-100000J0D01*
G01*
X55853000Y-147904200D02*
G75*
G03*
X55853000Y-147904200I-100000J0D01*
G01*
X74890300Y-147967700D02*
G75*
G03*
X74890300Y-147967700I-100000J0D01*
G01*
X93978400Y-147929600D02*
G75*
G03*
X93978400Y-147929600I-100000J0D01*
G01*
X113218900Y-147904200D02*
G75*
G03*
X113218900Y-147904200I-100000J0D01*
G01*
X120953200Y-132143500D02*
G75*
G03*
X120953200Y-132143500I-100000J0D01*
G01*
X102004800Y-132232400D02*
G75*
G03*
X102004800Y-132232400I-100000J0D01*
G01*
X83132600Y-132207000D02*
G75*
G03*
X83132600Y-132207000I-100000J0D01*
G01*
X64069900Y-132143500D02*
G75*
G03*
X64069900Y-132143500I-100000J0D01*
G01*
X55916500Y-109816900D02*
G75*
G03*
X55916500Y-109816900I-100000J0D01*
G01*
X74991900Y-109816900D02*
G75*
G03*
X74991900Y-109816900I-100000J0D01*
G01*
X94384800Y-109791500D02*
G75*
G03*
X94384800Y-109791500I-100000J0D01*
G01*
X113168100Y-109664500D02*
G75*
G03*
X113168100Y-109664500I-100000J0D01*
G01*
X121156400Y-94119700D02*
G75*
G03*
X121156400Y-94119700I-100000J0D01*
G01*
X102220700Y-94272100D02*
G75*
G03*
X102220700Y-94272100I-100000J0D01*
G01*
X82891300Y-94195900D02*
G75*
G03*
X82891300Y-94195900I-100000J0D01*
G01*
X63612700Y-94373700D02*
G75*
G03*
X63612700Y-94373700I-100000J0D01*
G01*
X100328400Y-79832200D02*
G75*
G03*
X100328400Y-79832200I-100000J0D01*
G01*
X96170000Y-87730000D02*
G75*
G03*
X96170000Y-87730000I-100000J0D01*
G01*
X72731300Y-82257900D02*
G75*
G03*
X72731300Y-82257900I-100000J0D01*
G01*
D12*
%TO.C,U3*%
X70140000Y-75390000D02*
X70140000Y-76790000D01*
X67820000Y-76790000D02*
X67820000Y-74890000D01*
%TO.C,R32*%
X71022500Y-72637742D02*
X71022500Y-73112258D01*
X69977500Y-72637742D02*
X69977500Y-73112258D01*
%TO.C,C33*%
X98234420Y-76940000D02*
X98515580Y-76940000D01*
X98234420Y-77960000D02*
X98515580Y-77960000D01*
%TO.C,R31*%
X85342258Y-74397500D02*
X84867742Y-74397500D01*
X85342258Y-75442500D02*
X84867742Y-75442500D01*
%TO.C,R30*%
X82247500Y-70337258D02*
X82247500Y-69862742D01*
X81202500Y-70337258D02*
X81202500Y-69862742D01*
%TO.C,R21*%
X84612258Y-72857500D02*
X84137742Y-72857500D01*
X84612258Y-73902500D02*
X84137742Y-73902500D01*
%TO.C,R20*%
X82947500Y-70837742D02*
X82947500Y-71312258D01*
X83992500Y-70837742D02*
X83992500Y-71312258D01*
%TO.C,R11*%
X77033658Y-78369900D02*
X76559142Y-78369900D01*
X77033658Y-79414900D02*
X76559142Y-79414900D01*
%TO.C,R10*%
X77033658Y-79944700D02*
X76559142Y-79944700D01*
X77033658Y-80989700D02*
X76559142Y-80989700D01*
%TO.C,R9*%
X72047500Y-68887258D02*
X72047500Y-68412742D01*
X71002500Y-68887258D02*
X71002500Y-68412742D01*
%TO.C,R6*%
X73772500Y-69612258D02*
X73772500Y-69137742D01*
X72727500Y-69612258D02*
X72727500Y-69137742D01*
%TO.C,R5*%
X68717742Y-82272500D02*
X69192258Y-82272500D01*
X68717742Y-81227500D02*
X69192258Y-81227500D01*
%TO.C,SW22*%
X83864180Y-83458860D02*
X83864180Y-83758860D01*
X87164180Y-83758860D02*
X87164180Y-83458860D01*
X87164180Y-83458860D02*
X83864180Y-83458860D01*
X87164180Y-86258860D02*
X83864180Y-86258860D01*
X83864180Y-86258860D02*
X83864180Y-85958860D01*
X87164180Y-85958860D02*
X87164180Y-86258860D01*
%TO.C,C20*%
X62116580Y-95633000D02*
X61835420Y-95633000D01*
X62116580Y-94613000D02*
X61835420Y-94613000D01*
%TO.C,FB3*%
X53849622Y-68147000D02*
X53050378Y-68147000D01*
X53849622Y-69267000D02*
X53050378Y-69267000D01*
%TO.C,J3*%
X91442000Y-80346000D02*
X90422000Y-80346000D01*
X91442000Y-85546000D02*
X90422000Y-85546000D01*
X93982000Y-80346000D02*
X92962000Y-80346000D01*
X93982000Y-85546000D02*
X92962000Y-85546000D01*
X88902000Y-80346000D02*
X88332000Y-80346000D01*
X88902000Y-85546000D02*
X88332000Y-85546000D01*
X96072000Y-80346000D02*
X95502000Y-80346000D01*
X96072000Y-85546000D02*
X95502000Y-85546000D01*
X95502000Y-86986000D02*
X95502000Y-85546000D01*
X88332000Y-85546000D02*
X88332000Y-80346000D01*
X96072000Y-85546000D02*
X96072000Y-80346000D01*
%TO.C,U4*%
X81521500Y-73418500D02*
X81521500Y-74568500D01*
X80371500Y-73418500D02*
X81521500Y-73418500D01*
X72021500Y-73418500D02*
X72021500Y-74568500D01*
X73171500Y-73418500D02*
X72021500Y-73418500D01*
X81521500Y-82918500D02*
X81521500Y-81768500D01*
X80371500Y-82918500D02*
X81521500Y-82918500D01*
X72021500Y-81768500D02*
X71821500Y-81768500D01*
X72021500Y-82918500D02*
X72021500Y-81768500D01*
X73171500Y-82918500D02*
X72021500Y-82918500D01*
%TO.C,R1*%
X68392258Y-73137500D02*
X67917742Y-73137500D01*
X68392258Y-74182500D02*
X67917742Y-74182500D01*
%TO.C,C44*%
X68014420Y-72565600D02*
X68295580Y-72565600D01*
X68014420Y-71545600D02*
X68295580Y-71545600D01*
%TO.C,C43*%
X100368980Y-171731400D02*
X100087820Y-171731400D01*
X100368980Y-170711400D02*
X100087820Y-170711400D01*
%TO.C,C42*%
X81559980Y-171706000D02*
X81278820Y-171706000D01*
X81559980Y-170686000D02*
X81278820Y-170686000D01*
%TO.C,C41*%
X122328400Y-170344220D02*
X122328400Y-170625380D01*
X121308400Y-170344220D02*
X121308400Y-170625380D01*
%TO.C,C40*%
X65280000Y-170433420D02*
X65280000Y-170714580D01*
X64260000Y-170433420D02*
X64260000Y-170714580D01*
D13*
%TO.C,X2*%
X73489500Y-87877120D02*
G75*
G03*
X73489500Y-87877120I-100000J0D01*
G01*
D12*
%TO.C,R29*%
X85354698Y-79314780D02*
X84880182Y-79314780D01*
X85354698Y-80359780D02*
X84880182Y-80359780D01*
%TO.C,R28*%
X85354698Y-81919340D02*
X84880182Y-81919340D01*
X85354698Y-80874340D02*
X84880182Y-80874340D01*
%TO.C,R27*%
X85326758Y-75995000D02*
X84852242Y-75995000D01*
X85326758Y-77040000D02*
X84852242Y-77040000D01*
%TO.C,R26*%
X85326758Y-77519000D02*
X84852242Y-77519000D01*
X85326758Y-78564000D02*
X84852242Y-78564000D01*
%TO.C,R25*%
X77519000Y-70056742D02*
X77519000Y-70531258D01*
X78564000Y-70056742D02*
X78564000Y-70531258D01*
%TO.C,R24*%
X79106500Y-70056742D02*
X79106500Y-70531258D01*
X80151500Y-70056742D02*
X80151500Y-70531258D01*
%TO.C,R23*%
X74407500Y-70056742D02*
X74407500Y-70531258D01*
X75452500Y-70056742D02*
X75452500Y-70531258D01*
%TO.C,R22*%
X75931500Y-70056742D02*
X75931500Y-70531258D01*
X76976500Y-70056742D02*
X76976500Y-70531258D01*
%TO.C,R13*%
X114949500Y-75128658D02*
X114949500Y-74654142D01*
X113904500Y-75128658D02*
X113904500Y-74654142D01*
%TO.C,R8*%
X69187758Y-79617500D02*
X68713242Y-79617500D01*
X69187758Y-80662500D02*
X68713242Y-80662500D01*
%TO.C,R7*%
X69188758Y-78030000D02*
X68714242Y-78030000D01*
X69188758Y-79075000D02*
X68714242Y-79075000D01*
%TO.C,R4*%
X56182258Y-73937500D02*
X55707742Y-73937500D01*
X56182258Y-74982500D02*
X55707742Y-74982500D01*
%TO.C,R3*%
X51824158Y-66101700D02*
X51349642Y-66101700D01*
X51824158Y-67146700D02*
X51349642Y-67146700D01*
%TO.C,J1*%
X41054000Y-77248500D02*
X41054000Y-68058500D01*
X50464000Y-77128500D02*
X50464000Y-68178500D01*
X43784000Y-68058500D02*
X41054000Y-68058500D01*
X43784000Y-77248500D02*
X41054000Y-77248500D01*
X47384000Y-68058500D02*
X46484000Y-68058500D01*
X47384000Y-77248500D02*
X46484000Y-77248500D01*
%TO.C,FB1*%
X54395300Y-78246322D02*
X54395300Y-77447078D01*
X53275300Y-78246322D02*
X53275300Y-77447078D01*
%TO.C,D22*%
X111990240Y-82426680D02*
X111990240Y-84976680D01*
X110290240Y-82426680D02*
X110290240Y-84976680D01*
X110290240Y-82426680D02*
X111990240Y-82426680D01*
%TO.C,D21*%
X125105240Y-170112680D02*
X125105240Y-172662680D01*
X123405240Y-170112680D02*
X123405240Y-172662680D01*
X123405240Y-170112680D02*
X125105240Y-170112680D01*
%TO.C,D20*%
X125105240Y-151062680D02*
X125105240Y-153612680D01*
X123405240Y-151062680D02*
X123405240Y-153612680D01*
X123405240Y-151062680D02*
X125105240Y-151062680D01*
%TO.C,D19*%
X125105240Y-132012680D02*
X125105240Y-134562680D01*
X123405240Y-132012680D02*
X123405240Y-134562680D01*
X123405240Y-132012680D02*
X125105240Y-132012680D01*
%TO.C,D18*%
X125105240Y-112962680D02*
X125105240Y-115512680D01*
X123405240Y-112962680D02*
X123405240Y-115512680D01*
X123405240Y-112962680D02*
X125105240Y-112962680D01*
%TO.C,D17*%
X125105240Y-93912680D02*
X125105240Y-96462680D01*
X123405240Y-93912680D02*
X123405240Y-96462680D01*
X123405240Y-93912680D02*
X125105240Y-93912680D01*
%TO.C,D16*%
X106055240Y-170112680D02*
X106055240Y-172662680D01*
X104355240Y-170112680D02*
X104355240Y-172662680D01*
X104355240Y-170112680D02*
X106055240Y-170112680D01*
%TO.C,D15*%
X106055240Y-151062680D02*
X106055240Y-153612680D01*
X104355240Y-151062680D02*
X104355240Y-153612680D01*
X104355240Y-151062680D02*
X106055240Y-151062680D01*
%TO.C,D14*%
X106055240Y-132012680D02*
X106055240Y-134562680D01*
X104355240Y-132012680D02*
X104355240Y-134562680D01*
X104355240Y-132012680D02*
X106055240Y-132012680D01*
%TO.C,D13*%
X106055240Y-112962680D02*
X106055240Y-115512680D01*
X104355240Y-112962680D02*
X104355240Y-115512680D01*
X104355240Y-112962680D02*
X106055240Y-112962680D01*
%TO.C,D12*%
X106055240Y-93912680D02*
X106055240Y-96462680D01*
X104355240Y-93912680D02*
X104355240Y-96462680D01*
X104355240Y-93912680D02*
X106055240Y-93912680D01*
%TO.C,D11*%
X87005240Y-170112680D02*
X87005240Y-172662680D01*
X85305240Y-170112680D02*
X85305240Y-172662680D01*
X85305240Y-170112680D02*
X87005240Y-170112680D01*
%TO.C,D10*%
X87005240Y-151062680D02*
X87005240Y-153612680D01*
X85305240Y-151062680D02*
X85305240Y-153612680D01*
X85305240Y-151062680D02*
X87005240Y-151062680D01*
%TO.C,D9*%
X87005240Y-132012680D02*
X87005240Y-134562680D01*
X85305240Y-132012680D02*
X85305240Y-134562680D01*
X85305240Y-132012680D02*
X87005240Y-132012680D01*
%TO.C,D8*%
X87005240Y-112962680D02*
X87005240Y-115512680D01*
X85305240Y-112962680D02*
X85305240Y-115512680D01*
X85305240Y-112962680D02*
X87005240Y-112962680D01*
%TO.C,D7*%
X87005240Y-93912680D02*
X87005240Y-96462680D01*
X85305240Y-93912680D02*
X85305240Y-96462680D01*
X85305240Y-93912680D02*
X87005240Y-93912680D01*
%TO.C,D6*%
X67955240Y-170112680D02*
X67955240Y-172662680D01*
X66255240Y-170112680D02*
X66255240Y-172662680D01*
X66255240Y-170112680D02*
X67955240Y-170112680D01*
%TO.C,D5*%
X66255240Y-151062680D02*
X67955240Y-151062680D01*
X66255240Y-151062680D02*
X66255240Y-153612680D01*
X67955240Y-151062680D02*
X67955240Y-153612680D01*
%TO.C,D4*%
X67955240Y-132012680D02*
X67955240Y-134562680D01*
X66255240Y-132012680D02*
X66255240Y-134562680D01*
X66255240Y-132012680D02*
X67955240Y-132012680D01*
%TO.C,D3*%
X67955240Y-112962680D02*
X67955240Y-115512680D01*
X66255240Y-112962680D02*
X66255240Y-115512680D01*
X66255240Y-112962680D02*
X67955240Y-112962680D01*
%TO.C,D2*%
X67955240Y-93912680D02*
X67955240Y-96462680D01*
X66255240Y-93912680D02*
X66255240Y-96462680D01*
X66255240Y-93912680D02*
X67955240Y-93912680D01*
%TO.C,R18*%
X90127742Y-87997500D02*
X90602258Y-87997500D01*
X90127742Y-89042500D02*
X90602258Y-89042500D01*
%TO.C,R15*%
X118959100Y-165307742D02*
X118959100Y-165782258D01*
X120004100Y-165307742D02*
X120004100Y-165782258D01*
%TO.C,R14*%
X118730500Y-75472058D02*
X118730500Y-74997542D01*
X119775500Y-75472058D02*
X119775500Y-74997542D01*
%TO.C,C36*%
X93469420Y-72460000D02*
X93750580Y-72460000D01*
X93469420Y-73480000D02*
X93750580Y-73480000D01*
%TO.C,C35*%
X106174000Y-80264580D02*
X106174000Y-79983420D01*
X105154000Y-80264580D02*
X105154000Y-79983420D01*
%TO.C,C32*%
X71880000Y-85801780D02*
X71880000Y-85520620D01*
X72900000Y-85801780D02*
X72900000Y-85520620D01*
%TO.C,C29*%
X76732820Y-147728400D02*
X77013980Y-147728400D01*
X76732820Y-146708400D02*
X77013980Y-146708400D01*
%TO.C,C27*%
X76732820Y-109628400D02*
X77013980Y-109628400D01*
X76732820Y-108608400D02*
X77013980Y-108608400D01*
%TO.C,C26*%
X119660280Y-132687600D02*
X119379120Y-132687600D01*
X119660280Y-133707600D02*
X119379120Y-133707600D01*
%TO.C,C24*%
X62789380Y-132636800D02*
X62508220Y-132636800D01*
X62789380Y-133656800D02*
X62508220Y-133656800D01*
%TO.C,C22*%
X81686980Y-132662200D02*
X81405820Y-132662200D01*
X81686980Y-133682200D02*
X81405820Y-133682200D01*
%TO.C,C19*%
X114832820Y-109628400D02*
X115113980Y-109628400D01*
X114832820Y-108608400D02*
X115113980Y-108608400D01*
%TO.C,C17*%
X81305980Y-94536800D02*
X81024820Y-94536800D01*
X81305980Y-95556800D02*
X81024820Y-95556800D01*
%TO.C,C15*%
X100432180Y-132636800D02*
X100151020Y-132636800D01*
X100432180Y-133656800D02*
X100151020Y-133656800D01*
%TO.C,C13*%
X95833620Y-109577600D02*
X96114780Y-109577600D01*
X95833620Y-108557600D02*
X96114780Y-108557600D01*
%TO.C,C11*%
X119482180Y-94600300D02*
X119201020Y-94600300D01*
X119482180Y-95620300D02*
X119201020Y-95620300D01*
%TO.C,C10*%
X57479620Y-147779200D02*
X57760780Y-147779200D01*
X57479620Y-146759200D02*
X57760780Y-146759200D01*
%TO.C,C9*%
X95630420Y-147779200D02*
X95911580Y-147779200D01*
X95630420Y-146759200D02*
X95911580Y-146759200D01*
%TO.C,C7*%
X57733620Y-109425200D02*
X58014780Y-109425200D01*
X57733620Y-108405200D02*
X58014780Y-108405200D01*
%TO.C,C6*%
X114883620Y-147779200D02*
X115164780Y-147779200D01*
X114883620Y-146759200D02*
X115164780Y-146759200D01*
%TO.C,C5*%
X100597280Y-94600300D02*
X100316120Y-94600300D01*
X100597280Y-95620300D02*
X100316120Y-95620300D01*
%TO.C,U3*%
D10*
X66432380Y-75328095D02*
X67241904Y-75328095D01*
X67337142Y-75375714D01*
X67384761Y-75423333D01*
X67432380Y-75518571D01*
X67432380Y-75709047D01*
X67384761Y-75804285D01*
X67337142Y-75851904D01*
X67241904Y-75899523D01*
X66432380Y-75899523D01*
X66432380Y-76280476D02*
X66432380Y-76899523D01*
X66813333Y-76566190D01*
X66813333Y-76709047D01*
X66860952Y-76804285D01*
X66908571Y-76851904D01*
X67003809Y-76899523D01*
X67241904Y-76899523D01*
X67337142Y-76851904D01*
X67384761Y-76804285D01*
X67432380Y-76709047D01*
X67432380Y-76423333D01*
X67384761Y-76328095D01*
X67337142Y-76280476D01*
%TO.C,R32*%
X69522380Y-72232142D02*
X69046190Y-71898809D01*
X69522380Y-71660714D02*
X68522380Y-71660714D01*
X68522380Y-72041666D01*
X68570000Y-72136904D01*
X68617619Y-72184523D01*
X68712857Y-72232142D01*
X68855714Y-72232142D01*
X68950952Y-72184523D01*
X68998571Y-72136904D01*
X69046190Y-72041666D01*
X69046190Y-71660714D01*
X68522380Y-72565476D02*
X68522380Y-73184523D01*
X68903333Y-72851190D01*
X68903333Y-72994047D01*
X68950952Y-73089285D01*
X68998571Y-73136904D01*
X69093809Y-73184523D01*
X69331904Y-73184523D01*
X69427142Y-73136904D01*
X69474761Y-73089285D01*
X69522380Y-72994047D01*
X69522380Y-72708333D01*
X69474761Y-72613095D01*
X69427142Y-72565476D01*
X68617619Y-73565476D02*
X68570000Y-73613095D01*
X68522380Y-73708333D01*
X68522380Y-73946428D01*
X68570000Y-74041666D01*
X68617619Y-74089285D01*
X68712857Y-74136904D01*
X68808095Y-74136904D01*
X68950952Y-74089285D01*
X69522380Y-73517857D01*
X69522380Y-74136904D01*
%TO.C,C33*%
X98865157Y-76333942D02*
X98912776Y-76381561D01*
X99055633Y-76429180D01*
X99150871Y-76429180D01*
X99293728Y-76381561D01*
X99388966Y-76286323D01*
X99436585Y-76191085D01*
X99484204Y-76000609D01*
X99484204Y-75857752D01*
X99436585Y-75667276D01*
X99388966Y-75572038D01*
X99293728Y-75476800D01*
X99150871Y-75429180D01*
X99055633Y-75429180D01*
X98912776Y-75476800D01*
X98865157Y-75524419D01*
X98531823Y-75429180D02*
X97912776Y-75429180D01*
X98246109Y-75810133D01*
X98103252Y-75810133D01*
X98008014Y-75857752D01*
X97960395Y-75905371D01*
X97912776Y-76000609D01*
X97912776Y-76238704D01*
X97960395Y-76333942D01*
X98008014Y-76381561D01*
X98103252Y-76429180D01*
X98388966Y-76429180D01*
X98484204Y-76381561D01*
X98531823Y-76333942D01*
X97579442Y-75429180D02*
X96960395Y-75429180D01*
X97293728Y-75810133D01*
X97150871Y-75810133D01*
X97055633Y-75857752D01*
X97008014Y-75905371D01*
X96960395Y-76000609D01*
X96960395Y-76238704D01*
X97008014Y-76333942D01*
X97055633Y-76381561D01*
X97150871Y-76429180D01*
X97436585Y-76429180D01*
X97531823Y-76381561D01*
X97579442Y-76333942D01*
%TO.C,D54*%
X117551365Y-95301060D02*
X117551365Y-94301060D01*
X117313270Y-94301060D01*
X117170413Y-94348680D01*
X117075175Y-94443918D01*
X117027556Y-94539156D01*
X116979937Y-94729632D01*
X116979937Y-94872489D01*
X117027556Y-95062965D01*
X117075175Y-95158203D01*
X117170413Y-95253441D01*
X117313270Y-95301060D01*
X117551365Y-95301060D01*
X116075175Y-94301060D02*
X116551365Y-94301060D01*
X116598984Y-94777251D01*
X116551365Y-94729632D01*
X116456127Y-94682013D01*
X116218032Y-94682013D01*
X116122794Y-94729632D01*
X116075175Y-94777251D01*
X116027556Y-94872489D01*
X116027556Y-95110584D01*
X116075175Y-95205822D01*
X116122794Y-95253441D01*
X116218032Y-95301060D01*
X116456127Y-95301060D01*
X116551365Y-95253441D01*
X116598984Y-95205822D01*
X115170413Y-94634394D02*
X115170413Y-95301060D01*
X115408508Y-94253441D02*
X115646603Y-94967727D01*
X115027556Y-94967727D01*
%TO.C,D53*%
X98501365Y-95301060D02*
X98501365Y-94301060D01*
X98263270Y-94301060D01*
X98120413Y-94348680D01*
X98025175Y-94443918D01*
X97977556Y-94539156D01*
X97929937Y-94729632D01*
X97929937Y-94872489D01*
X97977556Y-95062965D01*
X98025175Y-95158203D01*
X98120413Y-95253441D01*
X98263270Y-95301060D01*
X98501365Y-95301060D01*
X97025175Y-94301060D02*
X97501365Y-94301060D01*
X97548984Y-94777251D01*
X97501365Y-94729632D01*
X97406127Y-94682013D01*
X97168032Y-94682013D01*
X97072794Y-94729632D01*
X97025175Y-94777251D01*
X96977556Y-94872489D01*
X96977556Y-95110584D01*
X97025175Y-95205822D01*
X97072794Y-95253441D01*
X97168032Y-95301060D01*
X97406127Y-95301060D01*
X97501365Y-95253441D01*
X97548984Y-95205822D01*
X96644222Y-94301060D02*
X96025175Y-94301060D01*
X96358508Y-94682013D01*
X96215651Y-94682013D01*
X96120413Y-94729632D01*
X96072794Y-94777251D01*
X96025175Y-94872489D01*
X96025175Y-95110584D01*
X96072794Y-95205822D01*
X96120413Y-95253441D01*
X96215651Y-95301060D01*
X96501365Y-95301060D01*
X96596603Y-95253441D01*
X96644222Y-95205822D01*
%TO.C,D52*%
X79451365Y-95301060D02*
X79451365Y-94301060D01*
X79213270Y-94301060D01*
X79070413Y-94348680D01*
X78975175Y-94443918D01*
X78927556Y-94539156D01*
X78879937Y-94729632D01*
X78879937Y-94872489D01*
X78927556Y-95062965D01*
X78975175Y-95158203D01*
X79070413Y-95253441D01*
X79213270Y-95301060D01*
X79451365Y-95301060D01*
X77975175Y-94301060D02*
X78451365Y-94301060D01*
X78498984Y-94777251D01*
X78451365Y-94729632D01*
X78356127Y-94682013D01*
X78118032Y-94682013D01*
X78022794Y-94729632D01*
X77975175Y-94777251D01*
X77927556Y-94872489D01*
X77927556Y-95110584D01*
X77975175Y-95205822D01*
X78022794Y-95253441D01*
X78118032Y-95301060D01*
X78356127Y-95301060D01*
X78451365Y-95253441D01*
X78498984Y-95205822D01*
X77546603Y-94396299D02*
X77498984Y-94348680D01*
X77403746Y-94301060D01*
X77165651Y-94301060D01*
X77070413Y-94348680D01*
X77022794Y-94396299D01*
X76975175Y-94491537D01*
X76975175Y-94586775D01*
X77022794Y-94729632D01*
X77594222Y-95301060D01*
X76975175Y-95301060D01*
%TO.C,D51*%
X60401365Y-95301060D02*
X60401365Y-94301060D01*
X60163270Y-94301060D01*
X60020413Y-94348680D01*
X59925175Y-94443918D01*
X59877556Y-94539156D01*
X59829937Y-94729632D01*
X59829937Y-94872489D01*
X59877556Y-95062965D01*
X59925175Y-95158203D01*
X60020413Y-95253441D01*
X60163270Y-95301060D01*
X60401365Y-95301060D01*
X58925175Y-94301060D02*
X59401365Y-94301060D01*
X59448984Y-94777251D01*
X59401365Y-94729632D01*
X59306127Y-94682013D01*
X59068032Y-94682013D01*
X58972794Y-94729632D01*
X58925175Y-94777251D01*
X58877556Y-94872489D01*
X58877556Y-95110584D01*
X58925175Y-95205822D01*
X58972794Y-95253441D01*
X59068032Y-95301060D01*
X59306127Y-95301060D01*
X59401365Y-95253441D01*
X59448984Y-95205822D01*
X57925175Y-95301060D02*
X58496603Y-95301060D01*
X58210889Y-95301060D02*
X58210889Y-94301060D01*
X58306127Y-94443918D01*
X58401365Y-94539156D01*
X58496603Y-94586775D01*
%TO.C,D46*%
X117551365Y-171501060D02*
X117551365Y-170501060D01*
X117313270Y-170501060D01*
X117170413Y-170548680D01*
X117075175Y-170643918D01*
X117027556Y-170739156D01*
X116979937Y-170929632D01*
X116979937Y-171072489D01*
X117027556Y-171262965D01*
X117075175Y-171358203D01*
X117170413Y-171453441D01*
X117313270Y-171501060D01*
X117551365Y-171501060D01*
X116122794Y-170834394D02*
X116122794Y-171501060D01*
X116360889Y-170453441D02*
X116598984Y-171167727D01*
X115979937Y-171167727D01*
X115170413Y-170501060D02*
X115360889Y-170501060D01*
X115456127Y-170548680D01*
X115503746Y-170596299D01*
X115598984Y-170739156D01*
X115646603Y-170929632D01*
X115646603Y-171310584D01*
X115598984Y-171405822D01*
X115551365Y-171453441D01*
X115456127Y-171501060D01*
X115265651Y-171501060D01*
X115170413Y-171453441D01*
X115122794Y-171405822D01*
X115075175Y-171310584D01*
X115075175Y-171072489D01*
X115122794Y-170977251D01*
X115170413Y-170929632D01*
X115265651Y-170882013D01*
X115456127Y-170882013D01*
X115551365Y-170929632D01*
X115598984Y-170977251D01*
X115646603Y-171072489D01*
%TO.C,D45*%
X117551365Y-133401060D02*
X117551365Y-132401060D01*
X117313270Y-132401060D01*
X117170413Y-132448680D01*
X117075175Y-132543918D01*
X117027556Y-132639156D01*
X116979937Y-132829632D01*
X116979937Y-132972489D01*
X117027556Y-133162965D01*
X117075175Y-133258203D01*
X117170413Y-133353441D01*
X117313270Y-133401060D01*
X117551365Y-133401060D01*
X116122794Y-132734394D02*
X116122794Y-133401060D01*
X116360889Y-132353441D02*
X116598984Y-133067727D01*
X115979937Y-133067727D01*
X115122794Y-132401060D02*
X115598984Y-132401060D01*
X115646603Y-132877251D01*
X115598984Y-132829632D01*
X115503746Y-132782013D01*
X115265651Y-132782013D01*
X115170413Y-132829632D01*
X115122794Y-132877251D01*
X115075175Y-132972489D01*
X115075175Y-133210584D01*
X115122794Y-133305822D01*
X115170413Y-133353441D01*
X115265651Y-133401060D01*
X115503746Y-133401060D01*
X115598984Y-133353441D01*
X115646603Y-133305822D01*
%TO.C,D44*%
X119654285Y-147822380D02*
X119654285Y-146822380D01*
X119416190Y-146822380D01*
X119273333Y-146870000D01*
X119178095Y-146965238D01*
X119130476Y-147060476D01*
X119082857Y-147250952D01*
X119082857Y-147393809D01*
X119130476Y-147584285D01*
X119178095Y-147679523D01*
X119273333Y-147774761D01*
X119416190Y-147822380D01*
X119654285Y-147822380D01*
X118225714Y-147155714D02*
X118225714Y-147822380D01*
X118463809Y-146774761D02*
X118701904Y-147489047D01*
X118082857Y-147489047D01*
X117273333Y-147155714D02*
X117273333Y-147822380D01*
X117511428Y-146774761D02*
X117749523Y-147489047D01*
X117130476Y-147489047D01*
%TO.C,D43*%
X119354285Y-109622380D02*
X119354285Y-108622380D01*
X119116190Y-108622380D01*
X118973333Y-108670000D01*
X118878095Y-108765238D01*
X118830476Y-108860476D01*
X118782857Y-109050952D01*
X118782857Y-109193809D01*
X118830476Y-109384285D01*
X118878095Y-109479523D01*
X118973333Y-109574761D01*
X119116190Y-109622380D01*
X119354285Y-109622380D01*
X117925714Y-108955714D02*
X117925714Y-109622380D01*
X118163809Y-108574761D02*
X118401904Y-109289047D01*
X117782857Y-109289047D01*
X117497142Y-108622380D02*
X116878095Y-108622380D01*
X117211428Y-109003333D01*
X117068571Y-109003333D01*
X116973333Y-109050952D01*
X116925714Y-109098571D01*
X116878095Y-109193809D01*
X116878095Y-109431904D01*
X116925714Y-109527142D01*
X116973333Y-109574761D01*
X117068571Y-109622380D01*
X117354285Y-109622380D01*
X117449523Y-109574761D01*
X117497142Y-109527142D01*
%TO.C,D40*%
X98501365Y-171501060D02*
X98501365Y-170501060D01*
X98263270Y-170501060D01*
X98120413Y-170548680D01*
X98025175Y-170643918D01*
X97977556Y-170739156D01*
X97929937Y-170929632D01*
X97929937Y-171072489D01*
X97977556Y-171262965D01*
X98025175Y-171358203D01*
X98120413Y-171453441D01*
X98263270Y-171501060D01*
X98501365Y-171501060D01*
X97072794Y-170834394D02*
X97072794Y-171501060D01*
X97310889Y-170453441D02*
X97548984Y-171167727D01*
X96929937Y-171167727D01*
X96358508Y-170501060D02*
X96263270Y-170501060D01*
X96168032Y-170548680D01*
X96120413Y-170596299D01*
X96072794Y-170691537D01*
X96025175Y-170882013D01*
X96025175Y-171120108D01*
X96072794Y-171310584D01*
X96120413Y-171405822D01*
X96168032Y-171453441D01*
X96263270Y-171501060D01*
X96358508Y-171501060D01*
X96453746Y-171453441D01*
X96501365Y-171405822D01*
X96548984Y-171310584D01*
X96596603Y-171120108D01*
X96596603Y-170882013D01*
X96548984Y-170691537D01*
X96501365Y-170596299D01*
X96453746Y-170548680D01*
X96358508Y-170501060D01*
%TO.C,D39*%
X98501365Y-133401060D02*
X98501365Y-132401060D01*
X98263270Y-132401060D01*
X98120413Y-132448680D01*
X98025175Y-132543918D01*
X97977556Y-132639156D01*
X97929937Y-132829632D01*
X97929937Y-132972489D01*
X97977556Y-133162965D01*
X98025175Y-133258203D01*
X98120413Y-133353441D01*
X98263270Y-133401060D01*
X98501365Y-133401060D01*
X97596603Y-132401060D02*
X96977556Y-132401060D01*
X97310889Y-132782013D01*
X97168032Y-132782013D01*
X97072794Y-132829632D01*
X97025175Y-132877251D01*
X96977556Y-132972489D01*
X96977556Y-133210584D01*
X97025175Y-133305822D01*
X97072794Y-133353441D01*
X97168032Y-133401060D01*
X97453746Y-133401060D01*
X97548984Y-133353441D01*
X97596603Y-133305822D01*
X96501365Y-133401060D02*
X96310889Y-133401060D01*
X96215651Y-133353441D01*
X96168032Y-133305822D01*
X96072794Y-133162965D01*
X96025175Y-132972489D01*
X96025175Y-132591537D01*
X96072794Y-132496299D01*
X96120413Y-132448680D01*
X96215651Y-132401060D01*
X96406127Y-132401060D01*
X96501365Y-132448680D01*
X96548984Y-132496299D01*
X96596603Y-132591537D01*
X96596603Y-132829632D01*
X96548984Y-132924870D01*
X96501365Y-132972489D01*
X96406127Y-133020108D01*
X96215651Y-133020108D01*
X96120413Y-132972489D01*
X96072794Y-132924870D01*
X96025175Y-132829632D01*
%TO.C,D38*%
X100124285Y-147822380D02*
X100124285Y-146822380D01*
X99886190Y-146822380D01*
X99743333Y-146870000D01*
X99648095Y-146965238D01*
X99600476Y-147060476D01*
X99552857Y-147250952D01*
X99552857Y-147393809D01*
X99600476Y-147584285D01*
X99648095Y-147679523D01*
X99743333Y-147774761D01*
X99886190Y-147822380D01*
X100124285Y-147822380D01*
X99219523Y-146822380D02*
X98600476Y-146822380D01*
X98933809Y-147203333D01*
X98790952Y-147203333D01*
X98695714Y-147250952D01*
X98648095Y-147298571D01*
X98600476Y-147393809D01*
X98600476Y-147631904D01*
X98648095Y-147727142D01*
X98695714Y-147774761D01*
X98790952Y-147822380D01*
X99076666Y-147822380D01*
X99171904Y-147774761D01*
X99219523Y-147727142D01*
X98029047Y-147250952D02*
X98124285Y-147203333D01*
X98171904Y-147155714D01*
X98219523Y-147060476D01*
X98219523Y-147012857D01*
X98171904Y-146917619D01*
X98124285Y-146870000D01*
X98029047Y-146822380D01*
X97838571Y-146822380D01*
X97743333Y-146870000D01*
X97695714Y-146917619D01*
X97648095Y-147012857D01*
X97648095Y-147060476D01*
X97695714Y-147155714D01*
X97743333Y-147203333D01*
X97838571Y-147250952D01*
X98029047Y-147250952D01*
X98124285Y-147298571D01*
X98171904Y-147346190D01*
X98219523Y-147441428D01*
X98219523Y-147631904D01*
X98171904Y-147727142D01*
X98124285Y-147774761D01*
X98029047Y-147822380D01*
X97838571Y-147822380D01*
X97743333Y-147774761D01*
X97695714Y-147727142D01*
X97648095Y-147631904D01*
X97648095Y-147441428D01*
X97695714Y-147346190D01*
X97743333Y-147298571D01*
X97838571Y-147250952D01*
%TO.C,D37*%
X100464285Y-109762380D02*
X100464285Y-108762380D01*
X100226190Y-108762380D01*
X100083333Y-108810000D01*
X99988095Y-108905238D01*
X99940476Y-109000476D01*
X99892857Y-109190952D01*
X99892857Y-109333809D01*
X99940476Y-109524285D01*
X99988095Y-109619523D01*
X100083333Y-109714761D01*
X100226190Y-109762380D01*
X100464285Y-109762380D01*
X99559523Y-108762380D02*
X98940476Y-108762380D01*
X99273809Y-109143333D01*
X99130952Y-109143333D01*
X99035714Y-109190952D01*
X98988095Y-109238571D01*
X98940476Y-109333809D01*
X98940476Y-109571904D01*
X98988095Y-109667142D01*
X99035714Y-109714761D01*
X99130952Y-109762380D01*
X99416666Y-109762380D01*
X99511904Y-109714761D01*
X99559523Y-109667142D01*
X98607142Y-108762380D02*
X97940476Y-108762380D01*
X98369047Y-109762380D01*
%TO.C,D34*%
X79451365Y-171501060D02*
X79451365Y-170501060D01*
X79213270Y-170501060D01*
X79070413Y-170548680D01*
X78975175Y-170643918D01*
X78927556Y-170739156D01*
X78879937Y-170929632D01*
X78879937Y-171072489D01*
X78927556Y-171262965D01*
X78975175Y-171358203D01*
X79070413Y-171453441D01*
X79213270Y-171501060D01*
X79451365Y-171501060D01*
X78546603Y-170501060D02*
X77927556Y-170501060D01*
X78260889Y-170882013D01*
X78118032Y-170882013D01*
X78022794Y-170929632D01*
X77975175Y-170977251D01*
X77927556Y-171072489D01*
X77927556Y-171310584D01*
X77975175Y-171405822D01*
X78022794Y-171453441D01*
X78118032Y-171501060D01*
X78403746Y-171501060D01*
X78498984Y-171453441D01*
X78546603Y-171405822D01*
X77070413Y-170834394D02*
X77070413Y-171501060D01*
X77308508Y-170453441D02*
X77546603Y-171167727D01*
X76927556Y-171167727D01*
%TO.C,D33*%
X79451365Y-133401060D02*
X79451365Y-132401060D01*
X79213270Y-132401060D01*
X79070413Y-132448680D01*
X78975175Y-132543918D01*
X78927556Y-132639156D01*
X78879937Y-132829632D01*
X78879937Y-132972489D01*
X78927556Y-133162965D01*
X78975175Y-133258203D01*
X79070413Y-133353441D01*
X79213270Y-133401060D01*
X79451365Y-133401060D01*
X78546603Y-132401060D02*
X77927556Y-132401060D01*
X78260889Y-132782013D01*
X78118032Y-132782013D01*
X78022794Y-132829632D01*
X77975175Y-132877251D01*
X77927556Y-132972489D01*
X77927556Y-133210584D01*
X77975175Y-133305822D01*
X78022794Y-133353441D01*
X78118032Y-133401060D01*
X78403746Y-133401060D01*
X78498984Y-133353441D01*
X78546603Y-133305822D01*
X77594222Y-132401060D02*
X76975175Y-132401060D01*
X77308508Y-132782013D01*
X77165651Y-132782013D01*
X77070413Y-132829632D01*
X77022794Y-132877251D01*
X76975175Y-132972489D01*
X76975175Y-133210584D01*
X77022794Y-133305822D01*
X77070413Y-133353441D01*
X77165651Y-133401060D01*
X77451365Y-133401060D01*
X77546603Y-133353441D01*
X77594222Y-133305822D01*
%TO.C,D32*%
X81364285Y-147772380D02*
X81364285Y-146772380D01*
X81126190Y-146772380D01*
X80983333Y-146820000D01*
X80888095Y-146915238D01*
X80840476Y-147010476D01*
X80792857Y-147200952D01*
X80792857Y-147343809D01*
X80840476Y-147534285D01*
X80888095Y-147629523D01*
X80983333Y-147724761D01*
X81126190Y-147772380D01*
X81364285Y-147772380D01*
X80459523Y-146772380D02*
X79840476Y-146772380D01*
X80173809Y-147153333D01*
X80030952Y-147153333D01*
X79935714Y-147200952D01*
X79888095Y-147248571D01*
X79840476Y-147343809D01*
X79840476Y-147581904D01*
X79888095Y-147677142D01*
X79935714Y-147724761D01*
X80030952Y-147772380D01*
X80316666Y-147772380D01*
X80411904Y-147724761D01*
X80459523Y-147677142D01*
X79459523Y-146867619D02*
X79411904Y-146820000D01*
X79316666Y-146772380D01*
X79078571Y-146772380D01*
X78983333Y-146820000D01*
X78935714Y-146867619D01*
X78888095Y-146962857D01*
X78888095Y-147058095D01*
X78935714Y-147200952D01*
X79507142Y-147772380D01*
X78888095Y-147772380D01*
%TO.C,D31*%
X81134285Y-109632380D02*
X81134285Y-108632380D01*
X80896190Y-108632380D01*
X80753333Y-108680000D01*
X80658095Y-108775238D01*
X80610476Y-108870476D01*
X80562857Y-109060952D01*
X80562857Y-109203809D01*
X80610476Y-109394285D01*
X80658095Y-109489523D01*
X80753333Y-109584761D01*
X80896190Y-109632380D01*
X81134285Y-109632380D01*
X80229523Y-108632380D02*
X79610476Y-108632380D01*
X79943809Y-109013333D01*
X79800952Y-109013333D01*
X79705714Y-109060952D01*
X79658095Y-109108571D01*
X79610476Y-109203809D01*
X79610476Y-109441904D01*
X79658095Y-109537142D01*
X79705714Y-109584761D01*
X79800952Y-109632380D01*
X80086666Y-109632380D01*
X80181904Y-109584761D01*
X80229523Y-109537142D01*
X78658095Y-109632380D02*
X79229523Y-109632380D01*
X78943809Y-109632380D02*
X78943809Y-108632380D01*
X79039047Y-108775238D01*
X79134285Y-108870476D01*
X79229523Y-108918095D01*
%TO.C,D28*%
X60401365Y-171501060D02*
X60401365Y-170501060D01*
X60163270Y-170501060D01*
X60020413Y-170548680D01*
X59925175Y-170643918D01*
X59877556Y-170739156D01*
X59829937Y-170929632D01*
X59829937Y-171072489D01*
X59877556Y-171262965D01*
X59925175Y-171358203D01*
X60020413Y-171453441D01*
X60163270Y-171501060D01*
X60401365Y-171501060D01*
X59448984Y-170596299D02*
X59401365Y-170548680D01*
X59306127Y-170501060D01*
X59068032Y-170501060D01*
X58972794Y-170548680D01*
X58925175Y-170596299D01*
X58877556Y-170691537D01*
X58877556Y-170786775D01*
X58925175Y-170929632D01*
X59496603Y-171501060D01*
X58877556Y-171501060D01*
X58306127Y-170929632D02*
X58401365Y-170882013D01*
X58448984Y-170834394D01*
X58496603Y-170739156D01*
X58496603Y-170691537D01*
X58448984Y-170596299D01*
X58401365Y-170548680D01*
X58306127Y-170501060D01*
X58115651Y-170501060D01*
X58020413Y-170548680D01*
X57972794Y-170596299D01*
X57925175Y-170691537D01*
X57925175Y-170739156D01*
X57972794Y-170834394D01*
X58020413Y-170882013D01*
X58115651Y-170929632D01*
X58306127Y-170929632D01*
X58401365Y-170977251D01*
X58448984Y-171024870D01*
X58496603Y-171120108D01*
X58496603Y-171310584D01*
X58448984Y-171405822D01*
X58401365Y-171453441D01*
X58306127Y-171501060D01*
X58115651Y-171501060D01*
X58020413Y-171453441D01*
X57972794Y-171405822D01*
X57925175Y-171310584D01*
X57925175Y-171120108D01*
X57972794Y-171024870D01*
X58020413Y-170977251D01*
X58115651Y-170929632D01*
%TO.C,D27*%
X60401365Y-133401060D02*
X60401365Y-132401060D01*
X60163270Y-132401060D01*
X60020413Y-132448680D01*
X59925175Y-132543918D01*
X59877556Y-132639156D01*
X59829937Y-132829632D01*
X59829937Y-132972489D01*
X59877556Y-133162965D01*
X59925175Y-133258203D01*
X60020413Y-133353441D01*
X60163270Y-133401060D01*
X60401365Y-133401060D01*
X59448984Y-132496299D02*
X59401365Y-132448680D01*
X59306127Y-132401060D01*
X59068032Y-132401060D01*
X58972794Y-132448680D01*
X58925175Y-132496299D01*
X58877556Y-132591537D01*
X58877556Y-132686775D01*
X58925175Y-132829632D01*
X59496603Y-133401060D01*
X58877556Y-133401060D01*
X58544222Y-132401060D02*
X57877556Y-132401060D01*
X58306127Y-133401060D01*
%TO.C,D26*%
X61964285Y-147812380D02*
X61964285Y-146812380D01*
X61726190Y-146812380D01*
X61583333Y-146860000D01*
X61488095Y-146955238D01*
X61440476Y-147050476D01*
X61392857Y-147240952D01*
X61392857Y-147383809D01*
X61440476Y-147574285D01*
X61488095Y-147669523D01*
X61583333Y-147764761D01*
X61726190Y-147812380D01*
X61964285Y-147812380D01*
X61011904Y-146907619D02*
X60964285Y-146860000D01*
X60869047Y-146812380D01*
X60630952Y-146812380D01*
X60535714Y-146860000D01*
X60488095Y-146907619D01*
X60440476Y-147002857D01*
X60440476Y-147098095D01*
X60488095Y-147240952D01*
X61059523Y-147812380D01*
X60440476Y-147812380D01*
X59583333Y-146812380D02*
X59773809Y-146812380D01*
X59869047Y-146860000D01*
X59916666Y-146907619D01*
X60011904Y-147050476D01*
X60059523Y-147240952D01*
X60059523Y-147621904D01*
X60011904Y-147717142D01*
X59964285Y-147764761D01*
X59869047Y-147812380D01*
X59678571Y-147812380D01*
X59583333Y-147764761D01*
X59535714Y-147717142D01*
X59488095Y-147621904D01*
X59488095Y-147383809D01*
X59535714Y-147288571D01*
X59583333Y-147240952D01*
X59678571Y-147193333D01*
X59869047Y-147193333D01*
X59964285Y-147240952D01*
X60011904Y-147288571D01*
X60059523Y-147383809D01*
%TO.C,D25*%
X62324285Y-109532380D02*
X62324285Y-108532380D01*
X62086190Y-108532380D01*
X61943333Y-108580000D01*
X61848095Y-108675238D01*
X61800476Y-108770476D01*
X61752857Y-108960952D01*
X61752857Y-109103809D01*
X61800476Y-109294285D01*
X61848095Y-109389523D01*
X61943333Y-109484761D01*
X62086190Y-109532380D01*
X62324285Y-109532380D01*
X61371904Y-108627619D02*
X61324285Y-108580000D01*
X61229047Y-108532380D01*
X60990952Y-108532380D01*
X60895714Y-108580000D01*
X60848095Y-108627619D01*
X60800476Y-108722857D01*
X60800476Y-108818095D01*
X60848095Y-108960952D01*
X61419523Y-109532380D01*
X60800476Y-109532380D01*
X59895714Y-108532380D02*
X60371904Y-108532380D01*
X60419523Y-109008571D01*
X60371904Y-108960952D01*
X60276666Y-108913333D01*
X60038571Y-108913333D01*
X59943333Y-108960952D01*
X59895714Y-109008571D01*
X59848095Y-109103809D01*
X59848095Y-109341904D01*
X59895714Y-109437142D01*
X59943333Y-109484761D01*
X60038571Y-109532380D01*
X60276666Y-109532380D01*
X60371904Y-109484761D01*
X60419523Y-109437142D01*
%TO.C,R31*%
X89282857Y-71702380D02*
X89616190Y-71226190D01*
X89854285Y-71702380D02*
X89854285Y-70702380D01*
X89473333Y-70702380D01*
X89378095Y-70750000D01*
X89330476Y-70797619D01*
X89282857Y-70892857D01*
X89282857Y-71035714D01*
X89330476Y-71130952D01*
X89378095Y-71178571D01*
X89473333Y-71226190D01*
X89854285Y-71226190D01*
X88949523Y-70702380D02*
X88330476Y-70702380D01*
X88663809Y-71083333D01*
X88520952Y-71083333D01*
X88425714Y-71130952D01*
X88378095Y-71178571D01*
X88330476Y-71273809D01*
X88330476Y-71511904D01*
X88378095Y-71607142D01*
X88425714Y-71654761D01*
X88520952Y-71702380D01*
X88806666Y-71702380D01*
X88901904Y-71654761D01*
X88949523Y-71607142D01*
X87378095Y-71702380D02*
X87949523Y-71702380D01*
X87663809Y-71702380D02*
X87663809Y-70702380D01*
X87759047Y-70845238D01*
X87854285Y-70940476D01*
X87949523Y-70988095D01*
%TO.C,R30*%
X82262380Y-66467142D02*
X81786190Y-66133809D01*
X82262380Y-65895714D02*
X81262380Y-65895714D01*
X81262380Y-66276666D01*
X81310000Y-66371904D01*
X81357619Y-66419523D01*
X81452857Y-66467142D01*
X81595714Y-66467142D01*
X81690952Y-66419523D01*
X81738571Y-66371904D01*
X81786190Y-66276666D01*
X81786190Y-65895714D01*
X81262380Y-66800476D02*
X81262380Y-67419523D01*
X81643333Y-67086190D01*
X81643333Y-67229047D01*
X81690952Y-67324285D01*
X81738571Y-67371904D01*
X81833809Y-67419523D01*
X82071904Y-67419523D01*
X82167142Y-67371904D01*
X82214761Y-67324285D01*
X82262380Y-67229047D01*
X82262380Y-66943333D01*
X82214761Y-66848095D01*
X82167142Y-66800476D01*
X81262380Y-68038571D02*
X81262380Y-68133809D01*
X81310000Y-68229047D01*
X81357619Y-68276666D01*
X81452857Y-68324285D01*
X81643333Y-68371904D01*
X81881428Y-68371904D01*
X82071904Y-68324285D01*
X82167142Y-68276666D01*
X82214761Y-68229047D01*
X82262380Y-68133809D01*
X82262380Y-68038571D01*
X82214761Y-67943333D01*
X82167142Y-67895714D01*
X82071904Y-67848095D01*
X81881428Y-67800476D01*
X81643333Y-67800476D01*
X81452857Y-67848095D01*
X81357619Y-67895714D01*
X81310000Y-67943333D01*
X81262380Y-68038571D01*
%TO.C,R21*%
X85017857Y-72402380D02*
X85351190Y-71926190D01*
X85589285Y-72402380D02*
X85589285Y-71402380D01*
X85208333Y-71402380D01*
X85113095Y-71450000D01*
X85065476Y-71497619D01*
X85017857Y-71592857D01*
X85017857Y-71735714D01*
X85065476Y-71830952D01*
X85113095Y-71878571D01*
X85208333Y-71926190D01*
X85589285Y-71926190D01*
X84636904Y-71497619D02*
X84589285Y-71450000D01*
X84494047Y-71402380D01*
X84255952Y-71402380D01*
X84160714Y-71450000D01*
X84113095Y-71497619D01*
X84065476Y-71592857D01*
X84065476Y-71688095D01*
X84113095Y-71830952D01*
X84684523Y-72402380D01*
X84065476Y-72402380D01*
X83113095Y-72402380D02*
X83684523Y-72402380D01*
X83398809Y-72402380D02*
X83398809Y-71402380D01*
X83494047Y-71545238D01*
X83589285Y-71640476D01*
X83684523Y-71688095D01*
%TO.C,R20*%
X83942380Y-67407142D02*
X83466190Y-67073809D01*
X83942380Y-66835714D02*
X82942380Y-66835714D01*
X82942380Y-67216666D01*
X82990000Y-67311904D01*
X83037619Y-67359523D01*
X83132857Y-67407142D01*
X83275714Y-67407142D01*
X83370952Y-67359523D01*
X83418571Y-67311904D01*
X83466190Y-67216666D01*
X83466190Y-66835714D01*
X83037619Y-67788095D02*
X82990000Y-67835714D01*
X82942380Y-67930952D01*
X82942380Y-68169047D01*
X82990000Y-68264285D01*
X83037619Y-68311904D01*
X83132857Y-68359523D01*
X83228095Y-68359523D01*
X83370952Y-68311904D01*
X83942380Y-67740476D01*
X83942380Y-68359523D01*
X82942380Y-68978571D02*
X82942380Y-69073809D01*
X82990000Y-69169047D01*
X83037619Y-69216666D01*
X83132857Y-69264285D01*
X83323333Y-69311904D01*
X83561428Y-69311904D01*
X83751904Y-69264285D01*
X83847142Y-69216666D01*
X83894761Y-69169047D01*
X83942380Y-69073809D01*
X83942380Y-68978571D01*
X83894761Y-68883333D01*
X83847142Y-68835714D01*
X83751904Y-68788095D01*
X83561428Y-68740476D01*
X83323333Y-68740476D01*
X83132857Y-68788095D01*
X83037619Y-68835714D01*
X82990000Y-68883333D01*
X82942380Y-68978571D01*
%TO.C,R11*%
X77472857Y-76462380D02*
X77806190Y-75986190D01*
X78044285Y-76462380D02*
X78044285Y-75462380D01*
X77663333Y-75462380D01*
X77568095Y-75510000D01*
X77520476Y-75557619D01*
X77472857Y-75652857D01*
X77472857Y-75795714D01*
X77520476Y-75890952D01*
X77568095Y-75938571D01*
X77663333Y-75986190D01*
X78044285Y-75986190D01*
X76520476Y-76462380D02*
X77091904Y-76462380D01*
X76806190Y-76462380D02*
X76806190Y-75462380D01*
X76901428Y-75605238D01*
X76996666Y-75700476D01*
X77091904Y-75748095D01*
X75568095Y-76462380D02*
X76139523Y-76462380D01*
X75853809Y-76462380D02*
X75853809Y-75462380D01*
X75949047Y-75605238D01*
X76044285Y-75700476D01*
X76139523Y-75748095D01*
%TO.C,R10*%
X77442857Y-77842380D02*
X77776190Y-77366190D01*
X78014285Y-77842380D02*
X78014285Y-76842380D01*
X77633333Y-76842380D01*
X77538095Y-76890000D01*
X77490476Y-76937619D01*
X77442857Y-77032857D01*
X77442857Y-77175714D01*
X77490476Y-77270952D01*
X77538095Y-77318571D01*
X77633333Y-77366190D01*
X78014285Y-77366190D01*
X76490476Y-77842380D02*
X77061904Y-77842380D01*
X76776190Y-77842380D02*
X76776190Y-76842380D01*
X76871428Y-76985238D01*
X76966666Y-77080476D01*
X77061904Y-77128095D01*
X75871428Y-76842380D02*
X75776190Y-76842380D01*
X75680952Y-76890000D01*
X75633333Y-76937619D01*
X75585714Y-77032857D01*
X75538095Y-77223333D01*
X75538095Y-77461428D01*
X75585714Y-77651904D01*
X75633333Y-77747142D01*
X75680952Y-77794761D01*
X75776190Y-77842380D01*
X75871428Y-77842380D01*
X75966666Y-77794761D01*
X76014285Y-77747142D01*
X76061904Y-77651904D01*
X76109523Y-77461428D01*
X76109523Y-77223333D01*
X76061904Y-77032857D01*
X76014285Y-76937619D01*
X75966666Y-76890000D01*
X75871428Y-76842380D01*
%TO.C,R9*%
X72102380Y-65983333D02*
X71626190Y-65650000D01*
X72102380Y-65411904D02*
X71102380Y-65411904D01*
X71102380Y-65792857D01*
X71150000Y-65888095D01*
X71197619Y-65935714D01*
X71292857Y-65983333D01*
X71435714Y-65983333D01*
X71530952Y-65935714D01*
X71578571Y-65888095D01*
X71626190Y-65792857D01*
X71626190Y-65411904D01*
X72102380Y-66459523D02*
X72102380Y-66650000D01*
X72054761Y-66745238D01*
X72007142Y-66792857D01*
X71864285Y-66888095D01*
X71673809Y-66935714D01*
X71292857Y-66935714D01*
X71197619Y-66888095D01*
X71150000Y-66840476D01*
X71102380Y-66745238D01*
X71102380Y-66554761D01*
X71150000Y-66459523D01*
X71197619Y-66411904D01*
X71292857Y-66364285D01*
X71530952Y-66364285D01*
X71626190Y-66411904D01*
X71673809Y-66459523D01*
X71721428Y-66554761D01*
X71721428Y-66745238D01*
X71673809Y-66840476D01*
X71626190Y-66888095D01*
X71530952Y-66935714D01*
%TO.C,R6*%
X73822380Y-66573333D02*
X73346190Y-66240000D01*
X73822380Y-66001904D02*
X72822380Y-66001904D01*
X72822380Y-66382857D01*
X72870000Y-66478095D01*
X72917619Y-66525714D01*
X73012857Y-66573333D01*
X73155714Y-66573333D01*
X73250952Y-66525714D01*
X73298571Y-66478095D01*
X73346190Y-66382857D01*
X73346190Y-66001904D01*
X72822380Y-67430476D02*
X72822380Y-67240000D01*
X72870000Y-67144761D01*
X72917619Y-67097142D01*
X73060476Y-67001904D01*
X73250952Y-66954285D01*
X73631904Y-66954285D01*
X73727142Y-67001904D01*
X73774761Y-67049523D01*
X73822380Y-67144761D01*
X73822380Y-67335238D01*
X73774761Y-67430476D01*
X73727142Y-67478095D01*
X73631904Y-67525714D01*
X73393809Y-67525714D01*
X73298571Y-67478095D01*
X73250952Y-67430476D01*
X73203333Y-67335238D01*
X73203333Y-67144761D01*
X73250952Y-67049523D01*
X73298571Y-67001904D01*
X73393809Y-66954285D01*
%TO.C,R5*%
X69121666Y-83632380D02*
X69455000Y-83156190D01*
X69693095Y-83632380D02*
X69693095Y-82632380D01*
X69312142Y-82632380D01*
X69216904Y-82680000D01*
X69169285Y-82727619D01*
X69121666Y-82822857D01*
X69121666Y-82965714D01*
X69169285Y-83060952D01*
X69216904Y-83108571D01*
X69312142Y-83156190D01*
X69693095Y-83156190D01*
X68216904Y-82632380D02*
X68693095Y-82632380D01*
X68740714Y-83108571D01*
X68693095Y-83060952D01*
X68597857Y-83013333D01*
X68359761Y-83013333D01*
X68264523Y-83060952D01*
X68216904Y-83108571D01*
X68169285Y-83203809D01*
X68169285Y-83441904D01*
X68216904Y-83537142D01*
X68264523Y-83584761D01*
X68359761Y-83632380D01*
X68597857Y-83632380D01*
X68693095Y-83584761D01*
X68740714Y-83537142D01*
%TO.C,SW22*%
X85969523Y-87804761D02*
X85826666Y-87852380D01*
X85588571Y-87852380D01*
X85493333Y-87804761D01*
X85445714Y-87757142D01*
X85398095Y-87661904D01*
X85398095Y-87566666D01*
X85445714Y-87471428D01*
X85493333Y-87423809D01*
X85588571Y-87376190D01*
X85779047Y-87328571D01*
X85874285Y-87280952D01*
X85921904Y-87233333D01*
X85969523Y-87138095D01*
X85969523Y-87042857D01*
X85921904Y-86947619D01*
X85874285Y-86900000D01*
X85779047Y-86852380D01*
X85540952Y-86852380D01*
X85398095Y-86900000D01*
X85064761Y-86852380D02*
X84826666Y-87852380D01*
X84636190Y-87138095D01*
X84445714Y-87852380D01*
X84207619Y-86852380D01*
X83874285Y-86947619D02*
X83826666Y-86900000D01*
X83731428Y-86852380D01*
X83493333Y-86852380D01*
X83398095Y-86900000D01*
X83350476Y-86947619D01*
X83302857Y-87042857D01*
X83302857Y-87138095D01*
X83350476Y-87280952D01*
X83921904Y-87852380D01*
X83302857Y-87852380D01*
X82921904Y-86947619D02*
X82874285Y-86900000D01*
X82779047Y-86852380D01*
X82540952Y-86852380D01*
X82445714Y-86900000D01*
X82398095Y-86947619D01*
X82350476Y-87042857D01*
X82350476Y-87138095D01*
X82398095Y-87280952D01*
X82969523Y-87852380D01*
X82350476Y-87852380D01*
%TO.C,C20*%
X65444642Y-93768942D02*
X65492261Y-93721323D01*
X65539880Y-93578466D01*
X65539880Y-93483228D01*
X65492261Y-93340371D01*
X65397023Y-93245133D01*
X65301785Y-93197514D01*
X65111309Y-93149895D01*
X64968452Y-93149895D01*
X64777976Y-93197514D01*
X64682738Y-93245133D01*
X64587500Y-93340371D01*
X64539880Y-93483228D01*
X64539880Y-93578466D01*
X64587500Y-93721323D01*
X64635119Y-93768942D01*
X64635119Y-94149895D02*
X64587500Y-94197514D01*
X64539880Y-94292752D01*
X64539880Y-94530847D01*
X64587500Y-94626085D01*
X64635119Y-94673704D01*
X64730357Y-94721323D01*
X64825595Y-94721323D01*
X64968452Y-94673704D01*
X65539880Y-94102276D01*
X65539880Y-94721323D01*
X64539880Y-95340371D02*
X64539880Y-95435609D01*
X64587500Y-95530847D01*
X64635119Y-95578466D01*
X64730357Y-95626085D01*
X64920833Y-95673704D01*
X65158928Y-95673704D01*
X65349404Y-95626085D01*
X65444642Y-95578466D01*
X65492261Y-95530847D01*
X65539880Y-95435609D01*
X65539880Y-95340371D01*
X65492261Y-95245133D01*
X65444642Y-95197514D01*
X65349404Y-95149895D01*
X65158928Y-95102276D01*
X64920833Y-95102276D01*
X64730357Y-95149895D01*
X64635119Y-95197514D01*
X64587500Y-95245133D01*
X64539880Y-95340371D01*
%TO.C,FB3*%
X57693333Y-68678571D02*
X58026666Y-68678571D01*
X58026666Y-69202380D02*
X58026666Y-68202380D01*
X57550476Y-68202380D01*
X56836190Y-68678571D02*
X56693333Y-68726190D01*
X56645714Y-68773809D01*
X56598095Y-68869047D01*
X56598095Y-69011904D01*
X56645714Y-69107142D01*
X56693333Y-69154761D01*
X56788571Y-69202380D01*
X57169523Y-69202380D01*
X57169523Y-68202380D01*
X56836190Y-68202380D01*
X56740952Y-68250000D01*
X56693333Y-68297619D01*
X56645714Y-68392857D01*
X56645714Y-68488095D01*
X56693333Y-68583333D01*
X56740952Y-68630952D01*
X56836190Y-68678571D01*
X57169523Y-68678571D01*
X56264761Y-68202380D02*
X55645714Y-68202380D01*
X55979047Y-68583333D01*
X55836190Y-68583333D01*
X55740952Y-68630952D01*
X55693333Y-68678571D01*
X55645714Y-68773809D01*
X55645714Y-69011904D01*
X55693333Y-69107142D01*
X55740952Y-69154761D01*
X55836190Y-69202380D01*
X56121904Y-69202380D01*
X56217142Y-69154761D01*
X56264761Y-69107142D01*
%TO.C,J3*%
X96708980Y-83893066D02*
X97423266Y-83893066D01*
X97566123Y-83845447D01*
X97661361Y-83750209D01*
X97708980Y-83607352D01*
X97708980Y-83512114D01*
X96708980Y-84274019D02*
X96708980Y-84893066D01*
X97089933Y-84559733D01*
X97089933Y-84702590D01*
X97137552Y-84797828D01*
X97185171Y-84845447D01*
X97280409Y-84893066D01*
X97518504Y-84893066D01*
X97613742Y-84845447D01*
X97661361Y-84797828D01*
X97708980Y-84702590D01*
X97708980Y-84416876D01*
X97661361Y-84321638D01*
X97613742Y-84274019D01*
%TO.C,U4*%
X82458464Y-72152260D02*
X82458464Y-72961784D01*
X82410845Y-73057022D01*
X82363226Y-73104641D01*
X82267988Y-73152260D01*
X82077512Y-73152260D01*
X81982274Y-73104641D01*
X81934655Y-73057022D01*
X81887036Y-72961784D01*
X81887036Y-72152260D01*
X80982274Y-72485594D02*
X80982274Y-73152260D01*
X81220369Y-72104641D02*
X81458464Y-72818927D01*
X80839417Y-72818927D01*
%TO.C,R1*%
X65629266Y-74125080D02*
X65962600Y-73648890D01*
X66200695Y-74125080D02*
X66200695Y-73125080D01*
X65819742Y-73125080D01*
X65724504Y-73172700D01*
X65676885Y-73220319D01*
X65629266Y-73315557D01*
X65629266Y-73458414D01*
X65676885Y-73553652D01*
X65724504Y-73601271D01*
X65819742Y-73648890D01*
X66200695Y-73648890D01*
X64676885Y-74125080D02*
X65248314Y-74125080D01*
X64962600Y-74125080D02*
X64962600Y-73125080D01*
X65057838Y-73267938D01*
X65153076Y-73363176D01*
X65248314Y-73410795D01*
%TO.C,C44*%
X65800357Y-72412742D02*
X65847976Y-72460361D01*
X65990833Y-72507980D01*
X66086071Y-72507980D01*
X66228928Y-72460361D01*
X66324166Y-72365123D01*
X66371785Y-72269885D01*
X66419404Y-72079409D01*
X66419404Y-71936552D01*
X66371785Y-71746076D01*
X66324166Y-71650838D01*
X66228928Y-71555600D01*
X66086071Y-71507980D01*
X65990833Y-71507980D01*
X65847976Y-71555600D01*
X65800357Y-71603219D01*
X64943214Y-71841314D02*
X64943214Y-72507980D01*
X65181309Y-71460361D02*
X65419404Y-72174647D01*
X64800357Y-72174647D01*
X63990833Y-71841314D02*
X63990833Y-72507980D01*
X64228928Y-71460361D02*
X64467023Y-72174647D01*
X63847976Y-72174647D01*
%TO.C,C43*%
X103608142Y-168190942D02*
X103655761Y-168143323D01*
X103703380Y-168000466D01*
X103703380Y-167905228D01*
X103655761Y-167762371D01*
X103560523Y-167667133D01*
X103465285Y-167619514D01*
X103274809Y-167571895D01*
X103131952Y-167571895D01*
X102941476Y-167619514D01*
X102846238Y-167667133D01*
X102751000Y-167762371D01*
X102703380Y-167905228D01*
X102703380Y-168000466D01*
X102751000Y-168143323D01*
X102798619Y-168190942D01*
X103036714Y-169048085D02*
X103703380Y-169048085D01*
X102655761Y-168809990D02*
X103370047Y-168571895D01*
X103370047Y-169190942D01*
X102703380Y-169476657D02*
X102703380Y-170095704D01*
X103084333Y-169762371D01*
X103084333Y-169905228D01*
X103131952Y-170000466D01*
X103179571Y-170048085D01*
X103274809Y-170095704D01*
X103512904Y-170095704D01*
X103608142Y-170048085D01*
X103655761Y-170000466D01*
X103703380Y-169905228D01*
X103703380Y-169619514D01*
X103655761Y-169524276D01*
X103608142Y-169476657D01*
%TO.C,C42*%
X84862942Y-168317942D02*
X84910561Y-168270323D01*
X84958180Y-168127466D01*
X84958180Y-168032228D01*
X84910561Y-167889371D01*
X84815323Y-167794133D01*
X84720085Y-167746514D01*
X84529609Y-167698895D01*
X84386752Y-167698895D01*
X84196276Y-167746514D01*
X84101038Y-167794133D01*
X84005800Y-167889371D01*
X83958180Y-168032228D01*
X83958180Y-168127466D01*
X84005800Y-168270323D01*
X84053419Y-168317942D01*
X84291514Y-169175085D02*
X84958180Y-169175085D01*
X83910561Y-168936990D02*
X84624847Y-168698895D01*
X84624847Y-169317942D01*
X84053419Y-169651276D02*
X84005800Y-169698895D01*
X83958180Y-169794133D01*
X83958180Y-170032228D01*
X84005800Y-170127466D01*
X84053419Y-170175085D01*
X84148657Y-170222704D01*
X84243895Y-170222704D01*
X84386752Y-170175085D01*
X84958180Y-169603657D01*
X84958180Y-170222704D01*
%TO.C,C41*%
X122137442Y-165904942D02*
X122185061Y-165857323D01*
X122232680Y-165714466D01*
X122232680Y-165619228D01*
X122185061Y-165476371D01*
X122089823Y-165381133D01*
X121994585Y-165333514D01*
X121804109Y-165285895D01*
X121661252Y-165285895D01*
X121470776Y-165333514D01*
X121375538Y-165381133D01*
X121280300Y-165476371D01*
X121232680Y-165619228D01*
X121232680Y-165714466D01*
X121280300Y-165857323D01*
X121327919Y-165904942D01*
X121566014Y-166762085D02*
X122232680Y-166762085D01*
X121185061Y-166523990D02*
X121899347Y-166285895D01*
X121899347Y-166904942D01*
X122232680Y-167809704D02*
X122232680Y-167238276D01*
X122232680Y-167523990D02*
X121232680Y-167523990D01*
X121375538Y-167428752D01*
X121470776Y-167333514D01*
X121518395Y-167238276D01*
%TO.C,C40*%
X65254142Y-166730442D02*
X65301761Y-166682823D01*
X65349380Y-166539966D01*
X65349380Y-166444728D01*
X65301761Y-166301871D01*
X65206523Y-166206633D01*
X65111285Y-166159014D01*
X64920809Y-166111395D01*
X64777952Y-166111395D01*
X64587476Y-166159014D01*
X64492238Y-166206633D01*
X64397000Y-166301871D01*
X64349380Y-166444728D01*
X64349380Y-166539966D01*
X64397000Y-166682823D01*
X64444619Y-166730442D01*
X64682714Y-167587585D02*
X65349380Y-167587585D01*
X64301761Y-167349490D02*
X65016047Y-167111395D01*
X65016047Y-167730442D01*
X64349380Y-168301871D02*
X64349380Y-168397109D01*
X64397000Y-168492347D01*
X64444619Y-168539966D01*
X64539857Y-168587585D01*
X64730333Y-168635204D01*
X64968428Y-168635204D01*
X65158904Y-168587585D01*
X65254142Y-168539966D01*
X65301761Y-168492347D01*
X65349380Y-168397109D01*
X65349380Y-168301871D01*
X65301761Y-168206633D01*
X65254142Y-168159014D01*
X65158904Y-168111395D01*
X64968428Y-168063776D01*
X64730333Y-168063776D01*
X64539857Y-168111395D01*
X64444619Y-168159014D01*
X64397000Y-168206633D01*
X64349380Y-168301871D01*
%TO.C,X2*%
X78050923Y-85355180D02*
X77384257Y-86355180D01*
X77384257Y-85355180D02*
X78050923Y-86355180D01*
X77050923Y-85450419D02*
X77003304Y-85402800D01*
X76908066Y-85355180D01*
X76669971Y-85355180D01*
X76574733Y-85402800D01*
X76527114Y-85450419D01*
X76479495Y-85545657D01*
X76479495Y-85640895D01*
X76527114Y-85783752D01*
X77098542Y-86355180D01*
X76479495Y-86355180D01*
%TO.C,R29*%
X89282857Y-76592380D02*
X89616190Y-76116190D01*
X89854285Y-76592380D02*
X89854285Y-75592380D01*
X89473333Y-75592380D01*
X89378095Y-75640000D01*
X89330476Y-75687619D01*
X89282857Y-75782857D01*
X89282857Y-75925714D01*
X89330476Y-76020952D01*
X89378095Y-76068571D01*
X89473333Y-76116190D01*
X89854285Y-76116190D01*
X88901904Y-75687619D02*
X88854285Y-75640000D01*
X88759047Y-75592380D01*
X88520952Y-75592380D01*
X88425714Y-75640000D01*
X88378095Y-75687619D01*
X88330476Y-75782857D01*
X88330476Y-75878095D01*
X88378095Y-76020952D01*
X88949523Y-76592380D01*
X88330476Y-76592380D01*
X87854285Y-76592380D02*
X87663809Y-76592380D01*
X87568571Y-76544761D01*
X87520952Y-76497142D01*
X87425714Y-76354285D01*
X87378095Y-76163809D01*
X87378095Y-75782857D01*
X87425714Y-75687619D01*
X87473333Y-75640000D01*
X87568571Y-75592380D01*
X87759047Y-75592380D01*
X87854285Y-75640000D01*
X87901904Y-75687619D01*
X87949523Y-75782857D01*
X87949523Y-76020952D01*
X87901904Y-76116190D01*
X87854285Y-76163809D01*
X87759047Y-76211428D01*
X87568571Y-76211428D01*
X87473333Y-76163809D01*
X87425714Y-76116190D01*
X87378095Y-76020952D01*
%TO.C,R28*%
X89282857Y-78082380D02*
X89616190Y-77606190D01*
X89854285Y-78082380D02*
X89854285Y-77082380D01*
X89473333Y-77082380D01*
X89378095Y-77130000D01*
X89330476Y-77177619D01*
X89282857Y-77272857D01*
X89282857Y-77415714D01*
X89330476Y-77510952D01*
X89378095Y-77558571D01*
X89473333Y-77606190D01*
X89854285Y-77606190D01*
X88901904Y-77177619D02*
X88854285Y-77130000D01*
X88759047Y-77082380D01*
X88520952Y-77082380D01*
X88425714Y-77130000D01*
X88378095Y-77177619D01*
X88330476Y-77272857D01*
X88330476Y-77368095D01*
X88378095Y-77510952D01*
X88949523Y-78082380D01*
X88330476Y-78082380D01*
X87759047Y-77510952D02*
X87854285Y-77463333D01*
X87901904Y-77415714D01*
X87949523Y-77320476D01*
X87949523Y-77272857D01*
X87901904Y-77177619D01*
X87854285Y-77130000D01*
X87759047Y-77082380D01*
X87568571Y-77082380D01*
X87473333Y-77130000D01*
X87425714Y-77177619D01*
X87378095Y-77272857D01*
X87378095Y-77320476D01*
X87425714Y-77415714D01*
X87473333Y-77463333D01*
X87568571Y-77510952D01*
X87759047Y-77510952D01*
X87854285Y-77558571D01*
X87901904Y-77606190D01*
X87949523Y-77701428D01*
X87949523Y-77891904D01*
X87901904Y-77987142D01*
X87854285Y-78034761D01*
X87759047Y-78082380D01*
X87568571Y-78082380D01*
X87473333Y-78034761D01*
X87425714Y-77987142D01*
X87378095Y-77891904D01*
X87378095Y-77701428D01*
X87425714Y-77606190D01*
X87473333Y-77558571D01*
X87568571Y-77510952D01*
%TO.C,R27*%
X89282857Y-73342380D02*
X89616190Y-72866190D01*
X89854285Y-73342380D02*
X89854285Y-72342380D01*
X89473333Y-72342380D01*
X89378095Y-72390000D01*
X89330476Y-72437619D01*
X89282857Y-72532857D01*
X89282857Y-72675714D01*
X89330476Y-72770952D01*
X89378095Y-72818571D01*
X89473333Y-72866190D01*
X89854285Y-72866190D01*
X88901904Y-72437619D02*
X88854285Y-72390000D01*
X88759047Y-72342380D01*
X88520952Y-72342380D01*
X88425714Y-72390000D01*
X88378095Y-72437619D01*
X88330476Y-72532857D01*
X88330476Y-72628095D01*
X88378095Y-72770952D01*
X88949523Y-73342380D01*
X88330476Y-73342380D01*
X87997142Y-72342380D02*
X87330476Y-72342380D01*
X87759047Y-73342380D01*
%TO.C,R26*%
X89282857Y-74782380D02*
X89616190Y-74306190D01*
X89854285Y-74782380D02*
X89854285Y-73782380D01*
X89473333Y-73782380D01*
X89378095Y-73830000D01*
X89330476Y-73877619D01*
X89282857Y-73972857D01*
X89282857Y-74115714D01*
X89330476Y-74210952D01*
X89378095Y-74258571D01*
X89473333Y-74306190D01*
X89854285Y-74306190D01*
X88901904Y-73877619D02*
X88854285Y-73830000D01*
X88759047Y-73782380D01*
X88520952Y-73782380D01*
X88425714Y-73830000D01*
X88378095Y-73877619D01*
X88330476Y-73972857D01*
X88330476Y-74068095D01*
X88378095Y-74210952D01*
X88949523Y-74782380D01*
X88330476Y-74782380D01*
X87473333Y-73782380D02*
X87663809Y-73782380D01*
X87759047Y-73830000D01*
X87806666Y-73877619D01*
X87901904Y-74020476D01*
X87949523Y-74210952D01*
X87949523Y-74591904D01*
X87901904Y-74687142D01*
X87854285Y-74734761D01*
X87759047Y-74782380D01*
X87568571Y-74782380D01*
X87473333Y-74734761D01*
X87425714Y-74687142D01*
X87378095Y-74591904D01*
X87378095Y-74353809D01*
X87425714Y-74258571D01*
X87473333Y-74210952D01*
X87568571Y-74163333D01*
X87759047Y-74163333D01*
X87854285Y-74210952D01*
X87901904Y-74258571D01*
X87949523Y-74353809D01*
%TO.C,R25*%
X78430380Y-66539142D02*
X77954190Y-66205809D01*
X78430380Y-65967714D02*
X77430380Y-65967714D01*
X77430380Y-66348666D01*
X77478000Y-66443904D01*
X77525619Y-66491523D01*
X77620857Y-66539142D01*
X77763714Y-66539142D01*
X77858952Y-66491523D01*
X77906571Y-66443904D01*
X77954190Y-66348666D01*
X77954190Y-65967714D01*
X77525619Y-66920095D02*
X77478000Y-66967714D01*
X77430380Y-67062952D01*
X77430380Y-67301047D01*
X77478000Y-67396285D01*
X77525619Y-67443904D01*
X77620857Y-67491523D01*
X77716095Y-67491523D01*
X77858952Y-67443904D01*
X78430380Y-66872476D01*
X78430380Y-67491523D01*
X77430380Y-68396285D02*
X77430380Y-67920095D01*
X77906571Y-67872476D01*
X77858952Y-67920095D01*
X77811333Y-68015333D01*
X77811333Y-68253428D01*
X77858952Y-68348666D01*
X77906571Y-68396285D01*
X78001809Y-68443904D01*
X78239904Y-68443904D01*
X78335142Y-68396285D01*
X78382761Y-68348666D01*
X78430380Y-68253428D01*
X78430380Y-68015333D01*
X78382761Y-67920095D01*
X78335142Y-67872476D01*
%TO.C,R24*%
X80017880Y-66666142D02*
X79541690Y-66332809D01*
X80017880Y-66094714D02*
X79017880Y-66094714D01*
X79017880Y-66475666D01*
X79065500Y-66570904D01*
X79113119Y-66618523D01*
X79208357Y-66666142D01*
X79351214Y-66666142D01*
X79446452Y-66618523D01*
X79494071Y-66570904D01*
X79541690Y-66475666D01*
X79541690Y-66094714D01*
X79113119Y-67047095D02*
X79065500Y-67094714D01*
X79017880Y-67189952D01*
X79017880Y-67428047D01*
X79065500Y-67523285D01*
X79113119Y-67570904D01*
X79208357Y-67618523D01*
X79303595Y-67618523D01*
X79446452Y-67570904D01*
X80017880Y-66999476D01*
X80017880Y-67618523D01*
X79351214Y-68475666D02*
X80017880Y-68475666D01*
X78970261Y-68237571D02*
X79684547Y-67999476D01*
X79684547Y-68618523D01*
%TO.C,R23*%
X75382380Y-66666142D02*
X74906190Y-66332809D01*
X75382380Y-66094714D02*
X74382380Y-66094714D01*
X74382380Y-66475666D01*
X74430000Y-66570904D01*
X74477619Y-66618523D01*
X74572857Y-66666142D01*
X74715714Y-66666142D01*
X74810952Y-66618523D01*
X74858571Y-66570904D01*
X74906190Y-66475666D01*
X74906190Y-66094714D01*
X74477619Y-67047095D02*
X74430000Y-67094714D01*
X74382380Y-67189952D01*
X74382380Y-67428047D01*
X74430000Y-67523285D01*
X74477619Y-67570904D01*
X74572857Y-67618523D01*
X74668095Y-67618523D01*
X74810952Y-67570904D01*
X75382380Y-66999476D01*
X75382380Y-67618523D01*
X74382380Y-67951857D02*
X74382380Y-68570904D01*
X74763333Y-68237571D01*
X74763333Y-68380428D01*
X74810952Y-68475666D01*
X74858571Y-68523285D01*
X74953809Y-68570904D01*
X75191904Y-68570904D01*
X75287142Y-68523285D01*
X75334761Y-68475666D01*
X75382380Y-68380428D01*
X75382380Y-68094714D01*
X75334761Y-67999476D01*
X75287142Y-67951857D01*
%TO.C,R22*%
X76842880Y-66666142D02*
X76366690Y-66332809D01*
X76842880Y-66094714D02*
X75842880Y-66094714D01*
X75842880Y-66475666D01*
X75890500Y-66570904D01*
X75938119Y-66618523D01*
X76033357Y-66666142D01*
X76176214Y-66666142D01*
X76271452Y-66618523D01*
X76319071Y-66570904D01*
X76366690Y-66475666D01*
X76366690Y-66094714D01*
X75938119Y-67047095D02*
X75890500Y-67094714D01*
X75842880Y-67189952D01*
X75842880Y-67428047D01*
X75890500Y-67523285D01*
X75938119Y-67570904D01*
X76033357Y-67618523D01*
X76128595Y-67618523D01*
X76271452Y-67570904D01*
X76842880Y-66999476D01*
X76842880Y-67618523D01*
X75938119Y-67999476D02*
X75890500Y-68047095D01*
X75842880Y-68142333D01*
X75842880Y-68380428D01*
X75890500Y-68475666D01*
X75938119Y-68523285D01*
X76033357Y-68570904D01*
X76128595Y-68570904D01*
X76271452Y-68523285D01*
X76842880Y-67951857D01*
X76842880Y-68570904D01*
%TO.C,R13*%
X115404619Y-75534257D02*
X115880809Y-75867590D01*
X115404619Y-76105685D02*
X116404619Y-76105685D01*
X116404619Y-75724733D01*
X116357000Y-75629495D01*
X116309380Y-75581876D01*
X116214142Y-75534257D01*
X116071285Y-75534257D01*
X115976047Y-75581876D01*
X115928428Y-75629495D01*
X115880809Y-75724733D01*
X115880809Y-76105685D01*
X115404619Y-74581876D02*
X115404619Y-75153304D01*
X115404619Y-74867590D02*
X116404619Y-74867590D01*
X116261761Y-74962828D01*
X116166523Y-75058066D01*
X116118904Y-75153304D01*
X116404619Y-74248542D02*
X116404619Y-73629495D01*
X116023666Y-73962828D01*
X116023666Y-73819971D01*
X115976047Y-73724733D01*
X115928428Y-73677114D01*
X115833190Y-73629495D01*
X115595095Y-73629495D01*
X115499857Y-73677114D01*
X115452238Y-73724733D01*
X115404619Y-73819971D01*
X115404619Y-74105685D01*
X115452238Y-74200923D01*
X115499857Y-74248542D01*
%TO.C,R8*%
X66603066Y-80655880D02*
X66936400Y-80179690D01*
X67174495Y-80655880D02*
X67174495Y-79655880D01*
X66793542Y-79655880D01*
X66698304Y-79703500D01*
X66650685Y-79751119D01*
X66603066Y-79846357D01*
X66603066Y-79989214D01*
X66650685Y-80084452D01*
X66698304Y-80132071D01*
X66793542Y-80179690D01*
X67174495Y-80179690D01*
X66031638Y-80084452D02*
X66126876Y-80036833D01*
X66174495Y-79989214D01*
X66222114Y-79893976D01*
X66222114Y-79846357D01*
X66174495Y-79751119D01*
X66126876Y-79703500D01*
X66031638Y-79655880D01*
X65841161Y-79655880D01*
X65745923Y-79703500D01*
X65698304Y-79751119D01*
X65650685Y-79846357D01*
X65650685Y-79893976D01*
X65698304Y-79989214D01*
X65745923Y-80036833D01*
X65841161Y-80084452D01*
X66031638Y-80084452D01*
X66126876Y-80132071D01*
X66174495Y-80179690D01*
X66222114Y-80274928D01*
X66222114Y-80465404D01*
X66174495Y-80560642D01*
X66126876Y-80608261D01*
X66031638Y-80655880D01*
X65841161Y-80655880D01*
X65745923Y-80608261D01*
X65698304Y-80560642D01*
X65650685Y-80465404D01*
X65650685Y-80274928D01*
X65698304Y-80179690D01*
X65745923Y-80132071D01*
X65841161Y-80084452D01*
%TO.C,R7*%
X66539566Y-79030280D02*
X66872900Y-78554090D01*
X67110995Y-79030280D02*
X67110995Y-78030280D01*
X66730042Y-78030280D01*
X66634804Y-78077900D01*
X66587185Y-78125519D01*
X66539566Y-78220757D01*
X66539566Y-78363614D01*
X66587185Y-78458852D01*
X66634804Y-78506471D01*
X66730042Y-78554090D01*
X67110995Y-78554090D01*
X66206233Y-78030280D02*
X65539566Y-78030280D01*
X65968138Y-79030280D01*
%TO.C,R4*%
X56056666Y-76502380D02*
X56390000Y-76026190D01*
X56628095Y-76502380D02*
X56628095Y-75502380D01*
X56247142Y-75502380D01*
X56151904Y-75550000D01*
X56104285Y-75597619D01*
X56056666Y-75692857D01*
X56056666Y-75835714D01*
X56104285Y-75930952D01*
X56151904Y-75978571D01*
X56247142Y-76026190D01*
X56628095Y-76026190D01*
X55199523Y-75835714D02*
X55199523Y-76502380D01*
X55437619Y-75454761D02*
X55675714Y-76169047D01*
X55056666Y-76169047D01*
%TO.C,R3*%
X51753566Y-65646580D02*
X52086900Y-65170390D01*
X52324995Y-65646580D02*
X52324995Y-64646580D01*
X51944042Y-64646580D01*
X51848804Y-64694200D01*
X51801185Y-64741819D01*
X51753566Y-64837057D01*
X51753566Y-64979914D01*
X51801185Y-65075152D01*
X51848804Y-65122771D01*
X51944042Y-65170390D01*
X52324995Y-65170390D01*
X51420233Y-64646580D02*
X50801185Y-64646580D01*
X51134519Y-65027533D01*
X50991661Y-65027533D01*
X50896423Y-65075152D01*
X50848804Y-65122771D01*
X50801185Y-65218009D01*
X50801185Y-65456104D01*
X50848804Y-65551342D01*
X50896423Y-65598961D01*
X50991661Y-65646580D01*
X51277376Y-65646580D01*
X51372614Y-65598961D01*
X51420233Y-65551342D01*
%TO.C,L1*%
X56076666Y-71492380D02*
X56552857Y-71492380D01*
X56552857Y-70492380D01*
X55219523Y-71492380D02*
X55790952Y-71492380D01*
X55505238Y-71492380D02*
X55505238Y-70492380D01*
X55600476Y-70635238D01*
X55695714Y-70730476D01*
X55790952Y-70778095D01*
%TO.C,J1*%
X51036380Y-72320166D02*
X51750666Y-72320166D01*
X51893523Y-72272547D01*
X51988761Y-72177309D01*
X52036380Y-72034452D01*
X52036380Y-71939214D01*
X52036380Y-73320166D02*
X52036380Y-72748738D01*
X52036380Y-73034452D02*
X51036380Y-73034452D01*
X51179238Y-72939214D01*
X51274476Y-72843976D01*
X51322095Y-72748738D01*
%TO.C,FB1*%
X55578571Y-77356666D02*
X55578571Y-77023333D01*
X56102380Y-77023333D02*
X55102380Y-77023333D01*
X55102380Y-77499523D01*
X55578571Y-78213809D02*
X55626190Y-78356666D01*
X55673809Y-78404285D01*
X55769047Y-78451904D01*
X55911904Y-78451904D01*
X56007142Y-78404285D01*
X56054761Y-78356666D01*
X56102380Y-78261428D01*
X56102380Y-77880476D01*
X55102380Y-77880476D01*
X55102380Y-78213809D01*
X55150000Y-78309047D01*
X55197619Y-78356666D01*
X55292857Y-78404285D01*
X55388095Y-78404285D01*
X55483333Y-78356666D01*
X55530952Y-78309047D01*
X55578571Y-78213809D01*
X55578571Y-77880476D01*
X56102380Y-79404285D02*
X56102380Y-78832857D01*
X56102380Y-79118571D02*
X55102380Y-79118571D01*
X55245238Y-79023333D01*
X55340476Y-78928095D01*
X55388095Y-78832857D01*
%TO.C,D22*%
X109822380Y-82975714D02*
X108822380Y-82975714D01*
X108822380Y-83213809D01*
X108870000Y-83356666D01*
X108965238Y-83451904D01*
X109060476Y-83499523D01*
X109250952Y-83547142D01*
X109393809Y-83547142D01*
X109584285Y-83499523D01*
X109679523Y-83451904D01*
X109774761Y-83356666D01*
X109822380Y-83213809D01*
X109822380Y-82975714D01*
X108917619Y-83928095D02*
X108870000Y-83975714D01*
X108822380Y-84070952D01*
X108822380Y-84309047D01*
X108870000Y-84404285D01*
X108917619Y-84451904D01*
X109012857Y-84499523D01*
X109108095Y-84499523D01*
X109250952Y-84451904D01*
X109822380Y-83880476D01*
X109822380Y-84499523D01*
X108917619Y-84880476D02*
X108870000Y-84928095D01*
X108822380Y-85023333D01*
X108822380Y-85261428D01*
X108870000Y-85356666D01*
X108917619Y-85404285D01*
X109012857Y-85451904D01*
X109108095Y-85451904D01*
X109250952Y-85404285D01*
X109822380Y-84832857D01*
X109822380Y-85451904D01*
%TO.C,D21*%
X126626880Y-170692914D02*
X125626880Y-170692914D01*
X125626880Y-170931009D01*
X125674500Y-171073866D01*
X125769738Y-171169104D01*
X125864976Y-171216723D01*
X126055452Y-171264342D01*
X126198309Y-171264342D01*
X126388785Y-171216723D01*
X126484023Y-171169104D01*
X126579261Y-171073866D01*
X126626880Y-170931009D01*
X126626880Y-170692914D01*
X125722119Y-171645295D02*
X125674500Y-171692914D01*
X125626880Y-171788152D01*
X125626880Y-172026247D01*
X125674500Y-172121485D01*
X125722119Y-172169104D01*
X125817357Y-172216723D01*
X125912595Y-172216723D01*
X126055452Y-172169104D01*
X126626880Y-171597676D01*
X126626880Y-172216723D01*
X126626880Y-173169104D02*
X126626880Y-172597676D01*
X126626880Y-172883390D02*
X125626880Y-172883390D01*
X125769738Y-172788152D01*
X125864976Y-172692914D01*
X125912595Y-172597676D01*
%TO.C,D20*%
X126525280Y-151668314D02*
X125525280Y-151668314D01*
X125525280Y-151906409D01*
X125572900Y-152049266D01*
X125668138Y-152144504D01*
X125763376Y-152192123D01*
X125953852Y-152239742D01*
X126096709Y-152239742D01*
X126287185Y-152192123D01*
X126382423Y-152144504D01*
X126477661Y-152049266D01*
X126525280Y-151906409D01*
X126525280Y-151668314D01*
X125620519Y-152620695D02*
X125572900Y-152668314D01*
X125525280Y-152763552D01*
X125525280Y-153001647D01*
X125572900Y-153096885D01*
X125620519Y-153144504D01*
X125715757Y-153192123D01*
X125810995Y-153192123D01*
X125953852Y-153144504D01*
X126525280Y-152573076D01*
X126525280Y-153192123D01*
X125525280Y-153811171D02*
X125525280Y-153906409D01*
X125572900Y-154001647D01*
X125620519Y-154049266D01*
X125715757Y-154096885D01*
X125906233Y-154144504D01*
X126144328Y-154144504D01*
X126334804Y-154096885D01*
X126430042Y-154049266D01*
X126477661Y-154001647D01*
X126525280Y-153906409D01*
X126525280Y-153811171D01*
X126477661Y-153715933D01*
X126430042Y-153668314D01*
X126334804Y-153620695D01*
X126144328Y-153573076D01*
X125906233Y-153573076D01*
X125715757Y-153620695D01*
X125620519Y-153668314D01*
X125572900Y-153715933D01*
X125525280Y-153811171D01*
%TO.C,D19*%
X126626880Y-132364314D02*
X125626880Y-132364314D01*
X125626880Y-132602409D01*
X125674500Y-132745266D01*
X125769738Y-132840504D01*
X125864976Y-132888123D01*
X126055452Y-132935742D01*
X126198309Y-132935742D01*
X126388785Y-132888123D01*
X126484023Y-132840504D01*
X126579261Y-132745266D01*
X126626880Y-132602409D01*
X126626880Y-132364314D01*
X126626880Y-133888123D02*
X126626880Y-133316695D01*
X126626880Y-133602409D02*
X125626880Y-133602409D01*
X125769738Y-133507171D01*
X125864976Y-133411933D01*
X125912595Y-133316695D01*
X126626880Y-134364314D02*
X126626880Y-134554790D01*
X126579261Y-134650028D01*
X126531642Y-134697647D01*
X126388785Y-134792885D01*
X126198309Y-134840504D01*
X125817357Y-134840504D01*
X125722119Y-134792885D01*
X125674500Y-134745266D01*
X125626880Y-134650028D01*
X125626880Y-134459552D01*
X125674500Y-134364314D01*
X125722119Y-134316695D01*
X125817357Y-134269076D01*
X126055452Y-134269076D01*
X126150690Y-134316695D01*
X126198309Y-134364314D01*
X126245928Y-134459552D01*
X126245928Y-134650028D01*
X126198309Y-134745266D01*
X126150690Y-134792885D01*
X126055452Y-134840504D01*
%TO.C,D18*%
X126626880Y-113466714D02*
X125626880Y-113466714D01*
X125626880Y-113704809D01*
X125674500Y-113847666D01*
X125769738Y-113942904D01*
X125864976Y-113990523D01*
X126055452Y-114038142D01*
X126198309Y-114038142D01*
X126388785Y-113990523D01*
X126484023Y-113942904D01*
X126579261Y-113847666D01*
X126626880Y-113704809D01*
X126626880Y-113466714D01*
X126626880Y-114990523D02*
X126626880Y-114419095D01*
X126626880Y-114704809D02*
X125626880Y-114704809D01*
X125769738Y-114609571D01*
X125864976Y-114514333D01*
X125912595Y-114419095D01*
X126055452Y-115561952D02*
X126007833Y-115466714D01*
X125960214Y-115419095D01*
X125864976Y-115371476D01*
X125817357Y-115371476D01*
X125722119Y-115419095D01*
X125674500Y-115466714D01*
X125626880Y-115561952D01*
X125626880Y-115752428D01*
X125674500Y-115847666D01*
X125722119Y-115895285D01*
X125817357Y-115942904D01*
X125864976Y-115942904D01*
X125960214Y-115895285D01*
X126007833Y-115847666D01*
X126055452Y-115752428D01*
X126055452Y-115561952D01*
X126103071Y-115466714D01*
X126150690Y-115419095D01*
X126245928Y-115371476D01*
X126436404Y-115371476D01*
X126531642Y-115419095D01*
X126579261Y-115466714D01*
X126626880Y-115561952D01*
X126626880Y-115752428D01*
X126579261Y-115847666D01*
X126531642Y-115895285D01*
X126436404Y-115942904D01*
X126245928Y-115942904D01*
X126150690Y-115895285D01*
X126103071Y-115847666D01*
X126055452Y-115752428D01*
%TO.C,D17*%
X126639580Y-94518314D02*
X125639580Y-94518314D01*
X125639580Y-94756409D01*
X125687200Y-94899266D01*
X125782438Y-94994504D01*
X125877676Y-95042123D01*
X126068152Y-95089742D01*
X126211009Y-95089742D01*
X126401485Y-95042123D01*
X126496723Y-94994504D01*
X126591961Y-94899266D01*
X126639580Y-94756409D01*
X126639580Y-94518314D01*
X126639580Y-96042123D02*
X126639580Y-95470695D01*
X126639580Y-95756409D02*
X125639580Y-95756409D01*
X125782438Y-95661171D01*
X125877676Y-95565933D01*
X125925295Y-95470695D01*
X125639580Y-96375457D02*
X125639580Y-97042123D01*
X126639580Y-96613552D01*
%TO.C,D16*%
X107526080Y-170845314D02*
X106526080Y-170845314D01*
X106526080Y-171083409D01*
X106573700Y-171226266D01*
X106668938Y-171321504D01*
X106764176Y-171369123D01*
X106954652Y-171416742D01*
X107097509Y-171416742D01*
X107287985Y-171369123D01*
X107383223Y-171321504D01*
X107478461Y-171226266D01*
X107526080Y-171083409D01*
X107526080Y-170845314D01*
X107526080Y-172369123D02*
X107526080Y-171797695D01*
X107526080Y-172083409D02*
X106526080Y-172083409D01*
X106668938Y-171988171D01*
X106764176Y-171892933D01*
X106811795Y-171797695D01*
X106526080Y-173226266D02*
X106526080Y-173035790D01*
X106573700Y-172940552D01*
X106621319Y-172892933D01*
X106764176Y-172797695D01*
X106954652Y-172750076D01*
X107335604Y-172750076D01*
X107430842Y-172797695D01*
X107478461Y-172845314D01*
X107526080Y-172940552D01*
X107526080Y-173131028D01*
X107478461Y-173226266D01*
X107430842Y-173273885D01*
X107335604Y-173321504D01*
X107097509Y-173321504D01*
X107002271Y-173273885D01*
X106954652Y-173226266D01*
X106907033Y-173131028D01*
X106907033Y-172940552D01*
X106954652Y-172845314D01*
X107002271Y-172797695D01*
X107097509Y-172750076D01*
%TO.C,D15*%
X107564180Y-151630214D02*
X106564180Y-151630214D01*
X106564180Y-151868309D01*
X106611800Y-152011166D01*
X106707038Y-152106404D01*
X106802276Y-152154023D01*
X106992752Y-152201642D01*
X107135609Y-152201642D01*
X107326085Y-152154023D01*
X107421323Y-152106404D01*
X107516561Y-152011166D01*
X107564180Y-151868309D01*
X107564180Y-151630214D01*
X107564180Y-153154023D02*
X107564180Y-152582595D01*
X107564180Y-152868309D02*
X106564180Y-152868309D01*
X106707038Y-152773071D01*
X106802276Y-152677833D01*
X106849895Y-152582595D01*
X106564180Y-154058785D02*
X106564180Y-153582595D01*
X107040371Y-153534976D01*
X106992752Y-153582595D01*
X106945133Y-153677833D01*
X106945133Y-153915928D01*
X106992752Y-154011166D01*
X107040371Y-154058785D01*
X107135609Y-154106404D01*
X107373704Y-154106404D01*
X107468942Y-154058785D01*
X107516561Y-154011166D01*
X107564180Y-153915928D01*
X107564180Y-153677833D01*
X107516561Y-153582595D01*
X107468942Y-153534976D01*
%TO.C,D14*%
X107589580Y-132745314D02*
X106589580Y-132745314D01*
X106589580Y-132983409D01*
X106637200Y-133126266D01*
X106732438Y-133221504D01*
X106827676Y-133269123D01*
X107018152Y-133316742D01*
X107161009Y-133316742D01*
X107351485Y-133269123D01*
X107446723Y-133221504D01*
X107541961Y-133126266D01*
X107589580Y-132983409D01*
X107589580Y-132745314D01*
X107589580Y-134269123D02*
X107589580Y-133697695D01*
X107589580Y-133983409D02*
X106589580Y-133983409D01*
X106732438Y-133888171D01*
X106827676Y-133792933D01*
X106875295Y-133697695D01*
X106922914Y-135126266D02*
X107589580Y-135126266D01*
X106541961Y-134888171D02*
X107256247Y-134650076D01*
X107256247Y-135269123D01*
%TO.C,D13*%
X107564180Y-113542914D02*
X106564180Y-113542914D01*
X106564180Y-113781009D01*
X106611800Y-113923866D01*
X106707038Y-114019104D01*
X106802276Y-114066723D01*
X106992752Y-114114342D01*
X107135609Y-114114342D01*
X107326085Y-114066723D01*
X107421323Y-114019104D01*
X107516561Y-113923866D01*
X107564180Y-113781009D01*
X107564180Y-113542914D01*
X107564180Y-115066723D02*
X107564180Y-114495295D01*
X107564180Y-114781009D02*
X106564180Y-114781009D01*
X106707038Y-114685771D01*
X106802276Y-114590533D01*
X106849895Y-114495295D01*
X106564180Y-115400057D02*
X106564180Y-116019104D01*
X106945133Y-115685771D01*
X106945133Y-115828628D01*
X106992752Y-115923866D01*
X107040371Y-115971485D01*
X107135609Y-116019104D01*
X107373704Y-116019104D01*
X107468942Y-115971485D01*
X107516561Y-115923866D01*
X107564180Y-115828628D01*
X107564180Y-115542914D01*
X107516561Y-115447676D01*
X107468942Y-115400057D01*
%TO.C,D12*%
X107564180Y-94505614D02*
X106564180Y-94505614D01*
X106564180Y-94743709D01*
X106611800Y-94886566D01*
X106707038Y-94981804D01*
X106802276Y-95029423D01*
X106992752Y-95077042D01*
X107135609Y-95077042D01*
X107326085Y-95029423D01*
X107421323Y-94981804D01*
X107516561Y-94886566D01*
X107564180Y-94743709D01*
X107564180Y-94505614D01*
X107564180Y-96029423D02*
X107564180Y-95457995D01*
X107564180Y-95743709D02*
X106564180Y-95743709D01*
X106707038Y-95648471D01*
X106802276Y-95553233D01*
X106849895Y-95457995D01*
X106659419Y-96410376D02*
X106611800Y-96457995D01*
X106564180Y-96553233D01*
X106564180Y-96791328D01*
X106611800Y-96886566D01*
X106659419Y-96934185D01*
X106754657Y-96981804D01*
X106849895Y-96981804D01*
X106992752Y-96934185D01*
X107564180Y-96362757D01*
X107564180Y-96981804D01*
%TO.C,D11*%
X88412580Y-170705614D02*
X87412580Y-170705614D01*
X87412580Y-170943709D01*
X87460200Y-171086566D01*
X87555438Y-171181804D01*
X87650676Y-171229423D01*
X87841152Y-171277042D01*
X87984009Y-171277042D01*
X88174485Y-171229423D01*
X88269723Y-171181804D01*
X88364961Y-171086566D01*
X88412580Y-170943709D01*
X88412580Y-170705614D01*
X88412580Y-172229423D02*
X88412580Y-171657995D01*
X88412580Y-171943709D02*
X87412580Y-171943709D01*
X87555438Y-171848471D01*
X87650676Y-171753233D01*
X87698295Y-171657995D01*
X88412580Y-173181804D02*
X88412580Y-172610376D01*
X88412580Y-172896090D02*
X87412580Y-172896090D01*
X87555438Y-172800852D01*
X87650676Y-172705614D01*
X87698295Y-172610376D01*
%TO.C,D10*%
X88526880Y-151706414D02*
X87526880Y-151706414D01*
X87526880Y-151944509D01*
X87574500Y-152087366D01*
X87669738Y-152182604D01*
X87764976Y-152230223D01*
X87955452Y-152277842D01*
X88098309Y-152277842D01*
X88288785Y-152230223D01*
X88384023Y-152182604D01*
X88479261Y-152087366D01*
X88526880Y-151944509D01*
X88526880Y-151706414D01*
X88526880Y-153230223D02*
X88526880Y-152658795D01*
X88526880Y-152944509D02*
X87526880Y-152944509D01*
X87669738Y-152849271D01*
X87764976Y-152754033D01*
X87812595Y-152658795D01*
X87526880Y-153849271D02*
X87526880Y-153944509D01*
X87574500Y-154039747D01*
X87622119Y-154087366D01*
X87717357Y-154134985D01*
X87907833Y-154182604D01*
X88145928Y-154182604D01*
X88336404Y-154134985D01*
X88431642Y-154087366D01*
X88479261Y-154039747D01*
X88526880Y-153944509D01*
X88526880Y-153849271D01*
X88479261Y-153754033D01*
X88431642Y-153706414D01*
X88336404Y-153658795D01*
X88145928Y-153611176D01*
X87907833Y-153611176D01*
X87717357Y-153658795D01*
X87622119Y-153706414D01*
X87574500Y-153754033D01*
X87526880Y-153849271D01*
%TO.C,D9*%
X88437980Y-133107204D02*
X87437980Y-133107204D01*
X87437980Y-133345300D01*
X87485600Y-133488157D01*
X87580838Y-133583395D01*
X87676076Y-133631014D01*
X87866552Y-133678633D01*
X88009409Y-133678633D01*
X88199885Y-133631014D01*
X88295123Y-133583395D01*
X88390361Y-133488157D01*
X88437980Y-133345300D01*
X88437980Y-133107204D01*
X88437980Y-134154823D02*
X88437980Y-134345300D01*
X88390361Y-134440538D01*
X88342742Y-134488157D01*
X88199885Y-134583395D01*
X88009409Y-134631014D01*
X87628457Y-134631014D01*
X87533219Y-134583395D01*
X87485600Y-134535776D01*
X87437980Y-134440538D01*
X87437980Y-134250061D01*
X87485600Y-134154823D01*
X87533219Y-134107204D01*
X87628457Y-134059585D01*
X87866552Y-134059585D01*
X87961790Y-134107204D01*
X88009409Y-134154823D01*
X88057028Y-134250061D01*
X88057028Y-134440538D01*
X88009409Y-134535776D01*
X87961790Y-134583395D01*
X87866552Y-134631014D01*
%TO.C,D8*%
X88514180Y-114069904D02*
X87514180Y-114069904D01*
X87514180Y-114308000D01*
X87561800Y-114450857D01*
X87657038Y-114546095D01*
X87752276Y-114593714D01*
X87942752Y-114641333D01*
X88085609Y-114641333D01*
X88276085Y-114593714D01*
X88371323Y-114546095D01*
X88466561Y-114450857D01*
X88514180Y-114308000D01*
X88514180Y-114069904D01*
X87942752Y-115212761D02*
X87895133Y-115117523D01*
X87847514Y-115069904D01*
X87752276Y-115022285D01*
X87704657Y-115022285D01*
X87609419Y-115069904D01*
X87561800Y-115117523D01*
X87514180Y-115212761D01*
X87514180Y-115403238D01*
X87561800Y-115498476D01*
X87609419Y-115546095D01*
X87704657Y-115593714D01*
X87752276Y-115593714D01*
X87847514Y-115546095D01*
X87895133Y-115498476D01*
X87942752Y-115403238D01*
X87942752Y-115212761D01*
X87990371Y-115117523D01*
X88037990Y-115069904D01*
X88133228Y-115022285D01*
X88323704Y-115022285D01*
X88418942Y-115069904D01*
X88466561Y-115117523D01*
X88514180Y-115212761D01*
X88514180Y-115403238D01*
X88466561Y-115498476D01*
X88418942Y-115546095D01*
X88323704Y-115593714D01*
X88133228Y-115593714D01*
X88037990Y-115546095D01*
X87990371Y-115498476D01*
X87942752Y-115403238D01*
%TO.C,D7*%
X88641180Y-95299304D02*
X87641180Y-95299304D01*
X87641180Y-95537400D01*
X87688800Y-95680257D01*
X87784038Y-95775495D01*
X87879276Y-95823114D01*
X88069752Y-95870733D01*
X88212609Y-95870733D01*
X88403085Y-95823114D01*
X88498323Y-95775495D01*
X88593561Y-95680257D01*
X88641180Y-95537400D01*
X88641180Y-95299304D01*
X87641180Y-96204066D02*
X87641180Y-96870733D01*
X88641180Y-96442161D01*
%TO.C,D6*%
X69387980Y-171169104D02*
X68387980Y-171169104D01*
X68387980Y-171407200D01*
X68435600Y-171550057D01*
X68530838Y-171645295D01*
X68626076Y-171692914D01*
X68816552Y-171740533D01*
X68959409Y-171740533D01*
X69149885Y-171692914D01*
X69245123Y-171645295D01*
X69340361Y-171550057D01*
X69387980Y-171407200D01*
X69387980Y-171169104D01*
X68387980Y-172597676D02*
X68387980Y-172407200D01*
X68435600Y-172311961D01*
X68483219Y-172264342D01*
X68626076Y-172169104D01*
X68816552Y-172121485D01*
X69197504Y-172121485D01*
X69292742Y-172169104D01*
X69340361Y-172216723D01*
X69387980Y-172311961D01*
X69387980Y-172502438D01*
X69340361Y-172597676D01*
X69292742Y-172645295D01*
X69197504Y-172692914D01*
X68959409Y-172692914D01*
X68864171Y-172645295D01*
X68816552Y-172597676D01*
X68768933Y-172502438D01*
X68768933Y-172311961D01*
X68816552Y-172216723D01*
X68864171Y-172169104D01*
X68959409Y-172121485D01*
%TO.C,D5*%
X69387980Y-152203044D02*
X68387980Y-152203044D01*
X68387980Y-152441140D01*
X68435600Y-152583997D01*
X68530838Y-152679235D01*
X68626076Y-152726854D01*
X68816552Y-152774473D01*
X68959409Y-152774473D01*
X69149885Y-152726854D01*
X69245123Y-152679235D01*
X69340361Y-152583997D01*
X69387980Y-152441140D01*
X69387980Y-152203044D01*
X68387980Y-153679235D02*
X68387980Y-153203044D01*
X68864171Y-153155425D01*
X68816552Y-153203044D01*
X68768933Y-153298282D01*
X68768933Y-153536378D01*
X68816552Y-153631616D01*
X68864171Y-153679235D01*
X68959409Y-153726854D01*
X69197504Y-153726854D01*
X69292742Y-153679235D01*
X69340361Y-153631616D01*
X69387980Y-153536378D01*
X69387980Y-153298282D01*
X69340361Y-153203044D01*
X69292742Y-153155425D01*
%TO.C,D4*%
X69438780Y-133272304D02*
X68438780Y-133272304D01*
X68438780Y-133510400D01*
X68486400Y-133653257D01*
X68581638Y-133748495D01*
X68676876Y-133796114D01*
X68867352Y-133843733D01*
X69010209Y-133843733D01*
X69200685Y-133796114D01*
X69295923Y-133748495D01*
X69391161Y-133653257D01*
X69438780Y-133510400D01*
X69438780Y-133272304D01*
X68772114Y-134700876D02*
X69438780Y-134700876D01*
X68391161Y-134462780D02*
X69105447Y-134224685D01*
X69105447Y-134843733D01*
%TO.C,D3*%
X69540380Y-114019104D02*
X68540380Y-114019104D01*
X68540380Y-114257200D01*
X68588000Y-114400057D01*
X68683238Y-114495295D01*
X68778476Y-114542914D01*
X68968952Y-114590533D01*
X69111809Y-114590533D01*
X69302285Y-114542914D01*
X69397523Y-114495295D01*
X69492761Y-114400057D01*
X69540380Y-114257200D01*
X69540380Y-114019104D01*
X68540380Y-114923866D02*
X68540380Y-115542914D01*
X68921333Y-115209580D01*
X68921333Y-115352438D01*
X68968952Y-115447676D01*
X69016571Y-115495295D01*
X69111809Y-115542914D01*
X69349904Y-115542914D01*
X69445142Y-115495295D01*
X69492761Y-115447676D01*
X69540380Y-115352438D01*
X69540380Y-115066723D01*
X69492761Y-114971485D01*
X69445142Y-114923866D01*
%TO.C,D2*%
X67559180Y-91819504D02*
X66559180Y-91819504D01*
X66559180Y-92057600D01*
X66606800Y-92200457D01*
X66702038Y-92295695D01*
X66797276Y-92343314D01*
X66987752Y-92390933D01*
X67130609Y-92390933D01*
X67321085Y-92343314D01*
X67416323Y-92295695D01*
X67511561Y-92200457D01*
X67559180Y-92057600D01*
X67559180Y-91819504D01*
X66654419Y-92771885D02*
X66606800Y-92819504D01*
X66559180Y-92914742D01*
X66559180Y-93152838D01*
X66606800Y-93248076D01*
X66654419Y-93295695D01*
X66749657Y-93343314D01*
X66844895Y-93343314D01*
X66987752Y-93295695D01*
X67559180Y-92724266D01*
X67559180Y-93343314D01*
%TO.C,X1*%
X100093883Y-82871620D02*
X99427217Y-83871620D01*
X99427217Y-82871620D02*
X100093883Y-83871620D01*
X98522455Y-83871620D02*
X99093883Y-83871620D01*
X98808169Y-83871620D02*
X98808169Y-82871620D01*
X98903407Y-83014478D01*
X98998645Y-83109716D01*
X99093883Y-83157335D01*
%TO.C,R18*%
X90812857Y-90442380D02*
X91146190Y-89966190D01*
X91384285Y-90442380D02*
X91384285Y-89442380D01*
X91003333Y-89442380D01*
X90908095Y-89490000D01*
X90860476Y-89537619D01*
X90812857Y-89632857D01*
X90812857Y-89775714D01*
X90860476Y-89870952D01*
X90908095Y-89918571D01*
X91003333Y-89966190D01*
X91384285Y-89966190D01*
X89860476Y-90442380D02*
X90431904Y-90442380D01*
X90146190Y-90442380D02*
X90146190Y-89442380D01*
X90241428Y-89585238D01*
X90336666Y-89680476D01*
X90431904Y-89728095D01*
X89289047Y-89870952D02*
X89384285Y-89823333D01*
X89431904Y-89775714D01*
X89479523Y-89680476D01*
X89479523Y-89632857D01*
X89431904Y-89537619D01*
X89384285Y-89490000D01*
X89289047Y-89442380D01*
X89098571Y-89442380D01*
X89003333Y-89490000D01*
X88955714Y-89537619D01*
X88908095Y-89632857D01*
X88908095Y-89680476D01*
X88955714Y-89775714D01*
X89003333Y-89823333D01*
X89098571Y-89870952D01*
X89289047Y-89870952D01*
X89384285Y-89918571D01*
X89431904Y-89966190D01*
X89479523Y-90061428D01*
X89479523Y-90251904D01*
X89431904Y-90347142D01*
X89384285Y-90394761D01*
X89289047Y-90442380D01*
X89098571Y-90442380D01*
X89003333Y-90394761D01*
X88955714Y-90347142D01*
X88908095Y-90251904D01*
X88908095Y-90061428D01*
X88955714Y-89966190D01*
X89003333Y-89918571D01*
X89098571Y-89870952D01*
%TO.C,R15*%
X118503980Y-164902142D02*
X118027790Y-164568809D01*
X118503980Y-164330714D02*
X117503980Y-164330714D01*
X117503980Y-164711666D01*
X117551600Y-164806904D01*
X117599219Y-164854523D01*
X117694457Y-164902142D01*
X117837314Y-164902142D01*
X117932552Y-164854523D01*
X117980171Y-164806904D01*
X118027790Y-164711666D01*
X118027790Y-164330714D01*
X118503980Y-165854523D02*
X118503980Y-165283095D01*
X118503980Y-165568809D02*
X117503980Y-165568809D01*
X117646838Y-165473571D01*
X117742076Y-165378333D01*
X117789695Y-165283095D01*
X117503980Y-166759285D02*
X117503980Y-166283095D01*
X117980171Y-166235476D01*
X117932552Y-166283095D01*
X117884933Y-166378333D01*
X117884933Y-166616428D01*
X117932552Y-166711666D01*
X117980171Y-166759285D01*
X118075409Y-166806904D01*
X118313504Y-166806904D01*
X118408742Y-166759285D01*
X118456361Y-166711666D01*
X118503980Y-166616428D01*
X118503980Y-166378333D01*
X118456361Y-166283095D01*
X118408742Y-166235476D01*
%TO.C,R14*%
X121135380Y-74591942D02*
X120659190Y-74258609D01*
X121135380Y-74020514D02*
X120135380Y-74020514D01*
X120135380Y-74401466D01*
X120183000Y-74496704D01*
X120230619Y-74544323D01*
X120325857Y-74591942D01*
X120468714Y-74591942D01*
X120563952Y-74544323D01*
X120611571Y-74496704D01*
X120659190Y-74401466D01*
X120659190Y-74020514D01*
X121135380Y-75544323D02*
X121135380Y-74972895D01*
X121135380Y-75258609D02*
X120135380Y-75258609D01*
X120278238Y-75163371D01*
X120373476Y-75068133D01*
X120421095Y-74972895D01*
X120468714Y-76401466D02*
X121135380Y-76401466D01*
X120087761Y-76163371D02*
X120802047Y-75925276D01*
X120802047Y-76544323D01*
%TO.C,C36*%
X95892857Y-71667142D02*
X95940476Y-71714761D01*
X96083333Y-71762380D01*
X96178571Y-71762380D01*
X96321428Y-71714761D01*
X96416666Y-71619523D01*
X96464285Y-71524285D01*
X96511904Y-71333809D01*
X96511904Y-71190952D01*
X96464285Y-71000476D01*
X96416666Y-70905238D01*
X96321428Y-70810000D01*
X96178571Y-70762380D01*
X96083333Y-70762380D01*
X95940476Y-70810000D01*
X95892857Y-70857619D01*
X95559523Y-70762380D02*
X94940476Y-70762380D01*
X95273809Y-71143333D01*
X95130952Y-71143333D01*
X95035714Y-71190952D01*
X94988095Y-71238571D01*
X94940476Y-71333809D01*
X94940476Y-71571904D01*
X94988095Y-71667142D01*
X95035714Y-71714761D01*
X95130952Y-71762380D01*
X95416666Y-71762380D01*
X95511904Y-71714761D01*
X95559523Y-71667142D01*
X94083333Y-70762380D02*
X94273809Y-70762380D01*
X94369047Y-70810000D01*
X94416666Y-70857619D01*
X94511904Y-71000476D01*
X94559523Y-71190952D01*
X94559523Y-71571904D01*
X94511904Y-71667142D01*
X94464285Y-71714761D01*
X94369047Y-71762380D01*
X94178571Y-71762380D01*
X94083333Y-71714761D01*
X94035714Y-71667142D01*
X93988095Y-71571904D01*
X93988095Y-71333809D01*
X94035714Y-71238571D01*
X94083333Y-71190952D01*
X94178571Y-71143333D01*
X94369047Y-71143333D01*
X94464285Y-71190952D01*
X94511904Y-71238571D01*
X94559523Y-71333809D01*
%TO.C,C35*%
X104497142Y-79457142D02*
X104544761Y-79409523D01*
X104592380Y-79266666D01*
X104592380Y-79171428D01*
X104544761Y-79028571D01*
X104449523Y-78933333D01*
X104354285Y-78885714D01*
X104163809Y-78838095D01*
X104020952Y-78838095D01*
X103830476Y-78885714D01*
X103735238Y-78933333D01*
X103640000Y-79028571D01*
X103592380Y-79171428D01*
X103592380Y-79266666D01*
X103640000Y-79409523D01*
X103687619Y-79457142D01*
X103592380Y-79790476D02*
X103592380Y-80409523D01*
X103973333Y-80076190D01*
X103973333Y-80219047D01*
X104020952Y-80314285D01*
X104068571Y-80361904D01*
X104163809Y-80409523D01*
X104401904Y-80409523D01*
X104497142Y-80361904D01*
X104544761Y-80314285D01*
X104592380Y-80219047D01*
X104592380Y-79933333D01*
X104544761Y-79838095D01*
X104497142Y-79790476D01*
X103592380Y-81314285D02*
X103592380Y-80838095D01*
X104068571Y-80790476D01*
X104020952Y-80838095D01*
X103973333Y-80933333D01*
X103973333Y-81171428D01*
X104020952Y-81266666D01*
X104068571Y-81314285D01*
X104163809Y-81361904D01*
X104401904Y-81361904D01*
X104497142Y-81314285D01*
X104544761Y-81266666D01*
X104592380Y-81171428D01*
X104592380Y-80933333D01*
X104544761Y-80838095D01*
X104497142Y-80790476D01*
%TO.C,C32*%
X71159642Y-84904342D02*
X71207261Y-84856723D01*
X71254880Y-84713866D01*
X71254880Y-84618628D01*
X71207261Y-84475771D01*
X71112023Y-84380533D01*
X71016785Y-84332914D01*
X70826309Y-84285295D01*
X70683452Y-84285295D01*
X70492976Y-84332914D01*
X70397738Y-84380533D01*
X70302500Y-84475771D01*
X70254880Y-84618628D01*
X70254880Y-84713866D01*
X70302500Y-84856723D01*
X70350119Y-84904342D01*
X70254880Y-85237676D02*
X70254880Y-85856723D01*
X70635833Y-85523390D01*
X70635833Y-85666247D01*
X70683452Y-85761485D01*
X70731071Y-85809104D01*
X70826309Y-85856723D01*
X71064404Y-85856723D01*
X71159642Y-85809104D01*
X71207261Y-85761485D01*
X71254880Y-85666247D01*
X71254880Y-85380533D01*
X71207261Y-85285295D01*
X71159642Y-85237676D01*
X70350119Y-86237676D02*
X70302500Y-86285295D01*
X70254880Y-86380533D01*
X70254880Y-86618628D01*
X70302500Y-86713866D01*
X70350119Y-86761485D01*
X70445357Y-86809104D01*
X70540595Y-86809104D01*
X70683452Y-86761485D01*
X71254880Y-86190057D01*
X71254880Y-86809104D01*
%TO.C,C29*%
X77541357Y-146013442D02*
X77588976Y-146061061D01*
X77731833Y-146108680D01*
X77827071Y-146108680D01*
X77969928Y-146061061D01*
X78065166Y-145965823D01*
X78112785Y-145870585D01*
X78160404Y-145680109D01*
X78160404Y-145537252D01*
X78112785Y-145346776D01*
X78065166Y-145251538D01*
X77969928Y-145156300D01*
X77827071Y-145108680D01*
X77731833Y-145108680D01*
X77588976Y-145156300D01*
X77541357Y-145203919D01*
X77160404Y-145203919D02*
X77112785Y-145156300D01*
X77017547Y-145108680D01*
X76779452Y-145108680D01*
X76684214Y-145156300D01*
X76636595Y-145203919D01*
X76588976Y-145299157D01*
X76588976Y-145394395D01*
X76636595Y-145537252D01*
X77208023Y-146108680D01*
X76588976Y-146108680D01*
X76112785Y-146108680D02*
X75922309Y-146108680D01*
X75827071Y-146061061D01*
X75779452Y-146013442D01*
X75684214Y-145870585D01*
X75636595Y-145680109D01*
X75636595Y-145299157D01*
X75684214Y-145203919D01*
X75731833Y-145156300D01*
X75827071Y-145108680D01*
X76017547Y-145108680D01*
X76112785Y-145156300D01*
X76160404Y-145203919D01*
X76208023Y-145299157D01*
X76208023Y-145537252D01*
X76160404Y-145632490D01*
X76112785Y-145680109D01*
X76017547Y-145727728D01*
X75827071Y-145727728D01*
X75731833Y-145680109D01*
X75684214Y-145632490D01*
X75636595Y-145537252D01*
%TO.C,C27*%
X77477857Y-107875342D02*
X77525476Y-107922961D01*
X77668333Y-107970580D01*
X77763571Y-107970580D01*
X77906428Y-107922961D01*
X78001666Y-107827723D01*
X78049285Y-107732485D01*
X78096904Y-107542009D01*
X78096904Y-107399152D01*
X78049285Y-107208676D01*
X78001666Y-107113438D01*
X77906428Y-107018200D01*
X77763571Y-106970580D01*
X77668333Y-106970580D01*
X77525476Y-107018200D01*
X77477857Y-107065819D01*
X77096904Y-107065819D02*
X77049285Y-107018200D01*
X76954047Y-106970580D01*
X76715952Y-106970580D01*
X76620714Y-107018200D01*
X76573095Y-107065819D01*
X76525476Y-107161057D01*
X76525476Y-107256295D01*
X76573095Y-107399152D01*
X77144523Y-107970580D01*
X76525476Y-107970580D01*
X76192142Y-106970580D02*
X75525476Y-106970580D01*
X75954047Y-107970580D01*
%TO.C,C26*%
X122683542Y-130332242D02*
X122731161Y-130284623D01*
X122778780Y-130141766D01*
X122778780Y-130046528D01*
X122731161Y-129903671D01*
X122635923Y-129808433D01*
X122540685Y-129760814D01*
X122350209Y-129713195D01*
X122207352Y-129713195D01*
X122016876Y-129760814D01*
X121921638Y-129808433D01*
X121826400Y-129903671D01*
X121778780Y-130046528D01*
X121778780Y-130141766D01*
X121826400Y-130284623D01*
X121874019Y-130332242D01*
X121874019Y-130713195D02*
X121826400Y-130760814D01*
X121778780Y-130856052D01*
X121778780Y-131094147D01*
X121826400Y-131189385D01*
X121874019Y-131237004D01*
X121969257Y-131284623D01*
X122064495Y-131284623D01*
X122207352Y-131237004D01*
X122778780Y-130665576D01*
X122778780Y-131284623D01*
X121778780Y-132141766D02*
X121778780Y-131951290D01*
X121826400Y-131856052D01*
X121874019Y-131808433D01*
X122016876Y-131713195D01*
X122207352Y-131665576D01*
X122588304Y-131665576D01*
X122683542Y-131713195D01*
X122731161Y-131760814D01*
X122778780Y-131856052D01*
X122778780Y-132046528D01*
X122731161Y-132141766D01*
X122683542Y-132189385D01*
X122588304Y-132237004D01*
X122350209Y-132237004D01*
X122254971Y-132189385D01*
X122207352Y-132141766D01*
X122159733Y-132046528D01*
X122159733Y-131856052D01*
X122207352Y-131760814D01*
X122254971Y-131713195D01*
X122350209Y-131665576D01*
%TO.C,C24*%
X65609742Y-130700542D02*
X65657361Y-130652923D01*
X65704980Y-130510066D01*
X65704980Y-130414828D01*
X65657361Y-130271971D01*
X65562123Y-130176733D01*
X65466885Y-130129114D01*
X65276409Y-130081495D01*
X65133552Y-130081495D01*
X64943076Y-130129114D01*
X64847838Y-130176733D01*
X64752600Y-130271971D01*
X64704980Y-130414828D01*
X64704980Y-130510066D01*
X64752600Y-130652923D01*
X64800219Y-130700542D01*
X64800219Y-131081495D02*
X64752600Y-131129114D01*
X64704980Y-131224352D01*
X64704980Y-131462447D01*
X64752600Y-131557685D01*
X64800219Y-131605304D01*
X64895457Y-131652923D01*
X64990695Y-131652923D01*
X65133552Y-131605304D01*
X65704980Y-131033876D01*
X65704980Y-131652923D01*
X65038314Y-132510066D02*
X65704980Y-132510066D01*
X64657361Y-132271971D02*
X65371647Y-132033876D01*
X65371647Y-132652923D01*
%TO.C,C22*%
X84583542Y-130256042D02*
X84631161Y-130208423D01*
X84678780Y-130065566D01*
X84678780Y-129970328D01*
X84631161Y-129827471D01*
X84535923Y-129732233D01*
X84440685Y-129684614D01*
X84250209Y-129636995D01*
X84107352Y-129636995D01*
X83916876Y-129684614D01*
X83821638Y-129732233D01*
X83726400Y-129827471D01*
X83678780Y-129970328D01*
X83678780Y-130065566D01*
X83726400Y-130208423D01*
X83774019Y-130256042D01*
X83774019Y-130636995D02*
X83726400Y-130684614D01*
X83678780Y-130779852D01*
X83678780Y-131017947D01*
X83726400Y-131113185D01*
X83774019Y-131160804D01*
X83869257Y-131208423D01*
X83964495Y-131208423D01*
X84107352Y-131160804D01*
X84678780Y-130589376D01*
X84678780Y-131208423D01*
X83774019Y-131589376D02*
X83726400Y-131636995D01*
X83678780Y-131732233D01*
X83678780Y-131970328D01*
X83726400Y-132065566D01*
X83774019Y-132113185D01*
X83869257Y-132160804D01*
X83964495Y-132160804D01*
X84107352Y-132113185D01*
X84678780Y-131541757D01*
X84678780Y-132160804D01*
%TO.C,C19*%
X115463557Y-107824542D02*
X115511176Y-107872161D01*
X115654033Y-107919780D01*
X115749271Y-107919780D01*
X115892128Y-107872161D01*
X115987366Y-107776923D01*
X116034985Y-107681685D01*
X116082604Y-107491209D01*
X116082604Y-107348352D01*
X116034985Y-107157876D01*
X115987366Y-107062638D01*
X115892128Y-106967400D01*
X115749271Y-106919780D01*
X115654033Y-106919780D01*
X115511176Y-106967400D01*
X115463557Y-107015019D01*
X114511176Y-107919780D02*
X115082604Y-107919780D01*
X114796890Y-107919780D02*
X114796890Y-106919780D01*
X114892128Y-107062638D01*
X114987366Y-107157876D01*
X115082604Y-107205495D01*
X114034985Y-107919780D02*
X113844509Y-107919780D01*
X113749271Y-107872161D01*
X113701652Y-107824542D01*
X113606414Y-107681685D01*
X113558795Y-107491209D01*
X113558795Y-107110257D01*
X113606414Y-107015019D01*
X113654033Y-106967400D01*
X113749271Y-106919780D01*
X113939747Y-106919780D01*
X114034985Y-106967400D01*
X114082604Y-107015019D01*
X114130223Y-107110257D01*
X114130223Y-107348352D01*
X114082604Y-107443590D01*
X114034985Y-107491209D01*
X113939747Y-107538828D01*
X113749271Y-107538828D01*
X113654033Y-107491209D01*
X113606414Y-107443590D01*
X113558795Y-107348352D01*
%TO.C,C17*%
X84672442Y-92206842D02*
X84720061Y-92159223D01*
X84767680Y-92016366D01*
X84767680Y-91921128D01*
X84720061Y-91778271D01*
X84624823Y-91683033D01*
X84529585Y-91635414D01*
X84339109Y-91587795D01*
X84196252Y-91587795D01*
X84005776Y-91635414D01*
X83910538Y-91683033D01*
X83815300Y-91778271D01*
X83767680Y-91921128D01*
X83767680Y-92016366D01*
X83815300Y-92159223D01*
X83862919Y-92206842D01*
X84767680Y-93159223D02*
X84767680Y-92587795D01*
X84767680Y-92873509D02*
X83767680Y-92873509D01*
X83910538Y-92778271D01*
X84005776Y-92683033D01*
X84053395Y-92587795D01*
X83767680Y-93492557D02*
X83767680Y-94159223D01*
X84767680Y-93730652D01*
%TO.C,C15*%
X103646242Y-130103642D02*
X103693861Y-130056023D01*
X103741480Y-129913166D01*
X103741480Y-129817928D01*
X103693861Y-129675071D01*
X103598623Y-129579833D01*
X103503385Y-129532214D01*
X103312909Y-129484595D01*
X103170052Y-129484595D01*
X102979576Y-129532214D01*
X102884338Y-129579833D01*
X102789100Y-129675071D01*
X102741480Y-129817928D01*
X102741480Y-129913166D01*
X102789100Y-130056023D01*
X102836719Y-130103642D01*
X103741480Y-131056023D02*
X103741480Y-130484595D01*
X103741480Y-130770309D02*
X102741480Y-130770309D01*
X102884338Y-130675071D01*
X102979576Y-130579833D01*
X103027195Y-130484595D01*
X102741480Y-131960785D02*
X102741480Y-131484595D01*
X103217671Y-131436976D01*
X103170052Y-131484595D01*
X103122433Y-131579833D01*
X103122433Y-131817928D01*
X103170052Y-131913166D01*
X103217671Y-131960785D01*
X103312909Y-132008404D01*
X103551004Y-132008404D01*
X103646242Y-131960785D01*
X103693861Y-131913166D01*
X103741480Y-131817928D01*
X103741480Y-131579833D01*
X103693861Y-131484595D01*
X103646242Y-131436976D01*
%TO.C,C13*%
X96692957Y-107862642D02*
X96740576Y-107910261D01*
X96883433Y-107957880D01*
X96978671Y-107957880D01*
X97121528Y-107910261D01*
X97216766Y-107815023D01*
X97264385Y-107719785D01*
X97312004Y-107529309D01*
X97312004Y-107386452D01*
X97264385Y-107195976D01*
X97216766Y-107100738D01*
X97121528Y-107005500D01*
X96978671Y-106957880D01*
X96883433Y-106957880D01*
X96740576Y-107005500D01*
X96692957Y-107053119D01*
X95740576Y-107957880D02*
X96312004Y-107957880D01*
X96026290Y-107957880D02*
X96026290Y-106957880D01*
X96121528Y-107100738D01*
X96216766Y-107195976D01*
X96312004Y-107243595D01*
X95407242Y-106957880D02*
X94788195Y-106957880D01*
X95121528Y-107338833D01*
X94978671Y-107338833D01*
X94883433Y-107386452D01*
X94835814Y-107434071D01*
X94788195Y-107529309D01*
X94788195Y-107767404D01*
X94835814Y-107862642D01*
X94883433Y-107910261D01*
X94978671Y-107957880D01*
X95264385Y-107957880D01*
X95359623Y-107910261D01*
X95407242Y-107862642D01*
%TO.C,C11*%
X122696242Y-92283042D02*
X122743861Y-92235423D01*
X122791480Y-92092566D01*
X122791480Y-91997328D01*
X122743861Y-91854471D01*
X122648623Y-91759233D01*
X122553385Y-91711614D01*
X122362909Y-91663995D01*
X122220052Y-91663995D01*
X122029576Y-91711614D01*
X121934338Y-91759233D01*
X121839100Y-91854471D01*
X121791480Y-91997328D01*
X121791480Y-92092566D01*
X121839100Y-92235423D01*
X121886719Y-92283042D01*
X122791480Y-93235423D02*
X122791480Y-92663995D01*
X122791480Y-92949709D02*
X121791480Y-92949709D01*
X121934338Y-92854471D01*
X122029576Y-92759233D01*
X122077195Y-92663995D01*
X122791480Y-94187804D02*
X122791480Y-93616376D01*
X122791480Y-93902090D02*
X121791480Y-93902090D01*
X121934338Y-93806852D01*
X122029576Y-93711614D01*
X122077195Y-93616376D01*
%TO.C,C10*%
X58173857Y-145899142D02*
X58221476Y-145946761D01*
X58364333Y-145994380D01*
X58459571Y-145994380D01*
X58602428Y-145946761D01*
X58697666Y-145851523D01*
X58745285Y-145756285D01*
X58792904Y-145565809D01*
X58792904Y-145422952D01*
X58745285Y-145232476D01*
X58697666Y-145137238D01*
X58602428Y-145042000D01*
X58459571Y-144994380D01*
X58364333Y-144994380D01*
X58221476Y-145042000D01*
X58173857Y-145089619D01*
X57221476Y-145994380D02*
X57792904Y-145994380D01*
X57507190Y-145994380D02*
X57507190Y-144994380D01*
X57602428Y-145137238D01*
X57697666Y-145232476D01*
X57792904Y-145280095D01*
X56602428Y-144994380D02*
X56507190Y-144994380D01*
X56411952Y-145042000D01*
X56364333Y-145089619D01*
X56316714Y-145184857D01*
X56269095Y-145375333D01*
X56269095Y-145613428D01*
X56316714Y-145803904D01*
X56364333Y-145899142D01*
X56411952Y-145946761D01*
X56507190Y-145994380D01*
X56602428Y-145994380D01*
X56697666Y-145946761D01*
X56745285Y-145899142D01*
X56792904Y-145803904D01*
X56840523Y-145613428D01*
X56840523Y-145375333D01*
X56792904Y-145184857D01*
X56745285Y-145089619D01*
X56697666Y-145042000D01*
X56602428Y-144994380D01*
%TO.C,C9*%
X95950066Y-146051542D02*
X95997685Y-146099161D01*
X96140542Y-146146780D01*
X96235780Y-146146780D01*
X96378638Y-146099161D01*
X96473876Y-146003923D01*
X96521495Y-145908685D01*
X96569114Y-145718209D01*
X96569114Y-145575352D01*
X96521495Y-145384876D01*
X96473876Y-145289638D01*
X96378638Y-145194400D01*
X96235780Y-145146780D01*
X96140542Y-145146780D01*
X95997685Y-145194400D01*
X95950066Y-145242019D01*
X95473876Y-146146780D02*
X95283400Y-146146780D01*
X95188161Y-146099161D01*
X95140542Y-146051542D01*
X95045304Y-145908685D01*
X94997685Y-145718209D01*
X94997685Y-145337257D01*
X95045304Y-145242019D01*
X95092923Y-145194400D01*
X95188161Y-145146780D01*
X95378638Y-145146780D01*
X95473876Y-145194400D01*
X95521495Y-145242019D01*
X95569114Y-145337257D01*
X95569114Y-145575352D01*
X95521495Y-145670590D01*
X95473876Y-145718209D01*
X95378638Y-145765828D01*
X95188161Y-145765828D01*
X95092923Y-145718209D01*
X95045304Y-145670590D01*
X94997685Y-145575352D01*
%TO.C,C7*%
X58040866Y-107646742D02*
X58088485Y-107694361D01*
X58231342Y-107741980D01*
X58326580Y-107741980D01*
X58469438Y-107694361D01*
X58564676Y-107599123D01*
X58612295Y-107503885D01*
X58659914Y-107313409D01*
X58659914Y-107170552D01*
X58612295Y-106980076D01*
X58564676Y-106884838D01*
X58469438Y-106789600D01*
X58326580Y-106741980D01*
X58231342Y-106741980D01*
X58088485Y-106789600D01*
X58040866Y-106837219D01*
X57707533Y-106741980D02*
X57040866Y-106741980D01*
X57469438Y-107741980D01*
%TO.C,C6*%
X115342966Y-146051542D02*
X115390585Y-146099161D01*
X115533442Y-146146780D01*
X115628680Y-146146780D01*
X115771538Y-146099161D01*
X115866776Y-146003923D01*
X115914395Y-145908685D01*
X115962014Y-145718209D01*
X115962014Y-145575352D01*
X115914395Y-145384876D01*
X115866776Y-145289638D01*
X115771538Y-145194400D01*
X115628680Y-145146780D01*
X115533442Y-145146780D01*
X115390585Y-145194400D01*
X115342966Y-145242019D01*
X114485823Y-145146780D02*
X114676300Y-145146780D01*
X114771538Y-145194400D01*
X114819157Y-145242019D01*
X114914395Y-145384876D01*
X114962014Y-145575352D01*
X114962014Y-145956304D01*
X114914395Y-146051542D01*
X114866776Y-146099161D01*
X114771538Y-146146780D01*
X114581061Y-146146780D01*
X114485823Y-146099161D01*
X114438204Y-146051542D01*
X114390585Y-145956304D01*
X114390585Y-145718209D01*
X114438204Y-145622971D01*
X114485823Y-145575352D01*
X114581061Y-145527733D01*
X114771538Y-145527733D01*
X114866776Y-145575352D01*
X114914395Y-145622971D01*
X114962014Y-145718209D01*
%TO.C,C5*%
X103519266Y-94057742D02*
X103566885Y-94105361D01*
X103709742Y-94152980D01*
X103804980Y-94152980D01*
X103947838Y-94105361D01*
X104043076Y-94010123D01*
X104090695Y-93914885D01*
X104138314Y-93724409D01*
X104138314Y-93581552D01*
X104090695Y-93391076D01*
X104043076Y-93295838D01*
X103947838Y-93200600D01*
X103804980Y-93152980D01*
X103709742Y-93152980D01*
X103566885Y-93200600D01*
X103519266Y-93248219D01*
X102614504Y-93152980D02*
X103090695Y-93152980D01*
X103138314Y-93629171D01*
X103090695Y-93581552D01*
X102995457Y-93533933D01*
X102757361Y-93533933D01*
X102662123Y-93581552D01*
X102614504Y-93629171D01*
X102566885Y-93724409D01*
X102566885Y-93962504D01*
X102614504Y-94057742D01*
X102662123Y-94105361D01*
X102757361Y-94152980D01*
X102995457Y-94152980D01*
X103090695Y-94105361D01*
X103138314Y-94057742D01*
%TD*%
M02*
