M48
; DRILL file {KiCad (5.1.8)-1} date 08/19/21 19:14:50
; FORMAT={-:-/ absolute / inch / decimal}
; #@! TF.CreationDate,2021-08-19T19:14:50+10:00
; #@! TF.GenerationSoftware,Kicad,Pcbnew,(5.1.8)-1
; #@! TF.FileFunction,NonPlated,1,2,NPTH
FMAT,2
INCH
T1C0.0689
T2C0.1181
T3C0.1575
%
G90
G05
T1
X4.4Y-3.86
X4.8Y-3.86
X2.9Y-5.36
X3.3Y-5.36
X2.9Y-6.86
X3.3Y-6.86
X2.9Y-4.61
X3.3Y-4.61
X2.15Y-6.11
X2.55Y-6.11
X2.15Y-4.61
X2.55Y-4.61
X3.65Y-4.61
X4.05Y-4.61
X2.15Y-5.36
X2.55Y-5.36
X3.65Y-6.11
X4.05Y-6.11
X4.4Y-6.11
X4.8Y-6.11
X2.9Y-6.11
X3.3Y-6.11
X3.65Y-5.36
X4.05Y-5.36
X2.15Y-6.86
X2.55Y-6.86
X3.65Y-6.86
X4.05Y-6.86
X4.4Y-6.86
X4.8Y-6.86
X4.4Y-4.61
X4.8Y-4.61
X4.4Y-5.36
X4.8Y-5.36
X2.9Y-3.86
X3.3Y-3.86
X2.15Y-3.86
X2.55Y-3.86
X3.65Y-3.86
X4.05Y-3.86
T2
X4.5Y-4.06
X4.75Y-3.96
X3.0Y-5.56
X3.25Y-5.46
X3.0Y-7.06
X3.25Y-6.96
X3.0Y-4.81
X3.25Y-4.71
X2.25Y-6.31
X2.5Y-6.21
X2.25Y-4.81
X2.5Y-4.71
X3.75Y-4.81
X4.0Y-4.71
X2.25Y-5.56
X2.5Y-5.46
X3.75Y-6.31
X4.0Y-6.21
X4.5Y-6.31
X4.75Y-6.21
X3.0Y-6.31
X3.25Y-6.21
X3.75Y-5.56
X4.0Y-5.46
X2.25Y-7.06
X2.5Y-6.96
X3.75Y-7.06
X4.0Y-6.96
X4.5Y-7.06
X4.75Y-6.96
X4.5Y-4.81
X4.75Y-4.71
X4.5Y-5.56
X4.75Y-5.46
X3.0Y-4.06
X3.25Y-3.96
X2.25Y-4.06
X2.5Y-3.96
X3.75Y-4.06
X4.0Y-3.96
T3
X3.85Y-3.86
X4.6Y-3.86
X3.1Y-5.36
X3.1Y-6.86
X3.1Y-4.61
X2.35Y-6.11
X2.35Y-4.61
X3.85Y-4.61
X2.35Y-5.36
X3.85Y-6.11
X4.6Y-6.11
X3.1Y-6.11
X3.85Y-5.36
X2.35Y-6.86
X3.85Y-6.86
X4.6Y-6.86
X4.6Y-4.61
X4.6Y-5.36
X3.1Y-3.86
X2.35Y-3.86
T0
M30
